<?xml version="1.0" encoding="UTF-8"?>
<svg viewBox="0 0 60 40" xmlns="http://www.w3.org/2000/svg">
  <path
    d="M39.9882 3.1305e-05C36.4787 -0.0022913 33.0315 0.929542 30 2.70004C26.9638 0.936713 23.5172 0.00542695 20.0071 3.1305e-05C16.497 -0.00536434 13.0475 0.915294 10.0059 2.66928C6.96433 4.42326 4.43802 6.94868 2.68144 9.99117C0.92485 13.0337 0 16.4858 0 20C0 23.5142 0.92485 26.9664 2.68144 30.0088C4.43802 33.0513 6.96433 35.5767 10.0059 37.3307C13.0475 39.0847 16.497 40.0054 20.0071 40C23.5172 39.9946 26.9638 39.0633 30 37.3C32.6533 38.8409 35.6254 39.7494 38.6858 39.9551C41.7463 40.1607 44.8129 39.658 47.6481 38.4859C50.4832 37.3138 53.0107 35.5037 55.0346 33.1961C57.0584 30.8885 58.5243 28.1452 59.3186 25.179C60.1129 22.2128 60.2143 19.1033 59.6148 16.0915C59.0154 13.0797 57.7313 10.2467 55.862 7.81185C53.9928 5.37701 51.5886 3.40581 48.8358 2.05111C46.083 0.696421 43.0556 -0.00540174 39.9882 3.1305e-05V3.1305e-05ZM5.0295 20C5.03168 17.5445 5.63597 15.127 6.78929 12.9599C7.94262 10.7927 9.60969 8.94219 11.6442 7.57076C13.6787 6.19934 16.0184 5.34896 18.4578 5.09426C20.8972 4.83957 23.3618 5.18836 25.6352 6.11001C22.0289 9.83235 20.0121 14.8143 20.0121 20C20.0121 25.1857 22.0289 30.1677 25.6352 33.89C23.3618 34.8117 20.8972 35.1604 18.4578 34.9057C16.0184 34.6511 13.6787 33.8007 11.6442 32.4292C9.60969 31.0578 7.94262 29.2073 6.78929 27.0402C5.63597 24.873 5.03168 22.4556 5.0295 20V20Z"
  />
</svg>
