<?xml version="1.0" encoding="UTF-8"?>
<svg viewBox="0 0 60 40" xmlns="http://www.w3.org/2000/svg">
  <path
    d="M57.8393 14.7702L45.2296 2.16057C43.8408 0.776874 41.9602 0 39.9998 0C38.0393 0 36.1587 0.776874 34.7699 2.16057L30 6.94044L25.2301 2.16057C23.8413 0.776874 21.9607 0 20.0002 0C18.0398 0 16.1592 0.776874 14.7704 2.16057L2.16065 14.7702C0.776943 16.159 0 18.0395 0 20C0 21.9605 0.776943 23.841 2.16065 25.2298L14.7704 37.8394C16.1592 39.2231 18.0398 40 20.0002 40C21.9607 40 23.8413 39.2231 25.2301 37.8394L30 33.0596L34.7699 37.8394C36.1587 39.2231 38.0393 40 39.9998 40C41.9602 40 43.8408 39.2231 45.2296 37.8394L57.8393 25.2298C59.2231 23.841 60 21.9605 60 20C60 18.0395 59.2231 16.159 57.8393 14.7702V14.7702ZM21.6902 34.2995C21.4683 34.5214 21.2048 34.6975 20.9148 34.8176C20.6249 34.9377 20.3141 34.9995 20.0002 34.9995C19.6864 34.9995 19.3756 34.9377 19.0856 34.8176C18.7957 34.6975 18.5322 34.5214 18.3103 34.2995L5.70057 21.6899C5.47863 21.468 5.30259 21.2045 5.18248 20.9146C5.06237 20.6246 5.00055 20.3139 5.00055 20C5.00055 19.6861 5.06237 19.3754 5.18248 19.0854C5.30259 18.7955 5.47863 18.532 5.70057 18.3101L18.3103 5.70049C18.5322 5.47856 18.7957 5.30249 19.0856 5.18238C19.3756 5.06227 19.6864 5.0005 20.0002 5.0005C20.3141 5.0005 20.6249 5.06227 20.9148 5.18238C21.2048 5.30249 21.4683 5.47856 21.6902 5.70049L26.4601 10.4703L22.1602 14.7702C20.7765 16.159 19.9995 18.0395 19.9995 20C19.9995 21.9605 20.7765 23.841 22.1602 25.2298L26.4601 29.5297L21.6902 34.2995Z"
  />
</svg>
