<?xml version="1.0" encoding="UTF-8"?>
<svg viewBox="0 0 60 40" xmlns="http://www.w3.org/2000/svg">
  <path
    d="M13.8883 33.7891C10.3278 33.7891 6.76724 32.4389 4.06684 29.7285C-1.35395 24.3077 -1.35395 15.4964 4.05684 10.0756C9.47763 4.6548 18.2889 4.6548 23.7097 10.0756L39.8221 26.1879C43.2926 29.6584 48.9334 29.6584 52.4039 26.1879C55.8744 22.7174 55.8744 17.0766 52.4039 13.6061C48.9334 10.1356 43.2926 10.1356 39.8221 13.6061C38.8419 14.5863 37.2617 14.5863 36.2815 13.6061C35.3014 12.626 35.3014 11.0457 36.2815 10.0656C41.7023 4.6448 50.5136 4.6448 55.9344 10.0656C61.3552 15.4864 61.3552 24.2977 55.9344 29.7185C50.5136 35.1392 41.7023 35.1392 36.2815 29.7185L20.1792 13.6161C16.7087 10.1556 11.0679 10.1456 7.59736 13.6161C4.12685 17.0866 4.12685 22.7274 7.59736 26.1979C11.0679 29.6684 16.7087 29.6684 20.1792 26.1979C21.1593 25.2178 22.7396 25.2178 23.7197 26.1979C24.6999 27.1781 24.6999 28.7583 23.7197 29.7385C21.0093 32.4489 17.4488 33.7991 13.8983 33.7991L13.8883 33.7891Z"
  />
</svg>
