<?xml version="1.0" encoding="UTF-8"?>
<svg viewBox="0 0 60 40" xmlns="http://www.w3.org/2000/svg">
  <path
    d="M55.9527 11.2429H47.0087V4.24121C47.0155 3.40971 46.7751 2.59496 46.318 1.90062C45.8609 1.20627 45.2077 0.663704 44.4417 0.34198C43.6756 0.0202565 42.8312 -0.0660932 42.0159 0.0939036C41.2007 0.2539 40.4514 0.653022 39.8634 1.24048L29.97 11.1329L20.1366 1.24048C19.7568 0.847533 19.3017 0.535204 18.7986 0.322108C18.2955 0.109013 17.7547 -0.00047078 17.2085 0.000191914C16.6549 -0.00511722 16.1059 0.0997773 15.5931 0.308769C15.0804 0.517761 14.6142 0.826662 14.2218 1.21756C13.8294 1.60846 13.5185 2.07354 13.3073 2.58575C13.096 3.09796 12.9887 3.64707 12.9913 4.20119V11.2029H3.99733C2.93717 11.2029 1.92049 11.6244 1.17085 12.3747C0.421204 13.1251 0 14.1427 0 15.2039V24.8062C0 25.8673 0.421204 26.885 1.17085 27.6353C1.92049 28.3856 2.93717 28.8072 3.99733 28.8072H12.9913V35.8089C12.9913 36.3618 13.1006 36.9092 13.3129 37.4197C13.5252 37.9301 13.8363 38.3935 14.2283 38.783C14.6203 39.1726 15.0855 39.4807 15.597 39.6895C16.1085 39.8984 16.6561 40.0039 17.2085 39.9999C17.7538 40.0002 18.2937 39.8915 18.7965 39.6802C19.2993 39.4689 19.7549 39.1594 20.1366 38.7696L30.02 28.8672L39.9134 38.7696C40.5014 39.357 41.2507 39.7562 42.0659 39.9162C42.8812 40.0762 43.7255 39.9898 44.4916 39.6681C45.2576 39.3464 45.9109 38.8038 46.368 38.1095C46.8251 37.4151 47.0654 36.6004 47.0586 35.7689V28.7672H56.0027C57.0628 28.7672 58.0795 28.3456 58.8292 27.5953C59.5788 26.845 60 25.8273 60 24.7662V15.1639C59.979 14.108 59.5417 13.1032 58.7835 12.3687C58.0253 11.6342 57.0077 11.2295 55.9527 11.2429V11.2429ZM17.978 33.8784V23.876H4.98666V16.2441H17.978V6.14167L26.4823 14.6537L24.1039 17.0243C23.3204 17.8101 22.8804 18.8749 22.8804 19.985C22.8804 21.0952 23.3204 22.16 24.1039 22.9458L26.4823 25.3263L17.978 33.8784Z"
  />
</svg>
