<svg width="100" height="100" viewBox="0 0 100 100" fill="none" xmlns="http://www.w3.org/2000/svg">
  <rect width="100" height="100" fill="white" />
  <rect width="100" height="100" fill="white" />
  <path
    d="M30.7165 53.5678L32.685 38.783L15.611 26.9341L31.2113 32.2167L34.8955 26.5658L48.3484 18.2211L78.0016 34.5528L79.5385 59.4712L66.3277 77.8233L55.8854 79.4228L61.2855 69.5417V60.0289L57.3591 52.5997L53.3696 49.9584L47.2326 56.2828V62.9754L42.443 67.4582L36.3587 68.1948L33.6639 69.7206L29.2428 68.3105L27.4007 61.6811L30.7165 57.0194V53.5678Z"
    fill="white"
  />
  <path
    d="M57.9801 26.8078C54.7274 26.1344 51.1695 26.3133 51.1695 26.3133C51.1695 26.3133 50.001 31.7115 42.7588 33.1321C42.8114 33.1321 52.3274 36.3838 57.9801 26.8078Z"
    fill="#94A6C3"
  />
  <path
    d="M60.9273 75.7924C64.8537 72.7197 67.8011 68.4894 69.1591 63.7015C69.2222 63.5226 69.7696 63.2069 70.138 62.9649C70.7486 62.5966 71.3696 62.2914 71.4854 61.7968C71.7275 60.3867 71.8539 58.9135 71.8539 57.4403C71.8539 56.8931 71.2959 56.3354 70.7486 55.7882C70.317 55.4199 69.8854 54.9884 69.8854 54.6833C69.2749 49.0956 66.6959 43.8762 62.58 40.0774L62.1484 40.5088C66.138 44.255 68.7169 49.3481 69.2749 54.7464C69.338 55.241 69.8222 55.7251 70.317 56.2196C70.7486 56.5879 71.2433 57.1457 71.2433 57.3877C71.2433 58.7978 71.117 60.2078 70.8749 61.6179C70.8117 61.86 70.2643 62.1125 69.8328 62.3545C69.2222 62.6597 68.6643 62.9649 68.5485 63.4594C67.0748 68.6789 63.6958 73.2248 59.2115 76.1712C60.0115 74.456 62.5274 68.8683 63.8748 66.0376L63.6326 56.9562L55.8325 49.4113L51.4114 50.0216L46.5586 57.8823C46.5586 57.8823 48.8324 60.7656 45.6323 64.1434C42.5059 67.4582 40.0427 68.1948 40.0427 68.1948L37.769 66.9636C38.4427 66.1007 39.8006 64.8169 40.8427 63.954C42.6217 62.4808 44.4007 62.3545 44.4007 60.7656C44.4744 57.4403 40.9059 58.3558 40.9059 58.3558L39.6111 59.587L39.0638 64.1329L36.369 67.5108L36.0637 67.4477L31.6426 66.469C31.6426 66.469 34.3479 65.0589 34.7795 63.4594C35.2111 61.9231 33.9163 56.83 33.8531 56.5248C33.9163 56.5879 35.1479 57.6297 35.6953 59.345C36.6743 56.6405 37.969 54.0624 38.3374 53.8204C38.7059 53.5784 43.6744 50.9371 43.6744 50.9371L42.0217 55.2936L43.2533 54.6201L46.2007 47.3803C46.2007 47.3803 49.085 45.9702 51.2324 45.9702C55.0956 45.9071 60.8115 41.1823 58.2325 32.7113C58.9694 33.0164 71.7381 39.4039 73.9486 51.9263C75.6013 61.5548 70.138 70.573 60.9273 75.7924Z"
    fill="#94A6C3"
  />
  <path
    d="M46.3164 28.1548C47.7269 26.4922 47.1795 24.0403 47.1795 24.0403L43.0637 30.1226C43.0005 30.1226 44.5268 30.1857 46.3164 28.1548Z"
    fill="#1B314F"
  />
  <path
    d="M32.4954 61.3654L32.9901 58.9135C32.9901 58.9135 30.9585 62.4703 30.7796 62.9649C30.5901 63.5226 30.9059 64.5012 31.6954 64.4381C32.4954 64.3749 33.4744 63.2069 33.4744 62.3545C33.4744 61.2496 32.4954 61.3654 32.4954 61.3654Z"
    fill="#1B314F"
  />
  <path
    d="M68.9695 22.3251C68.9695 22.3251 72.0433 22.4513 75.2328 22.8196C68.0432 17.1688 61.2326 15.5167 55.7061 15.5167C48.0955 15.5167 42.9375 18.6525 42.6217 18.8314L45.0217 15.0221C45.0217 15.0221 35.4426 14.0961 32.0636 24.2297C31.2004 22.083 30.4109 18.9472 30.4109 18.9472C30.4109 18.9472 25.4319 23.3142 27.7688 30.554C22.0529 28.4705 13.8948 25.5767 13.5791 25.5241C13.1475 25.4609 13.0211 25.6503 13.0211 25.6503C13.0211 25.6503 12.8948 25.8292 13.2633 26.1449C13.9475 26.6816 26.8425 36.2049 29.6741 38.0464C29.0635 40.2562 29.0635 41.298 29.6741 42.3398C30.5373 43.7499 30.5899 44.4865 30.4741 45.5283C30.3478 46.57 29.2425 55.5988 29.0004 56.7037C28.7583 57.8086 26.1793 61.7337 26.2951 62.9017C26.4214 64.0698 28.0109 69.0366 29.432 69.5943C30.4741 69.9626 33.0531 70.7624 34.7689 70.7624C35.3795 70.7624 35.9374 70.6361 36.1795 70.3941C37.2216 69.4786 37.5269 69.2892 38.2637 69.2892C38.3269 69.2892 38.39 69.2892 38.4427 69.2892C38.7479 69.2892 39.1164 69.3523 39.548 69.3523C40.5269 69.3523 41.8217 69.1629 42.7375 68.3105C44.0849 66.9636 46.4218 65.1221 47.1586 64.2592C48.085 63.0911 48.5692 61.5022 48.3271 59.9027C48.1376 58.4295 48.9376 57.1351 49.8639 55.8513C51.0324 54.315 53.1798 51.5579 53.1798 51.5579C57.422 54.7359 60.0641 59.587 60.0641 64.9853C60.0641 74.5612 51.7166 82.2956 41.4006 82.2956C39.8006 82.2956 38.2742 82.1167 36.7374 81.7484C41.4638 83.4005 45.4533 83.9582 48.7165 83.9582C55.6535 83.9582 59.3378 81.4432 59.3378 81.4432C59.3378 81.4432 58.0536 83.1059 55.9588 85C56.0219 85 56.0219 85 56.0219 85C67.5064 83.4005 73.0959 73.9509 73.0959 73.9509C73.0959 73.9509 72.6644 77.0236 72.117 79.1071C87.3909 67.6265 84.812 53.2627 84.7488 52.7786C84.8751 52.9575 86.412 54.799 87.2015 55.7882C89.6647 30.4909 68.9695 22.3251 68.9695 22.3251ZM45.4533 62.7228C45.2112 63.028 44.1691 63.954 43.4322 64.6275C42.6954 65.301 41.8954 65.9744 41.2848 66.5953C41.0427 66.8373 40.548 66.9636 39.8111 66.9636C39.569 66.9636 39.3164 66.9636 39.1374 66.9636C39.0111 66.9636 38.8953 66.9636 38.769 66.9636C38.6427 66.9636 38.5795 66.9636 38.5269 66.9636C38.3374 66.9636 38.1585 66.9636 37.969 66.9636C38.8953 65.7324 41.5901 62.9122 42.5164 62.3019C43.6217 61.5653 44.1796 60.8287 43.4954 59.5449C42.8217 58.2506 41.0427 58.5662 41.0427 58.5662C41.0427 58.5662 42.0848 58.1348 43.0112 58.1348C41.8427 57.8296 40.369 58.1348 39.6953 58.8083C38.9585 59.4817 39.0848 61.881 38.7795 63.4068C38.4742 65.0063 37.4321 65.8061 35.8321 67.2793C34.9689 68.079 34.3584 68.3211 33.8636 68.3211C32.8215 68.1422 31.5899 67.8265 30.7267 67.5213C30.1162 66.7216 29.1899 64.0803 28.9478 62.9754C29.1267 62.365 29.8636 61.0707 30.232 60.3341C30.9688 58.924 31.4004 58.1243 31.5268 57.3877C31.7689 56.3459 32.5689 49.8953 32.8741 47.2014C33.6742 48.2432 34.7794 49.969 34.5268 51.0739C36.3058 48.5589 35.0216 46.0965 34.4005 45.1179C33.8531 44.1392 33.1163 42.1714 33.7268 40.0879C34.3373 38.0043 36.5479 32.2272 36.5479 32.2272C36.5479 32.2272 37.2848 33.5215 38.3269 33.269C39.369 33.0269 47.7797 20.3783 47.7797 20.3783C47.7797 20.3783 50.0534 25.3452 47.6534 28.9756C45.2007 32.5955 42.8006 33.269 42.8006 33.269C42.8006 33.269 46.1797 33.8793 49.306 31.6063C50.5903 34.6159 51.8219 37.7412 51.885 38.1727C51.6955 38.6041 49.2429 44.497 49.0008 44.8653C48.8744 44.9916 48.0218 45.2336 47.4007 45.3599C46.3586 45.6651 45.7481 45.8545 45.4954 46.0334C45.0638 46.4017 43.0954 51.8 42.1796 54.4412C41.0743 54.7464 39.969 55.3673 39.169 56.5879C39.6006 56.2828 40.948 56.0933 41.9375 55.9776C42.8006 55.9145 45.4323 57.3245 46.1165 59.9658C46.1165 60.0289 46.1165 60.0289 46.1165 60.0921C46.2533 61.0602 45.9481 61.9862 45.4533 62.7228ZM39.6848 63.4594C40.2427 62.6597 40.1795 61.3127 40.2427 60.8813C40.3059 60.4499 40.4217 59.6501 40.9164 59.5344C41.4111 59.4081 42.5796 59.5975 42.5796 60.4499C42.5796 61.2496 41.7164 61.4285 41.1059 61.9862C40.6638 62.4071 39.8006 63.3332 39.6848 63.4594ZM64.18 51.7263C64.7905 48.601 64.8537 45.8966 64.6747 43.6867C67.0643 46.8752 68.538 50.7477 68.9695 54.7359C69.0327 55.2305 69.5169 55.7145 70.0117 56.2091C70.4433 56.5774 70.938 57.072 70.938 57.3772C70.938 58.7872 70.8117 60.1973 70.5696 61.6179C70.5064 61.7968 69.959 62.1125 69.5275 62.3545C68.9169 62.6597 68.359 62.9649 68.2432 63.4594C66.8958 68.1843 64.001 72.3619 60.1378 75.3083C65.8432 69.3523 68.6011 59.5238 64.18 51.7263ZM60.3168 75.8555C64.3063 72.7828 67.38 68.4894 68.7274 63.6383C68.7906 63.4594 69.338 63.1437 69.7064 62.9017C70.3169 62.5966 70.938 62.2282 71.0538 61.7337C71.2959 60.3236 71.4222 58.8504 71.4222 57.3772C71.4222 56.83 70.8643 56.2722 70.3169 55.725C70.0117 55.3567 69.5169 54.9253 69.5169 54.6201C69.0222 50.1373 67.2432 45.9071 64.4853 42.4029C63.2537 35.0368 58.3483 32.7639 58.222 32.7007C58.3483 32.8901 61.5378 37.4887 59.3273 42.887C57.0535 48.3484 51.2219 47.4961 50.7271 47.5487C50.2324 47.5487 48.3376 50.0005 45.9375 54.5465C45.6323 54.4202 44.3375 54.115 42.8638 54.3676C43.9691 51.2949 45.6323 46.9383 45.9375 46.57C46.0639 46.4438 46.9797 46.2017 47.6007 46.0228C48.7692 45.7177 49.3166 45.5283 49.506 45.2862C49.6324 45.0968 50.2429 43.6867 50.8534 42.2135C51.4113 42.2135 52.8219 42.0872 52.9377 42.0241C53.064 41.8978 54.2324 38.8988 54.2324 38.5305C54.2324 38.2253 51.8324 32.2693 50.9166 29.9963C51.3482 29.5017 51.7798 28.8914 52.2008 28.2179C64.7905 29.5754 74.6223 40.2562 74.6223 53.1995C74.6223 63.1437 68.7906 71.8042 60.3168 75.8555Z"
    fill="#1B314F"
  />
  <path
    d="M43.9797 42.7081C45.1481 41.3611 44.5376 38.8461 42.3797 38.4147C42.9376 37.1309 43.7271 34.5528 43.7271 34.5528C43.7271 34.5528 37.4638 44.3707 36.9164 44.5601C36.3585 44.7495 35.8111 42.5923 35.8111 42.5923C34.6427 47.0751 37.7796 47.6855 38.148 46.2754C39.8638 45.8334 42.8113 43.9919 43.9797 42.7081Z"
    fill="#1B314F"
  />
  <path
    d="M38.6322 45.0968L41.8217 39.6354C41.8217 39.6354 43.6639 40.5614 42.7375 42.0346C41.5796 43.7499 38.6322 45.0968 38.6322 45.0968Z"
    fill="#FFD923"
  />
  <path
    d="M78.1176 70.3941C77.1913 71.6252 76.1492 72.909 74.9281 74.1402C82.844 58.9135 75.2965 44.981 74.9913 44.4338C75.5492 44.9916 76.0965 45.6019 76.5913 46.1491C82.6651 52.8943 83.4019 63.028 78.1176 70.3941Z"
    fill="#D82122"
  />
  <path
    d="M85.4856 50.8108C82.7172 43.3816 78.7908 37.0572 70.138 31.3538C61.7905 25.8292 52.8219 26.2607 52.3271 26.3238C52.264 26.3238 52.2008 26.3238 52.2008 26.3238C52.5061 26.1975 52.8113 26.1344 53.1166 26.0818C55.0219 25.4714 57.4746 24.9768 59.9378 24.6717C66.4537 23.7351 73.0222 25.945 77.5065 30.6803C77.5697 30.7434 77.5697 30.7434 77.6329 30.8066C82.7277 36.2049 85.3698 42.9501 85.4856 50.8108Z"
    fill="#D82122"
  />
  <path
    d="M68.1698 20.4204C59.0223 18.7052 53.1275 19.5575 48.8853 21.157C48.759 20.6624 48.3274 19.6838 47.9589 18.884C46.6852 20.4204 45.3273 22.2619 44.4747 23.43C42.1378 25.0295 41.1588 26.5658 41.1588 26.5658C42.5062 21.9568 46.4431 18.5263 51.2327 17.6634C52.5801 17.4214 54.0538 17.2951 55.6538 17.2951C59.8855 17.3582 64.1171 18.4 68.1698 20.4204Z"
    fill="#D82122"
  />
  <path
    d="M34.3375 32.2062C27.1584 31.9641 29.5479 23.6089 29.6742 23.1248C29.6742 23.188 30.1585 29.6912 34.3375 32.2062Z"
    fill="#D82122"
  />
  <path
    d="M41.4004 17.1688C35.874 20.4835 36.9793 28.3968 36.9793 28.3968C31.695 20.3678 40.9688 17.3582 41.4004 17.1688Z"
    fill="#D82122"
  />
  <path
    d="M32.3164 34.416C32.6848 34.7211 33.0532 35.2788 32.6216 36.0786C32.3795 36.51 32.0111 36.4469 31.4532 36.2049C30.7163 35.8366 26.2952 33.2584 22.3057 30.6172C26.8531 32.2167 31.4532 33.9319 32.1901 34.3002C32.1901 34.3002 32.2532 34.3633 32.3164 34.416Z"
    fill="white"
  />
</svg>
