<svg width="100" height="100" viewBox="0 0 100 100" fill="none" xmlns="http://www.w3.org/2000/svg">
  <rect width="100" height="100" fill="url(#paint0_linear_2_2076)" />
  <path
    d="M72.6181 70.5467L55.1076 28.2533C54.12 26.0667 52.6519 25 50.7166 25H49.1684C47.2332 25 45.7651 26.0667 44.7775 28.2533L37.1566 46.68H31.391C29.6693 46.6933 28.2679 48.08 28.2546 49.8133V49.8533C28.2679 51.5733 29.6693 52.9733 31.391 52.9867H34.4874L27.2135 70.5467C27.0801 70.9333 27 71.3333 27 71.7467C27 72.7333 27.307 73.5067 27.8542 74.1067C28.4014 74.7067 29.1888 75 30.1765 75C30.8304 74.9867 31.4577 74.7867 31.9782 74.4C32.5388 74.0133 32.9258 73.4533 33.2328 72.8133L41.2407 52.9733H46.7928C48.5145 52.96 49.9158 51.5733 49.9292 49.84V49.76C49.9158 48.04 48.5145 46.64 46.7928 46.6267H43.8299L49.9425 31.4133L66.5989 72.8C66.9059 73.44 67.2929 74 67.8534 74.3867C68.374 74.7733 69.0146 74.9733 69.6552 74.9867C70.6428 74.9867 71.4169 74.6933 71.9775 74.0933C72.538 73.4933 72.8317 72.72 72.8317 71.7333C72.845 71.3333 72.7783 70.92 72.6181 70.5467Z"
    fill="white"
  />
  <defs>
    <linearGradient
      id="paint0_linear_2_2076"
      x1="87.2793"
      y1="18.6323"
      x2="12.8793"
      y2="81.2323"
      gradientUnits="userSpaceOnUse"
    >
      <stop stop-color="#B6509E" />
      <stop offset="1" stop-color="#2EBAC6" />
    </linearGradient>
  </defs>
</svg>
