<svg width="100" height="100" viewBox="0 0 100 100" fill="none" xmlns="http://www.w3.org/2000/svg">
  <rect width="100" height="100" fill="white" />
  <rect width="100" height="100" fill="#0E1116" />
  <path
    fill-rule="evenodd"
    clip-rule="evenodd"
    d="M49.0027 7.00633C25.7125 7.53644 6.99523 26.5824 6.99523 50C6.99523 73.4176 25.7125 92.4636 49.0027 92.9937L49.0026 85.3769L36.1351 75.1869H20.1626C19.8063 75.1869 19.4771 74.9969 19.2989 74.6884C19.1207 74.3799 19.1205 73.9997 19.2985 73.6911L23.9846 65.5648L19.3951 61.9303C19.1562 61.7411 19.0169 61.4531 19.0169 61.1483L19.0168 38.9992C19.0168 38.6944 19.1561 38.4064 19.3951 38.2172L49.0024 14.7708L49.0027 7.00633ZM50.9977 7.00633L50.9974 14.7708L80.6047 38.2172C80.8437 38.4064 80.983 38.6944 80.983 38.9992L80.9833 61.1483C80.9833 61.4524 80.8446 61.74 80.6065 61.9292L76.0181 65.5764L80.7019 73.6907C80.8801 73.9993 80.8801 74.3796 80.7019 74.6882C80.5237 74.9968 80.1944 75.1869 79.838 75.1869H63.8904L50.9976 85.3772L50.9977 92.9937C74.288 92.4636 93.0053 73.4176 93.0053 50C93.0053 26.5824 74.288 7.53639 50.9977 7.00633ZM50.9976 82.8344L60.6732 75.1869H50.9975L50.9976 82.8344ZM50.9975 73.1919H63.5371C63.5411 73.1919 63.5451 73.1919 63.5492 73.1919H78.1105L50.0008 24.4944L35.3686 49.8716L50.6186 61.9332C50.8578 62.1224 50.9973 62.4106 50.9973 62.7156L50.9975 73.1919ZM33.7871 48.6207L49.1362 22C49.3142 21.6912 49.6436 21.5009 50.0001 21.5008C50.3566 21.5007 50.686 21.6909 50.8642 21.9996L66.2217 48.6051L78.3777 38.9984L49.9999 16.5256L21.6217 38.9987L33.7871 48.6207ZM21.0118 41.0599L49.0024 63.1984L49.0026 82.8321L37.1586 73.4526C37.1239 73.421 37.087 73.3918 37.0482 73.3652L21.0119 60.6659L21.0118 41.0599ZM33.6159 73.1919L25.5656 66.8168L21.8893 73.1919H33.6159ZM78.988 41.0589L67.2297 50.3513L75.0097 63.8295L78.9883 60.667L78.988 41.0589ZM5.00024 50C5.00024 25.1472 25.1474 5 50.0002 5C74.8531 5 95.0003 25.1472 95.0003 50C95.0003 74.8528 74.8531 95 50.0002 95C25.1474 95 5.00024 74.8528 5.00024 50Z"
    fill="#F5C09A"
  />
</svg>
