<svg width="100" height="100" viewBox="0 0 100 100" fill="none" xmlns="http://www.w3.org/2000/svg">
  <rect width="100" height="100" fill="white" />
  <rect width="100" height="100" fill="white" />
  <path
    d="M21.0389 76C20.9974 75.1665 20.9835 74.333 21.0251 73.4994C21.302 73.4161 21.5789 73.3605 21.8697 73.3188C22.7004 73.1799 23.5312 72.9715 24.3343 72.7354C24.5558 72.6659 24.7773 72.5825 24.9989 72.4992C26.065 72.0824 27.0065 71.3878 27.7265 70.4987C28.225 69.8736 28.6542 69.1929 29.028 68.4844C29.5542 67.5119 30.0111 66.4978 30.4265 65.4698C31.2572 63.386 32.088 61.316 32.9049 59.2322C35.7295 52.0639 38.554 44.8956 41.3786 37.7273C44.0509 30.9062 46.6816 24.0852 49.257 17.2225C49.3123 17.0836 49.3677 16.9447 49.4231 16.8057C50.3785 16.5418 51.3062 16.2639 52.2754 16C52.3308 16.1389 52.3861 16.2639 52.4277 16.389C53.5215 19.4452 54.6153 22.5015 55.6953 25.5717C59.4199 36.0046 63.1444 46.4237 66.9659 56.815C68.0182 59.649 69.0705 62.4969 70.1367 65.3309C70.552 66.4839 71.0505 67.6231 71.6182 68.7066C71.8674 69.179 72.1305 69.6235 72.4212 70.0681C73.3074 71.4573 74.6781 72.4436 76.2704 72.8604C77.1289 73.0827 77.9873 73.2633 78.8734 73.3744L79.4965 73.4716C79.5796 73.7495 79.538 74.0134 79.538 74.2774C79.538 74.5413 79.538 74.847 79.538 75.1248C79.5519 75.4026 79.538 75.6666 79.5242 75.9444C79.4411 75.9583 79.3719 75.9722 79.2888 75.9861C79.1919 75.9861 79.095 75.9861 78.9981 75.9861H57.3845C57.3568 75.9444 57.343 75.8889 57.3292 75.8333C57.3292 75.0831 57.3292 74.333 57.3292 73.5828C57.3292 73.555 57.343 73.5133 57.3568 73.4855C57.5368 73.43 57.7168 73.4022 57.9107 73.3744C58.8107 73.2494 59.6968 73.0827 60.5829 72.8465C60.9291 72.7493 61.2891 72.6242 61.6214 72.4853C61.7875 72.4158 61.9537 72.3325 62.1198 72.2352C62.9921 71.749 63.3383 70.985 63.2552 70.0125C63.2137 69.568 63.1444 69.1373 63.0198 68.7066C62.8398 68.0398 62.6045 67.3869 62.3829 66.7479C57.8414 54.0366 53.3554 41.3114 48.9108 28.5585C48.8693 28.4195 48.8416 28.2667 48.7031 28.1417C48.6616 28.1695 48.5924 28.1973 48.5647 28.2251C48.5231 28.2945 48.4954 28.364 48.4816 28.4334C46.3078 34.6988 43.9955 40.9224 41.6971 47.1322C39.994 51.7305 38.291 56.3427 36.7125 60.9826C36.0756 62.8442 35.4664 64.7196 34.871 66.5951C34.6356 67.3174 34.4695 68.0537 34.3587 68.79C34.2757 69.2901 34.2618 69.7902 34.3172 70.3042C34.3864 70.9572 34.7326 71.5545 35.2726 71.9435C35.6187 72.1936 36.0064 72.3881 36.4218 72.527C37.0725 72.7631 37.7371 72.9298 38.4156 73.041C39.1633 73.1799 39.911 73.291 40.6725 73.4022C40.7279 73.4161 40.7694 73.4161 40.8386 73.43C40.8525 73.4855 40.8663 73.5411 40.8802 73.5967C40.8802 74.3191 40.8802 75.0553 40.8802 75.7777C40.8802 75.8194 40.8663 75.8611 40.8525 75.9028C40.7832 75.9167 40.714 75.9305 40.6448 75.9305C40.5479 75.9305 40.4509 75.9305 40.354 75.9305L21.0389 76Z"
    fill="black"
  />
</svg>
