<svg width="100" height="100" viewBox="0 0 100 100" fill="none" xmlns="http://www.w3.org/2000/svg">
  <rect width="100" height="100" fill="#E6FDFF" />
  <path
    d="M89.0625 46.6875C89.4062 39.4843 84.375 34.7031 78.6875 31.4218L75 53.125C75.7613 53.0192 76.5365 53.0789 77.2727 53.3C78.0088 53.5211 78.6886 53.8984 79.2656 54.4062C79.9268 55.0549 80.322 55.927 80.3741 56.8518C80.4261 57.7766 80.1311 58.6875 79.5469 59.4062C83.1094 58.8125 88.6562 55.3906 89.0625 46.6875Z"
    fill="url(#paint0_linear_2_26458)"
  />
  <path
    fill-rule="evenodd"
    clip-rule="evenodd"
    d="M40.625 21.4531L36.25 17.0312C42.875 16.2187 60.3594 17.25 77.2812 27.8594C77.4361 28.8062 77.4361 29.7719 77.2812 30.7187L78.7031 31.4375C79.8398 33.323 80.5884 35.4165 80.9051 37.5952C81.2217 39.7739 81.0999 41.994 80.5469 44.125C79.0781 50 76.5625 52.5937 75.4375 53.125C73.1719 53.125 69.3125 54.4375 68.0625 60.25C66.8125 66.0625 64.4063 67.3281 63.375 67.2344L38.375 67.5312L21.875 57.8125L19.5 37.7031L24.1875 31.4531L32.5625 24.6094L38.5312 22.1719L40.625 21.4531ZM70.1719 29.6875C69.466 30.4358 68.6426 31.0638 67.7344 31.5469C61.3125 30.1719 58.9844 26.8594 58.9844 26.8594C64.4453 26.6962 69.8474 28.0251 74.6094 30.7031C73.1593 30.2481 71.6755 29.9085 70.1719 29.6875Z"
    fill="url(#paint1_linear_2_26458)"
  />
  <path
    fill-rule="evenodd"
    clip-rule="evenodd"
    d="M67.8437 60.25C63.0875 62.5375 57.8714 63.7079 52.5937 63.6719C36.8281 63.6719 24.0625 53.7656 24.0625 41.5625C24.0625 32.5313 31.0312 24.7812 41.0156 21.3438C22.0156 22.4375 6.73438 37.7031 6.73438 56.5469C6.73438 78.2969 26.125 96.2656 50 96.2656C58.2972 96.197 66.4261 93.9183 73.5501 89.6643C80.674 85.4102 86.5355 79.3345 90.5312 72.0625C79.8281 74.4688 67.1875 69.8906 67.8437 60.25Z"
    fill="url(#paint2_linear_2_26458)"
  />
  <defs>
    <linearGradient
      id="paint0_linear_2_26458"
      x1="81.0938"
      y1="37.7656"
      x2="83.3125"
      y2="64.2812"
      gradientUnits="userSpaceOnUse"
    >
      <stop stop-color="#01E8F7" />
      <stop offset="1" stop-color="#00C2FF" />
    </linearGradient>
    <linearGradient
      id="paint1_linear_2_26458"
      x1="37.4219"
      y1="23.5156"
      x2="63.1719"
      y2="64.3906"
      gradientUnits="userSpaceOnUse"
    >
      <stop stop-color="#01E8F7" />
      <stop offset="1" stop-color="#00B3EC" />
    </linearGradient>
    <linearGradient
      id="paint2_linear_2_26458"
      x1="47.8594"
      y1="42.5625"
      x2="50.1562"
      y2="108.531"
      gradientUnits="userSpaceOnUse"
    >
      <stop stop-color="#01E8F7" />
      <stop offset="1" stop-color="#00C2FF" />
    </linearGradient>
  </defs>
</svg>
