<svg width="100" height="100" viewBox="0 0 100 100" fill="none" xmlns="http://www.w3.org/2000/svg">
  <rect width="100" height="100" fill="#0055D5" />
  <path
    fill-rule="evenodd"
    clip-rule="evenodd"
    d="M26.0134 31.9498C26.0134 31.9498 20.5333 27.5697 20.1564 38.3874C19.7795 46.7706 19.7897 63.0481 23.6706 70.7386C25.3106 73.6315 27.5006 72.7453 31.575 69.8626C35.1198 67.2448 47.9442 55.4288 53.3734 50.2441C58.8026 45.0593 69.8138 30.1876 72.1057 40.2922C73.0123 44.5399 74.1328 48.1458 73.2771 57.5679C73.0123 60.471 71.7696 62.6712 66.1061 58.7393C61.8279 55.9891 57.7636 53.0351 57.7636 53.0351C57.7636 53.0351 56.9793 51.6294 55.1254 53.9111C53.6688 55.7344 52.9354 56.1826 55.268 57.5679C57.6108 58.9533 69.4573 67.1225 74.0004 68.3958C77.7489 69.4857 79.888 69.4654 80 62.1008C79.9796 56.2539 79.6435 39.5181 77.5146 32.3878C75.9052 27.9466 73.542 25.9298 68.4387 30.921C63.3355 35.9122 47.2413 51.5174 38.4405 58.5866C32.6038 62.9666 30.1082 66.9188 27.908 59.6154C26.3597 54.0843 24.3531 36.8697 30.6888 40.1496C34.6513 42.0442 36.6274 42.0341 35.0791 43.2258C33.5308 44.4074 29.0794 48.4921 29.0794 48.4921C29.0794 48.4921 27.7043 49.6024 28.346 52.0063C28.9878 53.687 28.9878 54.5223 32.4409 51.2729C35.894 48.0235 38.4405 45.5687 38.4405 45.5687C38.4405 45.5687 38.9906 44.7028 40.6305 46.3021C42.2705 47.9013 42.5353 48.3495 42.5353 48.3495C42.5353 48.3495 42.9733 49.5413 44.7254 47.4735C46.4876 45.4057 47.6182 44.1426 44.2874 42.2072C40.9667 40.2515 26.0134 31.9498 26.0134 31.9498Z"
    fill="white"
  />
</svg>
