<svg width="100" height="100" viewBox="0 0 100 100" fill="none" xmlns="http://www.w3.org/2000/svg">
  <rect width="100" height="100" fill="#1E1E1E" />
  <path
    d="M51 71C34.9824 71 22 66.4281 22 60.3026C22 57.1063 25.5361 54.2266 31.1959 52.1979C35.6135 54.9984 43.0263 56.4333 51.4307 56.4333C59.6349 56.4333 66.8874 54.6818 71.3451 52C76.6843 54.0089 80 56.8094 80 59.8969C80 66.0323 67.0176 71 51 71Z"
    fill="white"
  />
  <path
    d="M51 55C38.8524 55 29 51.1924 29 46.493C29 43.8878 32.0369 41.5531 36.7977 40C40.1954 41.7735 45.287 42.9058 51 42.9058C56.713 42.9058 61.8046 41.7735 65.2023 40C69.9731 41.5631 73 43.8878 73 46.493C73.01 51.1924 63.1576 55 51 55Z"
    fill="white"
  />
  <path
    d="M51 41C41.6134 41 34 37.86 34 34C34 30.14 41.6134 27 51 27C60.3866 27 68 30.14 68 34C68 37.86 60.3866 41 51 41Z"
    fill="white"
  />
</svg>
