<svg width="100" height="100" viewBox="0 0 100 100" fill="none" xmlns="http://www.w3.org/2000/svg">
  <rect width="100" height="100" fill="url(#paint0_linear_2_27010)" />
  <path
    d="M73.8165 37.5037C73.1846 37.5037 72.5786 37.749 72.1318 38.1856C71.685 38.6223 71.4339 39.2144 71.4339 39.8319C71.4339 40.4494 71.685 41.0415 72.1318 41.4782C72.5786 41.9148 73.1846 42.1601 73.8165 42.1601C74.4481 42.1601 75.0538 41.9149 75.5004 41.4785C75.9471 41.0421 76.198 40.4502 76.198 39.833C76.198 39.2158 75.9471 38.6239 75.5004 38.1875C75.0538 37.7511 74.4481 37.5059 73.8165 37.5059V37.5037ZM71.6587 69.4492C68.8868 72.4413 65.5071 74.8361 61.7351 76.4805C57.9632 78.125 53.8818 78.9831 49.7515 79H49.6956C45.5275 78.9943 41.4072 78.1322 37.6023 76.4694C33.7973 74.8067 30.3927 72.3806 27.6096 69.3486C24.8014 66.3183 22.6872 62.7374 21.4082 58.845C20.1291 54.9527 19.7146 50.8384 20.1924 46.7771C20.9551 40.2758 23.9376 34.2153 28.6585 29.574C33.3794 24.9327 39.5633 21.9815 46.2118 21.1967C47.3634 21.0656 48.5239 21.0001 49.6844 21.0001C56.2285 20.9875 62.5892 23.1116 67.7567 27.0352C68.0049 27.22 68.1827 27.4807 68.2617 27.7757C68.3408 28.0707 68.3165 28.3831 68.1927 28.663C68.1118 28.8499 67.9896 29.017 67.8349 29.1525L64.6842 31.91C64.3531 32.1986 63.9249 32.358 63.4812 32.3579C63.1012 32.3577 62.7304 32.2433 62.4191 32.0302C59.2636 29.8725 55.5877 28.5545 51.7529 28.2058C47.918 27.8572 44.0564 28.4899 40.5477 30.0418C37.6685 31.3061 35.0946 33.1496 32.9941 35.452C30.8793 37.748 29.291 40.4592 28.3357 43.4038C27.3805 46.3485 27.0803 49.4587 27.4553 52.5259C28.0499 57.4248 30.3157 61.9851 33.8873 65.4716C37.4589 68.9581 42.1281 71.1675 47.142 71.7435C47.9917 71.833 48.8481 71.8811 49.7046 71.8811C52.6605 71.8847 55.5874 71.3116 58.3136 70.1954C61.0399 69.0791 63.5106 67.4422 65.5809 65.3806C65.7528 65.2104 65.9575 65.075 66.1832 64.9824C66.4088 64.8898 66.651 64.8417 66.8958 64.8409C67.2511 64.8406 67.5987 64.9424 67.8953 65.1337L71.3926 67.3755C71.5622 67.4858 71.7058 67.6301 71.8138 67.7989C71.9218 67.9677 71.9916 68.1571 72.0187 68.3544C72.0439 68.552 72.025 68.7526 71.9633 68.9424C71.9015 69.1321 71.7983 69.3065 71.6609 69.4535L71.6587 69.4492ZM73.8165 46.8514C71.9113 46.8514 70.0842 46.1118 68.737 44.7954C67.3898 43.479 66.633 41.6936 66.633 39.8319C66.633 37.9702 67.3898 36.1848 68.737 34.8684C70.0842 33.552 71.9113 32.8124 73.8165 32.8124C75.7217 32.8124 77.5488 33.552 78.896 34.8684C80.2432 36.1848 81 37.9702 81 39.8319C81 41.6936 80.2432 43.479 78.896 44.7954C77.5488 46.1118 75.7217 46.8514 73.8165 46.8514Z"
    fill="white"
  />
  <defs>
    <linearGradient
      id="paint0_linear_2_27010"
      x1="24.763"
      y1="107.766"
      x2="273.477"
      y2="-13.5203"
      gradientUnits="userSpaceOnUse"
    >
      <stop stop-color="#382BC6" />
      <stop offset="1" stop-color="#FF3CAC" />
    </linearGradient>
  </defs>
</svg>
