<svg width="100" height="100" viewBox="0 0 100 100" fill="none" xmlns="http://www.w3.org/2000/svg">
  <rect width="100" height="100" fill="#070A0E" />
  <path
    fill-rule="evenodd"
    clip-rule="evenodd"
    d="M28.885 66.765C27.39 65.85 26.475 64.225 26.475 62.475V52.705C26.475 51.545 27.42 50.605 28.58 50.61C28.95 50.61 29.315 50.71 29.635 50.895L51.68 63.75C52.97 64.5 53.765 65.88 53.765 67.375V77.495C53.77 78.885 52.645 80.015 51.255 80.015C50.79 80.015 50.33 79.885 49.935 79.645L28.885 66.765ZM61.745 48.22C63.035 48.97 63.825 50.355 63.83 51.845V72.385C63.83 72.99 63.505 73.55 62.975 73.845L58.15 76.56C58.09 76.595 58.025 76.62 57.955 76.64V65.235C57.955 63.76 57.18 62.39 55.91 61.63L36.55 50.05V37.175C36.55 36.015 37.495 35.075 38.655 35.08C39.025 35.08 39.39 35.18 39.71 35.365L61.745 48.22ZM71.395 33.05C72.69 33.8 73.485 35.185 73.485 36.68V66.68C73.48 67.295 73.14 67.86 72.6 68.155L68.025 70.625V49.74C68.025 48.265 67.25 46.9 65.99 46.14L46.2 34.27V22.06C46.2 21.69 46.3 21.325 46.48 21.005C47.065 20.005 48.35 19.665 49.35 20.245L71.395 33.05Z"
    fill="#00D395"
  />
</svg>
