<svg width="100" height="100" viewBox="0 0 100 100" fill="none" xmlns="http://www.w3.org/2000/svg">
  <rect width="100" height="100" fill="black" />
  <path
    fill-rule="evenodd"
    clip-rule="evenodd"
    d="M51.978 18.0235C52.4215 18.109 52.7886 18.419 52.9472 18.8419L60.4159 38.7585H72.8802C73.421 38.7585 73.9051 39.094 74.095 39.6003L81.8794 60.3588C82.0288 60.7572 81.9734 61.2036 81.731 61.5533C81.4886 61.9031 81.0901 62.1117 80.6646 62.1117H67.7387L60.3351 70.1124C60.2786 70.2558 60.1955 70.3915 60.0853 70.512L49.0574 82.5779C48.7528 82.9111 48.2969 83.0621 47.8536 82.9764C47.4103 82.8908 47.0434 82.5808 46.8849 82.1581L39.3675 62.1117H27.0818C26.541 62.1117 26.0569 61.7763 25.867 61.2699L18.0826 40.5114C17.9332 40.113 17.9887 39.6666 18.231 39.3169C18.4734 38.9671 18.8719 38.7585 19.2974 38.7585H32.2178L50.774 18.4229C51.0784 18.0893 51.5345 17.938 51.978 18.0235ZM59.9572 41.3533L51.4842 50.5756L54.8372 59.5169H78.7925L71.9811 41.3533H59.9572ZM50.4628 47.852L57.9846 39.665L51.2619 21.7378L35.7305 38.7585H46.1537C46.6945 38.7585 47.1786 39.094 47.3685 39.6003L50.4628 47.852ZM48.4948 49.994L39.7456 59.5169H27.9809L21.1696 41.3533H32.7839H32.7959H45.2546L48.4948 49.994ZM41.7755 61.1429L49.5162 52.7176L52.7233 61.2699C52.9132 61.7763 53.3973 62.1117 53.9381 62.1117H64.2033L58.1754 68.6258L58.2426 68.6879C58.2177 68.7113 58.1934 68.7358 58.17 68.7614L48.5709 79.264L41.7755 61.1429Z"
    fill="white"
  />
</svg>
