<svg width="100" height="100" viewBox="0 0 100 100" fill="none" xmlns="http://www.w3.org/2000/svg">
  <rect width="100" height="100" fill="#3A3A3A" />
  <path d="M58.1544 31.691H53.979V37.9958H58.1544V31.691Z" fill="#1682FE" />
  <path d="M46.1713 20H41.996V26.3048H46.1713V20Z" fill="#1682FE" />
  <path d="M34.1879 26.0125H30.0126V32.3173H34.1879V26.0125Z" fill="#60D8A4" />
  <path d="M28.2171 49.9791H24V67.975H28.2171V49.9791Z" fill="#F4BB3B" />
  <path d="M28.2171 31.9833H24V49.9791H28.2171V31.9833Z" fill="#60D8A4" />
  <path d="M64.1253 37.7036H59.95V44.0084H64.1253V37.7036Z" fill="#1682FE" />
  <path d="M64.1253 55.95H59.95V62.2548H64.1253V55.95Z" fill="#FF5A5A" />
  <path d="M58.1544 61.9624H53.979V68.2672H58.1544V61.9624Z" fill="#FF5A5A" />
  <path d="M46.1713 73.6534H41.996V79.9582H46.1713V73.6534Z" fill="#FF5A5A" />
  <path d="M34.1879 67.6409H30.0126V73.9457H34.1879V67.6409Z" fill="#F4BB3B" />
  <path
    d="M75.8579 43.9666V31.9833H69.8454V26.0125H57.8621V20H45.8788V26.0125H33.8955V32.0251H27.8829V67.975H33.8955V73.9875H45.8788V80H57.8621V73.9875H69.8454V67.975H75.8579V55.9499H63.8746V61.9624H57.8621V67.975H45.8788V61.9624H39.908V37.9958H45.9205V31.9833H57.9038V37.9958H63.9163V44.0084H75.8579V43.9666Z"
    fill="white"
  />
</svg>
