<svg width="100" height="100" viewBox="0 0 100 100" fill="none" xmlns="http://www.w3.org/2000/svg">
  <rect width="100" height="100" fill="#F5AC37" />
  <path
    d="M53.7165 52.7629H71.1543C71.526 52.7629 71.7015 52.7629 71.7284 52.2755C71.8709 50.5016 71.8709 48.7173 71.7284 46.9413C71.7284 46.5965 71.557 46.454 71.1832 46.454H36.479C36.0494 46.454 35.9338 46.5965 35.9338 46.9992V52.1041C35.9338 52.7629 35.9338 52.7629 36.6215 52.7629H53.7165ZM69.781 40.4879C69.8306 40.3578 69.8306 40.2153 69.781 40.0872C69.4898 39.4532 69.1449 38.8482 68.7443 38.2803C68.1413 37.3097 67.4309 36.4155 66.6214 35.6121C66.2393 35.1268 65.7974 34.6911 65.3018 34.3214C62.8195 32.2088 59.8685 30.7137 56.6964 29.962C55.096 29.6027 53.4604 29.4312 51.8207 29.4457H36.4191C35.9896 29.4457 35.9317 29.6171 35.9317 29.9909V40.1719C35.9317 40.6014 35.9317 40.7171 36.4769 40.7171H69.5745C69.5745 40.7171 69.8615 40.6593 69.9193 40.4879H69.7789H69.781ZM69.781 58.729C69.2936 58.6753 68.8021 58.6753 68.3148 58.729H36.5079C36.0784 58.729 35.9338 58.729 35.9338 59.3031V69.2569C35.9338 69.7154 35.9338 69.831 36.5079 69.831H51.1929C51.8951 69.8847 52.5972 69.8352 53.2849 69.6885C55.4161 69.5357 57.5122 69.0732 59.5112 68.3111C60.2381 68.0592 60.9402 67.7308 61.6031 67.3364H61.8035C65.246 65.5459 68.0422 62.7332 69.8058 59.2804C69.8058 59.2804 70.0061 58.8467 69.781 58.7331V58.729ZM30.1701 74.9918V74.8204V68.1376V65.8722V59.1317C30.1701 58.7579 30.1701 58.7022 29.7116 58.7022H23.4874C23.1425 58.7022 23 58.7022 23 58.2437V52.7939H29.6538C30.0255 52.7939 30.1701 52.7939 30.1701 52.3065V46.9145C30.1701 46.5696 30.1701 46.4849 29.7116 46.4849H23.4874C23.1425 46.4849 23 46.4849 23 46.0265V40.9794C23 40.6634 23 40.5787 23.4585 40.5787H29.6249C30.0544 40.5787 30.1701 40.5787 30.1701 40.0335V24.5741C30.1701 24.1156 30.1701 24 30.7442 24H52.2544C53.8156 24.062 55.3665 24.2334 56.9009 24.5163C60.0626 25.1007 63.1003 26.2303 65.8779 27.8432C67.72 28.9274 69.4155 30.2366 70.9251 31.7442C72.0609 32.9234 73.0852 34.1996 73.9938 35.5584C74.8963 36.9359 75.6459 38.4083 76.2345 39.9468C76.3068 40.3474 76.6909 40.618 77.0915 40.5498H82.2253C82.8841 40.5498 82.8841 40.5498 82.913 41.1817V45.8861C82.913 46.3445 82.7416 46.4602 82.2811 46.4602H78.3223C77.9217 46.4602 77.806 46.4602 77.8349 46.9764C77.9919 48.7235 77.9919 50.4768 77.8349 52.2239C77.8349 52.7113 77.8349 52.7691 78.3822 52.7691H82.911C83.1113 53.0272 82.911 53.2854 82.911 53.5456C82.9399 53.878 82.9399 54.2147 82.911 54.5471V58.0186C82.911 58.506 82.7685 58.6505 82.3369 58.6505H76.916C76.538 58.5782 76.1704 58.8199 76.0837 59.1957C74.793 62.5515 72.7279 65.5604 70.0598 67.9724C69.085 68.8501 68.0608 69.6762 66.991 70.4382C65.8428 71.099 64.7256 71.7867 63.5485 72.3319C61.3822 73.3066 59.1106 74.0253 56.779 74.4817C54.5652 74.8782 52.3205 75.0578 50.0674 75.0269H30.1618V74.998L30.1701 74.9918Z"
    fill="#FEFEFD"
  />
</svg>
