<svg width="100" height="100" viewBox="0 0 100 100" fill="none" xmlns="http://www.w3.org/2000/svg">
  <rect width="100" height="100" fill="#7866D5" />
  <path
    d="M68.3405 27.9439C69.8828 28.1367 71.4894 28.2652 73.0316 28.5223C76.0519 29.1006 77.0801 30.6429 76.566 33.7275C76.4375 34.8842 75.5379 35.7838 74.3811 35.9766C73.6743 36.1051 72.9031 36.1694 72.1962 36.1051C62.1714 36.1051 52.2109 36.1694 42.186 36.1694C40.708 36.1694 39.1657 36.2979 37.6877 36.555C32.7396 37.3261 30.8117 39.3825 30.4262 44.3949C30.2334 46.7083 30.2334 46.7083 32.6111 46.7083H72.4533C72.8389 46.7083 73.2244 46.7083 73.61 46.7083C74.2526 46.7083 74.831 46.9011 75.4093 47.2224C77.2087 48.3791 76.7588 50.2427 76.6946 51.9135C76.6303 53.263 75.7949 54.0341 74.3811 54.2912C73.8028 54.4197 73.2244 54.4197 72.5818 54.4197C58.9583 54.4197 45.3349 54.4197 31.7114 54.4197C30.2334 54.4197 30.2334 54.4197 30.3619 55.8977C30.4262 57.2472 30.5547 58.5967 30.876 59.9462C31.5186 62.3882 32.9966 63.9304 35.5028 64.6373C38.2018 65.4085 41.0293 65.537 43.7926 65.6012C53.4961 65.6012 63.2639 65.6012 73.0316 65.6012C74.2526 65.6012 75.4093 65.7298 76.1805 66.8865C77.4014 68.8143 76.7588 71.3205 74.831 72.5415C74.5739 72.7343 74.3169 72.8628 73.9956 72.9271C71.8749 73.634 69.69 73.7625 67.4409 73.8267C58.2515 74.0195 49.1263 74.0195 40.0011 73.8267C37.1736 73.7625 34.3461 73.4412 31.5829 72.8628C25.0924 71.5133 21.8151 68.1717 20.7226 61.617C20.4656 60.139 20.3371 58.5967 20.1443 57.0544V45.1018C20.2728 43.9451 20.4013 42.7241 20.5299 41.5674C21.3653 34.1773 24.7069 30.5144 31.9684 28.8436C34.5389 28.2652 37.2379 28.1367 39.8084 27.8796L68.3405 27.9439Z"
    fill="white"
  />
  <path
    d="M53.6889 75.112C49.0621 75.112 44.4995 75.0477 39.9369 74.9834C37.0451 74.9192 34.1534 74.5979 31.3259 73.9553C24.3213 72.4772 20.7227 68.7501 19.566 61.8098C19.3732 60.7174 19.2447 59.6249 19.1804 58.5967C19.1161 58.1469 19.0519 57.6971 18.9876 57.183V57.0544V44.9732L19.1161 43.8165C19.1804 42.9811 19.3089 42.21 19.3732 41.4389C20.2728 33.5347 24 29.4862 31.7757 27.7511C33.8321 27.3013 35.8242 27.1085 37.8163 26.9157C38.4589 26.8515 39.1015 26.7872 39.7441 26.7229H39.8727H68.4691H68.5334C68.9832 26.7872 69.4973 26.8515 69.9471 26.8515C71.0396 26.98 72.132 27.0442 73.2887 27.3013C76.9516 28.0082 78.3654 30.0645 77.7228 33.7917C77.53 35.3983 76.2448 36.7478 74.5097 37.0048C73.7386 37.1333 72.9674 37.1976 72.132 37.1976C62.1715 37.2618 52.1466 37.3261 42.1861 37.3261C40.7723 37.3261 39.2943 37.4546 37.8805 37.7117C33.4465 38.4186 31.9685 40.0251 31.5829 44.5234C31.5829 44.909 31.5186 45.2946 31.5186 45.6159C31.7757 45.6159 32.2255 45.6159 32.6111 45.6159H73.61C74.4454 45.6159 75.2808 45.8729 75.9877 46.2585C78.1726 47.6722 77.9798 49.7929 77.8513 51.3352C77.8513 51.5279 77.787 51.785 77.787 51.9778C77.6585 53.7771 76.5661 54.9981 74.574 55.3836C73.8671 55.5122 73.2245 55.5122 72.5818 55.5122H31.7757C31.7114 55.5122 31.5829 55.5122 31.5186 55.5122C31.5186 55.5764 31.5186 55.6407 31.5186 55.7049V55.7692C31.5829 57.1187 31.7114 58.4039 32.0327 59.6892C32.5468 61.6813 33.7678 62.9023 35.8242 63.4806C38.5874 64.2517 41.4149 64.3803 43.8569 64.3803C51.4398 64.4445 59.1512 64.4445 66.6698 64.4445H73.0959C74.0599 64.4445 76.052 64.4445 77.2087 66.3081C77.9798 67.5291 78.1726 68.9429 77.8513 70.2923C77.53 71.6418 76.6946 72.7986 75.4736 73.5697C75.1523 73.7625 74.7667 73.9553 74.3812 74.0838C72.0035 74.8549 69.5615 74.9834 67.5052 75.0477C62.9426 75.0477 58.3158 75.112 53.6889 75.112ZM21.301 56.9902C21.3653 57.44 21.4296 57.8898 21.4296 58.3397C21.5581 59.3679 21.6866 60.396 21.8151 61.4242C22.8433 67.4648 25.7351 70.4209 31.7757 71.7061C34.4747 72.2845 37.2379 72.6058 40.0012 72.67C49.0621 72.8628 58.3158 72.8628 67.4409 72.67C69.3045 72.6058 71.5537 72.4772 73.61 71.8346C73.8028 71.7704 73.9956 71.6418 74.1884 71.5776C74.831 71.1278 75.3451 70.4851 75.5379 69.714C75.7307 68.9429 75.6021 68.1717 75.1523 67.4648C74.7667 66.8865 74.2527 66.6937 73.0317 66.6937H66.6055C59.1512 66.6937 51.3755 66.6937 43.7926 66.6294C41.2222 66.6294 38.2019 66.5009 35.1816 65.6012C32.2898 64.8301 30.4904 62.9665 29.7836 60.0747C29.4623 58.661 29.2695 57.183 29.2695 55.7692V55.7049C29.2052 54.8053 29.141 54.1627 29.655 53.5843C30.1691 53.006 30.876 53.006 31.7757 53.006H72.6461C73.1602 53.006 73.7386 53.006 74.2527 52.8774C75.2808 52.6846 75.5379 52.2348 75.6021 51.5922C75.6021 51.3351 75.6664 51.1424 75.6664 50.8853C75.7949 49.2788 75.7949 48.5076 74.8953 47.9293C74.574 47.7365 74.1241 47.608 73.7386 47.608H32.6111C31.1973 47.608 30.3619 47.608 29.7193 46.9654C29.0767 46.3227 29.2052 45.4231 29.2695 44.0736C29.7193 38.5471 32.0327 36.0409 37.495 35.2055C39.0373 34.9484 40.5795 34.8199 42.1861 34.7556C52.2109 34.7556 62.1715 34.6914 72.1963 34.6914C72.9032 34.6914 73.5458 34.6914 74.1884 34.5629C74.831 34.4986 75.3451 33.9845 75.4094 33.3419C75.8592 30.7714 75.2166 29.936 72.7746 29.4219C71.7464 29.2291 70.7183 29.1006 69.6901 29.0364C69.2402 28.9721 68.7261 28.9078 68.2763 28.9078H39.8727C39.23 28.9721 38.5874 29.0364 37.9448 29.1006C35.9527 29.2934 34.0891 29.4219 32.1613 29.8718C25.4138 31.5426 22.4577 34.8199 21.6866 41.7602C21.6223 42.5313 21.4938 43.3024 21.4296 44.1378L21.301 45.2303V56.9902Z"
    fill="white"
  />
</svg>
