<svg width="100" height="100" viewBox="0 0 100 100" fill="none" xmlns="http://www.w3.org/2000/svg">
  <rect width="100" height="100" fill="black" />
  <path
    d="M26.0024 26.5171C24.1832 28.4272 22.6823 30.0342 22.6672 30.0645C22.652 30.11 24.2893 31.7169 26.3056 33.6271C28.3218 35.5524 30.0804 37.2351 30.2016 37.3412L30.429 37.5535L30.0197 38.2357C26.4268 44.1783 25.684 51.3338 27.9428 57.9132C28.3673 59.1563 29.095 60.7481 29.7165 61.7941C30.0197 62.3095 30.1562 62.6431 30.1258 62.7037C30.0955 62.7643 28.2612 64.7048 26.0478 67.0243C23.8345 69.3286 22.0305 71.2539 22.0001 71.2842C21.985 71.3297 28.1854 77.3178 28.7766 77.8029L29.004 78L32.5059 74.3465C34.4312 72.3302 36.2353 70.4352 36.5081 70.1472L37.0236 69.6318L37.5087 69.9349C39.9798 71.5116 42.8753 72.6031 46.074 73.1792C47.681 73.4672 50.7433 73.543 52.4563 73.3308C55.7612 72.9518 59.0357 71.8451 61.719 70.223L62.4164 69.7985L63.1592 70.5262C64.7813 72.1028 70.8452 77.8636 70.9059 77.8939C70.9665 77.9242 77.6217 70.9658 77.6065 70.8749C77.5914 70.8294 73.0283 66.4482 70.2388 63.8255L69.3141 62.9463L69.7386 62.2489C73.3011 56.3214 74.044 49.1356 71.7397 42.5107C71.4062 41.5405 70.3904 39.3575 69.7992 38.3569L69.5112 37.8567L73.4073 33.7787C75.5448 31.5502 77.2882 29.6855 77.273 29.64C77.2124 29.4884 70.3904 23.0455 70.2995 23.0455C70.2388 23.0455 68.5258 24.7889 66.4792 26.9416C64.4326 29.0791 62.7347 30.8377 62.6892 30.8528C62.6589 30.868 62.4618 30.777 62.2799 30.6406C61.7645 30.2919 60.4607 29.5794 59.7331 29.2459C57.5197 28.2302 55.458 27.6086 53.0627 27.2599C51.8196 27.078 48.0903 27.0477 46.9381 27.2144C44.179 27.6086 41.9202 28.2908 39.6159 29.4429C38.9489 29.7613 38.1757 30.1858 37.8725 30.3677L37.3268 30.7012L36.7052 30.0948C36.3717 29.7613 34.8557 28.3363 33.3549 26.8961C31.8541 25.4711 30.3229 24.0157 29.9591 23.6519L29.292 23L26.0024 26.5171ZM51.4558 36.4013C53.8662 36.6894 56.0189 37.508 58.0048 38.9027C59.0205 39.6152 60.5365 41.1312 61.249 42.1469C65.2967 47.8773 64.5236 55.6695 59.4299 60.4449C55.079 64.5077 48.7876 65.4173 43.4968 62.7188C39.6766 60.7632 36.9781 57.1855 36.114 52.8953C35.8411 51.5309 35.8411 48.984 36.114 47.6348C36.3717 46.3007 36.7204 45.3456 37.3723 44.0116C39.9798 38.7663 45.6344 35.704 51.4558 36.4013Z"
    fill="white"
  />
</svg>
