<svg width="100" height="100" viewBox="0 0 100 100" fill="none" xmlns="http://www.w3.org/2000/svg">
  <rect width="100" height="100" fill="#00A6C4" />
  <path
    d="M36.1055 55.0094C37.9735 55.0094 39.796 54.3867 41.2692 53.2477L29.423 41.4015C26.5678 45.092 27.2512 50.4076 30.9418 53.2629C32.4301 54.3867 34.2374 55.0094 36.1055 55.0094Z"
    fill="white"
  />
  <path
    d="M71.3408 46.55C71.3408 44.682 70.7182 42.8595 69.5791 41.3863L57.7329 53.2325C61.4235 56.0877 66.7239 55.4043 69.5791 51.7137C70.7182 50.2406 71.3408 48.4181 71.3408 46.55Z"
    fill="white"
  />
  <path
    d="M77.3093 33.6558L72.0696 38.8955C76.2917 43.9529 75.6235 51.4859 70.566 55.708C66.1313 59.4137 59.6918 59.4137 55.2571 55.708L49.5011 61.464L43.7602 55.7231C38.7028 59.9452 31.1699 59.277 26.9478 54.2196C23.242 49.7849 23.242 43.3454 26.9478 38.9107L24.2596 36.2225L21.7081 33.6558C18.6251 38.7284 17 44.5604 17 50.4987C17 68.4502 31.5496 82.9998 49.5011 82.9998C67.4526 82.9998 82.0022 68.4502 82.0022 50.4987C82.0174 44.5604 80.3771 38.7284 77.3093 33.6558Z"
    fill="white"
  />
  <path
    d="M73.0115 28.0669C60.6338 15.0817 40.07 14.5957 27.0847 26.9734C26.7051 27.3379 26.3406 27.7024 25.9912 28.0669C25.1863 28.9174 24.4269 29.7983 23.7131 30.7247L49.5014 56.5281L75.2896 30.7247C74.591 29.7983 73.8164 28.9174 73.0115 28.0669ZM49.5014 22.2501C57.0951 22.2501 64.1724 25.1813 69.488 30.5273L49.5014 50.5139L29.5147 30.5273C34.8303 25.1813 41.9077 22.2501 49.5014 22.2501Z"
    fill="white"
  />
</svg>
