<svg width="100" height="100" viewBox="0 0 100 100" fill="none" xmlns="http://www.w3.org/2000/svg">
  <rect width="100" height="100" fill="#6747ED" />
  <path
    fill-rule="evenodd"
    clip-rule="evenodd"
    d="M49.2708 56.4583C41.875 56.4583 35.9375 50.5208 35.9375 43.125C35.9375 35.7292 41.875 29.7917 49.2708 29.7917C56.6667 29.7917 62.6042 35.7292 62.6042 43.125C62.6042 50.5208 56.6667 56.4583 49.2708 56.4583ZM49.2708 23.125C60.3125 23.125 69.2708 32.0833 69.2708 43.125C69.2708 54.1667 60.3125 63.125 49.2708 63.125C38.2292 63.125 29.2708 54.1667 29.2708 43.125C29.2708 32.0833 38.2292 23.125 49.2708 23.125ZM68.3333 64.1667C69.6875 65.5208 69.6875 67.6042 68.3333 68.8542L55 82.1875C53.6458 83.5417 51.5625 83.5417 50.3125 82.1875C48.9583 80.8333 48.9583 78.75 50.3125 77.5L63.6458 64.1667C64.8958 62.8125 67.0833 62.8125 68.3333 64.1667ZM76.0417 26.4583C76.0417 28.3333 74.5833 29.7917 72.7083 29.7917C70.8333 29.7917 69.375 28.3333 69.375 26.4583C69.375 24.5833 70.8333 23.125 72.7083 23.125C74.4792 23.125 76.0417 24.5833 76.0417 26.4583Z"
    fill="white"
  />
</svg>
