<svg width="100" height="100" viewBox="0 0 100 100" fill="none" xmlns="http://www.w3.org/2000/svg">
  <rect width="100" height="100" fill="#00DCFA" />
  <path
    d="M59.2127 20C48.6582 20 39.6936 28.1164 38.5673 38.5645C28.1136 39.6936 20 48.6582 20 59.21C20.0029 64.7225 22.1938 70.0084 26.0915 73.9066C29.9891 77.8048 35.2748 79.9964 40.7873 80C51.3418 80 60.3418 71.8836 61.4327 61.4355C71.8836 60.3064 80 51.3418 80 40.79C79.9971 35.2775 77.8062 29.9916 73.9085 26.0934C70.0109 22.1952 64.7252 20.0036 59.2127 20ZM75.1291 43.1164C74.6101 46.5256 73.0149 49.6797 70.5764 52.1182C68.1379 54.5567 64.9838 56.1519 61.5745 56.6709V43.1164H75.1291ZM24.8709 56.8836C25.383 53.4679 26.9751 50.3059 29.4141 47.8604C31.8532 45.415 35.0111 43.8146 38.4255 43.2936V56.8482H24.8709V56.8836ZM56.7064 61.5745C56.1433 65.3932 54.2251 68.8818 51.3023 71.403C48.3795 73.9242 44.6472 75.3097 40.7873 75.3064C36.9281 75.3097 33.1964 73.9245 30.2742 71.4038C27.3519 68.8831 25.434 65.3952 24.8709 61.5773H56.7064V61.5745ZM56.8836 43.1164V56.8482H43.1164V43.1164H56.8836ZM75.1291 38.4255H43.2936C43.8567 34.6068 45.7749 31.1182 48.6977 28.597C51.6205 26.0758 55.3528 24.6903 59.2127 24.6936C63.0719 24.6903 66.8036 26.0755 69.7258 28.5962C72.6481 31.1169 74.566 34.6075 75.1291 38.4255Z"
    fill="white"
  />
</svg>
