<svg width="100" height="100" viewBox="0 0 100 100" fill="none" xmlns="http://www.w3.org/2000/svg">
  <rect width="100" height="100" fill="#231850" />
  <path
    d="M49.7893 24.0677C49.4075 35.5649 49.4191 47.9406 49.7893 59.5089C50.1171 47.9445 50.1279 35.5654 49.7893 24.0677ZM36.9247 84.911L36.9505 85C37.0627 84.9457 37.1792 84.8977 37.2892 84.8374C39.5849 83.5829 42.0247 82.6603 44.5102 81.8589C47.6764 80.8384 50.8901 80.7259 54.1007 81.6009C56.8737 82.3556 59.5549 83.4093 62.0965 84.7433C62.2548 84.8259 62.3881 84.991 62.6193 84.9431C62.597 84.9008 62.5688 84.8618 62.5357 84.8271C58.5369 81.7815 54.5382 78.7354 50.5394 75.6884C49.976 75.2571 49.5209 75.3012 48.9705 75.7256C44.9588 78.7978 40.9433 81.8593 36.9247 84.911ZM34.5491 41.305C34.2877 41.6379 34.4102 41.8869 34.6643 42.1518C35.6262 43.1633 36.2056 44.3827 36.6042 45.6951C37.0959 47.312 37.284 48.9752 37.3612 50.6555C37.4803 53.2361 37.4432 55.8171 37.3953 58.3981C37.3306 61.8387 37.3128 65.2801 37.3418 68.7212C37.3741 72.5178 36.8449 76.2147 35.6224 79.8188C35.1453 81.2239 34.669 82.6295 34 84.1186C34.1078 84.0839 34.2127 84.0407 34.3136 83.9893C37.8033 81.2047 41.278 78.3995 44.914 75.8005C45.382 75.4663 45.3859 75.0457 45.1007 74.6144C44.8141 74.1827 44.5024 73.7678 44.1673 73.3718C43.1984 72.2273 42.8154 70.8905 42.7921 69.4285C42.7619 67.5145 42.7239 65.6011 42.7006 63.6884C42.6169 56.6352 42.6704 49.5832 42.5842 42.5257C42.4742 33.4734 42.4729 24.4199 42.4246 15.368V15.0047H42.2939C41.8927 18.5985 41.4829 22.1833 40.7893 25.7317C39.7026 31.3066 38.076 36.6791 34.5491 41.305ZM57.0125 31.4136C56.9012 39.5177 56.9995 47.624 56.8688 55.7281C56.8007 59.941 56.814 64.1569 56.827 68.3742C56.8334 70.5123 56.3891 72.4686 54.8513 74.074C54.7085 74.2349 54.5796 74.4077 54.4657 74.59C54.1249 75.0906 54.2043 75.4856 54.7159 75.8506C58.2086 78.3503 61.5569 81.0344 64.9064 83.7146C65.0609 83.8434 65.1955 84.0308 65.5 83.9932C64.3836 81.5106 63.6253 78.9604 62.9847 76.367C62.7362 75.3654 62.4904 74.3603 62.4028 73.3291C62.1858 70.7986 62.2484 68.2591 62.1988 65.7234C62.1151 61.3826 62.1569 57.0391 62.1375 52.6901C62.1217 51.2068 62.2129 49.7242 62.4106 48.2538C62.6879 46.2783 63.1624 44.3631 64.4069 42.7281C65.22 41.6584 65.2321 41.6627 64.4371 40.5348C61.6772 36.6128 60.1765 32.1894 59.146 27.5802C58.2194 23.4297 57.7147 19.2206 57.2868 15H57.1199C57.0647 20.4752 57.0871 25.944 57.0125 31.4136Z"
    fill="white"
  />
</svg>
