<svg width="100" height="100" viewBox="0 0 100 100" fill="none" xmlns="http://www.w3.org/2000/svg">
  <rect width="100" height="100" fill="white" />
  <g clip-path="url(#clip0_2_2294)">
    <path
      d="M47 49.52L72 63.84C72.2009 63.9608 72.4304 64.0259 72.6648 64.0286C72.8992 64.0313 73.13 63.9715 73.3337 63.8554C73.5373 63.7394 73.7064 63.5711 73.8235 63.3681C73.9406 63.165 74.0015 62.9344 74 62.7V36.32C74.003 36.0852 73.9428 35.8539 73.8257 35.6504C73.7086 35.4468 73.539 35.2785 73.3345 35.163C73.1301 35.0474 72.8983 34.989 72.6636 34.9938C72.4288 34.9985 72.1996 35.0663 72 35.19L47 49.52Z"
      fill="#31CB9E"
    />
    <path
      d="M71.47 28.85L54.38 16.28C54.203 16.1441 53.9954 16.0539 53.7753 16.0172C53.5553 15.9806 53.3296 15.9986 53.1181 16.0697C52.9067 16.1409 52.716 16.2629 52.5629 16.4252C52.4097 16.5874 52.2988 16.7848 52.24 17L46 45L71.32 31C71.5127 30.9009 71.6765 30.7538 71.7957 30.5729C71.9149 30.392 71.9855 30.1834 72.0006 29.9672C72.0157 29.7511 71.9747 29.5347 71.8818 29.339C71.7889 29.1433 71.647 28.9749 71.47 28.85Z"
      fill="#31CB9E"
    />
    <path
      d="M54.36 82.75L71.47 70.18C71.6494 70.0539 71.7934 69.8838 71.8882 69.6861C71.983 69.4884 72.0254 69.2696 72.0114 69.0507C71.9973 68.8319 71.9273 68.6203 71.808 68.4364C71.6886 68.2524 71.5241 68.1021 71.33 68L46 54L52.24 82C52.2918 82.2175 52.3968 82.4188 52.5455 82.5858C52.6943 82.7527 52.8823 82.8801 53.0925 82.9564C53.3026 83.0327 53.5285 83.0557 53.7498 83.0231C53.971 82.9906 54.1807 82.9036 54.36 82.77"
      fill="#31CB9E"
    />
    <path
      d="M40.5 49L47 18.6C47.0496 18.3481 47.023 18.0871 46.9234 17.8504C46.8238 17.6137 46.6559 17.4121 46.4411 17.2715C46.2263 17.1308 45.9745 17.0574 45.7177 17.0607C45.461 17.064 45.2111 17.1438 45 17.29L28.35 30.06C27.9284 30.3834 27.5872 30.7999 27.353 31.2769C27.1188 31.7539 26.998 32.2786 27 32.81V65.21C26.9918 65.7481 27.1096 66.2807 27.344 66.7651C27.5784 67.2496 27.9229 67.6725 28.35 68L44.92 80.73C45.1311 80.8762 45.381 80.956 45.6377 80.9593C45.8945 80.9626 46.1463 80.8892 46.3611 80.7485C46.5759 80.6078 46.7438 80.4063 46.8434 80.1696C46.943 79.9329 46.9696 79.6719 46.92 79.42L40.5 49Z"
      fill="#31CB9E"
    />
  </g>
  <defs>
    <clipPath id="clip0_2_2294">
      <rect width="47" height="67.05" fill="white" transform="translate(27 16)" />
    </clipPath>
  </defs>
</svg>
