<svg width="100" height="100" viewBox="0 0 100 100" fill="none" xmlns="http://www.w3.org/2000/svg">
  <rect width="100" height="100" fill="white" />
  <path
    d="M67.6852 42.5442H65.4963V28.6923C65.4963 20.5904 58.2794 14 49.4076 14C40.5358 14 33.3189 20.5904 33.3189 28.6923V42.5442H31.6534C29.6337 42.5442 28 44.1772 28 46.1961V75.3481C28 77.3669 29.6337 79 31.6534 79H67.6852C69.7049 79 71.3386 77.3669 71.3386 75.3481V46.1961C71.3386 44.1772 69.7049 42.5442 67.6852 42.5442ZM36.9723 28.6923C36.9723 22.604 42.5502 17.6466 49.4076 17.6466C56.265 17.6466 61.8429 22.5987 61.8429 28.6923V42.5442H36.9723V28.6923ZM67.6852 75.3428H31.6534V46.1908H67.6852V75.3428Z"
    fill="#017BFD"
  />
  <path
    d="M49.6669 67.1986C52.0144 67.1986 53.9177 65.296 53.9177 62.9495C53.9177 61.2847 52.9555 59.8472 51.5597 59.1496V56.0526C51.5597 55.0062 50.7137 54.1606 49.6669 54.1606C48.62 54.1606 47.7741 55.0062 47.7741 56.0526V59.1496C46.3783 59.8472 45.416 61.2847 45.416 62.9495C45.416 65.296 47.3194 67.1986 49.6669 67.1986Z"
    fill="#017BFD"
  />
</svg>
