<svg width="100" height="100" viewBox="0 0 100 100" fill="none" xmlns="http://www.w3.org/2000/svg">
  <rect width="100" height="100" fill="white" />
  <path
    fill-rule="evenodd"
    clip-rule="evenodd"
    d="M50.054 15.0025C48.8031 15.0025 47.5522 15.0711 46.3111 15.206C28.7106 17.0701 15 31.9408 15 50.0098C15 69.3322 30.6899 85 50.054 85H50.1324C55.7101 84.996 61.2055 83.6553 66.1584 81.0904C67.5736 80.3546 66.9629 78.2207 65.3735 78.2649H65.3073C51.2877 78.6205 38.7004 72.6997 33.5743 61.7288C30.4961 55.1605 30.6212 49.0802 32.0536 44.2754L32.0879 44.1503C32.8213 41.1899 34.1924 38.4601 36.2183 36.3336C36.3753 36.1472 36.542 35.9681 36.7235 35.8038C36.8364 35.6836 36.959 35.5732 37.0865 35.4727C37.133 35.4211 37.1822 35.372 37.2337 35.3255C37.2828 35.2912 37.3171 35.2544 37.3637 35.22C37.4533 35.1308 37.552 35.0511 37.658 34.9821C41.1143 32.1718 45.4375 30.6456 49.8921 30.6629C60.3479 30.6629 68.8318 38.8206 68.8318 48.8889C68.832 52.3531 67.8098 55.7403 65.8935 58.6261C74.2523 55.7442 80.232 48.0403 80.2295 38.9972C80.2295 33.849 78.287 29.1398 75.0592 25.4951C73.7067 24.1094 72.2406 22.8394 70.6762 21.6983L70.664 21.6861C64.6924 17.3395 57.4963 14.9986 50.1104 15L50.054 15.0025Z"
    fill="url(#paint0_linear_2_27128)"
  />
  <path
    fill-rule="evenodd"
    clip-rule="evenodd"
    d="M80.0286 38.7932C80.0286 47.8289 74.3359 55.5353 66.3597 58.4197C64.1186 59.2382 61.7505 59.6542 59.3646 59.6485C51.695 59.6485 45.0065 55.4323 41.4378 49.1608C40.5696 47.6327 39.8877 45.0329 39.4217 42.823C38.9851 40.7284 36.2528 40.1814 35.0486 41.9498C34.6316 42.5556 34.3201 43.2252 34.1313 43.9365C34.1067 44.0395 34.0773 44.1425 34.0552 44.2431C34.0463 44.2733 34.0422 44.3048 34.043 44.3363C33.4626 46.7326 33.3008 49.2111 33.5647 51.6625C33.6751 52.7613 33.8713 53.8479 34.1533 54.9172C34.4946 56.3225 34.9659 57.6929 35.5612 59.0108C39.9196 68.7921 49.6887 74.8062 62.5531 73.7613C63.8243 73.6573 65.0881 73.4771 66.3376 73.2217C76.9505 70.98 84.6029 61.3507 84.6666 50.0094V49.7985C84.6709 48.3924 84.5866 46.9875 84.414 45.5921C83.5671 38.0022 80.2902 30.8891 75.0717 25.3132C78.2705 29.0754 80.0275 33.8524 80.0286 38.7907V38.7932Z"
    fill="url(#paint1_linear_2_27128)"
  />
  <defs>
    <linearGradient
      id="paint0_linear_2_27128"
      x1="15"
      y1="85"
      x2="80.2295"
      y2="85"
      gradientUnits="userSpaceOnUse"
    >
      <stop stop-color="#2D2D4B" />
      <stop offset="1" stop-color="#1D1D3A" />
    </linearGradient>
    <linearGradient
      id="paint1_linear_2_27128"
      x1="33.442"
      y1="73.879"
      x2="84.6666"
      y2="73.879"
      gradientUnits="userSpaceOnUse"
    >
      <stop stop-color="#95A1D4" />
      <stop offset="1" stop-color="#594DA0" />
    </linearGradient>
  </defs>
</svg>
