<svg width="100" height="100" viewBox="0 0 100 100" fill="none" xmlns="http://www.w3.org/2000/svg">
  <rect width="100" height="100" fill="#54AFA0" />
  <path
    d="M25.5567 64.9876V41.4542L43.4033 54.8859V64.9876H47.9583V53.9376C47.9575 53.527 47.8615 53.1221 47.6779 52.7549C47.4942 52.3876 47.228 52.0679 46.9 51.8209L25.2567 35.5259C24.8608 35.2319 24.3912 35.0534 23.8999 35.0102C23.4087 34.9671 22.9151 35.061 22.4741 35.2815C22.033 35.5021 21.6617 35.8406 21.4015 36.2594C21.1413 36.6783 21.0023 37.1611 21 37.6542V64.9876H25.5567ZM74.9133 64.9876V41.4542L57.0667 54.8859V64.9876H52.5117V53.9376C52.5125 53.527 52.6085 53.1221 52.7921 52.7549C52.9758 52.3876 53.242 52.0679 53.57 51.8209L75.2133 35.5326C75.6088 35.2389 76.0778 35.0604 76.5684 35.017C77.0591 34.9736 77.5521 35.0669 77.993 35.2867C78.4338 35.5064 78.8052 35.8439 79.0659 36.2618C79.3266 36.6797 79.4665 37.1617 79.47 37.6542V64.9876H74.9133Z"
    fill="white"
  />
</svg>
