<svg width="100" height="100" viewBox="0 0 100 100" fill="none" xmlns="http://www.w3.org/2000/svg">
  <rect width="100" height="100" fill="white" />
  <path
    d="M82.4051 62.4812C82.407 54.1575 82.407 45.834 82.4051 37.5106C82.4384 36.6596 82.0148 35.8126 81.3376 35.3109C71.5046 28.0637 61.6714 20.8154 51.8381 13.566C51.5408 13.3314 51.197 13.1638 50.83 13.0744C50.4631 12.9851 50.0814 12.9761 49.7106 13.048C49.2525 13.1386 48.8395 13.3699 48.4715 13.6481C38.7084 20.8462 28.9448 28.0439 19.1808 35.2413C18.8158 35.4972 18.518 35.8388 18.3131 36.2366C18.1081 36.6345 18.0022 37.0767 18.0044 37.525C17.9985 45.8464 17.9985 54.1675 18.0044 62.4882C17.9916 63.3896 18.4552 64.2643 19.1899 64.7719C28.953 71.9663 38.7142 79.1623 48.4734 86.3599C49.4073 87.1658 50.8723 87.2295 51.8363 86.4439C61.6381 79.2246 71.4361 72.0018 81.2305 64.7756C81.9682 64.2743 82.4454 63.384 82.4043 62.4816"
    fill="#050708"
  />
  <path
    d="M46.8034 19.0054C47.0624 18.7094 47.325 18.248 47.7802 18.3094C49.3285 18.3186 50.8805 18.285 52.4285 18.326C52.6966 18.494 52.902 18.746 53.1313 18.9625C53.1254 20.5742 53.1254 22.1863 53.1313 23.7988C52.6706 23.8044 52.2084 23.8251 51.7477 23.7933C51.7198 23.6793 51.6644 23.4554 51.6376 23.3419C51.6376 22.1382 51.7411 20.9331 51.6413 19.7313C50.5034 19.7331 49.3663 19.7331 48.2299 19.7313C48.2244 20.1361 48.2226 20.5431 48.2189 20.9479C47.7399 20.9479 47.259 20.9479 46.7781 20.9442C46.7814 20.3 46.7109 19.6451 46.8034 19.0054Z"
    fill="white"
  />
  <path
    d="M42.9433 20.9721C43.4668 20.9517 43.9902 20.9517 44.5155 20.9647C44.5228 23.1944 44.532 25.4222 44.51 27.65C44.0104 27.6611 43.5112 27.6611 43.0134 27.6574C42.8472 25.4373 42.98 23.1999 42.9433 20.9721Z"
    fill="white"
  />
  <path
    d="M56.259 23.3678C57.6529 23.3493 59.0446 23.3548 60.4377 23.3641C60.4451 23.8791 60.4451 24.3923 60.4377 24.907C59.0438 24.9218 57.6499 24.9274 56.256 24.9033C56.2509 24.392 56.2509 23.8773 56.256 23.3678"
    fill="white"
  />
  <path
    d="M47.8065 24.127C48.3688 24.114 48.9312 24.1159 49.4939 24.1159C50.032 25.1719 50.7073 26.1572 51.1445 27.2635C50.6284 27.2879 50.1105 27.2879 49.5944 27.2898C48.9811 26.2453 48.389 25.1885 47.8065 24.127Z"
    fill="white"
  />
  <path
    d="M53.5477 25.9837C54.0341 25.9726 54.5205 25.9744 55.0091 25.9818C56.3333 28.0539 57.6204 30.1503 58.9545 32.2176C58.9545 32.8466 58.9545 33.4756 58.9435 34.1046C58.799 34.0783 58.5143 34.028 58.372 34.004C57.24 32.3019 56.1987 30.5392 55.0795 28.8298C55.0612 30.7538 55.085 32.6779 55.0667 34.6019C54.5597 34.6113 54.0517 34.6113 53.5426 34.6019C53.5363 31.7303 53.5272 28.8568 53.5477 25.9837Z"
    fill="white"
  />
  <path
    d="M59.5928 27.1497C60.1108 27.1386 60.6306 27.1386 61.1485 27.1534C61.1522 27.6459 61.1522 28.1406 61.1485 28.6334C60.6306 28.6464 60.1108 28.6464 59.5947 28.6371C59.591 28.1423 59.591 27.6465 59.5947 27.1497"
    fill="white"
  />
  <path
    d="M33.987 27.6366C34.3957 27.6292 34.8047 27.6311 35.2133 27.6348C36.3046 27.5608 37.394 27.5826 38.4856 27.6459C38.4893 28.1236 38.4856 28.6031 38.482 29.0808C36.868 30.0583 35.3171 31.1425 33.68 32.0778C33.1973 31.8928 32.829 31.5032 32.4351 31.1783C33.5062 30.5197 34.5549 29.8256 35.637 29.1855C35.0893 29.1574 34.5402 29.1611 33.9925 29.1555C33.983 28.6479 33.9812 28.1416 33.987 27.6366Z"
    fill="white"
  />
  <path
    d="M46.8986 28.2037C47.4 28.1889 47.9029 28.1908 48.4025 28.2037C48.4153 28.7114 48.4153 29.2168 48.4025 29.7244C47.9012 29.7392 47.3999 29.7399 46.8986 29.7263C46.8868 29.2186 46.8868 28.7111 46.8986 28.2037Z"
    fill="white"
  />
  <path
    d="M39.5396 29.6889C40.3426 30.9166 41.1213 32.1613 41.9349 33.3816C42.747 32.1465 43.5313 30.8926 44.3507 29.663C44.3507 30.477 44.4043 31.2996 44.3342 32.1128C43.5907 33.3982 42.7305 34.613 41.9294 35.8632C41.1415 34.6337 40.307 33.4301 39.5598 32.1765C39.475 31.3514 39.5359 30.5174 39.5396 29.6889Z"
    fill="white"
  />
  <path
    d="M61.7679 29.8963C64.1778 29.8852 66.588 29.8858 68.9985 29.8981C68.9985 30.3906 68.9985 30.8853 68.9963 31.3781C66.5878 31.3838 64.1783 31.3844 61.7679 31.38C61.7657 30.8853 61.7642 30.3895 61.7679 29.8963Z"
    fill="white"
  />
  <path
    d="M49.0109 31.8218C49.4954 31.8125 49.9818 31.8125 50.4686 31.8181C50.4928 33.9748 50.4686 36.1338 50.4814 38.2932C50.2558 38.5096 50.0321 38.7298 49.812 38.9499C48.1415 38.9684 46.4714 38.9499 44.8028 38.9592C44.5827 38.7464 44.3571 38.5429 44.159 38.3135C44.0739 37.6531 44.1366 36.9793 44.1348 36.3155C44.5994 36.3118 45.0655 36.3118 45.5331 36.3155C45.5459 36.6962 45.5441 37.0766 45.5386 37.4573C46.6875 37.5879 47.8451 37.4943 48.9995 37.5224C49.0054 35.6225 48.987 33.7195 49.0109 31.8218Z"
    fill="white"
  />
  <path
    d="M72.3118 38.1973C72.2966 36.5693 72.2966 34.9404 72.3118 33.3106C72.8169 33.2995 73.3216 33.2977 73.8286 33.3106C73.8449 34.9386 73.8449 36.5681 73.8286 38.1991C73.3231 38.2076 72.8184 38.2058 72.3133 38.1991"
    fill="white"
  />
  <path
    d="M65.1148 34.5406C66.0685 34.5313 67.0274 34.3818 67.976 34.5369C68.5973 36.58 69.1303 38.6547 69.748 40.7015C69.2598 40.7052 68.7694 40.7052 68.2808 40.7052C67.8146 39.1176 67.4169 37.511 66.936 35.9266C66.6679 35.9303 66.3998 35.934 66.1313 35.9359C65.7318 37.535 65.2509 39.1098 64.8382 40.703C64.346 40.7048 63.854 40.7041 63.3622 40.7012C63.9678 38.6547 64.536 36.5941 65.1148 34.5406Z"
    fill="white"
  />
  <path
    d="M24.3402 35.3205C26.5378 35.3075 28.7372 35.302 30.9344 35.3205C30.9472 35.83 30.9472 36.3373 30.9362 36.8468C28.7353 36.8671 26.5374 36.8616 24.338 36.8486C24.331 36.3391 24.331 35.8266 24.3402 35.3186"
    fill="white"
  />
  <path
    d="M31.9707 35.3224C32.4703 35.3187 32.9695 35.3168 33.471 35.3224C33.482 35.8337 33.482 36.3465 33.471 36.8579C32.9695 36.8634 32.4703 36.8616 31.9707 36.8579C31.9648 36.3465 31.9648 35.837 31.9707 35.3261"
    fill="white"
  />
  <path
    d="M37.4939 35.3853C37.984 35.3816 38.4762 35.3835 38.9663 35.389C38.981 36.5731 38.9736 37.7604 38.9736 38.9456C38.4759 38.9493 37.9785 38.9511 37.4829 38.9456C37.4778 37.7615 37.4624 36.5712 37.4939 35.3835"
    fill="white"
  />
  <path
    d="M75.9078 36.449C76.472 36.4379 77.038 36.4398 77.6021 36.4379C78.1608 37.4828 78.8398 38.473 79.2557 39.5893C78.7422 39.6078 78.2254 39.6096 77.7111 39.6118C77.1029 38.5614 76.5237 37.4936 75.9075 36.449"
    fill="white"
  />
  <path
    d="M53.6665 37.7162C54.1555 37.7125 54.6446 37.7125 55.1337 37.7162C55.1447 39.3394 55.137 40.9627 55.137 42.5862C54.6451 42.5899 54.1547 42.5918 53.6632 42.5918C53.6632 40.9671 53.6606 39.3402 53.6665 37.7144"
    fill="white"
  />
  <path
    d="M58.8268 39.6902C58.8209 39.1826 58.8209 38.6738 58.8268 38.1639C59.3205 38.1565 59.8172 38.1565 60.312 38.1695C60.312 38.6771 60.3157 39.1844 60.3083 39.6921C59.8154 39.6939 59.318 39.6921 58.825 39.6921"
    fill="white"
  />
  <path
    d="M30.9087 41.9403C32.0942 41.0671 33.3597 40.3078 34.5768 39.4831C35.3816 39.4923 36.1842 39.4831 36.989 39.4942C35.7939 40.3563 34.5233 41.1008 33.3209 41.9514C34.5566 42.7351 35.7682 43.5561 36.9963 44.3472C36.1695 44.362 35.3427 44.3527 34.5159 44.3546C33.3227 43.5376 32.0832 42.7847 30.9087 41.9403Z"
    fill="white"
  />
  <path
    d="M72.3135 40.5243C72.8201 40.5132 73.3271 40.5113 73.8358 40.5243C73.8483 41.0356 73.8468 41.5448 73.8322 42.0561C73.3271 42.0672 72.8205 42.0654 72.3154 42.0561C72.3044 41.5465 72.3044 41.0371 72.3154 40.528"
    fill="white"
  />
  <path
    d="M20.2767 40.7334C22.8078 40.7186 25.3432 40.7131 27.8775 40.7371C27.883 41.2204 27.883 41.7054 27.8848 42.1905C26.7528 42.9387 25.6208 43.6905 24.4573 44.3847C23.9654 44.2037 23.5935 43.7926 23.1735 43.4911C23.8004 43.0919 24.4368 42.7056 25.0442 42.2782C23.4552 42.2708 21.8665 42.2875 20.2756 42.269C20.2683 41.7576 20.2683 41.2458 20.2756 40.7334"
    fill="white"
  />
  <path
    d="M41.9477 42.2148C44.1398 42.2241 46.3315 42.2037 48.5217 42.2241C48.575 42.7269 48.5682 43.2344 48.5016 43.7356C46.3168 43.7448 44.1343 43.7374 41.9517 43.7393C41.9478 43.2294 41.9465 42.7213 41.9477 42.2148Z"
    fill="white"
  />
  <path
    d="M49.9542 42.2241C50.4813 42.213 51.0066 42.213 51.534 42.2315C51.5357 42.7278 51.535 43.2228 51.5318 43.7167C51.0066 43.7315 50.4794 43.7315 49.9545 43.7222C49.9494 43.2223 49.9494 42.7232 49.9545 42.2241"
    fill="white"
  />
  <path
    d="M56.8483 44.3624C56.7797 43.8381 57.3127 43.5695 57.5863 43.2095C58.2301 43.2095 58.8735 43.2058 59.5176 43.2187C59.5323 43.7075 59.5323 44.1963 59.5246 44.6873C59.1182 44.6947 58.7088 44.6947 58.3024 44.7002V48.182C60.1944 48.1949 62.0868 48.1746 63.9792 48.1931C63.9847 48.6874 63.9847 49.1821 63.9718 49.6731C61.841 49.6879 59.708 49.675 57.5772 49.6805C57.3054 49.3224 56.7838 49.0515 56.8502 48.5313C56.8406 47.1423 56.8406 45.7527 56.8502 44.3624"
    fill="white"
  />
  <path
    d="M64.023 43.8995C64.5447 43.881 65.0699 43.881 65.5934 43.8995C65.599 44.4032 65.599 44.907 65.5934 45.411C65.0699 45.4295 64.5483 45.4295 64.0249 45.411C64.0194 44.9052 64.0194 44.4016 64.0249 43.8958"
    fill="white"
  />
  <path
    d="M69.0086 43.8995C71.2135 43.8695 73.4165 43.8902 75.6215 43.8884C75.6251 44.4016 75.6251 44.9166 75.6193 45.4295C73.4162 45.4295 71.2135 45.448 69.01 45.4202C69.0027 44.9126 69.0027 44.4057 69.01 43.8995"
    fill="white"
  />
  <path
    d="M38.4651 45.674C39.7009 45.6722 40.9345 45.674 42.1699 45.6722C42.1809 46.1902 42.1809 46.7082 42.1699 47.2262C40.936 47.2282 39.7027 47.2282 38.4703 47.2262C38.4487 46.7082 38.4476 46.1908 38.467 45.674"
    fill="white"
  />
  <path
    d="M46.6133 45.674C48.552 45.6721 50.4906 45.674 52.4288 45.6703C53.1331 45.5593 53.8385 46.2971 53.7493 46.9986C53.7452 48.435 53.7444 49.8729 53.7471 51.3125C53.4992 51.583 53.2497 51.8497 52.9999 52.1184C52.358 52.1184 51.7183 52.1184 51.0764 52.111C51.071 51.6176 51.0704 51.125 51.0745 50.6332C51.4758 50.6276 51.8779 50.6239 52.2788 50.6184C52.2788 49.4876 52.2788 48.355 52.2824 47.2243C50.3992 47.0545 48.5017 47.1962 46.613 47.1459C46.6083 46.6525 46.6083 46.1619 46.613 45.674"
    fill="white"
  />
  <path
    d="M32.9509 46.1291C33.898 46.1236 34.8433 46.118 35.7904 46.1328C36.3637 48.1982 36.9796 50.2525 37.5217 52.3275C37.0449 52.3275 36.568 52.3275 36.0937 52.3312C35.6074 50.7376 35.2317 49.1144 34.7303 47.5285C34.4603 47.5452 34.1904 47.5655 33.92 47.5862C33.5613 49.1836 33.0488 50.7394 32.6567 52.3293C32.1666 52.3293 31.6762 52.3294 31.1895 52.3238C31.7727 50.2588 32.3534 48.1908 32.9502 46.1291"
    fill="white"
  />
  <path
    d="M74.2695 47.9951C75.9202 47.9784 77.573 47.9614 79.2215 48.0006C79.6378 48.2596 80.1074 48.68 80.0168 49.232C80.0168 50.416 80.0094 51.6034 80.0168 52.7885C80.0021 53.3576 80.0278 53.9267 80.0112 54.4957C80.0373 54.9604 79.9115 55.4174 79.9379 55.884C79.468 55.884 78.9981 55.884 78.5282 55.8784C78.5337 53.7402 78.5282 51.6 78.5319 49.4618C77.379 49.43 76.2272 49.4544 75.0747 49.4451C75.0725 49.8425 75.0725 50.2399 75.0655 50.6391C74.5806 50.6465 74.0958 50.649 73.6111 50.6465C73.6019 49.9916 73.6041 49.3349 73.6056 48.68C73.829 48.4543 74.0491 48.2263 74.2692 47.9951"
    fill="white"
  />
  <path
    d="M27.296 48.0546H28.8293C28.833 49.6797 28.8293 51.3029 28.8293 52.9265H27.2887C27.296 51.3033 27.2905 49.6782 27.2942 48.0546"
    fill="white"
  />
  <path
    d="M22.4852 49.4133C22.9885 49.4059 23.4914 49.4207 23.9928 49.4544C23.9985 49.9356 23.9985 50.4176 23.9928 50.9004C23.4859 50.9059 22.9793 50.9078 22.4724 50.9004C22.4669 50.4038 22.4687 49.9095 22.4852 49.4152"
    fill="white"
  />
  <path
    d="M40.5015 58.3189C40.4883 55.4455 40.4877 52.5717 40.4996 49.6978C40.9992 49.6904 41.4985 49.6904 41.9981 49.7015C43.1719 51.6103 44.3824 53.4985 45.5811 55.394C46.099 56.0674 45.7884 56.9706 45.8716 57.7543C45.6977 57.7543 45.5239 57.758 45.3518 57.7617C44.2734 56.0338 43.1469 54.3358 42.1147 52.5816C41.928 54.4886 42.0813 56.4123 42.0204 58.3267C41.5124 58.3319 41.0062 58.3319 40.5015 58.3189Z"
    fill="white"
  />
  <path
    d="M47.1612 50.803C47.6696 50.7919 48.1783 50.7907 48.6872 50.7993C48.6945 52.0551 48.6927 53.3109 48.6872 54.5663C48.1766 54.5756 47.6678 54.5756 47.1576 54.5626C47.1491 53.3091 47.1469 52.0551 47.1576 50.803"
    fill="white"
  />
  <path
    d="M56.3842 52.4825C56.8819 52.4788 57.3812 52.477 57.8808 52.4825C57.8901 52.9939 57.8901 53.5051 57.8808 54.0162C57.3812 54.0182 56.8823 54.0182 56.3842 54.0162C56.3783 53.5068 56.3783 52.9962 56.3842 52.4844"
    fill="white"
  />
  <path
    d="M61.2355 52.5495C62.7857 52.5292 64.3358 52.5403 65.8878 52.544C65.9506 53.0009 65.9894 53.4656 65.9451 53.9285C65.7983 54.229 65.4473 54.1095 65.1847 54.1376C63.8641 54.0984 62.5396 54.2142 61.2282 54.0636C61.219 53.557 61.219 53.0535 61.2355 52.5495Z"
    fill="white"
  />
  <path
    d="M67.4896 52.7659C67.9892 52.7585 68.4939 52.7249 68.9935 52.8029C69.0416 54.5679 69.0137 56.3387 69.0045 58.1059C68.4995 58.1153 67.9952 58.1153 67.4914 58.1059C67.4745 56.3266 67.4745 54.5473 67.4914 52.7678"
    fill="white"
  />
  <path
    d="M53.6663 53.8116C54.1546 53.8116 54.645 53.8079 55.1336 53.8116C55.1391 54.3193 55.1405 54.8284 55.1336 55.3397C54.6445 55.3471 54.1554 55.3471 53.6663 55.3397C53.6627 54.8306 53.6627 54.3193 53.6663 53.8098"
    fill="white"
  />
  <path
    d="M30.149 54.8967C31.8913 54.7065 33.6506 54.8575 35.4003 54.8016C35.8511 54.7958 36.302 54.8163 36.7505 54.863C36.7578 55.3762 36.756 55.8913 36.7505 56.4041C34.5496 56.4004 32.3535 56.4152 30.1563 56.3967C30.1431 55.8968 30.1431 55.3977 30.1471 54.8967"
    fill="white"
  />
  <path
    d="M20.2779 56.0316C20.5167 55.7967 20.7569 55.5595 20.9975 55.3246C21.634 55.3209 22.27 55.319 22.905 55.332C22.9123 55.817 22.9123 56.304 22.9086 56.789C22.5129 56.7983 22.1189 56.8002 21.7231 56.8039C21.7323 57.9609 21.7176 59.1175 21.7323 60.2745C23.606 60.2801 25.48 60.2616 27.3537 60.2838C27.3629 60.7614 27.3629 61.2373 27.3592 61.7149C26.8948 61.7168 26.4286 61.7186 25.9653 61.7186C24.3025 61.702 22.6376 61.7468 20.9766 61.6983C20.6993 61.5396 20.4198 61.2783 20.294 60.982C20.2503 59.3328 20.2889 57.6815 20.2797 56.0316"
    fill="white"
  />
  <path
    d="M59.1511 56.9936C59.4009 56.7568 59.6526 56.5196 59.9097 56.2883C61.5299 56.3013 63.1505 56.2883 64.7707 56.2939C65.015 56.5288 65.2589 56.766 65.5043 56.9991C65.5063 58.6168 65.5063 60.2338 65.5043 61.8503C65.0106 61.854 64.5165 61.8503 64.0246 61.8373C64.0246 60.4772 64.0136 59.1189 64.0301 57.7587C62.893 57.7569 61.7606 57.7587 60.6265 57.7569C60.6283 58.1709 60.6265 58.5853 60.6173 58.9994C60.1309 59.0068 59.6445 59.0068 59.1596 59.0049C59.1438 58.3345 59.1475 57.6648 59.1493 56.9936"
    fill="white"
  />
  <path
    d="M69.5538 59.8489C71.3512 58.6679 73.1665 57.5179 74.979 56.3635C75.4118 56.6547 75.8373 56.9607 76.2591 57.2667C74.9548 58.1053 73.6513 58.9419 72.3489 59.7764C74.2633 59.7968 76.1781 59.7764 78.0943 59.7875C78.098 60.3007 78.098 60.8158 78.0943 61.3286C75.2488 61.338 72.4038 61.338 69.5593 61.3286C69.552 60.8339 69.552 60.3396 69.5556 59.8486"
    fill="white"
  />
  <path
    d="M49.212 60.1417C51.0157 58.9307 52.8765 57.8073 54.6798 56.5967C55.1086 56.8953 55.5326 57.1994 55.9691 57.4847C54.7219 58.369 53.3981 59.1397 52.1271 59.9922C54.0305 60.0259 55.9339 59.9885 57.8373 60.0126C57.8501 60.5406 57.8501 61.0704 57.8373 61.5984C54.9886 61.6151 52.1396 61.604 49.2905 61.604C49.2172 61.1196 49.2172 60.629 49.2139 60.1399"
    fill="white"
  />
  <path
    d="M30.4893 58.8356C31.2809 60.0566 32.0747 61.2776 32.8571 62.5019C33.6967 61.2928 34.4479 60.0229 35.2802 58.8074C35.2967 59.6303 35.2839 60.4551 35.2912 61.278C34.4626 62.502 33.704 63.7744 32.8534 64.9817C32.0655 63.7689 31.3014 62.5397 30.4801 61.349C30.472 60.5113 30.4636 59.6718 30.4893 58.8356Z"
    fill="white"
  />
  <path
    d="M39.165 61.9684C39.1467 61.446 39.1448 60.9235 39.1742 60.4029C39.672 60.3974 40.173 60.3992 40.6708 60.4399C40.6818 60.949 40.6818 61.4584 40.6708 61.968C40.1704 61.9721 39.669 61.974 39.1668 61.968"
    fill="white"
  />
  <path
    d="M46.2172 62.7225C46.7223 62.717 47.2289 62.7151 47.734 62.7225C47.7468 64.6199 47.734 66.5177 47.7413 68.4151C47.3825 68.4299 47.0234 68.4469 46.6647 68.4802C46.5499 68.4576 46.3206 68.4169 46.2058 68.3962C46.2172 66.5062 46.1966 64.6144 46.2172 62.7244"
    fill="white"
  />
  <path
    d="M56.6667 63.9128C57.6204 63.8943 58.5715 63.9072 59.5245 63.9017C60.109 65.967 60.6942 68.0326 61.2801 70.0982C60.7882 70.0982 60.2959 70.0982 59.8059 70.0871C59.3877 68.5086 58.9347 66.9394 58.5092 65.3628C58.2429 65.3462 57.9766 65.3347 57.7103 65.3218C57.2701 66.915 56.8311 68.5079 56.3934 70.1004C55.9015 70.1004 55.4111 70.1004 54.921 70.093C55.52 68.0369 56.1157 65.9807 56.6667 63.9139"
    fill="white"
  />
  <path
    d="M35.0706 67.3346C36.8852 66.1591 38.6962 64.9762 40.5361 63.8399C40.9598 64.1404 41.3871 64.4319 41.8068 64.7394C40.4899 65.566 39.1987 66.4355 37.8686 67.2395C39.7963 67.2765 41.7253 67.234 43.6548 67.2621C43.6639 67.7734 43.6658 68.2844 43.6511 68.7958C40.7933 68.805 37.9354 68.8183 35.0776 68.7902C35.0633 68.3048 35.0651 67.8197 35.0706 67.3346Z"
    fill="white"
  />
  <path
    d="M50.0596 64.215C50.5909 64.2209 51.1219 64.1885 51.6486 64.1181C52.2722 65.1541 53.008 66.1816 53.3282 67.3608C52.8305 67.3645 52.3331 67.3645 51.8375 67.3682C51.2521 66.3122 50.6594 65.2612 50.0596 64.215Z"
    fill="white"
  />
  <path
    d="M71.0669 64.8473C71.5867 64.8307 72.1083 64.8307 72.6296 64.8418C72.6318 65.3435 72.6318 65.8461 72.6296 66.3496C72.1083 66.3625 71.5882 66.3625 71.0684 66.3403C71.0592 65.8419 71.0592 65.3457 71.0684 64.8473"
    fill="white"
  />
  <path
    d="M67.2365 68.8628C67.8656 67.8423 68.5387 66.8514 69.1714 65.8328C69.1898 66.5883 69.2011 67.3461 69.1824 68.1035C69.2008 68.3873 68.9957 68.6074 68.8644 68.8368C68.1674 69.8762 67.4991 70.9359 66.815 71.9819C65.9919 70.7431 65.1948 69.491 64.3808 68.2448C64.3772 67.4164 64.3698 66.5879 64.39 65.7614C65.1889 66.9687 65.9438 68.2075 66.7614 69.4033C66.9922 69.3049 67.096 69.0552 67.2383 68.8628"
    fill="white"
  />
  <path
    d="M28.5249 67.3946C29.8586 67.3498 31.1942 67.372 32.5298 67.3816C32.5371 67.8796 32.5686 68.3806 32.5056 68.8779C31.181 68.943 29.8513 68.9116 28.5267 68.8872C28.5212 68.3891 28.5212 67.8926 28.5249 67.3946Z"
    fill="white"
  />
  <path
    d="M44.7841 70.6468C46.9222 70.615 49.0589 70.6468 51.1971 70.6302C51.4416 70.8769 51.6861 71.125 51.9307 71.3746C51.9215 73.0223 51.9252 74.6718 51.927 76.3227C51.7126 76.5484 51.5004 76.7767 51.2906 77.0076C50.6061 77.0224 49.9217 77.0243 49.2364 77.0039C49.2456 76.5373 49.1866 76.0615 49.2973 75.6046C49.684 75.5635 50.0724 75.5783 50.4627 75.5746C50.4664 74.4198 50.4627 73.2665 50.4627 72.1135C48.5685 72.1024 46.6724 72.138 44.7804 72.095C44.7745 71.6118 44.7745 71.1291 44.7804 70.6468"
    fill="white"
  />
  <path
    d="M34.512 71.1952C35.0113 71.1878 35.5114 71.189 36.0122 71.1989C36.0196 71.7023 36.0202 72.2074 36.0141 72.7141C35.5108 72.7215 35.0095 72.7221 34.5101 72.7159C34.5033 72.2083 34.5033 71.7014 34.5101 71.1952"
    fill="white"
  />
  <path
    d="M60.967 72.0103C61.533 71.5293 62.0472 72.3311 62.5318 72.5653C62.5318 72.6101 62.5318 72.7015 62.5318 72.7463C61.2667 73.5691 59.9718 74.3473 58.7342 75.2131L59.452 75.2075C59.8328 75.2075 60.2151 75.2119 60.5991 75.2205C60.6027 75.7244 60.6027 76.2299 60.5954 76.7338C59.0379 76.7564 57.4804 76.7505 55.9229 76.7375C55.8914 76.2617 55.8862 75.784 55.8822 75.31C57.545 74.163 59.28 73.127 60.9651 72.0103"
    fill="white"
  />
  <path
    d="M37.322 73.4096C39.3439 73.4022 41.3676 73.3911 43.3891 73.4152C43.3928 73.9169 43.3928 74.4195 43.3891 74.9229C41.3654 74.9529 39.3435 74.9396 37.3202 74.9303C37.311 74.4231 37.3128 73.9154 37.3202 73.4096"
    fill="white"
  />
  <path
    d="M42.7102 77.2833C43.2799 77.2778 43.8495 77.2759 44.4196 77.287C44.9467 78.3449 45.6476 79.3191 46.053 80.4365C45.5424 80.4647 45.0336 80.4647 44.5234 80.4684C43.8998 79.4179 43.3169 78.3423 42.7102 77.2833Z"
    fill="white"
  />
  <path
    d="M52.8078 78.8917C53.3055 78.888 53.8029 78.8954 54.2985 78.9287C54.3077 79.4308 54.304 79.9344 54.2413 80.4347C53.7659 80.4366 53.2917 80.4366 52.8188 80.4347C52.8004 79.9167 52.8004 79.4049 52.8074 78.8917"
    fill="white"
  />
  <path
    d="M49.3399 83.885C49.3399 82.7131 49.3138 81.5395 49.3582 80.3677C49.8596 80.3677 50.3625 80.3958 50.8621 80.4417C50.8678 81.5892 50.8678 82.7373 50.8621 83.8861C50.3545 83.894 49.847 83.894 49.3399 83.8861"
    fill="white"
  />
</svg>
