<svg width="100" height="100" viewBox="0 0 100 100" fill="none" xmlns="http://www.w3.org/2000/svg">
  <rect width="100" height="100" fill="white" />
  <path
    d="M23.9535 48.6884C23.9539 49.4246 23.7334 50.1443 23.3199 50.7566C22.9064 51.3688 22.3184 51.8461 21.6304 52.1281C20.9425 52.4101 20.1853 52.4841 19.4548 52.3407C18.7243 52.1973 18.0532 51.843 17.5264 51.3226C16.9996 50.8022 16.6408 50.139 16.4954 49.417C16.35 48.695 16.4244 47.9466 16.7093 47.2665C16.9943 46.5863 17.4769 46.005 18.0961 45.596C18.7154 45.1869 19.4434 44.9686 20.1882 44.9686C21.1865 44.9686 22.1439 45.3605 22.85 46.058C23.5561 46.7555 23.953 47.7017 23.9535 48.6884ZM83.7785 48.6884C83.7788 49.4246 83.5583 50.1444 83.1447 50.7568C82.7311 51.3691 82.1431 51.8464 81.455 52.1283C80.7669 52.4102 80.0096 52.4841 79.2791 52.3405C78.5485 52.197 77.8774 51.8425 77.3507 51.3219C76.824 50.8013 76.4653 50.138 76.3201 49.4159C76.1749 48.6938 76.2496 47.9453 76.5348 47.2652C76.8201 46.5851 77.303 46.0038 77.9225 45.595C78.5419 45.1862 79.2702 44.9682 80.0151 44.9686C81.0117 44.9711 81.9667 45.364 82.6707 46.0613C83.3747 46.7586 83.7704 47.7033 83.7709 48.6884M53.8669 63.3704C53.8673 64.1066 53.6467 64.8264 53.2332 65.4388C52.8196 66.0511 52.2315 66.5284 51.5434 66.8103C50.8553 67.0922 50.0981 67.1661 49.3675 67.0225C48.637 66.879 47.9659 66.5245 47.4392 66.0039C46.9125 65.4833 46.5538 64.82 46.4086 64.0979C46.2634 63.3758 46.3381 62.6273 46.6233 61.9472C46.9085 61.2671 47.3914 60.6858 48.0109 60.277C48.6304 59.8682 49.3587 59.6502 50.1035 59.6506C51.1015 59.6511 52.0584 60.0432 52.7641 60.7407C53.4698 61.4381 53.8664 62.384 53.8669 63.3704ZM38.8076 56.1223C38.8076 56.8584 38.5868 57.578 38.1731 58.19C37.7593 58.802 37.1713 59.279 36.4833 59.5607C35.7952 59.8424 35.0382 59.9161 34.3078 59.7725C33.5774 59.6289 32.9065 59.2744 32.3799 58.754C31.8533 58.2335 31.4947 57.5703 31.3494 56.8484C31.2041 56.1265 31.2787 55.3782 31.5637 54.6981C31.8486 54.0181 32.3312 53.4368 32.9504 53.0279C33.5696 52.619 34.2976 52.4007 35.0423 52.4007C36.041 52.4007 36.9987 52.7928 37.7048 53.4907C38.4109 54.1887 38.8076 55.1353 38.8076 56.1223ZM68.7211 56.1223C68.7229 56.8591 68.5035 57.5799 68.0906 58.1933C67.6777 58.8067 67.0898 59.2852 66.4015 59.5681C65.7132 59.851 64.9555 59.9256 64.2242 59.7825C63.493 59.6393 62.8212 59.2849 62.294 58.764C61.7667 58.2431 61.4078 57.5793 61.2626 56.8566C61.1174 56.134 61.1925 55.3849 61.4784 54.7045C61.7642 54.024 62.248 53.4427 62.8684 53.0343C63.4888 52.6258 64.2179 52.4086 64.9634 52.4101C65.959 52.4121 66.9133 52.8037 67.6176 53.4994C68.3218 54.1951 68.7185 55.1382 68.7211 56.1223ZM22.732 59.9529C22.7316 60.4502 22.582 60.9362 22.3022 61.3495C22.0224 61.7627 21.6249 62.0847 21.1599 62.2747C20.695 62.4646 20.1834 62.514 19.6901 62.4166C19.1967 62.3193 18.7436 62.0795 18.3882 61.7276C18.0327 61.3757 17.7907 60.9275 17.693 60.4397C17.5952 59.9519 17.6459 59.4464 17.8388 58.9871C18.0317 58.5279 18.358 58.1354 18.7765 57.8595C19.1951 57.5835 19.687 57.4364 20.1901 57.4368C20.5242 57.437 20.8549 57.5023 21.1634 57.6289C21.4719 57.7554 21.7522 57.9409 21.9883 58.1745C22.2243 58.4081 22.4115 58.6855 22.5391 58.9906C22.6667 59.2957 22.7322 59.6227 22.732 59.9529ZM82.5569 59.9529C82.5565 60.4502 82.407 60.9362 82.1272 61.3495C81.8473 61.7627 81.4498 62.0847 80.9849 62.2747C80.5199 62.4646 80.0084 62.514 79.515 62.4166C79.0217 62.3193 78.5686 62.0795 78.2131 61.7276C77.8576 61.3757 77.6157 60.9275 77.5179 60.4397C77.4201 59.9519 77.4709 59.4464 77.6638 58.9871C77.8566 58.5279 78.183 58.1354 78.6015 57.8595C79.02 57.5835 79.5119 57.4364 80.0151 57.4368C80.6896 57.4373 81.3363 57.7023 81.8132 58.1737C82.2901 58.6451 82.5583 59.2844 82.5588 59.951M52.6454 74.834C52.6458 75.3314 52.4969 75.8178 52.2175 76.2315C51.9381 76.6453 51.5409 76.9678 51.076 77.1584C50.6111 77.3489 50.0995 77.3989 49.6058 77.3019C49.1122 77.2049 48.6588 76.9654 48.3029 76.6137C47.9471 76.262 47.7047 75.8138 47.6067 75.3259C47.5086 74.838 47.5591 74.3323 47.7519 73.8728C47.9446 73.4133 48.271 73.0206 48.6896 72.7445C49.1082 72.4684 49.6003 72.3212 50.1035 72.3215C50.7774 72.3225 51.4233 72.5876 51.8998 73.0585C52.3763 73.5295 52.6444 74.1679 52.6454 74.834ZM37.588 67.3887C37.588 67.8861 37.4388 68.3723 37.1592 68.7858C36.8796 69.1993 36.4822 69.5216 36.0173 69.7118C35.5523 69.9021 35.0408 69.9517 34.5473 69.8546C34.0538 69.7574 33.6005 69.5178 33.2449 69.1659C32.8892 68.8141 32.6471 68.3659 32.5491 67.8781C32.4512 67.3903 32.5018 66.8847 32.6947 66.4253C32.8875 65.9659 33.2138 65.5733 33.6324 65.2973C34.0509 65.0212 34.5429 64.8741 35.0461 64.8745C35.3801 64.8745 35.7108 64.9395 36.0193 65.0659C36.3278 65.1923 36.6081 65.3775 36.8442 65.611C37.0802 65.8445 37.2674 66.1217 37.3951 66.4267C37.5227 66.7317 37.5882 67.0587 37.588 67.3887ZM67.5014 67.3887C67.5025 67.8865 67.3542 68.3734 67.0751 68.7877C66.796 69.2021 66.3988 69.5252 65.9337 69.7162C65.4687 69.9072 64.9568 69.9575 64.4628 69.8606C63.9688 69.7638 63.515 69.5242 63.159 69.1722C62.8029 68.8203 62.5605 68.3718 62.4625 67.8835C62.3645 67.3953 62.4154 66.8893 62.6086 66.4296C62.8019 65.9699 63.1288 65.5773 63.548 65.3015C63.9672 65.0256 64.4598 64.879 64.9634 64.8801C65.6357 64.8821 66.2799 65.1471 66.7551 65.6172C67.2304 66.0873 67.498 66.7242 67.4995 67.3887M21.5123 68.8008C21.5123 69.0608 21.4343 69.3149 21.2882 69.531C21.1421 69.7472 20.9344 69.9157 20.6914 70.0152C20.4484 70.1146 20.181 70.1407 19.9231 70.09C19.6651 70.0392 19.4282 69.9141 19.2422 69.7302C19.0562 69.5464 18.9295 69.3122 18.8782 69.0572C18.8269 68.8023 18.8533 68.538 18.9539 68.2978C19.0546 68.0576 19.225 67.8523 19.4437 67.7079C19.6624 67.5635 19.9195 67.4864 20.1825 67.4864C20.5352 67.4864 20.8734 67.6249 21.1228 67.8714C21.3722 68.1179 21.5123 68.4522 21.5123 68.8008ZM81.3373 68.8008C81.3373 69.0608 81.2593 69.3149 81.1132 69.531C80.967 69.7472 80.7593 69.9157 80.5164 70.0152C80.2734 70.1146 80.006 70.1407 79.748 70.09C79.4901 70.0392 79.2531 69.9141 79.0671 69.7302C78.8812 69.5464 78.7545 69.3122 78.7032 69.0572C78.6519 68.8023 78.6782 68.538 78.7789 68.2978C78.8795 68.0576 79.05 67.8523 79.2686 67.7079C79.4873 67.5635 79.7444 67.4864 80.0075 67.4864C80.3601 67.4864 80.6984 67.6249 80.9478 67.8714C81.1972 68.1179 81.3373 68.4522 81.3373 68.8008ZM51.4239 83.6856C51.4239 83.9456 51.3459 84.1997 51.1997 84.4158C51.0536 84.632 50.8459 84.8005 50.6029 84.8999C50.3599 84.9994 50.0926 85.0255 49.8346 84.9747C49.5766 84.924 49.3397 84.7988 49.1537 84.615C48.9677 84.4312 48.8411 84.197 48.7898 83.942C48.7384 83.687 48.7648 83.4228 48.8654 83.1826C48.9661 82.9424 49.1365 82.7371 49.3552 82.5927C49.5739 82.4483 49.831 82.3712 50.094 82.3712C50.4467 82.3712 50.785 82.5097 51.0344 82.7561C51.2838 83.0027 51.4239 83.337 51.4239 83.6856ZM36.3665 76.2441C36.3665 76.5041 36.2885 76.7582 36.1423 76.9744C35.9962 77.1905 35.7885 77.359 35.5455 77.4585C35.3025 77.558 35.0352 77.584 34.7772 77.5333C34.5192 77.4826 34.2823 77.3574 34.0963 77.1736C33.9103 76.9897 33.7837 76.7555 33.7324 76.5006C33.6811 76.2456 33.7074 75.9813 33.808 75.7411C33.9087 75.5009 34.0791 75.2957 34.2978 75.1512C34.5165 75.0068 34.7736 74.9297 35.0366 74.9297C35.3893 74.9297 35.7276 75.0682 35.977 75.3147C36.2264 75.5612 36.3665 75.8955 36.3665 76.2441ZM66.2799 76.2441C66.2799 76.5041 66.2019 76.7582 66.0558 76.9744C65.9096 77.1905 65.702 77.359 65.459 77.4585C65.216 77.558 64.9486 77.584 64.6906 77.5333C64.4327 77.4826 64.1957 77.3574 64.0097 77.1736C63.8237 76.9897 63.6971 76.7555 63.6458 76.5006C63.5945 76.2456 63.6208 75.9813 63.7215 75.7411C63.8221 75.5009 63.9926 75.2957 64.2112 75.1512C64.4299 75.0068 64.687 74.9297 64.9501 74.9297C65.3027 74.9297 65.641 75.0682 65.8904 75.3147C66.1398 75.5612 66.2799 75.8955 66.2799 76.2441ZM55.0847 20.0286C55.0847 21.0233 54.7862 21.9957 54.227 22.8227C53.6678 23.6497 52.873 24.2942 51.9432 24.6747C51.0133 25.0552 49.9902 25.1546 49.0032 24.9602C48.0162 24.7659 47.1097 24.2866 46.3984 23.583C45.687 22.8793 45.2028 21.983 45.0069 21.0073C44.811 20.0316 44.9123 19.0204 45.298 18.1016C45.6836 17.1828 46.3363 16.3977 47.1734 15.8456C48.0106 15.2935 48.9946 14.9993 50.0009 15C51.3496 15.001 52.6426 15.5312 53.5959 16.4742C54.5492 17.4171 55.0847 18.6956 55.0847 20.0286ZM55.0847 34.904C55.0847 35.8986 54.7862 36.8709 54.2271 37.6979C53.668 38.5249 52.8734 39.1694 51.9436 39.5499C51.0139 39.9305 49.9909 40.03 49.0039 39.8358C48.017 39.6416 47.1105 39.1625 46.3991 38.459C45.6876 37.7556 45.2032 36.8594 45.0071 35.8838C44.8111 34.9083 44.9121 33.8971 45.2974 32.9783C45.6828 32.0595 46.3352 31.2743 47.1721 30.722C48.0089 30.1696 48.9927 29.875 49.999 29.8754C51.348 29.8759 52.6416 30.4059 53.5952 31.3489C54.5489 32.2919 55.0847 33.5706 55.0847 34.904ZM55.0847 49.5878C55.0847 50.5825 54.7862 51.5548 54.2271 52.3818C53.668 53.2087 52.8734 53.8533 51.9436 54.2338C51.0139 54.6144 49.9909 54.7138 49.0039 54.5196C48.017 54.3255 47.1105 53.8464 46.3991 53.1429C45.6876 52.4395 45.2032 51.5433 45.0071 50.5677C44.8111 49.5921 44.9121 48.581 45.2974 47.6622C45.6828 46.7434 46.3352 45.9581 47.1721 45.4058C48.0089 44.8535 48.9927 44.5589 49.999 44.5593C50.6676 44.5595 51.3296 44.69 51.9471 44.9433C52.5647 45.1966 53.1256 45.5677 53.5979 46.0354C54.0702 46.5031 54.4447 47.0583 54.6998 47.6691C54.9549 48.28 55.0857 48.9345 55.0847 49.5953M85 34.904C85 35.8985 84.7016 36.8707 84.1426 37.6977C83.5836 38.5246 82.789 39.1692 81.8594 39.5498C80.9298 39.9304 79.9068 40.0299 78.9199 39.8359C77.9331 39.6419 77.0266 39.163 76.315 38.4597C75.6035 37.7564 75.119 36.8604 74.9227 35.885C74.7264 34.9095 74.8271 33.8985 75.2122 32.9796C75.5973 32.0608 76.2494 31.2754 77.086 30.7229C77.9226 30.1703 78.9062 29.8754 79.9125 29.8754C81.2618 29.8754 82.5558 30.4052 83.5099 31.3482C84.464 32.2913 85 33.5703 85 34.904ZM25.175 34.904C25.1765 35.8988 24.8794 36.8718 24.3213 37.6997C23.7632 38.5277 22.9692 39.1734 22.0397 39.5551C21.1102 39.9369 20.087 40.0375 19.0997 39.8443C18.1123 39.6512 17.2051 39.1728 16.4928 38.4699C15.7805 37.7669 15.2952 36.8709 15.0983 35.8953C14.9014 34.9196 15.0017 33.9082 15.3865 32.9889C15.7714 32.0696 16.4235 31.2838 17.2603 30.7309C18.0971 30.178 19.081 29.8829 20.0875 29.8829C21.4355 29.8829 22.7284 30.4117 23.6823 31.3531C24.6361 32.2945 25.173 33.5716 25.175 34.904ZM40.2324 27.4625C40.2339 28.4571 39.937 29.4297 39.3793 30.2575C38.8215 31.0853 38.0279 31.731 37.0989 32.1129C36.1698 32.4949 35.147 32.596 34.1599 32.4034C33.1727 32.2109 32.2654 31.7333 31.5529 31.0311C30.8403 30.3289 30.3544 29.4336 30.1566 28.4584C29.9589 27.4833 30.0581 26.472 30.4418 25.5526C30.8254 24.6332 31.4763 23.8469 32.3121 23.2931C33.1479 22.7393 34.1311 22.4429 35.1373 22.4415C36.4866 22.4415 37.7806 22.9713 38.7347 23.9143C39.6888 24.8573 40.2248 26.1364 40.2248 27.47M40.2248 42.152C40.2248 43.1466 39.9265 44.1188 39.3674 44.9457C38.8084 45.7727 38.0139 46.4172 37.0842 46.7978C36.1546 47.1784 35.1317 47.278 34.1448 47.084C33.1579 46.8899 32.2514 46.411 31.5399 45.7077C30.8284 45.0045 30.3439 44.1085 30.1476 43.133C29.9513 42.1576 30.052 41.1465 30.4371 40.2277C30.8221 39.3088 31.4742 38.5235 32.3108 37.9709C33.1475 37.4184 34.1311 37.1234 35.1373 37.1234C36.4866 37.1234 37.7806 37.6532 38.7347 38.5963C39.6888 39.5393 40.2248 40.8184 40.2248 42.152ZM70.1459 27.47C70.1459 28.4646 69.8475 29.4368 69.2885 30.2637C68.7294 31.0907 67.9349 31.7352 67.0053 32.1158C66.0756 32.4964 65.0527 32.596 64.0658 32.402C63.0789 32.2079 62.1724 31.729 61.4609 31.0258C60.7494 30.3225 60.2649 29.4265 60.0686 28.451C59.8723 27.4756 59.973 26.4645 60.3581 25.5457C60.7431 24.6268 61.3952 23.8415 62.2319 23.2889C63.0685 22.7364 64.0521 22.4415 65.0583 22.4415C66.4076 22.4415 67.7017 22.9713 68.6558 23.9143C69.6099 24.8573 70.1459 26.1364 70.1459 27.47ZM70.1459 42.152C70.1459 43.1466 69.8475 44.1188 69.2885 44.9457C68.7294 45.7727 67.9349 46.4172 67.0053 46.7978C66.0756 47.1784 65.0527 47.278 64.0658 47.084C63.0789 46.8899 62.1724 46.411 61.4609 45.7077C60.7494 45.0045 60.2649 44.1085 60.0686 43.133C59.8723 42.1576 59.973 41.1465 60.3581 40.2277C60.7431 39.3088 61.3952 38.5235 62.2319 37.9709C63.0685 37.4184 64.0521 37.1234 65.0583 37.1234C66.4076 37.1234 67.7017 37.6532 68.6558 38.5963C69.6099 39.5393 70.1459 40.8184 70.1459 42.152Z"
    fill="#141414"
  />
</svg>
