<svg width="100" height="100" viewBox="0 0 100 100" fill="none" xmlns="http://www.w3.org/2000/svg">
  <rect width="100" height="100" fill="#1A82FF" />
  <path
    d="M70.0851 71.6355C65.5333 77.2118 59.1317 80 50.8803 80C42.6289 80 36.2263 77.2118 31.6725 71.6355C27.1177 66.0561 24.8413 58.8443 24.8433 50C24.8453 41.1557 27.1207 33.9449 31.6695 28.3676C36.2213 22.7882 42.6239 19.999 50.8773 20C59.1307 20.001 65.5323 22.7902 70.0821 28.3676C74.6339 33.9439 76.9104 41.1547 76.9114 50C76.9124 58.8453 74.637 66.0571 70.0851 71.6355Z"
    fill="white"
  />
  <path
    d="M50.7848 68.3396C52.9571 68.3396 54.8038 67.7477 56.3251 66.5639C57.8464 65.3801 58.948 63.7747 59.6301 61.7477C60.3111 59.7196 60.7918 57.7757 61.0722 55.9159C61.3526 54.0561 61.4919 52.0842 61.4898 50.0001C61.4898 47.4342 61.3346 45.1378 61.0241 43.1107L42.3091 62.613C44.0397 66.4287 46.8649 68.3376 50.7848 68.3396Z"
    fill="#1A82FF"
  />
  <path
    d="M50.9713 31.6605C48.7991 31.6605 46.9523 32.2524 45.431 33.4362C43.9097 34.62 42.8081 36.2254 42.126 38.2524C41.441 40.2805 40.9603 42.2244 40.6839 44.0842C40.4035 45.9439 40.2643 47.9159 40.2663 50C40.2663 51.3731 40.3103 52.669 40.3985 53.8879L58.2482 35.29C56.5146 32.8713 54.089 31.6615 50.9713 31.6605Z"
    fill="#1A82FF"
  />
  <path
    d="M26.2983 68.5919L23.9999 66.3866L41.429 48.2183L43.7275 50.4236L26.2983 68.5919ZM59.1376 49.6334L56.8391 47.4281L74.2683 29.2599L76.5667 31.4652L59.1376 49.6334Z"
    fill="#1A82FF"
  />
</svg>
