<svg width="100" height="100" viewBox="0 0 100 100" fill="none" xmlns="http://www.w3.org/2000/svg">
  <rect width="100" height="100" fill="#798399" />
  <path
    fill-rule="evenodd"
    clip-rule="evenodd"
    d="M55.9399 75.2382L55.9402 78H77.7226V70.2502H66.9659C73.4377 65.4103 77.5957 57.8867 77.5957 49.4376C77.5957 34.8365 65.1786 23 49.8612 23C34.5438 23 22.1266 34.8365 22.1266 49.4376C22.1266 57.8867 26.2847 65.4103 32.7566 70.2502H22V78H43.7824V77.8752L43.7823 67.5838C35.8456 65.118 30.105 57.9537 30.105 49.5001C30.105 39.0066 38.9501 30.5 49.8612 30.5C60.7721 30.5 69.6173 39.0066 69.6173 49.5001C69.6173 57.9537 63.8766 65.118 55.9399 67.5838V75.2382Z"
    fill="white"
  />
</svg>
