<svg width="100" height="100" viewBox="0 0 100 100" fill="none" xmlns="http://www.w3.org/2000/svg">
  <rect width="100" height="100" fill="white" />
  <path
    d="M25.8524 39C19.858 39 15 43.858 15 49.8524V51.1074C15 57.1018 19.858 61.9599 25.8524 61.9599C31.8468 61.9599 36.7049 57.1018 36.7049 51.1074V49.8524C36.7049 43.858 31.8468 39 25.8524 39ZM32.5975 51.1074C32.5975 54.8268 29.5718 57.8526 25.8524 57.8526C22.133 57.8526 19.1073 54.8268 19.1073 51.1074V49.8524C19.1073 46.133 22.133 43.1073 25.8524 43.1073C29.5718 43.1073 32.5975 46.133 32.5975 49.8524V51.1074Z"
    fill="black"
  />
  <path
    d="M58.0653 39.6275H56.662L50.6699 56.2074L44.6778 39.6275H43.2745H41.8917H39.5254V61.4077H43.2745V46.0144L48.8239 61.4077H50.6699H52.5159L58.0653 46.0144V61.4077H61.8144V39.6275H58.0653Z"
    fill="black"
  />
  <path
    d="M74.5994 49.6517V53.5148H80.7763C80.2287 57.1521 77.7985 58.0557 74.8892 58.0557C71.5782 58.0557 68.8856 55.1623 68.8856 51.8514V49.1132C68.8856 45.8022 71.5782 43.1096 74.8892 43.1096H76.0575C78.7249 43.1096 80.8927 45.2797 80.8927 47.9448H85C85 43.0047 80.9954 39.0023 76.0575 39.0023H74.8892C69.3055 39.0023 64.7783 43.5295 64.7783 49.1132V51.8514C64.7783 57.435 69.3055 61.9622 74.8892 61.9622C77.6137 61.9622 79.6445 60.8829 81.0136 59.1304V61.41H84.7627V49.6539H74.6016L74.5994 49.6517Z"
    fill="black"
  />
</svg>
