<svg width="100" height="100" viewBox="0 0 100 100" fill="none" xmlns="http://www.w3.org/2000/svg">
  <rect width="100" height="100" fill="white" />
  <path
    d="M79.0888 30.5294C82.4628 30.5294 85.1977 27.7943 85.1977 24.4205C85.1977 21.0467 82.4628 18.3117 79.0888 18.3117C75.7151 18.3117 72.98 21.0467 72.98 24.4205C72.98 27.7943 75.7151 30.5294 79.0888 30.5294Z"
    fill="url(#paint0_linear_2_26888)"
  />
  <path
    d="M49.4943 20.3619C43.533 20.3613 37.7054 22.1284 32.7484 25.4398C27.7914 28.7513 23.9277 33.4583 21.6459 38.9656C19.3641 44.4731 18.7667 50.5333 19.9293 56.3802C21.0919 62.227 23.9622 67.598 28.1773 71.8135C32.3923 76.029 37.7628 78.8999 43.6095 80.0632C49.4563 81.2264 55.5167 80.6298 61.0244 78.3486C66.532 76.0675 71.2395 72.2042 74.5515 67.2476C76.4682 64.3792 72.8621 57.3367 73.7011 54.0277C74.3118 51.6191 79.6312 53.0135 79.6312 50.5022C79.6312 42.5091 76.4562 34.8434 70.8045 29.1911C65.1529 23.5388 57.4874 20.3629 49.4943 20.3619ZM49.4219 67.0341C46.0814 67.0367 42.8153 66.0485 40.0365 64.1944C37.2578 62.3402 35.0917 59.7035 33.8121 56.6178C32.5325 53.532 32.197 50.1362 32.848 46.8598C33.499 43.5833 35.1074 40.5736 37.4695 38.2116C39.8316 35.8495 42.8412 34.2412 46.1176 33.5902C49.394 32.9391 52.79 33.2746 55.8757 34.5542C58.9612 35.8338 61.598 38.0001 63.4521 40.7786C65.3064 43.5573 66.2947 46.8235 66.2919 50.164C66.291 54.6389 64.5137 58.9304 61.3505 62.0957C58.1871 65.2607 53.8967 67.0408 49.4219 67.0444V67.0341Z"
    fill="#69F5FD"
  />
  <path
    d="M42.7603 22.7194C40.3807 22.7189 38.0126 23.0476 35.723 23.6961C30.1258 26.576 25.5693 31.1342 22.6916 36.7325C19.8138 42.3308 18.7589 48.689 19.6744 54.9166C23.2604 63.7624 32.2407 70.0368 42.7603 70.0368C49.3012 70.0691 55.5993 67.5609 60.3275 63.0411C57.1524 65.7282 53.0969 67.1481 48.9391 67.0284C44.7812 66.9087 40.8141 65.2577 37.7989 62.3925C34.7837 59.5271 32.9328 55.6493 32.6015 51.503C32.2701 47.3566 33.4816 43.2341 36.0035 39.9261C38.5253 36.6184 42.1799 34.3583 46.2659 33.5798C50.3519 32.8012 54.5814 33.559 58.1431 35.7078C61.7046 37.8565 64.3471 41.2447 65.5636 45.2224C66.7803 49.2 66.4851 53.4868 64.7349 57.2601C66.5514 53.9211 67.5007 50.1793 67.4959 46.3782C67.5131 33.3114 56.4309 22.7194 42.7603 22.7194Z"
    fill="url(#paint1_linear_2_26888)"
  />
  <path
    d="M87.5034 46.0607C88.3403 45.4316 89.0057 44.6024 89.4385 43.6492C89.8714 42.6959 90.0579 41.6493 89.9809 40.6053C89.904 39.5613 89.566 38.5532 88.9981 37.6738C88.43 36.7944 87.6503 36.0717 86.7304 35.5721C86.2037 35.2836 85.6374 35.0743 85.0496 34.9508C84.4595 34.8198 82.3369 34.4367 78.8614 36.2381C76.5456 37.4393 74.9441 38.9336 73.4256 40.5489C70.7613 43.3974 68.4188 46.5304 66.4401 49.8916C66.3139 50.0769 66.1987 50.2693 66.0949 50.4679C65.8673 50.8865 65.689 51.3302 65.5635 51.7899V51.8243C64.9561 56.7873 66.5782 60.7977 68.8423 61.4431C71.3582 62.161 75.1236 58.8546 76.7215 55.852C77.3773 54.6164 77.6396 53.4879 78.958 51.99C79.8347 50.9926 80.7147 50.3611 82.2126 49.3014C83.4503 48.4282 84.7337 47.6218 86.0574 46.8856C86.3093 46.7857 86.5548 46.6705 86.7925 46.5404C87.0393 46.3955 87.2767 46.2352 87.5034 46.0607Z"
    fill="url(#paint2_linear_2_26888)"
  />
  <path
    d="M80.1958 48.4036C80.6907 47.3121 80.8618 46.1014 80.6886 44.9155C80.5155 43.7296 80.0055 42.6183 79.2192 41.7139C78.4329 40.8096 77.4034 40.1499 76.2532 39.8135C75.1028 39.4772 73.8802 39.4783 72.7305 39.8166C72.1506 39.9858 70.1005 40.6656 67.8987 43.9064C66.4387 46.0704 65.745 48.1447 65.1859 50.2914C64.2049 54.0661 63.6448 57.9379 63.5154 61.8361C63.4903 62.0653 63.4775 62.2957 63.4775 62.5263C63.4778 63.0016 63.5334 63.4753 63.6432 63.9379V63.9758C64.613 66.761 67.0496 68.6765 69.721 68.78C73.1723 68.9147 75.6606 65.9465 76.3647 63.7343C76.5131 63.2683 76.6029 62.0465 76.7788 59.5926C76.986 56.7763 76.91 56.4036 77.0585 55.3993C77.3737 53.3993 78.132 51.4949 79.2777 49.8254C79.4499 49.615 79.6102 49.3949 79.7574 49.1662C79.9195 48.9216 80.0659 48.6668 80.1958 48.4036Z"
    fill="url(#paint3_linear_2_26888)"
  />
  <path
    d="M76.2485 64.1934C76.4782 63.5142 76.5947 62.8017 76.5937 62.0847C76.5694 60.5611 76.0338 59.0899 75.0732 57.9071C74.1126 56.7242 72.7824 55.8984 71.2961 55.5621C69.81 55.2259 68.2539 55.3985 66.8776 56.0525C65.5013 56.7064 64.3844 57.8038 63.7065 59.1683C62.6284 60.8704 61.2565 62.3674 59.6547 63.5895C59.5477 63.6965 59.4441 63.8069 59.3267 63.9347C56.8212 66.3988 54.1912 67.4342 52.0273 68.2902C48.2136 69.7915 34.3669 71.0961 26.4427 64.1485C23.2813 61.0425 19.7022 54.9302 19.6919 54.9164C20.7499 62.0689 24.3435 68.6028 29.8174 73.3266C35.2914 78.0504 42.2809 80.6493 49.5112 80.6493C53.9566 80.6493 58.4846 79.2965 58.4846 79.2965C64.1481 77.5333 69.1645 74.1366 72.9043 69.5326C73.7703 68.4472 74.557 67.3007 75.2581 66.102C75.6872 65.54 76.0238 64.9133 76.2555 64.2453L76.2485 64.1934Z"
    fill="url(#paint4_linear_2_26888)"
  />
  <defs>
    <linearGradient
      id="paint0_linear_2_26888"
      x1="79.0891"
      y1="18.3445"
      x2="78.177"
      y2="27.527"
      gradientUnits="userSpaceOnUse"
    >
      <stop stop-color="#FE37AF" />
      <stop offset="1" stop-color="#FE079C" />
    </linearGradient>
    <linearGradient
      id="paint1_linear_2_26888"
      x1="64.2206"
      y1="32.9594"
      x2="19.3535"
      y2="53.3222"
      gradientUnits="userSpaceOnUse"
    >
      <stop stop-color="#09EFFB" />
      <stop offset="1" stop-color="#FE37AF" />
    </linearGradient>
    <linearGradient
      id="paint2_linear_2_26888"
      x1="90.1057"
      y1="34.8576"
      x2="70.2607"
      y2="58.8442"
      gradientUnits="userSpaceOnUse"
    >
      <stop stop-color="#891AEA" />
      <stop offset="1" stop-color="#A047EE" />
    </linearGradient>
    <linearGradient
      id="paint3_linear_2_26888"
      x1="71.8135"
      y1="39.6892"
      x2="68.1896"
      y2="61.2598"
      gradientUnits="userSpaceOnUse"
    >
      <stop stop-color="#FE37AF" />
      <stop offset="1" stop-color="#FE079C" />
    </linearGradient>
    <linearGradient
      id="paint4_linear_2_26888"
      x1="76.6454"
      y1="60.7421"
      x2="36.265"
      y2="73.512"
      gradientUnits="userSpaceOnUse"
    >
      <stop stop-color="#891AEA" />
      <stop offset="1" stop-color="#FE079C" />
    </linearGradient>
  </defs>
</svg>
