<svg width="100" height="100" viewBox="0 0 100 100" fill="none" xmlns="http://www.w3.org/2000/svg">
  <rect width="100" height="100" fill="white" />
  <rect width="100" height="100" fill="white" />
  <path
    fill-rule="evenodd"
    clip-rule="evenodd"
    d="M36.685 23.6707C40.3202 20.1098 46.1354 20.1098 49.7707 23.6707L58.3765 32.101C62.1191 35.7673 62.1191 41.7929 58.3765 45.4592L43.3787 60.1512L54.1348 70.6878C56.1842 72.6954 56.2179 75.9839 54.2106 78.0332C52.203 80.0826 48.9142 80.1166 46.8649 78.109L20.807 52.5828C17.0643 48.9165 17.0643 42.891 20.807 39.2247L36.685 23.6707ZM35.9557 52.8799L50.3491 38.78L43.2277 31.8041L28.8344 45.9036L35.9557 52.8799Z"
    fill="#3CEAAA"
  />
  <path
    fill-rule="evenodd"
    clip-rule="evenodd"
    d="M58.5013 30.7943C62.1366 27.2334 67.9519 27.2334 71.5869 30.7943L80.193 39.2247C83.9356 42.891 83.9356 48.9165 80.193 52.5828L54.135 78.109C52.0857 80.1163 48.7969 80.0826 46.7895 78.0332C44.7819 75.9839 44.8157 72.6951 46.865 70.6878L57.6215 60.1509L49.8955 52.5828C46.1529 48.9165 46.1529 42.891 49.8955 39.2247L58.5013 30.7943ZM65.0441 52.8796L72.1656 45.9036L65.0441 38.9276L57.9229 45.9036L65.0441 52.8796Z"
    fill="#03BCE4"
  />
  <path
    opacity="0.95"
    d="M57.9188 45.9212L50.354 38.7361L43.098 45.8619L50.4836 53.2093L57.9188 45.9212Z"
    fill="#00A4E1"
  />
</svg>
