<svg width="100" height="100" viewBox="0 0 100 100" fill="none" xmlns="http://www.w3.org/2000/svg">
  <rect width="100" height="100" fill="white" />
  <rect width="100" height="100" fill="#192123" />
  <path
    d="M60.5932 27.5146L36.5017 63.598C35.1059 65.6864 31.981 65.4863 30.8624 63.2388L22.2879 45.9873C21.9698 45.3459 21.9133 44.607 22.1289 43.9194L24.361 36.869C24.5611 36.2327 24.9921 35.6888 25.5617 35.3398L58.2071 15.4611C60.5521 14.0346 63.4616 16.1333 62.8407 18.8068L61.1063 26.3241C61.0088 26.75 60.8343 27.1503 60.5932 27.5146Z"
    fill="#198A8A"
  />
  <mask
    id="mask0_2_26103"
    style="mask-type: luminance"
    maskUnits="userSpaceOnUse"
    x="22"
    y="15"
    width="41"
    height="51"
  >
    <path
      d="M60.5932 27.5146L36.5017 63.598C35.1059 65.6864 31.981 65.4863 30.8624 63.2388L22.2879 45.9873C21.9698 45.3459 21.9133 44.607 22.1289 43.9194L24.361 36.869C24.5611 36.2327 24.9921 35.6888 25.5617 35.3398L58.2071 15.4611C60.5521 14.0346 63.4616 16.1333 62.8407 18.8068L61.1063 26.3241C61.0088 26.75 60.8343 27.1503 60.5932 27.5146Z"
      fill="white"
    />
  </mask>
  <g mask="url(#mask0_2_26103)">
    <path
      d="M19.5681 36.9459L65.9603 26.0727L32.1244 72.8138L17.8337 44.453L19.5681 36.9459Z"
      fill="#1ECBA8"
    />
    <path
      d="M41.5044 31.8044L36.1678 33.0564L41.8841 56.9478L43.9726 56.4449L46.5485 52.8889L41.5044 31.8044Z"
      fill="#A6E8DE"
    />
    <path
      d="M49.6016 48.671L51.5977 45.9104L47.8673 30.3163L45.3478 30.9064L49.6016 48.671Z"
      fill="#A6E8DE"
    />
    <path
      d="M23.0113 29.1412L34.3875 72.0236L22.3545 69.3656L16.9872 32.5894L23.0113 29.1412Z"
      fill="#66FEE0"
    />
    <path
      d="M64.149 12.3054C63.9797 12.5311 33.4227 68.1905 33.4227 68.1905L36.0243 66.0353L65.2317 24.6256L64.149 12.3054Z"
      fill="#66FEE0"
    />
  </g>
  <path
    d="M38.7697 72.4854L62.8612 36.4021C64.2569 34.3136 67.3819 34.5137 68.5005 36.7613L77.0749 54.0127C77.3931 54.6541 77.4495 55.393 77.234 56.0806L75.0019 63.1311C74.8018 63.7673 74.3707 64.3113 73.8012 64.6602L41.1558 84.5389C38.8107 85.9654 35.9013 83.8667 36.5222 81.1933L38.2566 73.6759C38.3541 73.25 38.5285 72.8498 38.7697 72.4854Z"
    fill="#198A8A"
  />
  <mask
    id="mask1_2_26103"
    style="mask-type: luminance"
    maskUnits="userSpaceOnUse"
    x="36"
    y="34"
    width="42"
    height="51"
  >
    <path
      d="M38.7697 72.4854L62.8612 36.4021C64.2569 34.3136 67.3819 34.5137 68.5005 36.7613L77.0749 54.0127C77.3931 54.6541 77.4495 55.393 77.234 56.0806L75.0019 63.1311C74.8018 63.7673 74.3707 64.3113 73.8012 64.6602L41.1558 84.5389C38.8107 85.9654 35.9013 83.8667 36.5222 81.1933L38.2566 73.6759C38.3541 73.25 38.5285 72.8498 38.7697 72.4854Z"
      fill="white"
    />
  </mask>
  <g mask="url(#mask1_2_26103)">
    <path
      d="M79.7998 63.049L33.4076 73.9273L67.2383 27.1862L81.529 55.547L79.7998 63.049Z"
      fill="#1ECBA8"
    />
    <path
      d="M57.8583 68.1905L63.1949 66.9436L57.4786 43.0522L55.3901 43.55L52.8142 47.1111L57.8583 68.1905Z"
      fill="#A6E8DE"
    />
    <path
      d="M49.7661 51.3239L47.7649 54.0897L51.4954 69.6837L54.0148 69.0936L49.7661 51.3239Z"
      fill="#A6E8DE"
    />
    <path
      d="M76.3515 70.8588L64.9753 27.9764L77.0083 30.6345L82.3756 67.4106L76.3515 70.8588Z"
      fill="#66FEE0"
    />
    <path
      d="M35.2137 87.6947C35.383 87.4689 65.94 31.8096 65.94 31.8096L63.3384 33.9647L34.131 75.3744L35.2137 87.6947Z"
      fill="#66FEE0"
    />
  </g>
  <path
    d="M32.5915 29.2439L33.2227 30.968C33.4279 31.5222 33.8589 31.9583 34.4131 32.1585L36.1373 32.7896L34.4131 33.4208C33.8589 33.626 33.4228 34.057 33.2227 34.6112L32.5915 36.3353L31.9604 34.6112C31.7551 34.057 31.3241 33.6209 30.7699 33.4208L29.0458 32.7896L30.7699 32.1585C31.3241 31.9532 31.7602 31.5222 31.9604 30.968L32.5915 29.2439Z"
    fill="#EEF9F5"
  />
  <path
    d="M44.7373 34.2469L45.0195 35.0064C45.1119 35.2527 45.3017 35.4425 45.548 35.5349L46.3075 35.8171L45.548 36.0994C45.3017 36.1917 45.1119 36.3816 45.0195 36.6279L44.7373 37.3873L44.4551 36.6279C44.3627 36.3816 44.1729 36.1917 43.9265 36.0994L43.1671 35.8171L43.9265 35.5349C44.1729 35.4425 44.3627 35.2527 44.4551 35.0064L44.7373 34.2469Z"
    fill="#EEF9F5"
  />
  <path
    d="M54.651 69.8378L54.9332 70.5972C55.0256 70.8435 55.2154 71.0334 55.4617 71.1257L56.2212 71.4079L55.4617 71.6902C55.2154 71.7825 55.0256 71.9724 54.9332 72.2187L54.651 72.9781L54.3688 72.2187C54.2764 71.9724 54.0865 71.7825 53.8402 71.6902L53.0808 71.4079L53.8402 71.1257C54.0865 71.0334 54.2764 70.8435 54.3688 70.5972L54.651 69.8378Z"
    fill="#EEF9F5"
  />
</svg>
