<svg width="100" height="100" viewBox="0 0 100 100" fill="none" xmlns="http://www.w3.org/2000/svg">
  <rect width="100" height="100" fill="white" />
  <rect width="100" height="100" fill="#012040" />
  <path
    d="M28.7391 29.6087L33.913 26.8696L34.5217 28.087L53.3913 17.1304L52.1739 16.2174L50.6522 15.3043L50.0435 15L19 32.9565V33.5652L27.8261 28.6957L28.7391 29.6087ZM28.7391 41.1739L43.6522 32.3478L44.2609 33.5652L63.4348 22.6087L61.913 21.6957L60.3913 21.087L59.7826 20.7826L19 44.2174V44.8261L27.8261 39.9565L28.7391 41.1739ZM28.7391 46.6522L48.5217 35.3913L49.1304 36.3043L68.3044 25.3478L66.7826 24.7391L65.2609 23.8261L64.6522 23.5217L19 49.6957V50.6087L27.8261 45.4348L28.7391 46.6522ZM28.7391 52.1304L53.3913 38.1304L54 39.0435L73.1739 28.3913L71.6522 27.4783L70.1304 26.5652L69.5217 26.2609L19 55.4783V56.087L27.8261 51.2174L28.7391 52.1304ZM28.7391 57.913L58.2609 40.8696L58.8696 42.087L78.0435 31.1304L76.5217 30.2174L75.3043 29.6087L74.3913 29L19 60.9565V61.8696L27.8261 56.6957L28.7391 57.913ZM79.8696 32.3478L79.2609 31.7391L19 66.7391V67.3478L27.8261 62.4783L28.7391 63.6957L58.2609 46.3478L58.8696 47.5652L81.087 35.087V32.9565L79.8696 32.3478ZM22.9565 71L27.8261 67.9565L28.4348 69.1739L58.2609 52.1304L58.8696 53.3478L81.087 40.5652V36.6087L22.0435 70.3913L22.9565 71ZM58.2609 57.913L58.8696 59.1304L81.087 46.0435V42.087L26.913 73.4348L27.8261 73.7391L32.6957 70.6956L33.6087 71.913M32.6957 76.4783L37.8696 73.7391L38.4783 74.9565L58.2609 63.3913L58.8696 64.6087L81.087 51.8261V47.8696L31.7826 76.1739L32.6957 76.4783ZM37.5652 79.2174L42.7391 76.4783L43.3478 77.6957L58.2609 69.1739L58.8696 70.3913L81.087 57.6087V53.3478L36.6522 78.913L37.5652 79.2174ZM41.5217 81.6522L42.4348 82.2609L47.6087 79.2174L48.2174 80.4348L58.2609 74.6522L58.8696 75.8696L81.087 63.087V59.1304L41.5217 81.6522ZM47.3043 85L52.1739 81.9565L53.087 83.1739L58.2609 80.4348L58.8696 81.6522L81.087 68.8696V64.6087L46.6957 84.6956L47.3043 85ZM58.5652 19.8696L57.0435 18.9565L55.5217 18.3478L54.913 17.7391L19 38.4348V39.3478L27.8261 34.1739L28.7391 35.3913L38.7826 29.6087L39.3913 30.8261L58.5652 19.8696Z"
    fill="white"
  />
</svg>
