<svg width="100" height="100" viewBox="0 0 100 100" fill="none" xmlns="http://www.w3.org/2000/svg">
  <rect width="100" height="100" fill="#FFD800" />
  <path
    fill-rule="evenodd"
    clip-rule="evenodd"
    d="M71.2183 41.5073C71.3717 41.3518 71.6759 41.3518 71.9747 41.3518C76.5161 41.3518 80.1475 45.2464 80.1475 49.9236C80.1475 54.2873 76.971 57.7155 72.8846 58.4927H71.9747C70.4618 58.4927 68.9489 58.0264 67.5868 57.2464C67.1447 56.931 66.6144 56.7675 66.0739 56.78C65.4682 56.78 64.8625 56.9355 64.4102 57.2464C63.3496 57.8709 62.8974 58.9618 62.8974 60.2082V61.61C62.7378 63.5352 61.9281 65.3459 60.6046 66.7369C59.2812 68.1279 57.5249 69.0141 55.6317 69.2464H54.7245C53.2116 69.2464 51.6987 68.78 50.3366 68C49.7309 67.6891 49.2787 67.5336 48.673 67.5336C48.0673 67.5336 47.4616 67.6891 47.0066 68C45.9487 68.6245 45.4937 69.7155 45.4937 70.9618V72.3636C45.1922 76.4164 42.013 79.5336 38.08 80H37.3236C32.7822 80 29.1507 76.1027 29.1507 71.4282C29.3015 67.0645 32.3273 63.4809 36.4137 63.0118H37.3236C38.8365 63.0118 40.3494 63.4809 41.7115 64.2609C42.1536 64.5763 42.6839 64.7397 43.2244 64.7273C43.8301 64.7273 44.4358 64.5718 44.888 64.2609C45.9487 63.6364 46.4009 62.5455 46.4009 61.2991C46.0994 56.78 49.2787 52.7273 53.6666 52.2609H54.5738C56.0867 52.2609 57.5995 52.7273 58.9617 53.5073C59.5674 53.8182 60.0223 53.9736 60.628 53.9736C61.231 53.9736 61.8394 53.8182 62.2917 53.5073C63.3496 52.8827 63.8046 51.7918 63.8046 50.5455C63.5031 46.0264 66.8303 41.9736 71.2183 41.5073ZM53.82 30.7536C54.1215 30.5982 54.275 30.5982 54.7272 30.5982C59.2686 30.5982 62.9001 34.4927 62.9001 39.17C62.7493 43.5336 59.7235 47.1173 55.6344 47.5836H54.7272C53.2143 47.5836 51.7014 47.1173 50.3393 46.3373C49.8972 46.0219 49.367 45.8584 48.8264 45.8709C48.2207 45.8709 47.615 46.0264 47.1628 46.3373C46.1021 46.9618 45.6472 48.0527 45.6472 49.2991V50.7009C45.3457 54.7509 42.1691 57.8682 38.2335 58.3373H37.477C32.9384 58.3373 29.3042 54.4427 29.3042 49.7655C29.3042 45.56 32.3327 42.1291 36.4164 41.5073H37.3263C38.8392 41.5073 40.3521 41.9736 41.7142 42.7536C42.1563 43.069 42.6865 43.2325 43.2271 43.22C43.8328 43.22 44.4385 43.0645 44.8907 42.7536C45.9514 42.1291 46.4036 41.0382 46.4036 39.7918C46.1021 35.2727 49.4321 31.22 53.82 30.7536ZM37.1728 20C41.6846 20 45.343 23.7691 45.343 28.4164C45.343 33.0636 41.6819 36.83 37.1728 36.83C32.6584 36.83 29 33.0636 29 28.4164C29 23.7691 32.6611 20 37.1728 20Z"
    fill="white"
  />
</svg>
