<svg width="100" height="100" viewBox="0 0 100 100" fill="none" xmlns="http://www.w3.org/2000/svg">
  <rect width="100" height="100" fill="#170659" />
  <path
    d="M35.5332 39.2141C35.1822 38.7784 34.6496 38.5363 34.0806 38.5363H22.351C22.2542 38.5363 22.1695 38.4999 22.0968 38.4394C22.0363 38.3789 22 38.3063 22 38.2215V30.3171C22 30.2323 22.0363 30.1597 22.0968 30.0992C22.1695 30.0266 22.2542 29.9902 22.351 30.0023H34.7464C37.8694 30.0023 40.5688 31.2855 42.8445 33.8396L45.8586 37.5195L39.9878 44.6734L35.5332 39.2141ZM57.2009 33.8033C59.4645 31.2734 62.176 30.0023 65.3353 30.0023H77.6944C77.7791 29.9902 77.8638 30.0266 77.9244 30.075C77.9849 30.1355 78.0091 30.2202 77.997 30.3171V38.2215C77.997 38.3063 77.9728 38.3789 77.9244 38.4394C77.8638 38.512 77.7791 38.5484 77.6944 38.5363H65.9648C65.408 38.5242 64.8753 38.7784 64.5122 39.2141L55.8693 49.7332L64.5485 60.325C64.8995 60.7244 65.4201 60.9665 65.9527 60.9544H77.6823C77.767 60.9423 77.8638 60.9907 77.9122 61.0513C77.9607 61.1239 77.997 61.2207 77.9849 61.3055V69.2099C77.9849 69.2946 77.9607 69.3673 77.9122 69.4278C77.8517 69.5004 77.767 69.5367 77.6823 69.5246H65.3353C62.176 69.5246 59.4887 68.2415 57.2372 65.6874L50.0469 56.9114L42.8566 65.6874C40.593 68.2415 37.8815 69.5246 34.7222 69.5246H22.351C22.2663 69.5367 22.1695 69.4883 22.121 69.4278C22.0605 69.3552 22.0363 69.2583 22.0484 69.1736V61.2691C22.0484 61.1844 22.0726 61.1118 22.121 61.0513C22.1816 60.9786 22.2663 60.9423 22.351 60.9544H34.0806C34.6375 60.9544 35.1701 60.7002 35.5332 60.2765L44.0187 49.9148L57.2009 33.8033Z"
    fill="#00D1FF"
  />
</svg>
