<svg width="100" height="100" viewBox="0 0 100 100" fill="none" xmlns="http://www.w3.org/2000/svg">
  <rect width="100" height="100" fill="white" />
  <path
    d="M29.4175 44.5L28.8759 45.3077C22.6469 55 24.001 67.6538 32.3966 75.7307C37.0006 80.5769 43.5003 83 50.0001 83L29.4175 44.5Z"
    fill="#00A3FF"
  />
  <path
    opacity="0.6"
    d="M50.0001 56.0769L29.4175 44.5C50.0001 83.2692 50.0001 83 50.0001 83V56.0769Z"
    fill="#00A3FF"
  />
  <path
    opacity="0.6"
    d="M70.5824 44.5L71.124 45.3077C77.353 55 75.9988 67.6538 67.6033 75.7307C62.7285 80.5769 56.4995 83 49.9998 83L70.5824 44.5Z"
    fill="#00A3FF"
  />
  <path
    opacity="0.2"
    d="M49.9998 56.0769L70.5824 44.5C49.9998 83.2692 49.9998 83 49.9998 83V56.0769Z"
    fill="#00A3FF"
  />
  <path
    opacity="0.2"
    d="M49.9998 29.9615V50.1538L67.8741 40.1923L49.9998 29.9615Z"
    fill="#00A3FF"
  />
  <path opacity="0.6" d="M50 29.9615L32.1256 40.1923L50 50.1538V29.9615Z" fill="#00A3FF" />
  <path d="M50 13L32.1256 40.1923L50 29.9615V13Z" fill="#00A3FF" />
  <path opacity="0.6" d="M49.9998 29.9615L67.8741 40.1923L49.9998 13V29.9615Z" fill="#00A3FF" />
</svg>
