<svg width="100" height="100" viewBox="0 0 100 100" fill="none" xmlns="http://www.w3.org/2000/svg">
  <rect width="100" height="100" fill="#10BA97" />
  <path
    d="M63.5294 68.6101H72.9975C74.3176 68.6101 75.3138 68.355 75.982 67.8407C76.6502 67.3264 76.9863 66.5205 76.9863 65.415C76.9863 64.3095 76.6543 63.5036 75.982 62.9893C75.3098 62.475 74.3176 62.1955 72.9975 62.1955H63.5294V58.6967H72.8112C75.1438 58.6967 76.9256 59.2717 78.1526 60.4218C79.3797 61.5719 79.9952 63.2201 79.9952 65.4109C79.9952 67.6018 79.3797 69.2662 78.1526 70.4001C76.9256 71.534 75.1438 72.1009 72.8112 72.1009H63.5294V68.6021V68.6101ZM74.5363 53.254C74.9132 53.2359 75.2822 53.1394 75.6197 52.9706C75.9572 52.8019 76.2557 52.5646 76.4963 52.274C76.9944 51.6827 77.2172 50.8687 77.2172 49.8725C77.2478 49.1682 77.0688 48.4706 76.7029 47.868C76.5468 47.6204 76.3295 47.4172 76.072 47.2782C75.8145 47.1391 75.5255 47.0689 75.2329 47.0742C74.7955 47.0742 74.4553 47.2241 74.2042 47.5157C73.9532 47.8072 73.7385 48.2 73.6009 48.7265L73.042 51.1279C72.8832 52.0546 72.6252 52.9615 72.2726 53.8331C71.9631 54.5447 71.4731 55.1631 70.8512 55.6271C70.2275 56.0928 69.373 56.3033 68.3323 56.3033C67.4253 56.3168 66.5365 56.0479 65.7891 55.5339C65.044 55.0075 64.4608 54.2826 64.0397 53.3674C63.6185 52.4522 63.3877 51.3871 63.3877 50.2208C63.3877 49.0221 63.6145 47.949 64.064 47.0014C64.5135 46.0537 65.1088 45.2843 65.8863 44.7376C66.6638 44.1909 67.5426 43.8912 68.5226 43.875V47.301C68.1973 47.3284 67.8808 47.421 67.592 47.5734C67.3033 47.7257 67.0482 47.9347 66.842 48.1879C66.4047 48.7022 66.19 49.3785 66.19 50.2168C66.19 50.9943 66.352 51.6139 66.68 52.0836C67.0081 52.5534 67.4738 52.7842 68.0812 52.7842C68.5186 52.7842 68.8587 52.6425 69.1098 52.3631C69.3609 52.0836 69.5391 51.6868 69.693 51.1725C69.8999 50.3882 70.0715 49.595 70.2073 48.7953C70.4097 47.7222 70.6649 46.7908 70.9767 46.0416C71.2885 45.2924 71.7299 44.6971 72.3495 44.2476C72.9691 43.7981 73.775 43.547 74.7995 43.547C75.7563 43.5353 76.6931 43.8211 77.4804 44.365C78.2898 44.9457 78.9266 45.7351 79.323 46.649C79.7842 47.6745 80.015 48.7887 79.9993 49.913C79.9993 51.217 79.7644 52.3833 79.2987 53.4119C78.8736 54.3737 78.1876 55.1972 77.3184 55.789C76.488 56.3614 75.5044 56.6705 74.4958 56.6759L74.5444 53.2499L74.5363 53.254ZM63.5294 41.4534V35.7879C63.5294 34.1559 63.8777 32.7183 64.5783 31.4751C65.2789 30.2319 66.2265 29.2518 67.4697 28.5837C68.713 27.9155 70.102 27.5591 71.6894 27.5591C73.1684 27.5328 74.6294 27.8856 75.9334 28.5837C77.1561 29.2482 78.1604 30.2524 78.8249 31.4751C79.5093 32.7183 79.8494 34.1559 79.8494 35.7879V41.4534H63.5294ZM76.9377 35.7879C76.9377 34.3098 76.4639 33.1678 75.5163 32.362C74.5687 31.5561 73.2769 31.1268 71.6894 31.1268C70.102 31.1268 68.8385 31.5399 67.8909 32.362C66.9433 33.184 66.4452 34.3139 66.4452 35.7879V37.9585H76.9377V35.7879Z"
    fill="#1E1A31"
  />
  <path
    opacity="0.5"
    d="M25.6046 72.842L20.7532 69.3796L51.2671 26.98L56.1186 30.4425L25.6046 72.842Z"
    fill="#1E1A31"
  />
  <path
    fill-rule="evenodd"
    clip-rule="evenodd"
    d="M41.3213 47.1228H42.9492C46.5444 47.1185 49.9943 48.5415 52.541 51.0791C55.0878 53.6167 56.5231 57.0615 56.5317 60.6567C56.5231 64.2519 55.0878 67.6966 52.541 70.2343C49.9943 72.7719 46.5444 74.1948 42.9492 74.1905H22.9846C21.3364 74.1905 20 72.8582 20 71.2181C20 69.578 21.3364 68.2457 22.9846 68.2457H42.9533C47.1608 68.2457 50.5666 64.8481 50.5666 60.6567C50.5666 56.4653 47.1568 53.0677 42.9533 53.0677H33.5784C29.9839 53.0709 26.5351 51.6475 23.9892 49.11C21.4433 46.5725 20.0086 43.1283 20 39.5339C20.0086 35.9394 21.4433 32.4952 23.9892 29.9577C26.5351 27.4202 29.9839 25.9968 33.5784 26H53.5471C55.1953 26 56.5317 27.3323 56.5317 28.9724C56.5317 30.6125 55.1953 31.9449 53.5471 31.9449H33.5784C29.3749 31.9449 25.9651 35.3425 25.9651 39.5339C25.9651 43.7252 29.3749 47.1228 33.5784 47.1228H41.3213Z"
    fill="#1E1A31"
  />
</svg>
