<svg width="100" height="100" viewBox="0 0 100 100" fill="none" xmlns="http://www.w3.org/2000/svg">
  <rect width="100" height="100" fill="white" />
  <mask
    id="mask0_2_2395"
    style="mask-type: luminance"
    maskUnits="userSpaceOnUse"
    x="18"
    y="18"
    width="64"
    height="64"
  >
    <path d="M82 18H18V82H82V18Z" fill="white" />
  </mask>
  <g mask="url(#mask0_2_2395)">
    <path
      d="M31.3329 24.1334L80.9329 58.0001L68.6662 76.1334L19.0662 42.0001L31.3329 24.1334Z"
      fill="url(#paint0_linear_2_2395)"
    />
    <path
      d="M80.9328 58C76.6662 64.1334 62.2662 61.7334 48.6662 52.1334C34.7995 42.8 27.3328 30.2667 31.3328 24.1333C35.5995 18 49.9995 20.4 63.5995 30C77.4662 39.0667 84.9328 51.8667 80.9328 58Z"
      fill="url(#paint1_linear_2_2395)"
    />
    <path
      d="M68.6662 75.8667C64.3996 82 49.9996 79.6 36.3996 70C22.7996 60.4 15.0662 48.1333 19.3329 41.7333C23.5996 35.6 37.9996 38 51.5996 47.6C65.1996 57.2 72.6662 69.7333 68.6662 75.8667Z"
      fill="url(#paint2_linear_2_2395)"
    />
    <path
      d="M80.9329 58L68.6662 76.1333C64.3995 82.2666 49.9995 79.6 36.3995 70.2666C33.7329 68.4 31.3329 66.5333 28.9329 64.4C30.7995 64.1333 33.1995 63.0666 35.5995 60.4C39.8662 55.8666 41.9995 54.8 43.8662 55.0666C45.7329 55.0666 47.8662 56.9333 51.3329 61.4666C54.7995 66 59.5995 67.3333 62.5329 64.9333C62.7995 64.6666 63.0662 64.6666 63.3329 64.4C65.7329 62.5333 66.5329 61.7333 71.0662 53.2C72.1329 51.0666 75.8662 47.6 80.9329 49.2C82.2662 52.6666 82.2662 55.6 80.9329 58Z"
      fill="#0E0F23"
    />
    <path
      fill-rule="evenodd"
      clip-rule="evenodd"
      d="M79.0661 56.9333C75.3328 62.2667 62.2661 59.6 49.7328 50.8C36.9328 42 29.4661 30.8 33.1994 25.4667C36.9328 20.1333 49.9994 22.8 62.5328 31.6C75.0661 40.4 82.5328 51.6 79.0661 56.9333ZM67.3328 48.9333C65.4661 51.6 59.0661 50.2667 52.6661 46C46.5328 41.7333 42.7994 36.1333 44.6661 33.4667C46.5328 30.8 52.9328 32.1333 59.3328 36.4C65.4661 40.6667 69.1994 46.2667 67.3328 48.9333Z"
      fill="white"
    />
    <path
      d="M30.2665 30.2667C30.2665 30 29.9998 29.7334 29.7332 30C29.4665 30.2667 29.1998 30.2667 29.1998 30.5334C29.4665 31.3334 29.7332 31.8667 29.7332 32.4C29.7332 32.6667 29.9998 32.9334 30.2665 32.6667C30.5332 32.6667 30.7998 32.4 30.5332 32.1334C30.5332 31.6 30.5332 31.0667 30.2665 30.2667Z"
      fill="white"
    />
    <path
      d="M31.5995 34.5334C31.5995 34.2667 31.3328 34 31.0662 34.2667C30.7995 34.5334 30.7995 34.5334 30.7995 34.8C33.7328 41.4667 39.8662 48.6667 47.8662 54C48.1328 54.2667 48.3995 54 48.6662 54C48.9328 53.7334 48.6662 53.4667 48.6662 53.2C40.3995 47.8667 34.5328 40.9334 31.5995 34.5334Z"
      fill="white"
    />
    <path
      d="M63.8665 60.6667C63.5999 60.6667 63.3332 60.6667 63.3332 60.9333C63.3332 61.2 63.3332 61.4667 63.5999 61.4667C64.3999 61.7333 65.4665 62 66.2665 62.2667C66.5332 62.2667 66.7999 62.2667 66.7999 62C66.7999 61.7333 66.7999 61.4667 66.5332 61.4667C65.7332 61.2 64.6665 60.9333 63.8665 60.6667Z"
      fill="white"
    />
    <path
      d="M68.6661 61.7333C68.3994 61.7333 68.1328 62 68.1328 62.2667C68.1328 62.5333 68.3994 62.8 68.6661 62.8C70.7994 63.0667 73.1994 63.3333 75.0661 63.0667C75.3328 63.0667 75.5994 62.8 75.5994 62.5333C75.5994 62.2667 75.3328 62 75.0661 62C72.9328 62.2667 70.7994 62 68.6661 61.7333Z"
      fill="white"
    />
  </g>
  <defs>
    <linearGradient
      id="paint0_linear_2_2395"
      x1="41.0508"
      y1="19.3182"
      x2="50.887"
      y2="53.0947"
      gradientUnits="userSpaceOnUse"
    >
      <stop stop-color="#03B8FF" />
      <stop offset="1" stop-color="#FA52A0" />
    </linearGradient>
    <linearGradient
      id="paint1_linear_2_2395"
      x1="49.151"
      y1="16.9589"
      x2="58.9875"
      y2="50.7358"
      gradientUnits="userSpaceOnUse"
    >
      <stop stop-color="#03B8FF" />
      <stop offset="1" stop-color="#FA52A0" />
    </linearGradient>
    <linearGradient
      id="paint2_linear_2_2395"
      x1="32.9756"
      y1="21.6696"
      x2="42.8121"
      y2="55.4464"
      gradientUnits="userSpaceOnUse"
    >
      <stop stop-color="#03B8FF" />
      <stop offset="1" stop-color="#FA52A0" />
    </linearGradient>
  </defs>
</svg>
