<svg width="100" height="100" viewBox="0 0 100 100" fill="none" xmlns="http://www.w3.org/2000/svg">
  <rect width="100" height="100" fill="#178DD0" />
  <path
    d="M27.9129 51.9834C28.1411 50.3859 28.1411 49.473 29.0539 48.7884C29.7386 48.1038 30.6515 48.332 32.249 48.5602C33.1618 48.5602 34.5311 48.7884 35.9004 49.0166C37.2697 49.2448 38.4108 49.473 39.5519 49.9295C41.1494 50.3859 41.834 50.8423 42.9751 52.2116C44.1162 53.5809 44.1162 54.9502 44.1162 57.4606C44.1162 59.2863 44.1162 61.7967 44.1162 65.2199C44.1162 69.556 44.1162 72.5228 44.1162 74.5768C44.1162 76.1743 44.1162 77.0871 43.6597 77.5436C42.9751 77.7718 42.0622 77.7718 40.4647 77.7718C38.8672 77.7718 37.0415 77.7718 35.2158 77.7718C34.7593 77.7718 34.3029 77.7718 33.8465 77.7718C31.1079 77.7718 29.9668 77.7718 28.8257 76.8589C27.9129 75.9461 27.6846 74.805 27.4564 72.2946C27.2282 69.7842 27 66.8174 27 63.166C27.2282 58.6017 27.4564 54.722 27.9129 51.9834Z"
    fill="white"
  />
  <path
    d="M72.6432 51.9834C72.415 50.3859 72.415 49.473 71.5021 48.7884C70.8175 48.1038 69.9046 48.332 68.3071 48.5602C67.3942 48.5602 66.0249 48.7884 64.6556 49.0166C63.2864 49.2448 62.1453 49.473 61.0042 49.9295C59.4067 50.3859 58.722 50.8423 57.581 52.2116C56.4399 53.5809 56.4399 54.9502 56.4399 57.4606C56.4399 59.2863 56.4399 61.7967 56.4399 65.2199C56.4399 69.556 56.4399 72.5228 56.4399 74.5768C56.4399 76.1743 56.4399 77.0872 56.8963 77.5436C57.3527 78 58.2656 78 59.8631 78C61.4606 78 63.2864 78 65.1121 78C65.5685 78 66.0249 78 66.4814 78C69.22 78 70.361 78 71.5021 77.0872C72.6432 76.1743 72.6432 75.0332 72.8714 72.5228C73.0996 70.0125 73.3278 67.0457 73.3278 63.3942C73.3278 58.6017 73.0996 54.722 72.6432 51.9834Z"
    fill="white"
  />
  <path
    d="M27.9127 30.3029C27.9127 27.3361 27.9127 25.9668 28.8255 25.0539C29.7384 24.1411 31.1077 23.9129 34.0745 23.6846C38.1824 23.4564 44.116 23 50.506 23C56.8961 23 62.8297 23.4564 67.1658 23.6846C69.9043 23.9129 71.5019 23.9129 72.4147 25.0539C73.3276 25.9668 73.3276 27.5643 73.3276 30.3029V31.6722C73.3276 34.639 73.3276 36.0083 72.4147 36.9212C71.5019 37.834 70.1326 38.0622 67.394 38.2905C63.2861 38.7469 57.3525 38.9751 50.506 38.9751C43.8878 38.9751 37.9541 38.7469 33.8463 38.2905C31.1077 38.0622 29.7384 38.0622 28.8255 37.1494C27.9127 36.0083 27.9127 34.639 27.9127 31.6722V30.3029Z"
    fill="white"
  />
</svg>
