<svg width="100" height="100" viewBox="0 0 100 100" fill="none" xmlns="http://www.w3.org/2000/svg">
  <rect width="100" height="100" fill="white" />
  <path
    d="M75.2 80H24.8C22.16 80 20 77.84 20 75.2V24.8C20 22.16 22.16 20 24.8 20H75.2C77.84 20 80 22.16 80 24.8V75.2C80 77.84 77.84 80 75.2 80Z"
    fill="#002868"
  />
  <path
    d="M31.708 73.96C31.55 73.96 31.422 73.816 31.422 73.658V65.596C31.422 65.438 31.294 65.294 31.136 65.294H28.29C28.13 65.294 27.988 65.166 27.988 65.008V63.45C27.988 63.292 28.132 63.148 28.29 63.148H37.05C37.208 63.148 37.352 63.29 37.352 63.45V65.008C37.352 65.166 37.208 65.294 37.05 65.294H34.22C34.062 65.294 33.918 65.436 33.918 65.596V73.658C33.918 73.816 33.79 73.96 33.632 73.96H31.708Z"
    fill="white"
  />
  <path
    d="M46.096 63.45C46.096 63.292 46.224 63.148 46.382 63.148H48.29C48.448 63.148 48.592 63.29 48.592 63.45V68.952C48.592 72.212 46.748 74.104 43.822 74.104C40.912 74.104 39.084 72.212 39.084 68.952V63.45C39.084 63.292 39.212 63.148 39.37 63.148H41.278C41.436 63.148 41.58 63.29 41.58 63.45V69.03C41.58 70.636 42.406 71.78 43.838 71.78C45.27 71.78 46.096 70.636 46.096 69.03V63.45Z"
    fill="white"
  />
  <path
    d="M57.3539 66.678C57.0999 66.678 57.0199 66.582 56.9239 66.392C56.5899 65.612 55.8579 65.12 54.7459 65.12C53.7439 65.12 52.9019 65.47 52.9019 66.138C52.9019 66.87 53.6819 67.172 55.3979 67.378C58.0059 67.68 59.4999 68.476 59.4999 70.542C59.4999 72.864 57.4639 74.088 54.8579 74.088C52.5999 74.088 50.6599 72.99 50.3579 70.686C50.3259 70.464 50.4379 70.384 50.6599 70.384H52.4099C52.6319 70.384 52.7599 70.48 52.8239 70.654C53.0619 71.418 53.8739 72.006 55.0499 72.006C56.0839 72.006 56.9899 71.624 56.9899 70.814C56.9899 69.844 56.0359 69.67 54.1279 69.43C51.9339 69.144 50.4079 68.508 50.4079 66.488C50.4079 64.468 52.1419 63.022 54.8599 63.022C57.3079 63.022 59.0099 64.342 59.3599 66.314C59.4079 66.536 59.3439 66.68 59.1059 66.68H57.3539V66.678Z"
    fill="white"
  />
  <path
    d="M61.662 73.96C61.504 73.96 61.376 73.816 61.376 73.658V63.45C61.376 63.292 61.504 63.148 61.662 63.148H65.986C69.198 63.148 71.694 65.358 71.694 68.586C71.694 71.766 69.23 73.96 65.986 73.96H61.662ZM65.986 71.812C67.72 71.812 69.07 70.444 69.07 68.552C69.07 66.66 67.718 65.292 65.97 65.292H64.174C64.016 65.292 63.888 65.434 63.888 65.594V71.524C63.888 71.682 64.016 71.81 64.174 71.81H65.986V71.812Z"
    fill="white"
  />
  <path
    d="M78.4001 57.2H21.6C21.16 57.2 20.8 56.84 20.8 56.4V24.8C20.8 22.6 22.6 20.8 24.8 20.8H75.2001C77.4001 20.8 79.2001 22.6 79.2001 24.8V56.4C79.2001 56.84 78.84 57.2 78.4001 57.2Z"
    fill="white"
  />
  <path
    d="M52.946 50.712H47.746C47.416 50.712 47.146 50.442 47.146 50.112V28.112C47.146 27.782 47.416 27.512 47.746 27.512H52.946C53.276 27.512 53.546 27.782 53.546 28.112V50.112C53.546 50.442 53.276 50.712 52.946 50.712Z"
    fill="#002868"
  />
  <path
    d="M61.8001 33.912H38.2001C37.8701 33.912 37.6001 33.642 37.6001 33.312V28.112C37.6001 27.782 37.8701 27.512 38.2001 27.512H61.8001C62.1301 27.512 62.4001 27.782 62.4001 28.112V33.312C62.4001 33.642 62.1301 33.912 61.8001 33.912Z"
    fill="#002868"
  />
</svg>
