<svg width="100" height="100" viewBox="0 0 100 100" fill="none" xmlns="http://www.w3.org/2000/svg">
  <rect width="100" height="100" fill="white" />
  <rect width="100" height="100" fill="#FF4A4A" />
  <path
    d="M59.8474 58.4576H56.885C56.3364 58.4576 55.8701 58.0449 55.8701 57.5031V50.1772L50.686 53.2211C50.2471 53.479 49.6985 53.479 49.2596 53.2211L44.1029 50.1772V57.5031C44.1029 58.0191 43.664 58.4576 43.088 58.4576H40.1531C39.6045 58.4576 39.1382 58.0449 39.1382 57.5031V43.3671C39.1382 42.6707 39.7416 42.1031 40.4822 42.1031C40.7565 42.1031 41.0034 42.1805 41.2228 42.3353L49.3968 47.6234C49.7259 47.8556 50.1922 47.8556 50.5214 47.6234L58.6953 42.3353C59.2988 41.9484 60.1491 42.1031 60.5605 42.6707C60.7251 42.877 60.78 43.135 60.8074 43.3671V57.5031C60.8348 58.0191 60.3959 58.4576 59.8474 58.4576Z"
    fill="white"
  />
  <path
    d="M34.7217 58.4318H16.344C15.6034 58.4318 15 57.8643 15 57.1678V42.9544C15.0274 42.4127 15.4663 42 16.0423 42H19.0047C19.5533 42 20.0196 42.4127 20.0196 42.9544V53.7628H31.1559V42.9544C31.1559 42.4385 31.5948 42 32.1708 42H35.0509C35.5995 42 36.0658 42.4127 36.0658 42.9544V57.1678C36.0658 57.8643 35.4623 58.4318 34.7217 58.4318Z"
    fill="white"
  />
  <path
    d="M65.2781 42H83.6558C84.3964 42 84.9998 42.5675 84.9998 43.264V57.4774C84.9998 57.9933 84.561 58.4318 84.0124 58.4318H81.05C80.5014 58.4318 80.0351 58.0191 80.0351 57.4774V47.2881C80.0351 46.9528 79.7334 46.669 79.3768 46.669H69.5845C69.2279 46.669 68.9262 46.9528 68.9262 47.2881V57.4774C68.9262 57.9933 68.4874 58.4318 67.9113 58.4318H64.949C64.4004 58.4318 63.9341 58.0191 63.9341 57.4774V43.264C63.9341 42.5675 64.5375 42 65.2781 42Z"
    fill="white"
  />
  <path
    d="M72.9858 49.6613H75.9208C76.4694 49.6613 76.9357 50.074 76.9357 50.6158V53.4275C76.9357 53.9434 76.4968 54.3819 75.9208 54.3819H72.9858C72.4372 54.3819 71.9709 53.9692 71.9709 53.4275V50.59C71.9709 50.074 72.4372 49.6613 72.9858 49.6613Z"
    fill="white"
  />
</svg>
