<svg width="100" height="100" viewBox="0 0 100 100" fill="none" xmlns="http://www.w3.org/2000/svg">
  <rect width="100" height="100" fill="white" />
  <path
    d="M43.3155 30.1563C42.5419 30.0464 42.505 30.0098 42.8734 29.9732C43.5734 29.8633 45.1943 30.0098 46.3363 30.2663C48.9887 30.8891 51.3832 32.501 53.9251 35.322L54.5882 36.0913L55.546 35.9448C59.6352 35.2853 63.8348 35.7982 67.3345 37.4102C68.2923 37.8498 69.8027 38.7291 69.9869 38.9489C70.0606 39.0222 70.1711 39.4985 70.2448 39.9747C70.5027 41.6966 70.3921 42.9788 69.8396 43.968C69.5448 44.5175 69.5448 44.6641 69.729 45.1404C69.8764 45.5067 70.3185 45.7632 70.7237 45.7632C71.6078 45.7632 72.5288 44.371 72.9709 42.4293L73.1551 41.66L73.4866 42.0263C75.3654 44.1146 76.839 47.0088 77.06 49.0604L77.1337 49.6099L76.8021 49.1336C76.2495 48.291 75.7338 47.7415 75.0339 47.2652C73.7813 46.4226 72.4551 46.1662 68.9554 45.983C65.7873 45.7998 63.9822 45.5433 62.2139 44.9572C59.1931 43.968 57.6458 42.6858 54.0725 37.9598C52.4884 35.8715 51.4937 34.7358 50.4991 33.7833C48.3256 31.695 46.1521 30.596 43.3155 30.1563Z"
    fill="#FF007A"
  />
  <path
    d="M70.7606 34.8091C70.8342 33.4169 71.0184 32.501 71.4237 31.6584C71.571 31.3287 71.7184 31.0356 71.7552 31.0356C71.7921 31.0356 71.7184 31.2921 71.6079 31.5851C71.3131 32.3911 71.2763 33.5268 71.4605 34.8091C71.7184 36.4577 71.8289 36.6775 73.5972 38.4727C74.4076 39.3153 75.3654 40.3777 75.7338 40.8173L76.3601 41.6233L75.7338 41.0372C74.9602 40.3044 73.1919 38.9123 72.7867 38.7291C72.5288 38.5826 72.492 38.5826 72.3078 38.7657C72.1604 38.9123 72.1236 39.1321 72.1236 40.1945C72.0868 41.8431 71.8657 42.8689 71.3131 43.9314C71.0184 44.4809 70.9816 44.371 71.2395 43.7482C71.4237 43.2719 71.4605 43.0521 71.4605 41.4768C71.4605 38.2895 71.0921 37.5201 68.8449 36.2379C68.2924 35.9082 67.3345 35.4319 66.782 35.1754C66.1925 34.919 65.7505 34.6992 65.7873 34.6992C65.861 34.6259 68.0345 35.2487 68.8818 35.6151C70.1711 36.128 70.3922 36.1646 70.5395 36.128C70.65 36.0181 70.7237 35.725 70.7606 34.8091Z"
    fill="#FF007A"
  />
  <path
    d="M44.8259 40.2678C43.2786 38.1429 42.284 34.8457 42.505 32.3911L42.5787 31.6218L42.9471 31.695C43.6102 31.8049 44.7522 32.2446 45.3048 32.5743C46.7783 33.4536 47.4414 34.6625 48.0677 37.6667C48.2519 38.5459 48.5098 39.5717 48.6203 39.9014C48.8045 40.451 49.5044 41.7332 50.0939 42.5392C50.4991 43.1254 50.2412 43.4185 49.3202 43.3452C47.9204 43.1986 46.0416 41.9164 44.8259 40.2678Z"
    fill="#FF007A"
  />
  <path
    d="M68.8816 56.2043C61.5875 53.2735 59.0088 50.7456 59.0088 46.4592C59.0088 45.8364 59.0456 45.3235 59.0456 45.3235C59.0825 45.3235 59.3403 45.5433 59.6719 45.7998C61.1455 46.9721 62.8032 47.485 67.4081 48.1445C70.0973 48.5475 71.6446 48.8405 73.0444 49.3168C77.502 50.7822 80.2649 53.7864 80.928 57.8529C81.1122 59.0253 81.0017 61.26 80.7069 62.4324C80.4491 63.3483 79.7123 65.0335 79.5281 65.0702C79.4913 65.0702 79.4176 64.887 79.4176 64.5939C79.3439 63.0552 78.5703 61.5898 77.2809 60.4541C75.7337 59.1352 73.7444 58.146 68.8816 56.2043Z"
    fill="#FF007A"
  />
  <path
    d="M63.7242 57.4133C63.6505 56.8638 63.4663 56.1677 63.3558 55.8746L63.1716 55.3251L63.5031 55.7281C63.982 56.2776 64.3504 56.937 64.682 57.8529C64.9398 58.549 64.9398 58.7688 64.9398 59.9045C64.9398 61.0036 64.903 61.2601 64.682 61.8829C64.3136 62.872 63.8715 63.5681 63.1347 64.3375C61.8085 65.693 60.0771 66.4257 57.6089 66.7554C57.1668 66.792 55.9143 66.902 54.8091 66.9752C52.0462 67.1218 50.2043 67.4149 48.5465 68.001C48.3255 68.0743 48.1044 68.1476 48.0676 68.1109C47.9939 68.0377 49.1359 67.3782 50.0569 66.9386C51.3463 66.3158 52.6725 65.9861 55.5828 65.4732C57.0195 65.2533 58.493 64.9603 58.8614 64.8137C62.5085 63.678 64.3136 60.8571 63.7242 57.4133Z"
    fill="#FF007A"
  />
  <path
    d="M67.0767 63.3117C66.1189 61.2234 65.8978 59.2451 66.4136 57.3767C66.4873 57.1935 66.5609 57.0103 66.6346 57.0103C66.7083 57.0103 66.9293 57.1202 67.1504 57.2668C67.5924 57.5598 68.5134 58.0728 70.8711 59.355C73.8551 60.967 75.5497 62.2126 76.7285 63.6414C77.76 64.887 78.3863 66.3158 78.681 68.0743C78.8652 69.0635 78.7546 71.4448 78.4968 72.4339C77.6863 75.548 75.8444 78.0392 73.1551 79.468C72.7499 79.6878 72.4183 79.8344 72.3815 79.8344C72.3447 79.8344 72.492 79.468 72.7131 79.0284C73.5972 77.16 73.7077 75.3648 73.0446 73.3498C72.6394 72.1042 71.7921 70.6022 70.0975 68.0743C68.0713 65.1434 67.5924 64.3741 67.0767 63.3117Z"
    fill="#FF007A"
  />
  <path
    d="M39.6315 74.5222C42.3576 72.2508 45.71 70.6388 48.8044 70.1259C50.1306 69.9061 52.341 69.9794 53.5567 70.3091C55.5091 70.822 57.2774 71.921 58.1984 73.2766C59.0825 74.5955 59.4877 75.7312 59.893 78.259C60.0403 79.2482 60.2245 80.274 60.2614 80.4938C60.5561 81.8127 61.1455 82.8385 61.8823 83.388C63.0243 84.2306 65.0136 84.2673 66.966 83.5346C67.2976 83.4247 67.5923 83.3147 67.5923 83.3514C67.666 83.4247 66.6713 84.0841 66.0082 84.4138C65.0873 84.8901 64.3505 85.0366 63.3558 85.0366C61.5876 85.0366 60.0772 84.1207 58.8615 82.2889C58.6036 81.9226 58.0879 80.8602 57.6458 79.871C56.3564 76.9035 55.6933 76.0242 54.1829 75.0351C52.8567 74.1925 51.1621 74.0093 49.8728 74.6321C48.1782 75.4381 47.7361 77.5996 48.9149 78.9185C49.3939 79.468 50.278 79.9076 51.0148 80.0175C52.3778 80.2007 53.5567 79.1383 53.5567 77.7828C53.5567 76.9035 53.2251 76.3906 52.341 75.9876C51.1621 75.4747 49.8728 76.0609 49.9096 77.1966C49.9096 77.6728 50.1306 77.9659 50.6095 78.1857C50.9043 78.3323 50.9043 78.3323 50.6832 78.2957C49.6149 78.0758 49.357 76.757 50.2043 75.9143C51.2358 74.8885 53.4093 75.3282 54.1461 76.757C54.4408 77.3431 54.4776 78.5155 54.2198 79.2482C53.5935 80.8602 51.8252 81.7028 50.0201 81.2265C48.8044 80.8968 48.2887 80.5671 46.8151 79.065C44.2364 76.4272 43.2417 75.9143 39.5578 75.3648L38.8579 75.2549L39.6315 74.5222Z"
    fill="#FF007A"
  />
  <path
    fill-rule="evenodd"
    clip-rule="evenodd"
    d="M20.2542 15.5753C28.8376 25.9432 42.0628 42.063 42.7259 42.9422C43.2785 43.6749 43.0575 44.371 42.1365 44.8839C41.6208 45.177 40.5524 45.4701 40.0367 45.4701C39.4473 45.4701 38.7473 45.177 38.2684 44.7007C37.9369 44.371 36.5002 42.2828 33.2583 37.2637C30.7901 33.4169 28.6903 30.2296 28.6535 30.193C28.5061 30.1197 28.5061 30.1197 33.0004 38.1063C35.837 43.1254 36.758 44.9205 36.758 45.1404C36.758 45.6166 36.6107 45.8731 36.0212 46.5325C35.0266 47.6316 34.5845 48.8772 34.253 51.4783C33.8846 54.3726 32.8899 56.4242 30.0533 59.9045C28.3956 61.9561 28.1377 62.3225 27.7325 63.1651C27.2167 64.1909 27.0694 64.7771 26.9957 66.096C26.922 67.4881 27.0694 68.3674 27.4746 69.6863C27.843 70.8586 28.2482 71.628 29.2429 73.13C30.0902 74.4489 30.6059 75.4381 30.6059 75.8044C30.6059 76.0975 30.6796 76.0975 32.0058 75.8044C35.1739 75.0717 37.7895 73.8261 39.2262 72.2874C40.1104 71.3349 40.3314 70.822 40.3314 69.5031C40.3314 68.6605 40.2946 68.4773 40.0735 67.9644C39.7051 67.1584 39.0052 66.499 37.4948 65.4732C35.5055 64.1176 34.6582 63.0186 34.4372 61.5532C34.253 60.3075 34.474 59.4649 35.5792 57.1569C36.7212 54.7755 37.0159 53.7864 37.2001 51.3684C37.3106 49.8297 37.4948 49.2069 37.9369 48.7307C38.4158 48.2178 38.821 48.0346 39.963 47.888C41.8418 47.6316 43.0575 47.1553 44.0153 46.2394C44.8626 45.4701 45.231 44.7007 45.2678 43.565L45.3047 42.7224L44.8258 42.2095C43.0943 40.2312 19.1122 14 19.0016 14C18.9648 14 19.5542 14.6961 20.2542 15.5753ZM31.5637 67.6713C31.969 66.9752 31.7479 66.096 31.0848 65.6563C30.4586 65.2534 29.5007 65.4365 29.5007 65.9861C29.5007 66.1326 29.5744 66.2792 29.7955 66.3524C30.127 66.5356 30.1638 66.7188 29.906 67.1218C29.6481 67.5248 29.6481 67.8911 29.9797 68.1476C30.4954 68.5506 31.1953 68.3308 31.5637 67.6713Z"
    fill="#FF007A"
  />
  <path
    fill-rule="evenodd"
    clip-rule="evenodd"
    d="M46.4836 48.4009C45.5995 48.6574 44.7522 49.6099 44.4943 50.5624C44.3469 51.1486 44.4206 52.211 44.6785 52.5408C45.0837 53.0537 45.4521 53.2002 46.4836 53.2002C48.5097 53.2002 50.2412 52.3209 50.4254 51.2585C50.6096 50.3793 49.8359 49.1703 48.7676 48.6207C48.215 48.3277 47.073 48.2177 46.4836 48.4009ZM48.8413 50.2327C49.136 49.7931 49.0255 49.3168 48.4729 48.9871C47.4783 48.3643 45.9679 48.8772 45.9679 49.8297C45.9679 50.306 46.7415 50.8189 47.4783 50.8189C47.9572 50.8189 48.6203 50.5258 48.8413 50.2327Z"
    fill="#FF007A"
  />
</svg>
