<svg width="100" height="100" viewBox="0 0 100 100" fill="none" xmlns="http://www.w3.org/2000/svg">
  <rect width="100" height="100" fill="#2775CA" />
  <path
    d="M62.7989 56.3347C62.7989 49.5477 58.7266 47.2206 50.582 46.2512C44.7645 45.4754 43.601 43.9242 43.601 41.209C43.601 38.4938 45.5403 36.749 49.4185 36.749C52.909 36.749 54.8484 37.9126 55.8178 40.8213C56.0119 41.4031 56.5936 41.7908 57.1754 41.7908H60.2778C61.0536 41.7908 61.6354 41.209 61.6354 40.4337V40.2396C60.8595 35.9732 57.369 32.6768 52.909 32.2891V27.635C52.909 26.8592 52.3273 26.2774 51.3578 26.0834H48.4491C47.6732 26.0834 47.0915 26.6651 46.8974 27.635V32.095C41.0799 32.8708 37.3957 36.749 37.3957 41.5972C37.3957 47.9965 41.2739 50.5171 49.4185 51.487C54.8484 52.4564 56.5936 53.62 56.5936 56.7228C56.5936 59.8257 53.8785 61.9586 50.1943 61.9586C45.1521 61.9586 43.4069 59.8252 42.8251 56.9164C42.6315 56.1411 42.0498 55.7529 41.468 55.7529H38.1711C37.3957 55.7529 36.814 56.3347 36.814 57.1105V57.3046C37.5893 62.1522 40.6922 65.6427 47.0915 66.6127V71.2667C47.0915 72.0421 47.6732 72.6238 48.6427 72.8179H51.5514C52.3273 72.8179 52.909 72.2361 53.1031 71.2667V66.6127C58.9207 65.6427 62.7989 61.5705 62.7989 56.3347Z"
    fill="white"
  />
  <path
    d="M40.1102 76.6962C24.9845 71.2668 17.2276 54.3959 22.8516 39.4638C25.7604 31.3192 32.1597 25.114 40.1102 22.2052C40.886 21.8176 41.2737 21.2358 41.2737 20.2659V17.5512C41.2737 16.7754 40.886 16.1936 40.1102 16C39.9161 16 39.5284 16 39.3343 16.1936C20.9122 22.0112 10.8283 41.5972 16.6459 60.0193C20.1364 70.8786 28.4751 79.2173 39.3343 82.7078C40.1102 83.0955 40.886 82.7078 41.0796 81.932C41.2737 81.7384 41.2737 81.5443 41.2737 81.1566V78.4414C41.2737 77.8597 40.6919 77.0843 40.1102 76.6962ZM60.6657 16.1936C59.8898 15.8059 59.114 16.1936 58.9204 16.9694C58.7263 17.1635 58.7263 17.3571 58.7263 17.7453V20.46C58.7263 21.2358 59.3081 22.0112 59.8898 22.3993C75.0155 27.8287 82.7724 44.6996 77.1484 59.6317C74.2397 67.7762 67.8403 73.9815 59.8898 76.8902C59.114 77.2779 58.7263 77.8597 58.7263 78.8296V81.5443C58.7263 82.3201 59.114 82.9019 59.8898 83.0955C60.0839 83.0955 60.4716 83.0955 60.6657 82.9019C79.0878 77.0843 89.1717 57.4982 83.3541 39.0761C79.8636 28.0228 71.3309 19.6841 60.6657 16.1936Z"
    fill="white"
  />
</svg>
