<svg width="100" height="100" viewBox="0 0 100 100" fill="none" xmlns="http://www.w3.org/2000/svg">
  <rect width="100" height="100" fill="white" />
  <rect width="100" height="100" fill="white" />
  <path
    d="M30.9092 75.035C32.9852 77.4082 35.5101 79.3441 38.3374 80.7305C41.1648 82.1168 44.2383 82.926 47.3798 83.1111C51.1329 82.9111 54.6739 81.3021 57.2996 78.6035C62.4785 74.1524 67.9159 70.0132 73.583 66.2077L76.7648 64.893C78.075 64.3295 80.3209 63.0148 82.3798 60.5732C84.6258 57.5682 85.0001 54.3753 85.0001 53.2484C84.7512 49.6943 83.5907 46.2653 81.6311 43.2942C76.5176 52.4373 69.1892 60.139 60.3235 65.687C51.4579 71.235 41.3412 74.4501 30.9092 75.035Z"
    fill="#0293D6"
  />
  <path
    d="M38.0215 21.6954C39.4187 20.2144 41.1017 19.0344 42.968 18.2272C44.8343 17.42 46.8448 17.0024 48.8771 17C50.1647 16.9135 51.4566 17.0848 52.6776 17.504C53.8987 17.9231 55.0244 18.5818 55.9894 19.4416C61.3581 23.2582 67.7529 25.3536 74.3316 25.4517C76.0161 25.6395 79.3851 26.203 81.6311 29.0202C83.3156 31.274 83.5028 33.7156 83.5028 34.8425C83.352 37.7446 82.7194 40.6011 81.6311 43.2942L38.0215 21.6954Z"
    fill="#EBE638"
  />
  <path
    d="M30.9091 75.035C29.2246 74.8472 26.9786 74.2838 24.3583 73.1569C21.738 72.03 18.5561 70.7153 16.4973 67.1468C15.1872 64.893 15 62.6392 15 61.1367C15.0457 57.152 16.0064 53.2315 17.8075 49.6799C19.5994 45.2902 20.7955 40.6788 21.3636 35.9694L22.2995 32.2131C22.861 30.3349 23.2353 28.4568 24.5455 26.5786L26.6043 24.3248C30.0048 22.1794 34.029 21.2527 38.0214 21.6954C32.6755 29.3694 29.2399 38.2171 28.0024 47.4975C26.765 56.7779 27.7617 66.2207 30.9091 75.035Z"
    fill="#BAD147"
  />
  <path
    d="M38.0215 21.6954C37.8344 21.6954 48.1285 22.2589 54.4921 24.5126L59.7328 26.7664C57.6739 26.5786 44.5723 26.0152 34.6526 35.9694C22.1124 48.7409 26.2301 66.2077 26.4173 67.1468C23.5112 63.4779 22.0462 58.8673 22.2996 54.1875C22.546 47.9765 24.0699 41.8838 26.7755 36.2921C29.4811 30.7005 33.31 25.7308 38.0215 21.6954Z"
    fill="#78B650"
  />
  <path
    d="M63.1014 68.0859C66.6423 61.6268 68.211 54.2649 67.6119 46.9175C67.0129 39.5701 64.2726 32.562 59.7324 26.7664C65.1538 27.676 70.1405 30.3097 73.957 34.279C76.203 36.1572 79.0105 38.9744 81.6308 43.2942C77.9301 53.1585 71.5021 61.7588 63.1014 68.0859Z"
    fill="#2F8260"
  />
  <path
    d="M69.0909 35.0303C66.0962 29.9593 61.7914 27.7055 59.9197 26.7664C58.4224 26.3908 44.385 24.137 33.7165 34.4668C25.1069 42.7307 24.5454 53.4362 24.5454 55.5022C24.585 62.5803 26.9538 69.4471 31.2834 75.035C36.8473 76.1101 42.5644 76.1101 48.1283 75.035C50.9358 74.4716 57.4866 73.3447 63.1016 68.4615C63.8502 67.7102 72.0855 60.0098 72.647 47.8018C72.647 45.7358 72.647 40.4769 69.0909 35.0303ZM62.3529 62.2636C60.6149 64.1608 58.5028 65.6747 56.1507 66.7094C53.7987 67.744 51.2579 68.2767 48.6898 68.2737C47.5668 68.2737 40.0802 68.0858 34.8395 61.8879C34.0909 60.9489 30.3475 56.4413 30.5347 49.6799C30.909 40.6648 38.0213 35.4059 39.5187 34.279C40.8288 33.34 44.0107 31.274 48.6898 31.0862C49.8128 30.8983 53.7433 30.7105 57.6738 32.9643C66.2834 37.6597 66.6577 48.9287 66.6577 49.6799C66.6577 51.7459 66.6577 57.3804 62.3529 62.2636Z"
    fill="#085229"
  />
</svg>
