<svg width="100" height="100" viewBox="0 0 100 100" fill="none" xmlns="http://www.w3.org/2000/svg">
  <rect width="100" height="100" fill="#009393" />
  <path
    fill-rule="evenodd"
    clip-rule="evenodd"
    d="M30.2491 24.3334H70.5652C71.0365 24.335 71.4992 24.4599 71.9073 24.6957C72.3154 24.9314 72.6547 25.2698 72.8917 25.6772L84.6397 46.1243C84.9364 46.6381 85.0548 47.2356 84.9764 47.8237C84.898 48.4119 84.6272 48.9575 84.2062 49.3756L51.8666 81.3684C51.3657 81.8669 50.6876 82.1468 49.9809 82.1468C49.2741 82.1468 48.5961 81.8669 48.0951 81.3684L15.7988 49.419C15.3677 48.9911 15.0932 48.4304 15.0198 47.8274C14.9464 47.2244 15.0783 46.6142 15.3943 46.0954L27.9515 25.6195C28.193 25.227 28.5309 24.9027 28.9331 24.6776C29.3352 24.4525 29.7882 24.334 30.2491 24.3334ZM65.3632 33.4659V39.246H53.8752V43.2343C61.9384 43.6533 67.9931 45.4018 68.0364 47.4971V51.8321C68.0364 53.9274 61.9384 55.6759 53.8752 56.0949V65.8488H46.2455V56.0805C38.1822 55.6614 32.1276 53.913 32.0843 51.8177V47.4826C32.0843 45.3873 38.1822 43.6389 46.2455 43.2198V39.2316H34.7576V33.4515L65.3632 33.4659ZM50.0603 53.0604C58.7305 53.0604 65.8689 51.6154 67.6174 49.6213C66.1724 47.945 60.7246 46.6301 53.8752 46.2688V50.4305C52.6469 50.4305 51.3753 50.5316 50.0603 50.5316C48.7454 50.5316 47.4737 50.5316 46.2455 50.4305V46.2688C39.3961 46.6301 33.9918 47.945 32.5034 49.6213C34.2519 51.5865 41.448 53.0604 50.0603 53.0604Z"
    fill="white"
  />
</svg>
