<svg width="100" height="100" viewBox="0 0 100 100" fill="none" xmlns="http://www.w3.org/2000/svg">
  <rect width="100" height="100" fill="#F7931A" />
  <path
    d="M78.3855 23.888L75.9143 26.3592C81.8109 32.8075 85.0809 41.2291 85.0809 49.9671C85.0809 58.705 81.8109 67.1266 75.9143 73.575L78.3855 76.0461C84.9431 68.9331 88.5839 59.6128 88.5839 49.9382C88.5839 40.2636 84.9431 30.9433 78.3855 23.8303V23.888Z"
    fill="white"
    fill-opacity="0.7"
  />
  <path
    d="M26.417 24.1022C32.8654 18.2056 41.287 14.9356 50.0249 14.9356C58.7628 14.9356 67.1845 18.2056 73.6328 24.1022L76.104 21.631C68.991 15.0733 59.6707 11.4326 49.9961 11.4326C40.3215 11.4326 31.0012 15.0733 23.8882 21.631L26.417 24.1022Z"
    fill="white"
    fill-opacity="0.7"
  />
  <path
    d="M24.1019 73.5996C18.2123 67.1527 14.9466 58.7362 14.9466 50.0041C14.9466 41.2719 18.2123 32.8555 24.1019 26.4085L21.6308 23.9374C15.0731 31.0504 11.4324 40.3707 11.4324 50.0453C11.4324 59.7199 15.0731 69.0402 21.6308 76.1532L24.1019 73.5996Z"
    fill="white"
    fill-opacity="0.7"
  />
  <path
    d="M73.5996 75.8814C67.1512 81.778 58.7296 85.048 49.9917 85.048C41.2537 85.048 32.8321 81.778 26.3838 75.8814L23.9126 78.3525C31.0256 84.9102 40.3459 88.551 50.0205 88.551C59.6951 88.551 69.0154 84.9102 76.1284 78.3525L73.5996 75.8814Z"
    fill="white"
    fill-opacity="0.7"
  />
  <path
    d="M65.6012 41.7545C65.107 36.598 60.6589 34.8682 55.0328 34.341V27.2405H50.6836V34.2092C49.5386 34.2092 48.3689 34.2092 47.2075 34.2092V27.2405H42.8912V34.3905H34.0691V39.0445C34.0691 39.0445 37.2816 38.9868 37.2322 39.0445C37.8114 38.9808 38.3928 39.1444 38.8538 39.5009C39.3147 39.8574 39.6193 40.3789 39.7034 40.9555V60.5272C39.691 60.7306 39.6379 60.9294 39.5474 61.1119C39.4568 61.2944 39.3306 61.4569 39.1762 61.5898C39.0246 61.7252 38.8473 61.8286 38.6548 61.8937C38.4622 61.9588 38.2585 61.9843 38.0559 61.9687C38.1136 62.0181 34.8928 61.9687 34.8928 61.9687L34.0691 67.1664H42.8088V74.4316H47.158V67.2735H50.6342V74.3987H54.9917V67.2158C62.3393 66.771 67.4628 64.9588 68.1053 58.0807C68.6243 52.5453 66.0213 50.0741 61.8615 49.0774C64.3903 47.8336 65.9554 45.5272 65.6012 41.7545ZM59.5057 57.2241C59.5057 62.6277 50.247 62.0099 47.2981 62.0099V52.4217C50.247 52.43 59.5057 51.5816 59.5057 57.2241ZM57.4875 43.715C57.4875 48.6573 49.761 48.056 47.3063 48.056V39.341C49.761 39.341 57.4875 38.5667 57.4875 43.715Z"
    fill="white"
  />
  <path
    d="M49.9918 95C41.0923 94.9984 32.3932 92.358 24.9942 87.4127C17.5953 82.4674 11.8288 75.4393 8.42386 67.2169C5.01894 58.9946 4.12849 49.9473 5.86508 41.2189C7.60168 32.4905 11.8873 24.4731 18.1802 18.1802C24.4731 11.8873 32.4905 7.60168 41.2189 5.86508C49.9473 4.12849 58.9946 5.01894 67.2169 8.42386C75.4393 11.8288 82.4674 17.5953 87.4127 24.9942C92.358 32.3932 94.9984 41.0923 95 49.9918C95.0011 55.9026 93.8376 61.7558 91.5761 67.2169C89.3147 72.6781 85.9994 77.6402 81.8198 81.8198C77.6402 85.9994 72.6781 89.3147 67.2169 91.5761C61.7558 93.8376 55.9026 95.0011 49.9918 95ZM49.9918 8.50908C41.7926 8.51559 33.7795 10.9527 26.9651 15.5123C20.1507 20.0719 14.841 26.5493 11.7071 34.1259C8.57315 41.7024 7.75571 50.038 9.35808 58.0791C10.9604 66.1201 14.9107 73.5056 20.7095 79.3021C26.5083 85.0986 33.8954 89.046 41.9371 90.6451C49.9787 92.2443 58.314 91.4236 65.8893 88.2866C73.4647 85.1497 79.94 79.8374 84.4969 73.0212C89.0538 66.205 91.4877 58.1909 91.4909 49.9918C91.4931 44.5422 90.421 39.1456 88.3361 34.1107C86.2511 29.0757 83.1941 24.5011 79.3399 20.6484C75.4857 16.7957 70.9099 13.7406 65.8741 11.6576C60.8383 9.57465 55.4413 8.50475 49.9918 8.50908Z"
    fill="white"
  />
</svg>
