<svg width="100" height="100" viewBox="0 0 100 100" fill="none" xmlns="http://www.w3.org/2000/svg">
  <rect width="100" height="100" fill="white" />
  <path
    d="M77.3231 35.3423L67.7173 25.7366C62.2385 18.8346 53.7712 14.4231 44.3077 14.4231C27.8 14.4231 14.4231 27.8 14.4231 44.3077C14.4231 53.7712 18.8346 62.2385 25.7366 67.7173L35.3423 77.3231C40.5366 82.5173 48.8616 82.5173 54.0558 77.3231L77.3231 54.0558C82.5173 48.9327 82.5173 40.5366 77.3231 35.3423Z"
    fill="#ED1E79"
  />
  <path
    d="M44.7346 82.6596C40.8212 82.6596 37.1212 81.1654 34.3462 78.3904L24.7404 68.7846C17.2692 62.8077 13 53.8423 13 44.3077C13 27.0173 27.0173 13 44.3077 13C53.8423 13 62.8077 17.2692 68.7846 24.7404L78.3192 34.3462C81.0942 37.1212 82.5885 40.8212 82.5885 44.7346C82.5885 48.6481 81.0942 52.3481 78.3192 55.1231L55.0519 78.3192C52.2769 81.0942 48.6481 82.6596 44.7346 82.6596ZM44.3077 15.8462C28.5827 15.8462 15.8462 28.5827 15.8462 44.3077C15.8462 52.9885 19.7596 61.1712 26.5904 66.5788L26.7327 66.7212L36.3385 76.3269C38.5442 78.5327 41.5327 79.8135 44.6635 79.8135C47.7942 79.8135 50.7827 78.6039 52.9885 76.3269L76.3269 53.0596C78.5327 50.8538 79.8135 47.8654 79.8135 44.7346C79.8135 41.6038 78.6039 38.6154 76.3269 36.4096L66.5789 26.5904C61.1712 19.7596 52.9885 15.8462 44.3077 15.8462Z"
    fill="black"
  />
  <path
    d="M15.8743 48.3714L13.8618 50.3839L31.4713 67.9934L33.4838 65.9809L15.8743 48.3714Z"
    fill="black"
  />
  <path
    d="M15.8743 37.6983L13.8618 39.7108L31.4713 57.3203L33.4838 55.3078L15.8743 37.6983Z"
    fill="black"
  />
  <path
    d="M55.6922 85.5769C72.1971 85.5769 85.5769 72.1971 85.5769 55.6923C85.5769 39.1875 72.1971 25.8077 55.6922 25.8077C39.1874 25.8077 25.8076 39.1875 25.8076 55.6923C25.8076 72.1971 39.1874 85.5769 55.6922 85.5769Z"
    fill="white"
  />
  <path
    d="M55.6925 87C38.4021 87 24.3848 72.9827 24.3848 55.6923C24.3848 38.4019 38.4021 24.3846 55.6925 24.3846C72.9828 24.3846 87.0002 38.4019 87.0002 55.6923C87.0002 72.9827 72.9828 87 55.6925 87ZM55.6925 27.2307C39.9675 27.2307 27.2309 39.9673 27.2309 55.6923C27.2309 71.4173 39.9675 84.1538 55.6925 84.1538C71.4175 84.1538 84.154 71.4173 84.154 55.6923C84.154 39.9673 71.4175 27.2307 55.6925 27.2307Z"
    fill="black"
  />
  <path
    d="M55.6923 78.4616C68.2674 78.4616 78.4616 68.2674 78.4616 55.6923C78.4616 43.1172 68.2674 32.9231 55.6923 32.9231C43.1172 32.9231 32.9231 43.1172 32.9231 55.6923C32.9231 68.2674 43.1172 78.4616 55.6923 78.4616Z"
    fill="white"
  />
  <path
    d="M55.6923 79.8846C42.3865 79.8846 31.5 68.9981 31.5 55.6923C31.5 42.3865 42.3865 31.5 55.6923 31.5C68.9981 31.5 79.8846 42.3865 79.8846 55.6923C79.8846 68.9981 68.9981 79.8846 55.6923 79.8846ZM55.6923 34.3462C43.9519 34.3462 34.3462 43.9519 34.3462 55.6923C34.3462 67.4327 43.9519 77.0385 55.6923 77.0385C67.4327 77.0385 77.0385 67.4327 77.0385 55.6923C77.0385 43.9519 67.4327 34.3462 55.6923 34.3462Z"
    fill="black"
  />
  <path
    d="M50.4269 62.8078H43.9519V50.0712H50.2134V52.4193H46.3711V55.2655H49.9288V57.6135H46.3711V60.5308H50.4269V62.8078Z"
    fill="black"
  />
  <path
    d="M59.8196 52.4193H56.76V62.8078H54.2696V52.4193H51.21V50.0712H59.8196V52.4193Z"
    fill="black"
  />
  <path
    d="M70.6346 62.8078H68.2154V57.6135H63.7327V62.8078H61.3135V50.0712H63.7327V55.1232H68.2154V50.0712H70.6346V62.8078Z"
    fill="black"
  />
</svg>
