<svg width="100" height="100" viewBox="0 0 100 100" fill="none" xmlns="http://www.w3.org/2000/svg">
  <rect width="100" height="100" fill="white" />
  <path
    d="M58.7449 54.6253L62.8708 50.5004H50.4929V62.8752L54.6189 58.7503L67.4231 71.5514C67.4762 71.607 67.5121 71.6769 67.5264 71.7524C67.5407 71.828 67.5329 71.9061 67.5038 71.9773C67.4747 72.0485 67.4257 72.1098 67.3626 72.1538C67.2994 72.1977 67.2249 72.2225 67.1481 72.2251H60.4915C60.0431 72.2238 59.6132 72.046 59.295 71.7301L50.4929 62.8752L41.6634 71.7026C41.3455 72.0089 40.922 72.1812 40.4806 72.1839H33.7965C33.6908 72.1839 33.5893 72.1419 33.5145 72.0671C33.4397 71.9923 33.3977 71.8909 33.3977 71.7851C33.3979 71.7332 33.4091 71.6819 33.4304 71.6345C33.4517 71.5871 33.4827 71.5448 33.5215 71.5101L46.367 58.7503L42.241 54.6253L23.8392 73.0776C23.438 73.4814 23.1651 73.9947 23.0548 74.553C22.9444 75.1113 23.0016 75.6898 23.2191 76.2158C23.4366 76.7417 23.8047 77.1917 24.2772 77.5092C24.7496 77.8266 25.3054 77.9974 25.8747 78.0001H41.8422C42.9508 77.9988 44.0139 77.5589 44.7991 76.7763L50.1078 71.4551C50.1578 71.4036 50.2177 71.3626 50.2838 71.3346C50.35 71.3066 50.4211 71.2922 50.4929 71.2922C50.5648 71.2922 50.6359 71.3066 50.702 71.3346C50.7682 71.3626 50.828 71.4036 50.878 71.4551L56.1868 76.7763C56.5716 77.1652 57.0301 77.4737 57.5354 77.6838C58.0407 77.8939 58.5827 78.0014 59.1299 78.0001H75.1249C75.8898 77.9928 76.6208 77.684 77.1591 77.1407C77.6974 76.5974 77.9994 75.8636 77.9993 75.0988C77.9988 74.3406 77.697 73.6135 77.1604 73.0776L58.7449 54.6253Z"
    fill="#33CBCB"
  />
  <path
    d="M46.3713 42.2504L33.5172 29.4493C33.4457 29.3729 33.4059 29.2721 33.4059 29.1675C33.4059 29.0628 33.4457 28.962 33.5172 28.8856C33.5943 28.8175 33.6901 28.7743 33.7922 28.7618H40.5423C40.7659 28.7604 40.9873 28.8048 41.193 28.8923C41.3987 28.9798 41.5843 29.1085 41.7384 29.2706L50.4956 38.1255L59.3079 29.2981C59.465 29.1411 59.6515 29.0165 59.8567 28.9316C60.0619 28.8467 60.2819 28.803 60.504 28.8031H67.1853C67.2899 28.8101 67.3878 28.8566 67.4593 28.9332C67.5308 29.0098 67.5705 29.1108 67.5703 29.2156C67.5665 29.3172 67.5276 29.4144 67.4603 29.4906L54.6199 42.2504L58.7442 46.3754L77.1387 27.9231C77.4113 27.6533 77.6278 27.3321 77.7755 26.9781C77.9233 26.624 77.9993 26.2442 77.9993 25.8606C77.9993 25.477 77.9233 25.0972 77.7755 24.7432C77.6278 24.3891 77.4113 24.0679 77.1387 23.7981C76.5885 23.2713 75.8517 22.9844 75.0902 23.0007H59.1429C58.5959 22.9993 58.0541 23.1068 57.549 23.3169C57.0439 23.527 56.5857 23.8355 56.2009 24.2244L50.8943 29.5318C50.8432 29.5838 50.7822 29.6251 50.7149 29.6532C50.6476 29.6814 50.5754 29.6959 50.5025 29.6959C50.4296 29.6959 50.3574 29.6814 50.2901 29.6532C50.2229 29.6251 50.1619 29.5838 50.1107 29.5318L44.8041 24.2244C44.4177 23.8338 43.9573 23.5244 43.4497 23.3142C42.9421 23.1041 42.3977 22.9975 41.8483 23.0007H25.8735C25.3045 23.0033 24.7489 23.1741 24.2766 23.4916C23.8044 23.809 23.4364 24.259 23.219 24.7849C23.0016 25.3109 22.9445 25.8894 23.0547 26.4477C23.165 27.006 23.4378 27.5193 23.8389 27.9231L42.247 46.3754L38.1227 50.5003H50.4956V38.1255L46.3713 42.2504Z"
    fill="#FF0098"
  />
</svg>
