<svg width="100" height="100" viewBox="0 0 100 100" fill="none" xmlns="http://www.w3.org/2000/svg">
  <rect width="100" height="100" fill="white" />
  <rect width="100" height="100" fill="url(#paint0_linear_2_26275)" />
  <path
    fill-rule="evenodd"
    clip-rule="evenodd"
    d="M47.7888 27.7183H52.9156V72.2817H47.7888V27.7183Z"
    fill="white"
  />
  <path
    fill-rule="evenodd"
    clip-rule="evenodd"
    d="M44.9297 48.7183V43.3944C40.8874 41.4225 38.0283 37.1831 38.0283 32.3521C38.0283 25.5493 43.5494 20.0282 50.3522 20.0282C58.0424 20.0282 63.5635 25.5493 63.5635 32.3521C63.5635 34.0282 63.1691 35.7042 62.3804 37.6761L60.2114 30.5775L55.8734 31.9578L59.7184 46.6479L74.7044 41.1268L72.8311 36.7887L67.2114 38.662C68.1973 36.493 68.3945 34.8169 68.3945 32.2535C68.3945 22.6901 60.7044 15 50.2536 15C40.6903 15 33.0001 22.6901 33.0001 32.2535C33.0987 39.9437 38.0283 46.4507 44.9297 48.7183Z"
    fill="white"
  />
  <path
    fill-rule="evenodd"
    clip-rule="evenodd"
    d="M55.7747 51.2817V56.6056C59.8169 58.5775 62.6761 62.8169 62.6761 67.6479C62.6761 74.4507 57.1549 79.9718 50.3521 79.9718C42.662 79.9718 37.1408 74.4507 37.1408 67.6479C37.1408 65.9718 37.5352 64.2958 38.3239 62.3239L40.493 69.4225L44.831 68.0422L40.9859 53.3521L26 58.8732L27.8732 63.2113L33.493 61.338C32.507 63.507 32.3099 65.1831 32.3099 67.7465C32.3099 77.3099 40 85 50.4507 85C60.0141 85 67.7042 77.3099 67.7042 67.7465C67.6056 60.0563 62.6761 53.5493 55.7747 51.2817Z"
    fill="white"
  />
  <defs>
    <linearGradient
      id="paint0_linear_2_26275"
      x1="0"
      y1="0"
      x2="100"
      y2="100"
      gradientUnits="userSpaceOnUse"
    >
      <stop stop-color="#0077FC" />
      <stop offset="1" stop-color="#095EB5" />
    </linearGradient>
  </defs>
</svg>
