<svg width="100" height="100" viewBox="0 0 100 100" fill="none" xmlns="http://www.w3.org/2000/svg">
  <rect width="100" height="100" fill="#FF2C7E" />
  <path
    fill-rule="evenodd"
    clip-rule="evenodd"
    d="M27.7183 53.2112L27.7183 48.0844L72.2816 48.0844L72.2816 53.2112L27.7183 53.2112Z"
    fill="white"
  />
  <path
    fill-rule="evenodd"
    clip-rule="evenodd"
    d="M48.7183 56.0703L43.3944 56.0703C41.4225 60.1126 37.1831 62.9717 32.3521 62.9717C25.5493 62.9717 20.0282 57.4506 20.0282 50.6478C20.0282 42.9576 25.5493 37.4365 32.3521 37.4365C34.0282 37.4365 35.7042 37.8309 37.6761 38.6196L30.5775 40.7886L31.9577 45.1266L46.6479 41.2816L41.1268 26.2956L36.7887 28.1689L38.662 33.7886C36.493 32.8027 34.8169 32.6055 32.2535 32.6055C22.6901 32.6055 15 40.2956 15 50.7464C15 60.3097 22.6901 67.9999 32.2535 67.9999C39.9437 67.9013 46.4507 62.9717 48.7183 56.0703Z"
    fill="white"
  />
  <path
    fill-rule="evenodd"
    clip-rule="evenodd"
    d="M51.2817 45.2253L56.6057 45.2253C58.5775 41.1831 62.817 38.3239 67.6479 38.3239C74.4508 38.3239 79.9719 43.8451 79.9719 50.6479C79.9719 58.338 74.4508 63.8592 67.6479 63.8592C65.9719 63.8592 64.2958 63.4648 62.324 62.6761L69.4226 60.507L68.0423 56.169L53.3522 60.0141L58.8733 75L63.2113 73.1268L61.3381 67.507C63.5071 68.493 65.1832 68.6901 67.7465 68.6901C77.3099 68.6901 85.0001 61 85.0001 50.5493C85.0001 40.9859 77.3099 33.2958 67.7465 33.2958C60.0564 33.3944 53.5493 38.3239 51.2817 45.2253Z"
    fill="white"
  />
</svg>
