<svg width="100" height="100" viewBox="0 0 100 100" fill="none" xmlns="http://www.w3.org/2000/svg">
  <rect width="100" height="100" fill="white" />
  <path
    d="M73.6872 65.2039C76.7595 69.3262 79.9277 73.5444 83.096 77.7625C76.7595 85.2402 68.8868 90.0336 59.382 92.0468C48.8211 94.2518 38.8363 92.622 29.1395 87.2534C37.7802 80.8303 46.2289 74.503 54.7736 68.1758C56.6938 69.9972 58.5179 71.8187 60.3421 73.5444C62.3583 75.4617 61.5902 75.5576 64.1824 74.1196C67.7347 72.1063 70.711 69.3262 73.0151 65.9708C73.1112 65.7791 73.3032 65.5873 73.3992 65.3956C73.3032 65.3956 73.3992 65.3956 73.6872 65.2039ZM35.9561 73.6402C33.5559 75.4617 31.3477 77.0915 29.1395 78.8171C27.5073 80.0634 25.8752 81.2138 24.2431 82.4601C23.571 83.0353 23.091 83.0353 22.3229 82.3642C15.0263 75.8452 10.4179 67.7923 8.68978 58.2055C6.96163 48.5229 8.49776 39.3196 13.1061 30.5956C13.2022 30.4039 13.3942 30.1163 13.4902 29.9246C13.4902 29.8287 13.5862 29.8287 13.7782 29.7328C20.1147 38.0733 26.5473 46.4138 32.8838 54.7543C32.6918 55.0419 32.5958 55.2336 32.4038 55.4254C30.4836 57.4386 28.5634 59.4518 26.5473 61.3692C25.9712 61.9444 25.8752 62.4237 26.2592 63.0948C28.2754 66.9295 31.0596 70.0931 34.5159 72.6815C34.996 72.9692 35.38 73.2568 35.9561 73.6402ZM71.767 14.1064C68.6948 16.3113 65.6225 18.5163 62.5503 20.6254C57.2698 24.3642 51.9894 28.1989 46.805 31.9378C46.1329 32.4171 45.6529 32.513 45.0768 31.8419C43.3487 30.0204 41.5245 28.3907 39.7964 26.5692C39.3163 26.0898 38.8363 25.994 38.1642 26.2816C34.0359 28.3907 30.7716 31.3626 28.0834 35.1014C27.8914 35.2931 27.6994 35.5807 27.5074 35.8683C25.9712 33.8551 24.5311 32.0336 23.091 30.1163C21.5549 28.1031 20.1147 26.0898 18.6746 24.1725C18.1946 23.5014 18.0986 23.0221 18.7706 22.351C26.1632 14.2022 35.284 9.40886 46.2289 8.25845C54.8696 7.29977 63.1263 9.02539 70.807 13.1477C71.095 13.3394 71.383 13.4353 71.671 13.627C71.671 13.9146 71.671 14.0105 71.767 14.1064ZM87.4163 71.627C85.4002 69.0386 83.576 66.6419 81.7519 64.2452C77.5275 58.6849 73.3032 53.0287 68.9828 47.4683C68.4068 46.7014 68.4068 46.2221 69.0788 45.551C70.903 43.7295 72.6311 41.908 74.4553 40.0865C74.9353 39.6072 75.1273 39.1278 74.7433 38.4568C72.6311 34.4303 69.7509 31.075 66.0066 28.3907C65.7185 28.1989 65.4305 27.9113 65.0465 27.7196C65.3345 27.432 65.6225 27.2403 65.8145 27.0485C69.4629 24.2684 73.1111 21.5841 76.7595 18.8039C77.3355 18.3246 77.8155 18.1328 78.4876 18.8039C87.6084 27.0485 92.5048 37.3064 92.9848 49.6733C93.1768 56.8634 91.5447 63.67 88.2804 70.0931C87.9924 70.4766 87.7044 70.9559 87.4163 71.627Z"
    fill="#231815"
  />
</svg>
