<?xml version="1.0" encoding="UTF-8"?>
<svg viewBox="0 0 120 32" xmlns="http://www.w3.org/2000/svg">
  <path
    d="M18.7676 8.04443L12.1476 16.4169C13.5395 18.9669 15.0502 22.2394 16.4846 24.8489C16.5169 24.9101 16.5328 24.9787 16.5308 25.0479C16.5287 25.1171 16.5088 25.1845 16.4728 25.2437C16.4369 25.3028 16.3862 25.3516 16.3258 25.3852C16.2653 25.4188 16.1972 25.4361 16.1281 25.4354H12.8775C12.7315 25.4361 12.5883 25.3948 12.4649 25.3165C12.3416 25.2381 12.2433 25.126 12.1816 24.9934L9.44026 19.4004C8.79524 20.2504 8.14174 21.1599 4.97605 25.1209C4.90092 25.2116 4.8078 25.2856 4.70261 25.3382C4.59742 25.3909 4.48244 25.4211 4.36497 25.4269H1.13139C1.05632 25.4232 0.983678 25.3991 0.921181 25.3573C0.858685 25.3155 0.808671 25.2575 0.776459 25.1895C0.744246 25.1214 0.731039 25.046 0.738242 24.971C0.745445 24.8961 0.772789 24.8245 0.817365 24.7639L7.65797 16.4084L3.10888 7.97643C3.08406 7.93029 3.06876 7.87962 3.06388 7.82744C3.05899 7.77525 3.06464 7.72262 3.08047 7.67266C3.09631 7.62271 3.12201 7.57645 3.15605 7.53664C3.19009 7.49683 3.23178 7.46428 3.27863 7.44093C3.34204 7.42016 3.41041 7.42016 3.47383 7.44093H6.75834C6.90341 7.44009 7.04591 7.47931 7.17019 7.55429C7.29446 7.62927 7.39569 7.7371 7.46277 7.86593L10.272 13.4504C11.7572 11.6059 13.3019 9.51493 14.6683 7.69593C14.7407 7.60082 14.8347 7.52426 14.9424 7.47255C15.0501 7.42083 15.1685 7.39543 15.2879 7.39843H18.4536C18.5059 7.39843 18.5578 7.40876 18.6062 7.42884C18.6546 7.44892 18.6986 7.47835 18.7356 7.51544C18.7727 7.55254 18.8021 7.59658 18.8221 7.64505C18.8421 7.69352 18.8525 7.74547 18.8525 7.79793C18.8554 7.88775 18.8252 7.97551 18.7676 8.04443V8.04443Z"
  />
  <path
    d="M17.019 29.507C16.9585 29.3992 16.9364 29.2739 16.9564 29.1519C16.9765 29.0298 17.0375 28.9182 17.1294 28.8355C17.8587 28.0874 18.2929 27.1 18.3515 26.056L21.0334 6.90553C21.5851 2.97003 24.7763 0.955531 28.6718 0.700531C28.8303 0.693575 28.9851 0.749465 29.1027 0.856078C29.2202 0.962691 29.2911 1.11143 29.2999 1.27003C29.3041 1.30674 29.3041 1.34382 29.2999 1.38053L28.9434 3.93053C28.922 4.06822 28.8537 4.19424 28.75 4.2872C28.6464 4.38017 28.5138 4.43434 28.3748 4.44053C26.4991 4.56803 25.0988 5.45203 24.8781 6.89703L24.5301 9.44703H27.4497C27.5712 9.44703 27.6878 9.49539 27.7738 9.58147C27.8597 9.66755 27.908 9.7843 27.908 9.90603C27.908 9.90603 27.908 9.90603 27.908 9.96553L27.5176 12.813C27.4996 12.9219 27.4437 13.0209 27.3598 13.0924C27.2759 13.164 27.1695 13.2035 27.0593 13.204H23.953L22.1453 26.0645C21.9987 27.1298 21.6123 28.1477 21.0154 29.0415C20.4185 29.9354 19.6266 30.6816 18.6995 31.224C18.5799 31.2972 18.4363 31.3203 18.2998 31.2885C18.1633 31.2567 18.0447 31.1725 17.9696 31.054L17.019 29.507Z"
  />
  <path
    d="M38.7456 25.4355L38.4655 23.8715C34.3917 27.5945 27.6105 25.155 28.4083 19.477L29.257 13.527C29.919 8.79247 33.7807 7.21997 37.6847 7.21997C39.7799 7.26147 41.8436 7.73909 43.7445 8.62247C43.8643 8.68058 43.9625 8.77528 44.025 8.89291C44.0876 9.01054 44.1112 9.14503 44.0925 9.27697L41.9198 24.8915C41.8974 25.0424 41.8218 25.1803 41.7065 25.2802C41.5913 25.38 41.4441 25.4351 41.2917 25.4355H38.7456ZM40.0696 11.0535C38.0497 9.90597 33.4242 10.2885 33.0338 13.459L32.1851 19.4855C31.7013 22.792 36.6408 22.5115 38.6607 20.9475L40.0696 11.0535Z"
  />
  <path
    d="M52.0294 8.24014L49.6955 25.0616C49.6796 25.1639 49.6285 25.2573 49.5509 25.3256C49.4734 25.3939 49.3744 25.4329 49.2711 25.4356H46.3176C46.2028 25.4356 46.0927 25.39 46.0115 25.3087C45.9304 25.2274 45.8848 25.1171 45.8848 25.0021V24.9426L48.2612 8.02764C48.2875 7.84282 48.379 7.67353 48.519 7.55038C48.6591 7.42722 48.8386 7.35832 49.025 7.35614H51.2995C51.401 7.35725 51.5012 7.37835 51.5945 7.41826C51.6877 7.45816 51.7723 7.51607 51.8432 7.58869C51.9141 7.6613 51.9701 7.7472 52.0078 7.84148C52.0456 7.93575 52.0645 8.03656 52.0634 8.13814L52.0294 8.24014ZM48.3545 3.18264C48.3026 3.44551 48.303 3.71605 48.3555 3.9788C48.4081 4.24155 48.5118 4.49135 48.6607 4.71394C48.8097 4.93654 49.001 5.12756 49.2237 5.2761C49.4463 5.42464 49.6961 5.52778 49.9586 5.57964C50.108 5.59684 50.2589 5.59684 50.4084 5.57964C51.0869 5.578 51.742 5.33122 52.2534 4.88463C52.7648 4.43803 53.0982 3.82162 53.1922 3.14864C53.2957 2.63178 53.1929 2.09487 52.9057 1.65309C52.6185 1.21132 52.1698 0.89989 51.656 0.785635C51.4669 0.741924 51.2723 0.72759 51.0789 0.743135C50.406 0.756629 49.7598 1.00947 49.256 1.45642C48.7522 1.90337 48.4236 2.51526 48.3291 3.18264H48.3545Z"
  />
  <path
    d="M56.2047 21.0239C56.4588 21.0125 56.7127 21.0514 56.9518 21.1384C57.1909 21.2254 57.4106 21.3588 57.5982 21.5309C57.7858 21.703 57.9376 21.9105 58.0451 22.1414C58.1525 22.3724 58.2134 22.6223 58.2243 22.8769C58.2451 23.0292 58.2451 23.1836 58.2243 23.3359C58.1301 23.9686 57.8148 24.5472 57.3347 24.969C56.8546 25.3908 56.2407 25.6283 55.6021 25.6394C55.3504 25.652 55.0987 25.6142 54.8616 25.5284C54.6245 25.4426 54.4069 25.3104 54.2213 25.1396C54.0357 24.9687 53.8859 24.7626 53.7806 24.5332C53.6753 24.3038 53.6166 24.0557 53.6079 23.8034C53.5864 23.6483 53.5864 23.491 53.6079 23.3359C53.6948 22.7038 54.0041 22.1236 54.4802 21.6997C54.9562 21.2759 55.5678 21.0362 56.2047 21.0239V21.0239Z"
  />
  <path
    d="M62.5443 13.3825C63.1384 9.20904 67 7.18604 70.5137 7.18604C73.2041 7.18604 76.0897 8.35904 76.7686 11.436C76.7921 11.5617 76.7699 11.6916 76.7061 11.8022C76.6423 11.9129 76.541 11.9971 76.4207 12.0395L73.7218 13.0425C73.6589 13.0686 73.5915 13.0818 73.5234 13.0813C73.4554 13.0809 73.3881 13.0667 73.3256 13.0398C73.2631 13.0129 73.2066 12.9737 73.1595 12.9245C73.1124 12.8753 73.0756 12.8172 73.0513 12.7535V12.7535C72.1177 9.93154 67.1103 10.5435 66.3465 13.3485L65.4978 19.511C65.4978 22.333 70.3779 22.911 72.0668 20.0465C72.1283 19.9316 72.229 19.8427 72.3505 19.7959C72.472 19.7491 72.6063 19.7475 72.7288 19.7915L75.1221 20.7265C75.1878 20.751 75.248 20.7884 75.299 20.8364C75.3501 20.8845 75.3911 20.9423 75.4195 21.0064C75.448 21.0706 75.4634 21.1397 75.4648 21.2099C75.4662 21.2801 75.4536 21.3498 75.4277 21.415C75.4322 21.4288 75.4322 21.4437 75.4277 21.4575C74.6912 22.7853 73.6039 23.8842 72.2849 24.6339C70.966 25.3836 69.4664 25.7551 67.9506 25.7075C64.4369 25.7075 61.1609 23.6845 61.721 19.511L62.5443 13.3825Z"
  />
  <path
    d="M86.5973 6.97363C90.077 6.97363 93.387 9.06463 92.7929 13.2126L91.8847 19.5111C91.2906 23.7611 87.429 25.7076 83.9493 25.7501C80.4696 25.7926 77.1002 23.7271 77.6858 19.5111L78.5939 13.2126C79.1796 9.06463 83.0582 7.00763 86.5973 6.97363ZM82.4216 13.2126L81.5135 19.5111C81.3013 21.2111 82.8714 22.1971 84.4755 22.1971C86.0796 22.1971 87.8703 21.2196 88.0571 19.5111L88.9991 13.2126C89.2368 11.5126 87.6072 10.7051 86.1135 10.7051C84.6198 10.7051 82.7187 11.5041 82.4556 13.2126H82.4216Z"
  />
  <path
    d="M97.3407 9.03901C100.803 6.97351 106.753 6.23401 108.374 9.79551C111.684 5.69001 120.383 6.87151 119.475 13.3485L117.854 24.985C117.838 25.109 117.777 25.2228 117.684 25.3056C117.59 25.3884 117.47 25.4345 117.345 25.4355H114.603C114.466 25.4355 114.334 25.3809 114.237 25.2836C114.14 25.1864 114.086 25.0545 114.086 24.917V24.8405L115.69 13.4505C116.352 10.178 110.19 10.5265 109.749 13.3145L108.136 24.9425C108.12 25.0679 108.058 25.183 107.963 25.2659C107.867 25.3489 107.745 25.3941 107.619 25.393H104.92C104.782 25.393 104.651 25.3384 104.554 25.2411C104.457 25.1439 104.402 25.012 104.402 24.8745V24.798L106.023 13.238C106.371 10.688 102.755 10.212 100.455 11.538L98.6053 24.917C98.587 25.0417 98.5247 25.1557 98.4298 25.2383C98.3348 25.321 98.2134 25.3668 98.0876 25.3675H95.3802C95.2429 25.3675 95.1112 25.3129 95.0141 25.2156C94.917 25.1184 94.8625 24.9865 94.8625 24.849C94.8583 24.8237 94.8583 24.7978 94.8625 24.7725L96.9927 9.47251C97.0174 9.37999 97.0611 9.29364 97.1211 9.219C97.181 9.14436 97.2558 9.08305 97.3407 9.03901V9.03901Z"
  />
</svg>
