<svg viewBox="0 0 119 60" xmlns="http://www.w3.org/2000/svg">
  <path
    d="M53.3617 10C53.4828 10.3139 53.5949 10.6277 53.7204 10.9371C54.0612 11.7666 54.4109 12.5961 54.7562 13.4256C55.0745 14.1879 55.4019 14.9456 55.7202 15.7079C56.2852 17.062 56.8456 18.4161 57.4151 19.7702C57.9756 21.1109 58.545 22.447 59.1055 23.7877C59.6166 25.0118 60.1054 26.2493 60.6434 27.4644C61.0066 28.2939 61.4057 29.11 61.8451 29.9036C62.289 30.7062 63.0064 31.1591 63.9166 31.2981C64.096 31.325 64.2798 31.3429 64.4726 31.3653V31.9527H56.0206V31.4012C56.4735 31.3115 56.9174 31.2577 57.3433 31.1322C57.9756 30.9483 58.2894 30.3385 58.1504 29.7018C57.9666 28.8409 57.6124 28.0383 57.2716 27.2313C56.9488 26.4735 56.6349 25.7112 56.3255 24.9445C56.2762 24.8279 56.2269 24.7876 56.1058 24.7876C53.4514 24.7921 50.8015 24.7921 48.1471 24.7876C48.0126 24.7876 47.9453 24.8369 47.896 24.9535C47.4924 25.8996 47.071 26.8412 46.6853 27.7962C46.4477 28.3836 46.2325 28.9799 46.0576 29.5897C45.7841 30.5313 46.3939 31.0111 47.071 31.1591C47.5193 31.2577 47.9812 31.3115 48.4564 31.3922V31.9572H41.668V31.3743C41.9505 31.3115 42.2329 31.2443 42.5154 31.1815C43.2687 31.0201 43.7171 30.491 44.0937 29.8722C44.7304 28.823 45.1833 27.6886 45.6586 26.5632C46.0666 25.5947 46.4881 24.6306 46.9006 23.6621C47.4431 22.3843 47.9812 21.1064 48.5282 19.833C48.9542 18.8331 49.3936 17.8332 49.8195 16.8333C50.2724 15.7707 50.7163 14.708 51.1691 13.6453C51.5951 12.6499 52.0256 11.659 52.456 10.6681C52.5502 10.4484 52.6354 10.2242 52.725 10H53.3617V10ZM52.1825 15.0219C50.9315 17.9229 49.7074 20.7701 48.4789 23.6263H55.783C54.5858 20.7656 53.3976 17.9229 52.1825 15.0219ZM0.0044838 41.566C0.103127 41.2386 0.349737 41.0145 0.582894 40.7858C5.68098 35.6877 10.7835 30.5941 15.8727 25.4871C16.4017 24.9535 17.173 24.9355 17.7334 25.4691L17.8276 25.5633C22.9391 30.6703 28.0462 35.7774 33.1577 40.8844C33.4178 41.1445 33.6061 41.4449 33.624 41.8036C33.6554 42.4134 33.1936 43.0142 32.5434 43.0905C31.9874 43.1532 31.6018 42.8752 31.2521 42.4941C30.9248 42.1399 30.5706 41.8171 30.2343 41.4718C29.8442 41.0817 29.4631 40.6871 29.073 40.2971C28.656 39.8801 28.2345 39.4676 27.8175 39.0506C27.4274 38.6605 27.0463 38.2704 26.6562 37.8803L25.7146 36.9387C25.3111 36.5351 24.9075 36.1316 24.4995 35.7281C24.0825 35.3111 23.661 34.8986 23.244 34.4816C22.8539 34.0915 22.4728 33.7014 22.0827 33.3113C21.7644 32.9885 21.4415 32.6701 21.1232 32.3518L19.926 31.1546C19.509 30.7376 19.0875 30.3251 18.6706 29.9081C18.3746 29.6122 18.0832 29.3117 17.7872 29.0158C17.4913 28.7199 17.1999 28.4195 16.895 28.1325C16.8591 28.0966 16.756 28.1146 16.6932 28.1325C16.6439 28.1504 16.608 28.2132 16.5632 28.2536C11.7431 33.0781 6.91402 37.8982 2.09842 42.7318C1.56036 43.2698 0.50667 43.2339 0.089676 42.4044C0.0538056 42.3372 0.0313866 42.2654 0 42.1937C0.0044838 41.983 0.0044838 41.7767 0.0044838 41.566Z"
  />
  <path
    d="M0.00488281 26.7694C0.121462 26.451 0.350136 26.2179 0.587777 25.9847C5.69931 20.8777 10.8108 15.7706 15.9134 10.6546C16.3797 10.1883 17.1913 10.1569 17.6845 10.6501C22.8633 15.8469 28.0556 21.0301 33.2433 26.2179C33.5975 26.5721 33.7141 26.9846 33.5572 27.4599C33.4002 27.9262 33.0909 28.2132 32.5887 28.3029C32.0506 28.397 31.6785 28.1504 31.3377 27.7783C31.0283 27.442 30.692 27.1236 30.3692 26.8008C30.0598 26.4869 29.7459 26.1775 29.4321 25.8637C29.0151 25.4467 28.5891 25.0387 28.1721 24.6217C27.782 24.2316 27.4009 23.837 27.0108 23.4469C26.5938 23.0299 26.1724 22.6174 25.7554 22.2004C25.4594 21.9045 25.168 21.6041 24.8721 21.3081C24.5492 20.9808 24.2219 20.658 23.8991 20.3351C23.6031 20.0392 23.3027 19.7478 23.0068 19.4518C22.684 19.129 22.3611 18.7972 22.0383 18.4744C21.6347 18.0708 21.2312 17.6628 20.8277 17.2637C20.4107 16.8467 19.9892 16.4342 19.5722 16.0172C19.1821 15.6271 18.801 15.2326 18.4109 14.8425L17.4693 13.9009C17.263 13.6901 17.0613 13.4794 16.8012 13.2104C16.5591 13.4749 16.3394 13.7305 16.1062 13.9681C15.7161 14.3717 15.3126 14.7618 14.918 15.1563C14.5369 15.533 14.1602 15.9141 13.7791 16.2908C13.3756 16.6898 12.972 17.0889 12.573 17.4924C12.1291 17.9408 11.6897 18.3937 11.2458 18.8376C10.7929 19.2904 10.3356 19.7343 9.8827 20.1827C9.4388 20.6266 8.99939 21.0839 8.55549 21.5278C8.10263 21.9807 7.6408 22.4201 7.19242 22.873C6.74852 23.3169 6.30911 23.7742 5.86521 24.2181C5.3989 24.6665 4.93707 25.1104 4.48869 25.5588C4.04927 25.9982 3.61883 26.4466 3.17493 26.886C2.76691 27.2895 2.36336 27.6975 1.93292 28.0832C1.52041 28.4508 0.717807 28.406 0.372555 27.9621C0.233557 27.7827 0.125945 27.5854 0.00488281 27.3971V26.7694H0.00488281Z"
  />
  <path
    d="M0.0044838 34.1677C0.103127 33.8404 0.349737 33.6162 0.582894 33.3875C5.70788 28.2625 10.8373 23.1375 15.9579 18.0081C16.3883 17.5776 17.1909 17.5642 17.6258 17.9991C22.836 23.2182 28.0551 28.4329 33.2653 33.6476C33.624 34.0108 33.7092 34.4502 33.5299 34.921C33.364 35.3604 33.0411 35.6249 32.5524 35.6967C31.9964 35.7819 31.6332 35.4949 31.2835 35.1317C30.9607 34.7954 30.6244 34.4681 30.2971 34.1363C30.0011 33.8404 29.7007 33.5444 29.4048 33.2485C29.0685 32.9122 28.7367 32.5759 28.4004 32.2441C28.109 31.9527 27.8175 31.6612 27.5261 31.3743C27.1853 31.0335 26.8445 30.6972 26.5038 30.3565C26.1181 29.9664 25.7325 29.5718 25.3424 29.1817C24.9255 28.7647 24.504 28.3522 24.087 27.9352C23.6969 27.5451 23.3158 27.155 22.9257 26.7649L21.9841 25.8233C21.5805 25.4198 21.177 25.0118 20.769 24.6127C20.352 24.1957 19.9305 23.7832 19.5135 23.3662C19.1234 22.9761 18.7423 22.586 18.3522 22.1959C18.0383 21.8821 17.7245 21.5682 17.4106 21.2499C17.2178 21.0571 17.034 20.8598 16.8232 20.6401C16.6439 20.8149 16.478 20.9674 16.3166 21.1288C15.8547 21.5906 15.3884 22.048 14.9311 22.5143C14.4872 22.9627 14.0478 23.4155 13.6039 23.8594C13.151 24.3123 12.6936 24.7562 12.2408 25.2046C11.7969 25.6485 11.3575 26.1058 10.9136 26.5497C10.4607 27.0026 9.99888 27.442 9.5505 27.8949C9.1066 28.3388 8.66719 28.7961 8.22329 29.24C7.77043 29.6929 7.3086 30.1323 6.86022 30.5851C6.41632 31.029 5.98139 31.4864 5.53301 31.9303C5.08015 32.3831 4.61832 32.8226 4.16545 33.2754C3.72156 33.7193 3.28663 34.1767 2.83825 34.6206C2.53335 34.9255 2.23293 35.2393 1.89665 35.5084C1.52001 35.8133 0.820536 35.8088 0.443896 35.4276C0.264544 35.2483 0.147965 35.0062 0 34.7954C0.0044838 34.5847 0.0044838 34.3784 0.0044838 34.1677ZM46.9499 49.9955C46.6764 49.9372 46.4029 49.8745 46.1249 49.8162C45.3806 49.6637 44.7125 49.3319 44.1161 48.879C43.3763 48.3141 42.8113 47.5967 42.4033 46.7672C42.076 46.0946 41.8428 45.3817 41.7935 44.6284C41.7621 44.0859 41.7128 43.5388 41.7576 43.0008C41.8473 41.9471 42.1388 40.9427 42.7127 40.0415C42.9817 39.6245 43.2642 39.203 43.605 38.8443C44.143 38.2749 44.7977 37.8444 45.5151 37.5261C46.1025 37.266 46.7167 37.0866 47.349 37.0418C48.2054 36.9835 49.0662 36.997 49.8868 37.3153C50.1872 37.4319 50.4876 37.5485 50.7701 37.6964C51.2454 37.9431 51.6893 37.9162 51.9269 37.2839C52.03 37.0149 52.0435 37.0194 52.3753 37.0463C52.4695 38.4452 52.5636 39.8532 52.6533 41.2566C52.4201 41.3418 52.3125 41.2835 52.2453 41.0638C52.0211 40.306 51.6982 39.5931 51.1871 38.9878C50.7118 38.4228 50.102 38.0327 49.3801 37.8444C48.5327 37.6202 47.6808 37.6247 46.8512 37.8982C45.9948 38.1807 45.3088 38.7098 44.8335 39.49C44.421 40.167 44.1655 40.9024 44.0265 41.6781C43.8875 42.4582 43.8157 43.2474 43.8516 44.041C43.8919 45.005 44.0534 45.9556 44.4838 46.83C45.0801 48.0406 46.0711 48.7759 47.3803 49.0494C48.4071 49.2647 49.4339 49.2243 50.4024 48.749C50.6939 48.6055 50.9853 48.4217 51.214 48.1975C51.6713 47.7446 52.0973 47.2559 52.5098 46.7672C52.6085 46.6506 52.6667 46.6147 52.7923 46.6865C52.8371 46.7134 52.8864 46.7268 52.9672 46.7582C52.7609 47.0721 52.5681 47.3904 52.3574 47.6908C51.9583 48.2558 51.483 48.749 50.9091 49.1391C50.3396 49.5292 49.7074 49.7713 49.0349 49.9103C48.8869 49.9417 48.7434 49.9686 48.5954 50C48.0574 49.9955 47.5014 49.9955 46.9499 49.9955ZM118.377 46.4085C118.211 46.8972 118.045 47.3815 117.884 47.8702C117.7 48.4486 117.525 49.027 117.341 49.6009C117.323 49.6547 117.247 49.6906 117.193 49.722C117.171 49.7355 117.135 49.7265 117.103 49.7265H107.67C107.665 49.6413 107.661 49.5651 107.656 49.4799C107.862 49.4575 108.06 49.4216 108.257 49.4126C109.055 49.3812 109.396 48.9598 109.4 48.2558C109.427 45.2875 109.441 42.3148 109.445 39.3465C109.445 39.0102 109.409 38.6649 109.333 38.3421C109.212 37.8354 108.889 37.7099 108.436 37.6247C108.19 37.5799 107.939 37.5799 107.674 37.5619V37.3198H113.297V37.5754C112.965 37.6068 112.629 37.6202 112.297 37.6695C111.79 37.7458 111.288 38.1 111.283 38.7322C111.275 39.7545 111.248 40.7723 111.243 41.7946C111.234 43.7989 111.239 45.7987 111.243 47.8029C111.243 47.9733 111.261 48.1437 111.297 48.3096C111.364 48.6459 111.647 48.8656 112.032 48.879C112.633 48.9015 113.238 48.9329 113.839 48.9194C114.458 48.906 115.081 48.8791 115.691 48.7804C116.435 48.6593 116.973 48.1796 117.368 47.5608C117.574 47.2335 117.736 46.8748 117.911 46.5295C118.054 46.2426 118.054 46.2381 118.368 46.3278C118.377 46.3502 118.377 46.3771 118.377 46.4085Z"
  />
  <path
    d="M32.3596 49.045H1.1748C1.26 48.9508 1.3138 48.888 1.37209 48.8297L9.73887 40.463C11.7835 38.4184 13.8326 36.3782 15.8682 34.3246C16.348 33.8404 17.2582 33.8494 17.729 34.3246C22.5446 39.1672 27.3781 43.9872 32.2072 48.8163C32.27 48.8791 32.3507 48.9149 32.4224 48.9643C32.4045 48.9912 32.3821 49.0181 32.3596 49.045ZM80.2736 11.0447V10.5067H87.914V11.0582C87.5911 11.0806 87.2683 11.1254 86.9455 11.121C85.968 11.112 84.9726 11.928 84.9233 12.9952C84.8964 13.6184 84.8426 14.2372 84.8381 14.8605C84.8291 17.8332 84.847 20.8105 84.8246 23.7832C84.8201 24.532 84.717 25.2853 84.6542 26.0341C84.587 26.8726 84.4121 27.6931 84.0579 28.4509C83.8247 28.9486 83.5288 29.4373 83.1835 29.8633C82.5289 30.6659 81.7129 31.2891 80.7623 31.7196C80.1525 31.9931 79.5158 32.1634 78.8612 32.298C77.7043 32.5311 76.5386 32.4908 75.3773 32.4549C74.4805 32.428 73.5927 32.2531 72.7228 31.9841C71.566 31.6299 70.6155 30.9708 69.8353 30.0785C69.073 29.2086 68.5484 28.1953 68.378 27.0295C68.3018 26.4914 68.2346 25.9489 68.1987 25.4064C68.0059 22.4336 68.1494 19.4564 68.109 16.4791C68.0956 15.6048 68.1314 14.7304 68.1 13.8561C68.0776 13.2597 68.0328 12.6544 67.7862 12.0895C67.5799 11.6187 67.2167 11.3227 66.7235 11.2196C66.3289 11.1389 65.9209 11.1165 65.5219 11.0806C65.347 11.0627 65.1676 11.0761 64.9793 11.0761V10.5112H74.2787V11.0582C73.911 11.0806 73.5479 11.0985 73.1891 11.121C72.0906 11.1837 71.3912 11.7577 71.2925 12.8427C71.2387 13.4481 71.2028 14.0534 71.2028 14.6632C71.1939 17.7704 71.1894 20.8822 71.2073 23.9895C71.2118 24.7024 71.3194 25.4153 71.3777 26.1283C71.4315 26.7874 71.5705 27.4286 71.7768 28.0563C72.1355 29.1414 72.8574 29.9081 73.8438 30.4462C74.6688 30.89 75.5566 31.0694 76.4892 31.0829C77.525 31.1008 78.5294 30.9932 79.5068 30.63C80.278 30.343 80.973 29.944 81.6008 29.4059C82.4482 28.6795 82.9145 27.7514 83.0804 26.6663C83.1835 25.9848 83.2508 25.2943 83.3046 24.6038C83.345 24.124 83.3494 23.6397 83.3539 23.1555C83.3584 19.9585 83.3629 16.7571 83.3494 13.5602C83.3494 13.1476 83.2643 12.7262 83.1746 12.3226C83.0132 11.6097 82.4617 11.3003 81.816 11.1748C81.3183 11.0806 80.8027 11.0851 80.2736 11.0447ZM89.5192 16.0531C89.5775 15.7527 89.6268 15.4792 89.6806 15.2102C89.8241 14.4883 90.0527 13.7978 90.398 13.1476C90.9316 12.1433 91.6669 11.3272 92.6623 10.7667C93.3259 10.3946 94.0343 10.1614 94.7966 10.0852C95.9803 9.96414 97.1416 10.0359 98.2491 10.4977C98.8141 10.7354 99.3207 11.0672 99.7915 11.4662C100.442 12.0132 100.953 12.6589 101.321 13.4167C101.603 13.9996 101.746 14.6228 101.8 15.273C101.903 16.5688 101.59 17.7704 101.074 18.9407C100.536 20.1558 99.8185 21.2588 99.0114 22.3036C98.4912 22.9806 97.9263 23.6263 97.3658 24.2675C96.8816 24.819 96.3794 25.3526 95.8817 25.8906C95.2495 26.5721 94.6172 27.2492 93.9805 27.9263C93.4783 28.4598 92.9672 28.9844 92.4381 29.5359C92.5099 29.5404 92.5681 29.5494 92.6264 29.5494C94.3303 29.5494 96.0341 29.5539 97.738 29.5494C98.3119 29.5494 98.8858 29.5404 99.4553 29.5001C100.141 29.4507 100.827 29.3745 101.428 28.971C101.841 28.6975 102.172 28.3567 102.428 27.9352C102.468 27.868 102.572 27.8142 102.652 27.8052C102.8 27.7828 102.948 27.8007 103.141 27.8007C102.634 29.1997 102.137 30.5807 101.639 31.9617H88.9497C88.869 31.5716 88.9183 31.2577 89.295 31.0246C89.5326 30.8811 89.7165 30.6524 89.9182 30.4596C90.3397 30.0605 90.7522 29.6525 91.1737 29.249C91.5055 28.9306 91.8507 28.6212 92.1736 28.2894C93.0614 27.3703 93.9626 26.4601 94.8145 25.505C95.6978 24.5186 96.5273 23.4918 97.2447 22.3753C97.9891 21.2095 98.6078 19.9899 98.9082 18.6313C99.1414 17.5732 99.1773 16.497 98.823 15.4658C98.3029 13.9637 97.2717 12.9279 95.7023 12.5782C94.7831 12.3719 93.846 12.4796 92.9538 12.8652C91.9225 13.3135 91.1647 14.0489 90.6222 15.0129C90.4652 15.2909 90.3487 15.5958 90.2321 15.8962C90.1872 16.0128 90.1379 16.0621 90.0124 16.0531C89.8554 16.0442 89.7075 16.0531 89.5192 16.0531ZM108.454 13.1118C108.365 12.9324 108.284 12.771 108.194 12.5961C108.687 12.354 109.176 12.1119 109.665 11.8698C110.562 11.4259 111.454 10.9865 112.351 10.547C112.665 10.3901 112.978 10.2197 113.306 10.1031C113.507 10.0314 113.736 10.0538 113.978 10.0269V10.3542C113.978 16.4208 113.974 22.4874 113.983 28.554C113.983 29.1145 114.055 29.6705 114.113 30.2309C114.171 30.8183 114.566 31.1053 115.095 31.2039C115.548 31.2891 116.014 31.316 116.476 31.3384C116.66 31.3474 116.736 31.3922 116.718 31.5806C116.704 31.6971 116.713 31.8182 116.713 31.9527H108.611V31.3429C108.84 31.3429 109.064 31.3608 109.284 31.3384C109.741 31.2936 110.216 31.2981 110.629 31.0649C110.974 30.8676 111.225 30.5852 111.243 30.1592C111.27 29.5449 111.328 28.9306 111.328 28.3163C111.337 23.9446 111.337 19.5774 111.324 15.2057C111.324 14.6363 111.234 14.0623 111.145 13.4974C111.064 12.9638 110.624 12.6365 110.086 12.641C109.616 12.6499 109.199 12.8069 108.777 12.9817C108.678 13.0221 108.571 13.0625 108.454 13.1118ZM67.405 37.5575V37.3064H67.6337C69.3824 37.3064 71.1311 37.2795 72.8798 37.3153C73.8617 37.3378 74.8302 37.5306 75.6239 38.1717C76.2606 38.6874 76.7448 39.3151 76.8659 40.167C76.9914 41.0772 76.8928 41.9471 76.3682 42.7228C75.8974 43.4178 75.2472 43.8751 74.4222 44.0724C73.6913 44.2518 72.956 44.2473 72.2206 44.1621C71.8171 44.1173 71.4136 44.05 70.9876 43.9917V44.2428C70.9876 45.3952 70.9831 46.543 70.9921 47.6953C70.9966 48.0092 71.019 48.332 71.0863 48.6369C71.1939 49.1346 71.5391 49.3499 72.0368 49.4037C72.2789 49.4306 72.5211 49.444 72.7722 49.4664V49.7041H67.414V49.4709C67.6427 49.4485 67.8714 49.4082 68.1 49.4126C68.5529 49.4126 69.1492 49.0629 69.1492 48.3903C69.1627 45.2606 69.1806 42.1354 69.1896 39.0057C69.1896 38.7681 69.1358 38.526 69.082 38.2883C68.9833 37.8399 68.5395 37.6606 68.1583 37.6158C67.9117 37.5933 67.6651 37.5799 67.405 37.5575ZM70.9921 43.4312C71.557 43.4671 72.1086 43.5299 72.6601 43.5254C72.9246 43.5254 73.2161 43.4447 73.4537 43.3192C74.3639 42.8349 74.754 42.0189 74.7899 41.0234C74.8078 40.5302 74.7181 40.0415 74.5208 39.5886C74.1532 38.7277 73.4941 38.2256 72.5704 38.1224C72.0458 38.0641 71.5122 38.1045 70.9921 38.2749V43.4312ZM57.6573 49.4351V49.7175H53.7295V49.4351C54.1644 49.3588 54.6217 49.2871 54.8863 48.8925C55.1374 48.5159 55.3616 48.1168 55.5499 47.7088C55.8637 47.0317 56.1417 46.3412 56.4287 45.6552C56.7964 44.7898 57.1596 43.92 57.5317 43.0546C57.8187 42.382 58.1101 41.7139 58.3971 41.0414C58.7692 40.176 59.1324 39.3061 59.5001 38.4408C59.6839 38.0058 59.8678 37.5664 60.0695 37.136C60.0965 37.0822 60.2265 37.0463 60.3027 37.0508C60.3789 37.0553 60.491 37.1046 60.5179 37.1674C60.7107 37.5933 60.8856 38.0283 61.065 38.4587C61.3878 39.2344 61.7151 40.0056 62.0379 40.7813C62.4011 41.6512 62.7598 42.521 63.1275 43.3864C63.4638 44.189 63.8001 44.9871 64.1408 45.7897C64.4457 46.5161 64.7417 47.247 65.06 47.9689C65.329 48.5742 65.6519 49.1436 66.3558 49.3499C66.459 49.3813 66.5711 49.4216 66.6742 49.4126C66.8984 49.3947 66.9836 49.4799 66.9208 49.7131H61.9886C61.9258 49.444 61.9483 49.444 62.2083 49.4082C62.4594 49.3723 62.7195 49.323 62.9392 49.2064C63.2396 49.045 63.3338 48.6997 63.1948 48.3096C62.9392 47.5967 62.6567 46.8927 62.3832 46.1843C62.3742 46.1619 62.3608 46.1439 62.3608 46.1215C62.2845 45.6373 61.9752 45.579 61.5358 45.5924C60.2085 45.6238 58.8769 45.6059 57.5452 45.6014C57.442 45.6014 57.3479 45.5969 57.2941 45.7225C56.9668 46.543 56.6215 47.3546 56.3121 48.1841C56.2359 48.3903 56.2135 48.6549 56.2718 48.8611C56.3704 49.2333 56.7291 49.3005 57.0564 49.3678C57.2582 49.4037 57.4465 49.4082 57.6573 49.4351ZM61.8765 44.9154C61.186 43.2743 60.5 41.6467 59.8005 39.9787C59.0786 41.6467 58.3747 43.2743 57.6662 44.9154H61.8765ZM107.109 49.7175H102.177C102.123 49.4261 102.137 49.444 102.406 49.4037C102.666 49.3633 102.939 49.2961 103.163 49.166C103.5 48.9732 103.491 48.6145 103.379 48.3007C103.132 47.5922 102.849 46.8972 102.58 46.1933C102.531 46.0722 102.45 45.9556 102.424 45.8301C102.388 45.6328 102.285 45.5924 102.096 45.5924C100.639 45.6014 99.1817 45.5969 97.7245 45.5969C97.6169 45.5969 97.5272 45.5969 97.4779 45.7225C97.1506 46.543 96.8008 47.3546 96.4915 48.1796C96.4152 48.3858 96.3973 48.6504 96.4556 48.8611C96.5587 49.2288 96.9174 49.3005 97.2447 49.3633C97.4331 49.3992 97.6214 49.4082 97.8232 49.4306V49.7041H93.9043V49.4216C94.3392 49.3499 94.7921 49.2736 95.0566 48.8746C95.3077 48.4979 95.5275 48.0989 95.7203 47.6864C96.0341 47.0093 96.3121 46.3188 96.6036 45.6328C96.9712 44.7674 97.3344 43.8976 97.7021 43.0322C98.0294 42.261 98.3702 41.4898 98.6975 40.7185C99.0697 39.8442 99.4373 38.9699 99.8095 38.0955C99.9485 37.7727 100.079 37.4499 100.231 37.1315C100.258 37.0777 100.365 37.0463 100.437 37.0329C100.545 37.0149 100.648 37.0104 100.702 37.1539C100.872 37.5799 101.056 38.0014 101.235 38.4273C101.563 39.2075 101.89 39.9877 102.213 40.7724C102.576 41.6422 102.935 42.5121 103.298 43.3819C103.634 44.1845 103.975 44.9826 104.311 45.7852C104.616 46.5116 104.903 47.247 105.23 47.9644C105.499 48.5562 105.809 49.1346 106.508 49.3274C106.62 49.3588 106.737 49.4082 106.849 49.3992C107.1 49.3902 107.163 49.4889 107.109 49.7175ZM99.9754 39.9787C99.2535 41.6467 98.5495 43.2788 97.8366 44.9244H102.051C101.361 43.2788 100.675 41.6467 99.9754 39.9787ZM84.7349 40.2119H84.3493C84.3987 39.2523 84.4435 38.2928 84.4928 37.3198H94.6755C94.7204 38.2749 94.7652 39.2344 94.81 40.2208C94.6979 40.2208 94.6127 40.2388 94.541 40.2164C94.4827 40.1939 94.402 40.1267 94.3975 40.0729C94.3572 39.5707 94.2047 39.1089 93.8864 38.7233C93.6443 38.4273 93.3125 38.2076 92.9358 38.1717C92.1198 38.0955 91.2947 38.0776 90.4473 38.0327V38.3242C90.4473 41.5211 90.4428 44.7181 90.4518 47.9151C90.4518 48.1841 90.5011 48.4576 90.5549 48.7221C90.6446 49.175 91.0885 49.3633 91.4427 49.4082C91.6848 49.4395 91.927 49.4485 92.1825 49.4664V49.7131H86.9141V49.4799C87.1024 49.4575 87.2907 49.4171 87.4835 49.4126C88.313 49.3947 88.6045 48.888 88.6089 48.2603C88.6269 44.9019 88.6403 41.5436 88.6538 38.1852C88.6538 38.1583 88.6493 38.1269 88.6448 38.0955H87.1562C86.9499 38.0955 86.7392 38.1 86.533 38.109C86.0756 38.1269 85.6676 38.2659 85.3537 38.6112C85.0488 38.943 84.8784 39.342 84.8022 39.7859C84.7708 39.9204 84.7574 40.0549 84.7349 40.2119ZM78.0317 37.562V37.3198H83.345L83.3584 37.5485C83.0401 37.5889 82.7352 37.6113 82.4348 37.6696C81.9684 37.7637 81.668 38.1179 81.6591 38.5977C81.6366 39.5034 81.6187 40.4136 81.6142 41.3239C81.6097 43.5927 81.6097 45.866 81.6142 48.1348C81.6142 48.3186 81.6277 48.5069 81.6725 48.6818C81.7801 49.0808 82.0985 49.2692 82.4661 49.3633C82.7486 49.4351 83.0446 49.4485 83.3494 49.4889V49.7131H78.0361C78.0317 49.6413 78.0317 49.5651 78.0272 49.4799C78.3321 49.453 78.6325 49.462 78.915 49.3947C79.5337 49.2423 79.7714 48.906 79.7714 48.2199C79.7893 45.3862 79.8072 42.5479 79.8117 39.7142C79.8117 39.3106 79.7579 38.9071 79.7265 38.4991C79.6817 37.9341 79.2692 37.7234 78.7266 37.6292C78.5069 37.5844 78.2738 37.5799 78.0317 37.562Z"
  />
</svg>
