<svg viewBox="0 0 198 60" xmlns="http://www.w3.org/2000/svg">
  <path
    d="M32.001 10C32.4721 10.3902 32.8944 10.8618 33.398 11.1707C36.2082 12.9106 39.0347 14.6179 41.8612 16.3089C42.1698 16.4878 42.5922 16.4715 42.8846 16.6504C43.177 16.8293 43.4694 17.1057 43.6318 17.4146C43.8105 17.7236 43.7617 18.1463 43.9242 18.439C45.3699 21.0081 46.8319 23.5772 48.3101 26.1138C48.4726 26.3902 48.7649 26.6016 49.0249 26.7805C49.4472 27.0569 49.5934 27.3821 49.3985 27.8862C49.2848 28.1951 49.2035 28.5528 49.236 28.878C49.366 30 49.5284 31.1382 49.7558 32.2439C49.8371 32.6667 50.0807 33.0569 50.2919 33.4309C50.5356 33.8537 50.4381 34.1463 50.1619 34.5203C49.1711 35.8211 48.2289 37.1545 47.2867 38.5041C47.2055 38.6341 47.368 38.8943 47.3192 39.0894C47.2542 39.3821 47.1893 39.7398 46.9943 39.9024C46.8319 40.0325 46.4095 40.0163 46.1821 39.9024C45.045 39.2683 44.2003 39.4309 43.5506 40.5203C43.1282 41.2358 42.7546 41.9837 42.3323 42.6992C42.0886 43.1382 41.715 43.2846 41.2439 43.0244C39.9606 42.3252 38.6286 42.3902 37.3128 42.8618C36.6793 43.0894 36.2245 44.4715 36.5006 45.1057C36.7768 45.7236 37.0367 46.3577 37.3778 46.9268C37.524 47.187 37.9139 47.2846 38.1088 47.5285C38.3362 47.8049 38.4662 48.1626 38.6448 48.4715C38.32 48.6341 37.9626 48.9756 37.6864 48.9268C36.6143 48.748 35.6559 48.7642 34.8762 49.6585C34.7625 49.7886 34.5838 49.8699 34.4214 49.9837H34.2589C33.9665 49.5772 33.7391 49.0732 33.3492 48.7642C32.5208 48.065 31.5949 47.4472 30.7339 46.7967C30.5715 46.6667 30.4415 46.4878 30.3278 46.3252C30.1004 46 29.9217 45.626 29.6618 45.3496C28.7359 44.3577 27.7288 43.4472 26.8516 42.4228C25.6495 41.0081 24.1875 40.0163 22.4007 39.626C21.8321 39.5122 21.1012 39.6748 20.5651 39.935C19.9966 40.2114 19.3955 40.6667 19.1194 41.2033C18.4858 42.4228 17.8198 42.3902 16.7315 41.7886C15.9355 41.3496 14.9284 41.2358 14.0187 41.0081C13.3689 40.8455 12.7354 40.4228 12.0044 40.8618C11.8907 40.9268 11.5983 40.7805 11.4196 40.6992C10.9323 40.4715 10.4937 40.1138 9.97391 39.9837C8.39823 39.5772 6.82254 39.2358 5.23062 38.9106C4.93822 38.8455 4.61334 38.8943 4.32094 38.9594C3.70367 39.122 3.28132 38.8455 3.21634 38.2602C3.16761 37.7398 3.11888 37.2195 2.92395 36.7317C2.30667 35.0732 1.64066 33.4146 0.925917 31.7886C0.730987 31.3659 0.308639 31.0244 0 30.6504V30C0.178686 29.6748 0.422348 29.3659 0.519813 29.0244C1.02338 27.3333 1.49446 25.6423 1.93305 23.9512C2.04676 23.5122 1.93305 23.0081 2.01428 22.5528C2.07925 22.2602 2.27418 21.935 2.5016 21.7236C2.82648 21.4309 3.29756 21.2846 3.58996 20.9756C4.82451 19.626 6.02658 18.2276 7.24489 16.878C7.39109 16.7154 7.651 16.6341 7.86217 16.5528C8.18705 16.439 8.54443 16.4065 8.85306 16.2602C10.4775 15.5285 12.1019 14.7967 13.7101 14.0325C16.033 12.9106 18.3559 11.7561 20.6788 10.6179C20.8737 10.5203 21.1336 10.5528 21.3611 10.5691C21.5885 10.5854 21.8321 10.7317 22.0596 10.7154C24.8698 10.6179 27.68 10.5203 30.4903 10.3902C30.7664 10.374 31.0426 10.1301 31.3025 10H32.001V10ZM16.1792 19.5447C14.3273 21.4634 12.4918 23.3008 10.7536 25.2195C10.51 25.4959 10.5749 26.3577 10.8349 26.7154C11.9719 28.3252 13.2227 29.8537 14.4248 31.4309C14.7822 31.9024 15.0096 31.8537 15.3182 31.3821C16.3904 29.6585 17.5112 27.9675 18.5183 26.1951C18.7782 25.7236 18.8595 24.9431 18.6645 24.4715C17.9173 22.8293 17.0401 21.252 16.1792 19.5447ZM25.9419 33.4309C26.8678 32.0325 27.7125 30.7805 28.4922 29.4959C28.6222 29.2846 28.5572 28.8455 28.411 28.6179C27.2902 26.8943 26.1206 25.2033 24.9673 23.5122C24.6749 23.0894 24.3013 22.9268 23.7977 23.2033C22.7418 23.8049 21.6859 24.3902 20.6138 24.9756C20.0453 25.2846 20.0128 25.6423 20.4027 26.1463C21.1824 27.1382 21.9459 28.1626 22.7093 29.187C23.749 30.5528 24.7886 31.935 25.9419 33.4309ZM37.7677 28.3089C36.2407 24.9106 34.7462 21.626 33.268 18.3252C33.1868 18.3902 33.1381 18.4228 33.1218 18.4553C32.0497 21.6585 30.9776 24.8618 29.938 28.065C29.7755 28.5854 30.0517 28.8293 30.5715 28.813L32.667 28.6667C34.3239 28.5528 35.9808 28.439 37.7677 28.3089ZM17.3812 41.0407C17.4462 41.0081 17.495 40.9594 17.5599 40.9268C16.6827 38.439 16.0655 35.8374 14.8796 33.5285C13.7101 31.2358 11.9557 29.2358 10.4612 27.1057C10.38 27.1545 10.315 27.2033 10.2338 27.252C10.6724 30.2764 11.111 33.2846 11.5821 36.3089C11.6308 36.5854 11.8745 36.878 12.1019 37.0569C13.2877 38 14.506 38.8943 15.7081 39.8211C16.2766 40.2114 16.8289 40.6341 17.3812 41.0407ZM25.3896 33.6748C23.3428 30.9756 21.4423 28.4878 19.5092 25.935C19.2818 26.2276 19.1519 26.3577 19.0544 26.5203C17.9985 28.1951 16.9589 29.8537 15.9193 31.5285C15.5132 32.1789 15.5781 32.3252 16.3579 32.439C17.8036 32.6341 19.2493 32.8455 20.6951 33.0407C22.157 33.2358 23.6515 33.4309 25.3896 33.6748ZM32.5533 18.2439L32.3908 18.0813C30.1816 19.4146 27.9562 20.7317 25.7632 22.0976C25.3571 22.3577 25.1947 22.8455 25.5521 23.3496C26.6242 24.9106 27.68 26.4715 28.7522 28.0325C28.8496 28.1789 28.9958 28.2764 29.1907 28.4553C30.3278 24.9919 31.4324 21.6098 32.5533 18.2439ZM29.5806 29.7561C29.5806 30.1301 29.5644 30.3415 29.5806 30.5366C29.8892 33.3008 30.2141 36.065 30.4903 38.8293C30.5553 39.5285 30.7989 39.5935 31.3512 39.252C32.7969 38.3577 34.2589 37.4959 35.7047 36.6016C36.3544 36.1951 36.3544 35.9837 35.7696 35.4472C34.5676 34.3252 33.3492 33.2033 32.1309 32.0976C31.335 31.3496 30.5065 30.6016 29.5806 29.7561ZM20.5164 11.7724C20.4676 11.7236 20.4189 11.6585 20.3539 11.6098C16.4553 13.4146 12.5567 15.2195 8.64189 17.0244C10.8836 17.561 13.0765 18.0163 15.302 18.2927C15.8056 18.3577 16.569 17.9187 16.8777 17.4797C18.0797 15.8211 19.1356 14.0488 20.2565 12.3252C20.3539 12.1463 20.4189 11.9512 20.5164 11.7724ZM8.28452 17.7073C8.82058 20.3089 9.3079 22.6992 9.82771 25.2683C11.8907 23.1382 13.7913 21.1707 15.838 19.0407C13.2065 18.5691 10.8349 18.1463 8.28452 17.7073ZM22.1083 11.3171C22.0921 11.3659 22.092 11.4146 22.0758 11.4797C25.5683 13.1707 29.0608 14.878 32.732 16.6667C32.3421 14.9106 32.066 13.3659 31.6111 11.8699C31.4974 11.4959 30.8314 11.0244 30.4253 11.0407C27.6638 11.0569 24.886 11.2033 22.1083 11.3171ZM31.4162 16.8618C31.4324 16.7967 31.4487 16.7317 31.4487 16.6667C28.2161 15.0894 24.9835 13.5122 21.5722 11.8699C22.287 13.935 22.9367 15.8049 23.5865 17.7236C26.2668 17.4309 28.8334 17.1545 31.4162 16.8618ZM30.1004 29.4146C32.3584 31.4959 34.4701 33.4309 36.6631 35.4634C37.0204 33.187 37.3453 31.0894 37.6864 28.9268C35.1686 29.0894 32.7482 29.2358 30.1004 29.4146ZM1.03963 29.7724C3.71991 28.3577 6.254 27.0244 8.93428 25.6098C7.14743 24.7317 5.5555 23.935 3.94733 23.1382C3.28132 22.813 2.82648 23.0081 2.63155 23.7236C2.14423 25.4309 1.67315 27.1545 1.20207 28.8618C1.12085 29.0894 1.1046 29.3171 1.03963 29.7724ZM38.2712 28.0163C38.4662 27.7724 38.5636 27.7073 38.5961 27.6098C39.1971 26.0488 39.8144 24.4878 40.3667 22.9106C40.4317 22.7317 40.253 22.3577 40.0743 22.2276C39.1809 21.5772 38.2387 20.9756 37.3128 20.374C36.2082 19.6423 35.0874 18.8943 33.9828 18.1626C33.934 18.1951 33.9015 18.2439 33.8528 18.2764C35.3148 21.4797 36.7605 24.6829 38.2712 28.0163ZM32.3096 11.2195C32.2446 11.2683 32.1959 11.3008 32.1309 11.3496C32.4396 12.7317 32.7482 14.1138 33.0731 15.4959C33.3492 16.6992 33.6904 16.9593 34.9412 16.9593H41.3414V16.6829C38.3362 14.8618 35.331 13.0407 32.3096 11.2195ZM25.1947 34.2439C21.9783 33.7886 18.9407 33.3659 15.6919 32.9106C17.3812 34.748 18.9082 36.4553 20.5164 38.0813C20.6951 38.2602 21.4585 38.1626 21.7022 37.935C22.8718 36.7967 23.9601 35.561 25.1947 34.2439ZM6.62761 33.6423C6.41644 34 6.254 34.2276 6.12405 34.4878C5.66921 35.3821 5.21437 36.2764 4.75954 37.1545C4.41841 37.8374 4.53212 38.0976 5.31184 38.2927C7.13118 38.7154 8.93428 39.1382 10.7536 39.5447C10.9486 39.5935 11.1597 39.5447 11.4034 39.5447C11.3384 38.1138 11.2572 36.813 9.79522 35.9837C8.69062 35.3659 7.73222 34.4715 6.62761 33.6423ZM37.0692 41.122C36.9392 39.7073 36.8093 38.6179 36.728 37.5447C36.6793 36.9431 36.4519 36.8455 35.9483 37.1545C34.5026 38.0488 33.0406 38.9268 31.5786 39.8049C31.0588 40.1138 31.0101 40.374 31.5299 40.748C32.6345 41.5772 33.7066 42.4553 34.795 43.2846C35.3798 43.7398 36.0945 43.6585 36.4031 43.0244C36.7443 42.3252 36.923 41.561 37.0692 41.122ZM47.6116 27.4472L47.6603 27.252C45.4674 25.8049 43.2744 24.3415 41.0327 22.8455C40.3667 24.6016 39.7332 26.2439 39.0834 28C42.0399 27.8049 44.8176 27.626 47.6116 27.4472ZM38.2225 29.252C37.8814 31.4959 37.5565 33.561 37.1991 35.8049C39.1484 35.4959 40.9678 35.2195 42.9171 34.9106C41.5201 33.0732 40.2368 31.3496 38.921 29.626C38.791 29.4797 38.5311 29.4146 38.2225 29.252ZM9.19419 25.0894C8.69062 22.6341 8.23579 20.374 7.73222 17.9024C6.18902 19.3821 4.79203 20.7154 3.29756 22.1626C5.31184 23.1545 7.13118 24.065 9.19419 25.0894ZM34.2427 17.626C36.5169 19.1382 38.5961 20.5203 40.7403 21.9675C41.2277 20.7154 41.6663 19.5285 42.1211 18.3577C42.381 17.7073 42.1861 17.4797 41.4876 17.4797C39.4083 17.5122 37.3291 17.4959 35.2498 17.5122C35.0061 17.5122 34.7462 17.561 34.2427 17.626ZM41.2602 22.2927C43.4856 23.7724 45.6298 25.2033 47.7578 26.6179C47.7903 26.5854 47.8228 26.5366 47.8553 26.5041C46.2634 23.7073 44.6714 20.9106 42.9333 17.8862C42.316 19.4959 41.7962 20.8618 41.2602 22.2927ZM48.1152 28C45.1263 28.1951 42.2998 28.374 39.457 28.5528C39.4408 28.6016 39.4408 28.6667 39.4246 28.7154C41.7312 29.8699 44.0379 31.0244 46.4258 32.2276C46.9781 30.8455 47.5142 29.5122 48.1152 28ZM9.06424 26.374C9.0155 26.3415 8.98302 26.2927 8.93428 26.2602C6.48142 27.561 4.04479 28.8455 1.46197 30.2114C2.97268 30.9594 4.33719 31.6098 5.66921 32.3089C6.1078 32.5366 6.33522 32.3252 6.49766 31.9675C7.3586 30.0976 8.2033 28.2439 9.06424 26.374ZM10.981 36.1951C10.4937 32.9431 10.0551 29.9512 9.60029 26.9431C8.67438 28.6179 7.86217 30.2602 7.19616 31.9675C7.03372 32.3902 7.2124 33.2195 7.53729 33.5285C8.52818 34.4553 9.68152 35.2195 10.981 36.1951ZM21.0524 12.1301C19.6554 14.3089 18.3559 16.3252 16.9751 18.4553C19.0869 18.2114 20.9874 18 22.9855 17.7724C22.3357 15.8862 21.7347 14.0976 21.0524 12.1301ZM25.016 21.8537C27.4851 20.3577 29.8405 18.9431 32.1797 17.5122C32.1472 17.4634 32.1309 17.4146 32.0984 17.3659C29.3532 17.6748 26.6079 17.9837 23.7814 18.2927C24.2038 19.5122 24.5774 20.6016 25.016 21.8537ZM17.0076 19.5122C16.9751 19.561 16.9264 19.6098 16.8939 19.6585C17.4625 20.7805 18.0473 21.9024 18.6158 23.0407C19.5742 24.9756 19.4118 25.0244 21.4098 23.8699C22.2058 23.4146 23.0017 22.9756 23.9276 22.4553C21.491 21.4309 19.2493 20.4715 17.0076 19.5122ZM29.7268 38.8618C29.7918 38.8455 29.8405 38.8293 29.9055 38.8293C29.5968 35.9512 29.272 33.0732 28.9633 30.1951C28.1674 31.0894 27.5826 32.0488 26.9328 32.9594C26.478 33.5935 26.6404 34.3089 26.9491 34.7967C27.7937 36.2114 28.8009 37.5122 29.7268 38.8618ZM3.93109 37.5447C4.61334 36.1951 5.26311 35.0081 5.81541 33.7886C5.91287 33.5772 5.73419 33.0244 5.53926 32.9268C4.17475 32.1789 2.77775 31.5122 1.38075 30.8293C1.33202 30.8781 1.28329 30.9106 1.23456 30.9594C2.11174 33.0894 2.98892 35.252 3.93109 37.5447ZM39.8956 29.626C39.8469 29.6748 39.8144 29.7236 39.7657 29.7724C40.9678 31.3659 42.1698 32.9756 43.4044 34.5528C43.6805 34.9106 45.4674 34.6341 45.6623 34.2114C45.8735 33.7561 46.0197 33.2846 46.2146 32.7642C44.0541 31.7073 41.9749 30.6667 39.8956 29.626ZM24.1388 21.9187C24.2038 21.8537 24.285 21.8049 24.35 21.7398C23.9926 20.7154 23.6515 19.6748 23.2616 18.6504C23.2129 18.5366 22.9692 18.3902 22.8393 18.4065C21.0849 18.5691 19.3468 18.7642 17.5924 18.9431C17.5924 18.9919 17.5762 19.0569 17.5762 19.1057C19.7691 20.065 21.9621 20.9919 24.1388 21.9187ZM15.903 34C15.8543 34.0163 15.8218 34.0488 15.7731 34.065C16.5203 36.2114 17.2513 38.3415 18.031 40.4715C18.096 40.6341 18.5508 40.8293 18.632 40.7642C19.2818 40.2602 19.8828 39.6911 20.5489 39.0894C18.9732 37.3496 17.43 35.6748 15.903 34ZM26.0069 40.3415C25.9582 40.4715 25.9094 40.5854 25.8607 40.7154C27.4526 42.1626 29.0283 43.5935 30.539 44.9594C30.474 43.8699 30.4415 42.5528 30.2629 41.2683C30.2141 40.9268 29.6618 40.4228 29.3045 40.3902C28.1999 40.2602 27.0952 40.3415 26.0069 40.3415ZM26.1206 34.6829C25.8607 36.2764 25.5845 37.626 25.4546 38.9919C25.4221 39.2683 25.9582 39.8374 26.2506 39.8537C27.3389 39.9024 28.4273 39.7886 29.6131 39.7236C28.4598 38.0488 27.3714 36.4715 26.1206 34.6829ZM38.4662 36.2114C38.4499 36.2602 38.4337 36.3252 38.4174 36.374C39.9769 37.0732 41.5363 37.7886 43.0957 38.4878C43.177 38.5203 43.2907 38.4878 43.3881 38.4715C43.9242 38.3415 44.5415 37.5447 44.4765 37.0569C44.4115 36.5528 43.2582 35.4472 42.8358 35.5122C41.3739 35.7398 39.9281 35.9837 38.4662 36.2114ZM38.1575 36.9106C38.1088 36.9431 38.0763 36.9919 38.0276 37.0244C39.1159 38.4715 40.2043 39.9187 41.3089 41.3496C41.6825 41.8374 42.1048 41.8699 42.4297 41.2358C42.6247 40.8781 42.8358 40.5366 43.0795 40.2114C43.5018 39.626 43.2257 39.2358 42.7221 38.9919C41.2114 38.2602 39.6845 37.5935 38.1575 36.9106ZM35.0711 44.2439C33.6092 43.0894 32.2934 42.0813 30.8476 40.9431C30.9451 42.439 31.0101 43.7561 31.1563 45.0569C31.1725 45.2358 31.7086 45.5447 31.8873 45.4797C32.9107 45.1382 33.8853 44.7155 35.0711 44.2439ZM40.8703 42.1138C40.9028 42.0325 40.9515 41.9512 40.984 41.8699C39.8144 40.3252 38.6448 38.7805 37.4753 37.252C37.4103 38.5366 37.524 39.7398 37.6539 40.9431C37.6702 41.122 37.8489 41.3008 37.9788 41.4472C38.8073 42.4065 39.9119 41.8374 40.8703 42.1138ZM49.236 34.5041C48.1152 34.6829 47.1893 34.813 46.2796 34.9919C46.1496 35.0081 45.9872 35.1382 45.906 35.252C45.045 36.4878 45.2725 37.5935 46.572 38.5366C47.4329 37.2358 48.2776 35.935 49.236 34.5041ZM25.5033 34.7805C24.285 36.0976 23.2129 37.2358 22.157 38.374C22.0758 38.4715 22.0108 38.5854 21.8646 38.7968C22.6119 39.0569 23.2941 39.252 23.9601 39.5285C24.5287 39.7561 24.7561 39.5122 24.8373 38.9919C25.0485 37.6423 25.2597 36.3089 25.5033 34.7805ZM46.9618 32.5203C47.6116 32.8455 48.1477 33.1545 48.7162 33.3821C48.8462 33.4309 49.2848 33.1545 49.2685 33.0732C49.0898 31.626 48.8462 30.1951 48.635 28.748H48.4563C47.969 29.9837 47.4654 31.2195 46.9618 32.5203ZM11.9395 37.6585C11.8582 37.7073 11.7933 37.7561 11.712 37.7886C11.9232 38.3577 12.0044 39.0081 12.3618 39.4634C12.9466 40.1951 14.9609 40.8455 16.0817 40.7967C14.6685 39.7236 13.304 38.6992 11.9395 37.6585ZM31.8061 46.1626C34.5026 46.7805 35.1036 46.5203 35.0711 44.8618C34.0315 45.2846 33.0081 45.6911 31.8061 46.1626ZM35.8671 45.0894C34.8275 46.9756 35.6722 47.2195 36.9392 47.3659C36.5818 46.6016 36.2407 45.9024 35.8671 45.0894ZM32.2122 46.9756C32.8619 47.5285 33.4305 48.0163 34.0315 48.5203C34.6813 47.2683 33.6741 46.9919 32.2122 46.9756ZM48.6188 34C47.8715 33.626 47.3355 33.3496 46.7344 33.0569C46.5557 33.5122 46.4095 33.8862 46.2309 34.374C47.0431 34.2439 47.7091 34.1463 48.6188 34ZM36.793 48.2439V47.9837C36.2245 47.9187 35.6397 47.8211 35.0711 47.8374C34.9737 47.8374 34.8762 48.2927 34.7138 48.6992C35.5585 48.5041 36.1757 48.374 36.793 48.2439ZM45.0288 37.7236C44.9638 37.7398 44.8826 37.7398 44.8176 37.7561C44.7526 38.1301 44.7039 38.5041 44.6389 38.8943C45.0288 38.9431 45.4187 38.9919 45.7923 39.0569C45.8248 38.9919 45.841 38.9268 45.8735 38.8618C45.5973 38.4553 45.3212 38.0976 45.0288 37.7236ZM45.2725 35.1707C44.8014 35.2358 44.444 35.2846 43.9892 35.3333C44.2816 35.7236 44.509 36.0163 44.7851 36.4065C44.9476 35.9675 45.0938 35.626 45.2725 35.1707ZM113.043 15.935C111.614 15.935 110.314 15.9512 109.031 15.9187C108.803 15.9187 108.543 15.7236 108.365 15.561C106.789 14.0976 104.937 14.0163 103.069 14.7154C101.201 15.4146 100.226 16.9106 100.064 18.878C99.7066 23.0569 103.329 25.4959 107.26 24.1301C108.576 23.6748 109.242 22.6341 109.518 21.2195H104.775V17.6748H113.417C114.521 24.7642 110.054 28.5854 104.287 28.1463C97.3675 27.626 94.1511 20.1463 97.5299 14.7154C99.4142 11.6748 102.322 10.3902 105.831 10.6829C108.95 10.9431 111.37 12.4065 112.799 15.2846C112.881 15.4472 112.929 15.626 113.043 15.935ZM186.515 27.8537H182.779V10.9431C183.77 10.9431 184.761 10.9106 185.752 10.9593C185.979 10.9756 186.239 11.252 186.418 11.4634C188.806 14.4715 191.177 17.4959 193.549 20.5203C193.728 20.748 193.923 20.9756 194.248 21.3659V10.9756H198.016V27.8699C197.009 27.8699 196.002 27.9024 195.027 27.8374C194.784 27.8211 194.507 27.4959 194.313 27.252C191.925 24.2439 189.553 21.2195 187.181 18.1951C187.019 18 186.857 17.8049 186.548 17.4472C186.515 21.0569 186.515 24.4228 186.515 27.8537ZM131.561 11.0081V27.8862C130.538 27.8862 129.531 27.935 128.507 27.8537C128.248 27.8374 127.971 27.4472 127.76 27.187C125.356 24.1463 122.968 21.1057 120.58 18.065C120.467 17.9187 120.337 17.7886 120.077 17.4797V27.8537H116.308V10.9593C117.315 10.9593 118.274 10.9268 119.232 10.9756C119.476 10.9919 119.752 11.2358 119.914 11.4472C122.254 14.3902 124.576 17.3659 126.899 20.3089C127.143 20.6179 127.387 20.9268 127.777 21.3984V11.0081H131.561ZM76.981 19.3984C76.981 14.5203 80.8472 10.6504 85.7366 10.6504C90.5774 10.6504 94.5085 14.6016 94.5085 19.4146C94.4922 24.2276 90.5287 28.1789 85.7204 28.1789C80.8634 28.1789 76.981 24.2764 76.981 19.3984ZM90.6424 19.4309C90.6424 16.5854 88.4982 14.3415 85.7529 14.3089C83.0401 14.2764 80.8147 16.5528 80.8147 19.3659C80.8147 22.2114 82.9589 24.4553 85.7041 24.4715C88.4494 24.5041 90.6424 22.2602 90.6424 19.4309ZM162.571 19.3659C162.571 14.439 166.438 10.6341 171.425 10.6504C176.2 10.6667 180.066 14.6016 180.066 19.4472C180.05 24.2927 176.119 28.2114 171.278 28.1951C166.438 28.1626 162.571 24.2602 162.571 19.3659ZM171.295 24.4878C174.007 24.5041 176.217 22.2439 176.249 19.4309C176.282 16.6504 174.072 14.3415 171.36 14.3089C168.631 14.2764 166.356 16.6016 166.356 19.4146C166.373 22.2114 168.582 24.4878 171.295 24.4878ZM75.4703 22.065C74.918 25.5935 70.7758 28.4715 66.7635 28.1789C62.0527 27.8374 58.6089 24.2764 58.414 19.8374C58.219 15.1057 61.6141 11.1382 66.3086 10.6667C70.5484 10.2602 74.7556 12.9756 75.4703 16.7317C74.187 16.7317 72.9362 16.748 71.6692 16.7154C71.5068 16.7154 71.3118 16.5041 71.1981 16.3577C69.8986 14.5691 67.8681 13.9024 65.6751 14.5366C63.6933 15.122 62.3288 16.9106 62.2314 19.0732C62.1176 21.3008 63.206 23.2033 65.0578 24.0488C66.9097 24.8943 69.3788 24.6504 70.5321 23.1707C71.3768 22.0813 72.3027 21.9837 73.4398 22.0488C74.1221 22.0976 74.7881 22.065 75.4703 22.065ZM58.5277 33.2033V32.3415H197.821V33.2033H58.5277ZM149.446 14.5366V27.8211H145.629V14.5854H141.357V11.0244H153.767V14.5366H149.446ZM156.204 10.9756H159.875V27.8211H156.204V10.9756ZM135.249 10.9919H138.904V27.8374H135.249V10.9919ZM164.683 40.4878V48.5203H163.627V38.4065C164.212 38.1951 164.602 38.3577 164.992 38.8618C166.941 41.4146 168.939 43.9512 171.051 46.6667V38.374H172.139V48.4878C171.538 48.6992 171.132 48.5041 170.759 48C168.825 45.4634 166.844 42.9594 164.878 40.439L164.683 40.4878ZM78.9141 48.5203H77.842V38.4065C78.3943 38.2114 78.7679 38.3577 79.1415 38.8293C81.1071 41.3984 83.1213 43.9512 85.2331 46.6667V38.3902H86.3214V48.4878C85.7529 48.6829 85.3468 48.5528 84.9569 48.0325C83.0239 45.4959 81.0421 42.9919 78.9141 40.2764V48.5203ZM108.966 48.5203H107.91V38.2439C109.437 38.3415 110.964 38.3252 112.458 38.5691C113.612 38.7642 114.213 39.8211 114.229 41.0732C114.229 42.3252 113.612 43.252 112.507 43.6423C112.247 43.7236 111.987 43.7886 111.63 43.8862C112.929 45.4146 114.196 46.9106 115.528 48.4878C114.749 48.6341 114.164 48.6667 113.644 47.9675C112.734 46.7642 111.662 45.6748 110.736 44.4878C110.282 43.9024 109.778 43.6748 108.982 43.9187C108.966 45.4309 108.966 46.9594 108.966 48.5203ZM109.047 39.4472V42.8781C110.054 42.813 111.013 42.8293 111.922 42.6829C112.783 42.5528 113.141 41.935 113.124 41.0244C113.108 40.1789 112.669 39.5447 111.873 39.4797C110.948 39.3821 110.005 39.4472 109.047 39.4472ZM147.773 48.5366H146.701V38.4065C148.049 38.4065 149.333 38.3252 150.616 38.4228C152.029 38.5528 152.874 39.5122 152.971 40.878C153.085 42.2602 152.321 43.3171 150.941 43.7073C150.778 43.7561 150.632 43.7886 150.34 43.8699C151.639 45.3984 152.906 46.8943 154.173 48.3902C153.247 48.7155 152.971 48.6504 152.419 48C151.412 46.8293 150.421 45.6585 149.414 44.4715C148.829 43.7724 148.829 43.7724 147.741 43.8537C147.773 45.3821 147.773 46.9106 147.773 48.5366ZM147.789 42.8781C148.861 42.813 149.836 42.813 150.778 42.6504C151.525 42.5203 151.867 41.9024 151.883 41.1545C151.899 40.3902 151.639 39.6748 150.843 39.5285C149.852 39.3496 148.845 39.3659 147.789 39.3008V42.8781ZM184.111 43.9187V48.5203H183.104V38.2602C184.55 38.3252 185.979 38.3089 187.376 38.4878C188.546 38.6341 189.293 39.6748 189.374 40.9268C189.456 42.1626 188.806 43.2033 187.685 43.6098C187.409 43.7073 187.116 43.7724 186.743 43.8862C188.059 45.4309 189.326 46.9268 190.641 48.4715C189.78 48.6992 189.196 48.5528 188.676 47.8699C187.766 46.6829 186.743 45.6098 185.817 44.439C185.378 43.8537 184.891 43.6911 184.111 43.9187ZM184.176 42.8618C185.183 42.7967 186.158 42.813 187.1 42.6667C187.864 42.5528 188.237 41.9675 188.27 41.2195C188.302 40.4553 188.091 39.7236 187.279 39.561C186.272 39.3659 185.232 39.3821 184.176 39.3008V42.8618ZM145.028 48.4715C144.183 48.748 143.728 48.4715 143.55 47.7236C143.111 45.8374 142.006 45.3008 140.041 45.3171C138.124 45.3333 137.019 45.8049 136.597 47.6748C136.435 48.4065 135.996 48.7967 135.135 48.439C136.256 45.9187 137.377 43.4146 138.481 40.8943C138.806 40.1463 139.115 39.3984 139.489 38.6829C139.586 38.5041 139.878 38.3415 140.09 38.3252C140.268 38.3089 140.561 38.4878 140.626 38.6504C142.12 41.9187 143.566 45.1707 145.028 48.4715ZM140.057 39.8862C139.375 41.4309 138.758 42.813 138.108 44.2927H142.023C141.373 42.8455 140.756 41.4634 140.057 39.8862ZM97.335 38.3415H98.3096C98.3259 38.6504 98.3584 38.9268 98.3584 39.2033C98.3584 41.0407 98.3259 42.8943 98.3746 44.7317C98.4396 46.9756 100.096 48.1951 102.159 47.561C103.329 47.2033 103.963 46.3415 103.995 45.1545C104.06 43.2683 104.028 41.3659 104.044 39.4634V38.374H105.067C105.067 40.7967 105.197 43.2195 105.018 45.6098C104.872 47.5772 103.215 48.748 101.12 48.7317C99.1056 48.7155 97.4812 47.4959 97.3512 45.5447C97.205 43.1707 97.335 40.7968 97.335 38.3415ZM197.578 40.8293H196.635C196.246 39.7236 195.466 39.1057 194.199 39.252C193.452 39.3333 192.883 39.6585 192.704 40.4065C192.509 41.1545 192.769 41.8374 193.5 42.1951C194.378 42.6179 195.303 42.9431 196.164 43.3659C197.496 44.0163 198.049 44.9756 197.854 46.374C197.789 46.8618 197.561 47.3821 197.253 47.7561C195.904 49.3659 192.623 49.0081 191.632 47.1545C191.47 46.8455 191.405 46.4553 191.291 46.065C191.925 45.9512 192.315 45.8699 192.607 46.5691C193.175 47.9187 195.466 48.1626 196.441 47.0569C197.155 46.2602 196.863 44.9594 195.758 44.4065C194.914 43.9837 194.004 43.7236 193.159 43.3008C191.892 42.6667 191.34 41.5122 191.632 40.2114C191.925 38.8943 193.273 38.0488 194.832 38.1951C196.424 38.3089 197.48 39.3008 197.578 40.8293ZM179.953 42.813V43.8211H176.168V47.5122H180.814V48.5203H175.063V38.4065H180.814C180.83 38.6829 180.846 38.9919 180.862 39.3984H176.168V42.8455C177.419 42.813 178.686 42.813 179.953 42.813ZM118.079 42.7967H121.815C121.831 43.1545 121.847 43.4309 121.864 43.8049H118.079V47.5122H122.741V48.5041H117.023V38.374H122.757V39.3659H118.095C118.079 40.5528 118.079 41.6423 118.079 42.7967ZM69.8824 38.3577H75.5516V39.3821H70.9707V42.7967H74.7069C74.7231 43.1545 74.7393 43.4309 74.7556 43.8049H70.9707V47.4959H75.5678V48.4878H69.8824V38.3577ZM128.524 38.2602C129.904 38.3415 131.253 38.2927 132.569 38.5203C134.047 38.7642 135.038 40.1951 134.973 41.6585C134.908 43.2033 133.836 44.439 132.276 44.6341C131.399 44.748 130.506 44.7317 129.515 44.7805V48.5203H128.524V38.2602ZM129.531 43.6911H131.301C131.513 43.6911 131.74 43.6911 131.951 43.6585C133.007 43.5285 133.722 42.7967 133.819 41.7398C133.917 40.6992 133.332 39.7073 132.341 39.5122C131.431 39.3333 130.489 39.3659 129.515 39.3008C129.531 40.8455 129.531 42.2114 129.531 43.6911ZM58.5927 38.4228C59.4374 38.1301 59.811 38.4228 60.1196 39.1707C61.013 41.3984 62.0039 43.5935 62.9461 45.8049C63.0598 46.065 63.1898 46.3252 63.3847 46.7317C64.1482 44.9594 64.8467 43.3496 65.5452 41.7236C65.9025 40.8781 66.3086 40.0488 66.601 39.187C66.8609 38.4228 67.2833 38.1463 68.1117 38.4065C68.0468 38.6179 67.9818 38.8455 67.8843 39.0569C66.6335 41.9837 65.3827 44.9268 64.1157 47.8537C63.9695 48.2114 63.872 48.7317 63.3197 48.5528C63.0273 48.4553 62.7349 48.1463 62.605 47.8699C61.3217 44.9594 60.0709 42.0163 58.8038 39.0894C58.7551 38.878 58.6901 38.6829 58.5927 38.4228ZM158.64 48.5203H157.552V39.4309H154.303V38.374H161.889V39.3984H158.64V48.5203ZM95.6618 38.374V39.3821H92.4292V48.5203H91.3246V39.4146H88.092V38.374H95.6618Z"
  />
</svg>
