<svg class="partner" viewBox="0 0 42 60" xmlns="http://www.w3.org/2000/svg">
  <path
    d="M31.9526 0C32.0465 0.253108 32.2209 0.519538 32.2075 0.772646C32.127 2.07815 32.0063 3.37034 31.8587 4.67584C31.8185 5.07549 31.8855 5.31527 32.2075 5.5817C33.2538 6.4476 34.2464 7.36678 35.2793 8.25932C35.6415 8.56572 35.6415 8.85879 35.3732 9.23179C34.7428 10.0844 34.1525 10.9769 33.5221 11.8295C33.2806 12.1492 33.2001 12.4156 33.5489 12.6821C34.8769 13.6945 35.2659 15.0533 35.0647 16.6519C35.0245 16.9982 35.2123 17.4378 35.4269 17.7176C37.4927 20.4352 39.5853 23.1394 41.6913 25.8304C42.0804 26.3366 42.1206 26.7096 41.6511 27.2158C40.3633 28.5746 39.1158 29.96 37.8683 31.3588C37.4793 31.7984 37.1439 31.9449 36.5671 31.5986C34.944 30.6261 33.294 29.7069 31.6307 28.8144C31.3221 28.6412 30.9197 28.5613 30.5709 28.5746C29.1893 28.6146 27.8076 28.6945 26.4259 28.7877C25.9833 28.8144 25.6613 28.6945 25.4065 28.3215C25.1918 28.0151 24.8967 27.7487 24.7089 27.4289C24.0784 26.2966 23.126 25.9769 21.7846 26.3499V27.6421C21.7846 28.8677 21.7578 30.0799 21.798 31.3055C21.8114 31.5986 21.9456 31.9582 22.1468 32.1581C25.2455 35.1687 28.3576 38.1661 31.4563 41.1767C31.6575 41.3765 31.9526 41.8428 31.8855 41.9094C31.6575 42.1625 31.3356 42.389 31.0002 42.4689C24.4138 44.0542 17.814 45.5994 11.2142 47.1714C9.96666 47.4645 8.71913 47.7709 7.32405 48.1172C8.14232 48.5435 8.82645 48.9032 9.51058 49.2495C15.8019 52.4067 22.0931 55.5506 28.371 58.7078C28.7868 58.9209 29.1222 58.9343 29.5515 58.7211C31.6038 57.6554 33.6562 56.6163 35.722 55.5906C35.9635 55.4707 36.2854 55.5106 36.5671 55.4707C36.6073 55.7637 36.7012 56.0568 36.661 56.3499C36.5269 57.4023 36.3391 58.4414 36.2183 59.4938C36.1647 59.9067 35.9635 60.0133 35.6013 60.0133H35.1318C27.3113 60.0133 19.4774 60.0133 11.6569 60C11.1874 60 10.6776 59.8934 10.2484 59.7069C7.67282 58.6412 5.09729 57.5488 2.53517 56.4431C2.2803 56.3366 2.0925 56.0568 1.87787 55.8703C2.10591 55.6572 2.29371 55.3774 2.54858 55.2575C4.06439 54.6314 5.59362 54.0453 7.10943 53.4325C7.31064 53.3526 7.51185 53.2593 7.76672 53.1394C7.01553 51.5408 6.29116 49.9556 5.52654 48.397C5.31192 47.9707 5.37899 47.7176 5.68752 47.4112C9.93983 43.0684 14.1787 38.7122 18.4176 34.3561C18.8871 33.8765 19.3298 33.397 19.9334 32.7442C19.1957 32.8108 18.6457 32.8641 18.0957 32.9174C16.164 33.1172 14.2458 33.3037 12.3142 33.5035C10.3825 33.7034 8.46426 33.9165 6.53261 34.1163C4.62779 34.3162 2.72297 34.5027 0.818145 34.7158C0.0535328 34.809 -0.201338 34.5559 0.0267043 33.8366C1.16692 30.2931 2.32054 26.7629 3.46075 23.2194C5.33875 17.3979 7.23015 11.5764 9.09473 5.75488C9.24229 5.28863 9.52399 5.11545 9.96666 5.08881C12.4081 4.90231 14.8629 4.72913 17.3043 4.52931C19.7456 4.32948 22.187 4.10302 24.6284 3.9032C25.6882 3.80994 26.7613 3.74334 27.8344 3.63677C28.0356 3.62344 28.2771 3.51687 28.4112 3.38366C29.4978 2.26465 30.5173 1.13233 31.5502 0H31.9526ZM7.43137 47.0915C15.1982 45.2398 22.7907 43.428 30.477 41.5897C27.3649 38.579 24.3601 35.6749 21.3419 32.7709C16.7006 37.5533 12.1264 42.2558 7.43137 47.0915ZM6.31798 23.5924C4.62779 26.976 2.97784 30.3064 1.28764 33.7034C7.47161 33.0506 13.5348 32.4245 19.5981 31.7851C19.6115 31.7318 19.6115 31.6785 19.6249 31.6252C15.225 28.9609 10.8118 26.2966 6.31798 23.5924ZM23.7967 7.46003C20.2151 8.48579 16.714 9.4849 13.1727 10.5107C15.8153 15.1066 18.4042 19.6225 21.0737 24.2984C21.9858 18.5968 22.8846 13.0684 23.7967 7.46003ZM12.4617 11.2433C10.5301 15.1332 8.65206 18.9032 6.74724 22.7265C11.3349 23.5257 15.7884 24.2851 20.3761 25.0844C17.7201 20.4085 15.1311 15.8792 12.4617 11.2433ZM26.6137 59.0408C26.6271 58.9875 26.6272 58.9476 26.6406 58.8943C20.1615 55.6438 13.6824 52.3934 7.10943 49.103C7.14967 49.3161 7.14967 49.3828 7.1765 49.436C8.53133 52.5 9.89959 55.5506 11.241 58.6279C11.4154 59.0408 11.6703 59.0541 12.019 59.0541H24.5614C25.2455 59.0408 25.9296 59.0408 26.6137 59.0408ZM24.6284 8.41918C23.7028 14.1341 22.8175 19.6625 21.9053 25.2709C22.3614 25.2709 22.7907 25.3241 23.1931 25.2575C23.4614 25.2176 23.7967 25.071 23.9577 24.8712C25.5674 22.6732 27.1503 20.4485 28.76 18.2504C29.0149 17.9041 29.0015 17.651 28.8271 17.2913C28.0356 15.6394 27.2576 13.9876 26.4662 12.3357C25.876 11.0835 25.2857 9.83126 24.6284 8.41918ZM10.5435 6.03463C11.1337 7.02042 11.7373 7.93961 12.2337 8.91207C12.5288 9.49822 12.8239 9.61811 13.4678 9.43161C16.9152 8.39254 20.3895 7.40675 23.8504 6.40763C24.2931 6.27442 24.6418 6.32771 25.0174 6.60746C25.7418 7.14032 26.5064 7.61989 27.3381 8.16607C27.5125 6.95382 27.6735 5.83481 27.8613 4.63588C22.0395 5.10213 16.3384 5.56838 10.5435 6.03463ZM3.23271 27.2824L3.35344 27.3623L6.17043 21.6874L11.6032 10.7771C11.7105 10.5506 11.8178 10.1909 11.7239 9.99111C11.1605 8.93872 10.5301 7.92628 9.85935 6.80728C7.61917 13.6945 5.41923 20.4884 3.23271 27.2824ZM9.30936 24.1385C9.29595 24.1652 9.28253 24.2051 9.28253 24.2318C13.1056 26.5364 16.9287 28.841 20.8054 31.1856V26.1368C16.9555 25.4707 13.1324 24.8046 9.30936 24.1385ZM33.9111 14.4138C33.0794 13.6412 32.3819 12.8552 31.5502 12.2424C30.1283 11.19 28.6125 10.2309 27.1503 9.24511C26.7211 8.95204 26.2918 8.67229 25.8625 8.39254C25.8223 8.4325 25.7821 8.47247 25.7418 8.49911C27.0966 11.3765 28.4515 14.2407 29.8197 17.1581C31.2014 16.2122 32.4892 15.3597 33.9111 14.4138ZM25.0174 25.0844C25.8357 24.9645 26.4796 24.8712 27.1369 24.778C28.4783 24.5915 29.8197 24.4183 31.1478 24.1918C31.3892 24.1519 31.7246 23.8987 31.7916 23.6856C32.0599 22.833 32.2745 21.9538 32.4489 21.0746C32.4892 20.8614 32.4087 20.5151 32.2477 20.3952C31.4294 19.7558 30.5844 19.1696 29.7124 18.5435C28.1832 20.7016 26.654 22.8064 25.0174 25.0844ZM33.5221 21.2877C33.4416 21.381 33.3879 21.4076 33.3745 21.4476C32.905 23.4325 32.4221 25.4174 31.966 27.4156C31.8453 27.9218 32.3014 28.2549 32.7843 28.0284C34.783 27.0826 36.7817 26.1234 38.8207 25.1376C37.0232 23.8321 35.2928 22.5799 33.5221 21.2877ZM34.4611 8.81882C33.3879 7.88632 32.3819 7.0071 31.3758 6.12788C30.4502 7.11367 29.538 8.07282 28.6259 9.04529C29.8466 9.87122 31.1209 10.7371 32.4623 11.643C33.1331 10.6972 33.7769 9.79129 34.4611 8.81882ZM9.99349 58.5346C10.0337 58.4946 10.0606 58.4547 10.1008 58.4147C9.48375 56.976 8.86669 55.524 8.23622 54.0586C6.707 54.6581 5.25826 55.2309 3.67538 55.857C5.87531 56.7895 7.94111 57.6554 9.99349 58.5346ZM24.8699 26.0835C25.3662 26.6829 25.7552 27.1625 26.1711 27.6154C26.2784 27.722 26.4796 27.8019 26.6406 27.7886C27.9552 27.7353 29.2563 27.6687 30.5709 27.5755C30.7319 27.5622 30.9734 27.4156 31.0002 27.2957C31.1746 26.6163 31.2953 25.9369 31.4697 25.1376C29.2563 25.4574 27.1503 25.7638 24.8699 26.0835ZM38.7134 23.8455C38.7536 23.8055 38.7805 23.7655 38.8207 23.7256C37.4122 21.9005 36.0037 20.0755 34.5818 18.2504C34.4879 18.1439 34.3538 17.984 34.233 17.984C33.2001 18.0373 32.1806 18.1172 31.1478 18.1972C31.1478 18.2504 31.1343 18.3037 31.1343 18.357C33.6562 20.1954 36.1915 22.0204 38.7134 23.8455ZM33.5623 28.7478C34.7562 29.4272 35.8293 30.04 36.9561 30.6661C37.5732 29.2007 38.15 27.8286 38.7268 26.4431C38.6866 26.4032 38.6329 26.3765 38.5927 26.3366C36.9561 27.1225 35.3196 27.9085 33.5623 28.7478ZM28.532 7.35346C29.2966 6.6341 30.3295 6.03463 30.7722 5.14209C31.2014 4.2762 31.0404 3.11723 31.1343 2.07815C29.2429 3.4103 28.371 5.16874 28.532 7.35346ZM35.6684 56.6962C34.1525 57.4689 32.744 58.1883 31.3356 58.9076C32.5697 59.0408 33.7501 59.0541 34.9306 59.0142C35.105 59.0142 35.3867 58.7611 35.4135 58.5879C35.5476 58.0151 35.5745 57.4156 35.6684 56.6962ZM34.0855 15.4662C33.227 16.0524 32.4489 16.5719 31.6843 17.0781C31.6977 17.1181 31.7246 17.1581 31.738 17.198C32.516 17.1181 33.294 17.0382 34.0855 16.9716V15.4662ZM39.9877 25.9902C39.5987 26.9094 39.2634 27.7353 38.9146 28.5613C38.9548 28.5879 38.9951 28.6012 39.0353 28.6279C39.639 27.9618 40.2426 27.309 40.8597 26.6163C40.5511 26.4032 40.3097 26.2167 39.9877 25.9902Z"
  />
</svg>
