<svg viewBox="0 0 67 60" xmlns="http://www.w3.org/2000/svg">
  <path
    d="M28 7H43.3644L47.2845 12.8748L51.2328 7H66.4992L60.5211 16.0833C59.4063 16.0659 56.2126 16.0885 54.4588 16.8527C52.3102 17.789 49.3324 21.0949 49.3324 21.0949C49.3324 21.0949 49.8985 21.6485 50.031 21.905C50.1636 22.1616 50.1817 22.6304 50.1817 22.6304C50.1817 22.6304 48.8429 21.2746 47.7059 20.981C46.5694 20.6875 43.7943 20.981 43.7943 20.981C43.7943 20.981 41.7182 21.1697 40.8814 20.981C40.0446 20.7924 39.1445 19.9327 39.1445 19.9327C39.1445 19.9327 39.3238 21.4588 40.2496 22.088C40.9478 22.5624 43.1146 22.6304 43.1146 22.6304C43.1146 22.6304 45.1556 22.6078 46.0501 22.9445C46.9441 23.2812 48.4074 24.6233 48.4074 24.6233C48.4074 24.6233 48.1608 24.64 47.9191 24.5166C47.6769 24.3931 47.3111 24.0638 47.3111 24.0638C47.3111 24.0638 47.3856 25.6539 47.3111 26.3735C47.2362 27.0931 46.9529 27.5128 46.9529 27.5128C46.9529 27.5128 48.0742 29.6523 48.1447 30.8656C48.2156 32.079 47.3111 33.6605 47.3111 33.6605C47.3111 33.6605 47.2906 33.804 47.6205 34.0364C47.9509 34.2692 48.7253 34.6568 48.7253 34.6568C48.7253 34.6568 50.581 35.4351 51.398 34.7939C52.6627 33.802 52.2155 31.919 52.2155 31.919L52.819 32.4954C52.819 32.4954 53.0853 31.7397 53.3545 31.3919C53.6232 31.044 54.2771 30.5101 54.2771 30.5101C54.2771 30.5101 55.5269 29.5846 55.8435 28.9339C56.1602 28.2831 56.082 26.8022 56.082 26.8022C56.082 26.8022 56.3226 28.394 56.082 29.1865C55.8411 29.9791 54.7058 30.9725 54.7058 30.9725C54.7058 30.9725 56.9088 30.5683 58.0667 30.8656C60.0449 31.3738 60.918 32.6746 60.918 32.6746V32.6694L67 42H51.2328L47.2845 36.1246L43.3644 42H28L39.5027 24.5L28 7ZM46.6181 24.0303C46.9944 24.5682 46.9151 25.7615 46.7189 25.9112C46.6266 25.9818 46.5251 26.0052 46.4183 25.9407C46.2173 25.8193 46.0263 25.6825 45.847 25.5541C45.5626 25.3503 45.3079 25.1677 45.09 25.102C44.7954 25.0133 44.4465 25.0133 43.9518 25.102C43.4566 25.1906 42.7463 25.265 42.1424 25.102C41.5389 24.9389 40.8612 24.2673 40.8612 24.2673C40.8612 24.2673 42.6033 24.4492 43.3652 24.3272C43.8136 24.2554 44.1661 24.0332 44.4776 23.8368C44.6955 23.6994 44.8934 23.5746 45.09 23.5231C45.567 23.3978 46.2418 23.4923 46.6181 24.0303ZM50.218 27.1244C50.1438 27.5095 50.1116 28.3025 50.1116 28.3025C50.1116 28.3025 50.8561 27.823 50.9645 27.2611C51.0725 26.6992 50.5193 26.1852 50.5193 26.1852C50.5193 26.1852 50.2921 26.7394 50.218 27.1244Z"
  />
  <path
    d="M31.6029 29.7786C29.598 36.5929 24.5862 40 16.5673 40C14.1087 40 11.8581 39.6225 9.81556 38.8676C7.77303 38.1126 6.02361 37.0381 4.56738 35.6443C3.1111 34.2506 1.98581 32.5858 1.19149 30.6499C0.397177 28.7139 0 26.5457 0 24.1452C0 21.6673 0.378258 19.4313 1.13473 17.4374C1.89125 15.4434 2.96927 13.7496 4.36879 12.3557C5.76831 10.9619 7.46097 9.88747 9.44678 9.13247C11.4326 8.37748 13.6737 8 16.1701 8C18.6288 8 20.8415 8.37748 22.8084 9.13247C24.7753 9.88747 26.4396 10.9813 27.8013 12.4138C29.163 13.8463 30.2032 15.5983 30.9218 17.6697C31.6407 19.7411 32 22.0738 32 24.6679V26.6532H10.4111C10.6717 30.5953 12.7427 32.5662 16.624 32.5662C18.8557 32.5662 20.5389 31.6372 21.6737 29.7786H31.6029ZM10.7938 19.4395C10.7938 23.6536 14.7475 25.0834 14.7475 25.0834C14.7475 25.0834 15.7206 24.0309 17.4407 23.6234C18.5304 23.3653 20.9111 23.6234 20.9111 23.6234C20.9111 23.6234 22.3967 23.979 23.052 23.7939C23.7073 23.6088 24.8262 22.5175 24.8262 22.5175C24.8262 22.5175 25.0543 22.2348 25.081 22.0778C25.1077 21.9208 24.9679 21.6851 24.9679 21.6851C24.9679 21.6851 24.5397 21.2626 24.3967 21.0361C24.2474 20.7997 24.1391 20.5623 24.0431 20.3518C23.9522 20.1526 23.8723 19.9773 23.7789 19.8495C23.3486 19.2605 23.052 19.0626 23.052 19.0626C23.052 19.0626 23.1231 17.5473 22.8285 16.8132C22.5339 16.0792 21.3378 14.7921 21.3378 14.7921C21.3378 14.7921 21.7117 13.5713 20.9111 13.0417C20.1105 12.5122 19.3536 13.6322 19.3536 13.6322C19.3536 13.6322 17.7355 13.5777 16.9519 13.6322C16.1682 13.6867 10.7938 14.2969 10.7938 19.4395ZM19.9956 17.8779C19.9956 17.8779 19.7106 18.885 19.9956 19.1778C20.2806 19.4706 21.2109 19.0903 21.2109 19.0903L19.9956 17.8779ZM16.3384 14.6622C16.6703 14.3882 17.0497 14.3682 17.3739 14.5062C17.698 14.6443 18.3375 15.3327 18.1761 15.445C18.1215 15.483 18.0274 15.4034 17.9015 15.2968C17.6558 15.0886 17.2886 14.7777 16.856 15.0389C16.5165 15.2439 16.5921 15.6334 16.6526 15.9457C16.693 16.154 16.7268 16.3281 16.6262 16.3902C16.3749 16.5454 16.0926 15.8727 16.055 15.5953C16.0174 15.3178 16.0066 14.9363 16.3384 14.6622Z"
  />
  <path
    d="M3.97325 50.6009H1.09321C1.03108 50.6009 1 50.5634 1 50.4883V44.6761C1 44.6009 1.03108 44.5634 1.09321 44.5634H3.97325C4.04781 44.5634 4.0851 44.5977 4.0851 44.6667V44.8826C4.0851 44.9516 4.04781 44.9859 3.97325 44.9859H1.55923C1.49711 44.9859 1.46603 45.0141 1.46603 45.0704V47.23C1.46603 47.2864 1.49711 47.3146 1.55923 47.3146H3.71227C3.78064 47.3146 3.8148 47.3488 3.8148 47.4178V47.6338C3.8148 47.7028 3.78064 47.7371 3.71227 47.7371H1.55923C1.49711 47.7371 1.46603 47.7653 1.46603 47.8216V50.0939C1.46603 50.1502 1.49711 50.1784 1.55923 50.1784H3.97325C4.04781 50.1784 4.0851 50.2127 4.0851 50.2817V50.4977C4.0851 50.5666 4.04781 50.6009 3.97325 50.6009ZM5.33822 50.6009H4.99336C4.91256 50.6009 4.89703 50.5634 4.94676 50.4883L6.29823 48.1596L5.012 45.9249C4.96228 45.8498 4.9778 45.8122 5.0586 45.8122H5.39414C5.46247 45.8122 5.51531 45.8498 5.55259 45.9249L6.60581 47.8404H6.64309L7.64971 45.9249C7.69319 45.8498 7.746 45.8122 7.80816 45.8122H8.1437C8.22446 45.8122 8.23998 45.8498 8.1903 45.9249L6.93203 48.1408L8.30215 50.4883C8.34563 50.5634 8.33011 50.6009 8.25554 50.6009H7.88272C7.833 50.6009 7.78952 50.5634 7.75224 50.4883L6.64309 48.4789H6.60581L5.49667 50.4883C5.45315 50.5634 5.40034 50.6009 5.33822 50.6009ZM9.60779 50.6009H9.3375C9.27537 50.6009 9.24429 50.5634 9.24429 50.4883V45.9249C9.24429 45.8498 9.27537 45.8122 9.3375 45.8122H9.60779C9.67616 45.8122 9.71032 45.8498 9.71032 45.9249V46.3005H9.7476C9.92161 45.9751 10.2447 45.8122 10.7169 45.8122H11.3321C11.7298 45.8122 12.0436 45.931 12.2735 46.169C12.5034 46.407 12.6183 46.7324 12.6183 47.1455V50.4883C12.6183 50.5634 12.5873 50.6009 12.5251 50.6009H12.2548C12.1865 50.6009 12.1523 50.5634 12.1523 50.4883V47.1643C12.1523 46.87 12.0777 46.6418 11.9286 46.4789C11.7795 46.316 11.562 46.2347 11.2762 46.2347H10.6703C10.3721 46.2347 10.136 46.316 9.96197 46.4789C9.7942 46.6352 9.71032 46.8606 9.71032 47.1549V50.4883C9.71032 50.5634 9.67616 50.6009 9.60779 50.6009ZM17.128 50.6009H15.18C14.7761 50.6009 14.456 50.4821 14.22 50.2441C13.99 50.0061 13.8751 49.6807 13.8751 49.2676V47.1455C13.8751 46.7324 13.99 46.407 14.22 46.169C14.456 45.931 14.7761 45.8122 15.18 45.8122H15.9815C16.3854 45.8122 16.7054 45.931 16.9415 46.169C17.1776 46.407 17.2957 46.7324 17.2957 47.1455V48.338C17.2957 48.4131 17.2584 48.4507 17.1839 48.4507H14.425C14.3691 48.4507 14.3411 48.4789 14.3411 48.5352V49.2582C14.3411 49.5526 14.4157 49.7808 14.5648 49.9437C14.7139 50.1 14.9314 50.1784 15.2173 50.1784H17.128C17.1963 50.1784 17.2305 50.2127 17.2305 50.2817V50.4977C17.2305 50.5666 17.1963 50.6009 17.128 50.6009ZM14.425 48.0751H16.7458C16.8017 48.0751 16.8297 48.0469 16.8297 47.9906V47.1549C16.8297 46.8606 16.7551 46.6352 16.606 46.4789C16.4569 46.316 16.2394 46.2347 15.9536 46.2347H15.2173C14.9314 46.2347 14.7139 46.316 14.5648 46.4789C14.4157 46.6352 14.3411 46.8606 14.3411 47.1549V47.9906C14.3411 48.0469 14.3691 48.0751 14.425 48.0751ZM18.7608 46.2347H18.1922C18.1239 46.2347 18.0897 46.2033 18.0897 46.1408V45.9155C18.0897 45.8465 18.1239 45.8122 18.1922 45.8122H18.7608C18.8167 45.8122 18.8447 45.784 18.8447 45.7277V44.9671C18.8447 44.892 18.8788 44.8545 18.9472 44.8545H19.2175C19.2858 44.8545 19.32 44.892 19.32 44.9671V45.7277C19.32 45.784 19.348 45.8122 19.4039 45.8122H20.5131C20.5814 45.8122 20.6156 45.8465 20.6156 45.9155V46.1408C20.6156 46.2033 20.5814 46.2347 20.5131 46.2347H19.4039C19.348 46.2347 19.32 46.2629 19.32 46.3192V49.277C19.32 49.5648 19.4008 49.7873 19.5624 49.9437C19.7239 50.1 19.9507 50.1784 20.2428 50.1784H20.6063C20.6746 50.1784 20.7088 50.2127 20.7088 50.2817V50.4977C20.7088 50.5666 20.6746 50.6009 20.6063 50.6009H20.2055C19.7954 50.6009 19.466 50.485 19.2175 50.2535C18.9689 50.022 18.8447 49.7028 18.8447 49.2958V46.3192C18.8447 46.2629 18.8167 46.2347 18.7608 46.2347ZM23.0825 50.6009H22.7097C22.6476 50.6009 22.6072 50.5634 22.5885 50.4883L21.2837 45.9249C21.265 45.8498 21.2899 45.8122 21.3582 45.8122H21.6565C21.7248 45.8122 21.7652 45.8498 21.7776 45.9249L22.8775 50.0094H22.9241L24.0053 45.9249C24.0177 45.8498 24.0612 45.8122 24.1357 45.8122H24.406C24.4806 45.8122 24.5241 45.8498 24.5365 45.9249L25.5991 50.0094H25.6457L26.7548 45.9249C26.7734 45.8498 26.8139 45.8122 26.876 45.8122H27.1742C27.2488 45.8122 27.2736 45.8498 27.2488 45.9249L25.9532 50.4883C25.9346 50.5634 25.8911 50.6009 25.8228 50.6009H25.4499C25.3816 50.6009 25.3381 50.5634 25.3194 50.4883L24.2849 46.5258H24.2383L23.213 50.4883C23.1944 50.5634 23.1509 50.6009 23.0825 50.6009ZM30.1624 50.6009H29.361C28.9571 50.6009 28.6371 50.4821 28.401 50.2441C28.1711 50.0061 28.0561 49.6807 28.0561 49.2676V47.1455C28.0561 46.7324 28.1711 46.407 28.401 46.169C28.6371 45.931 28.9571 45.8122 29.361 45.8122H30.1624C30.5665 45.8122 30.8866 45.931 31.1225 46.169C31.3587 46.407 31.4766 46.7324 31.4766 47.1455V49.2676C31.4766 49.6807 31.3587 50.0061 31.1225 50.2441C30.8866 50.4821 30.5665 50.6009 30.1624 50.6009ZM29.3983 50.1784H30.1252C30.4113 50.1784 30.6285 50.1 30.7776 49.9437C30.9332 49.7808 31.0106 49.5526 31.0106 49.2582V47.1549C31.0106 46.8606 30.9332 46.6352 30.7776 46.4789C30.6285 46.316 30.4113 46.2347 30.1252 46.2347H29.3983C29.1125 46.2347 28.895 46.316 28.7458 46.4789C28.5967 46.6352 28.5221 46.8606 28.5221 47.1549V49.2582C28.5221 49.5526 28.5967 49.7808 28.7458 49.9437C28.895 50.1 29.1125 50.1784 29.3983 50.1784ZM33.1365 50.6009H32.8662C32.8042 50.6009 32.773 50.5634 32.773 50.4883V45.9249C32.773 45.8498 32.8042 45.8122 32.8662 45.8122H33.1365C33.205 45.8122 33.239 45.8498 33.239 45.9249V46.3192H33.2763C33.3448 46.1878 33.466 46.0718 33.6398 45.9718C33.8141 45.8653 34.0284 45.8122 34.2829 45.8122H34.6464C34.7149 45.8122 34.7489 45.8465 34.7489 45.9155V46.1408C34.7489 46.2098 34.7149 46.2409 34.6464 46.2347H34.2084C33.904 46.2347 33.6649 46.3286 33.4907 46.5164C33.3229 46.7042 33.239 46.9577 33.239 47.277V50.4883C33.239 50.5634 33.205 50.6009 33.1365 50.6009ZM38.3698 45.8122H38.6587C38.696 45.8122 38.7211 45.8249 38.7333 45.8498C38.7458 45.8685 38.7398 45.8934 38.7146 45.9249L37.2886 48.1033V48.1408L38.8824 50.4883C38.9075 50.5197 38.9136 50.5479 38.901 50.5728C38.8889 50.5916 38.8638 50.6009 38.8265 50.6009H38.5375C38.4443 50.6009 38.373 50.5634 38.3232 50.4883L36.7853 48.2066C36.7606 48.1564 36.7606 48.1066 36.7853 48.0563L38.1834 45.9061C38.2206 45.8436 38.283 45.8122 38.3698 45.8122ZM36.0583 50.6009H35.788C35.726 50.6009 35.6948 50.5634 35.6948 50.4883V44.1127C35.6948 44.0376 35.726 44 35.788 44H36.0583C36.1268 44 36.1608 44.0376 36.1608 44.1127V50.4883C36.1608 50.5634 36.1268 50.6009 36.0583 50.6009ZM44.6733 50.6009H43.4989C43.0949 50.6009 42.7747 50.4821 42.5389 50.2441C42.3087 50.0061 42.194 49.6807 42.194 49.2676V45.8967C42.194 45.4836 42.3087 45.1582 42.5389 44.9202C42.7747 44.6822 43.0949 44.5634 43.4989 44.5634H44.6733C45.0769 44.5634 45.3938 44.6822 45.624 44.9202C45.8598 45.1582 45.9782 45.4836 45.9782 45.8967V46.3568C45.9782 46.4319 45.9437 46.4695 45.8756 46.4695H45.6147C45.5462 46.4695 45.5121 46.4319 45.5121 46.3568V45.9155C45.5121 45.615 45.4343 45.3864 45.2791 45.23C45.13 45.0672 44.9124 44.9859 44.6267 44.9859H43.5362C43.2501 44.9859 43.0329 45.0672 42.8837 45.23C42.7346 45.3929 42.66 45.6211 42.66 45.9155V49.2488C42.66 49.5432 42.7346 49.7714 42.8837 49.9343C43.0329 50.0972 43.2501 50.1784 43.5362 50.1784H44.6267C44.9124 50.1784 45.13 50.1 45.2791 49.9437C45.4343 49.7808 45.5121 49.5493 45.5121 49.2488V48.8075C45.5121 48.7324 45.5462 48.6948 45.6147 48.6948H45.8756C45.9437 48.6948 45.9782 48.7324 45.9782 48.8075V49.2676C45.9782 49.6807 45.8598 50.0061 45.624 50.2441C45.3938 50.4821 45.0769 50.6009 44.6733 50.6009ZM49.0535 50.6009H48.457C48.0534 50.6009 47.7333 50.4821 47.497 50.2441C47.2672 50.0061 47.1521 49.6807 47.1521 49.2676V47.1455C47.1521 46.7324 47.2672 46.407 47.497 46.169C47.7333 45.931 48.0534 45.8122 48.457 45.8122H50.433C50.4954 45.8122 50.5262 45.8498 50.5262 45.9249V50.4883C50.5262 50.5634 50.4954 50.6009 50.433 50.6009H50.1627C50.0946 50.6009 50.0601 50.5634 50.0601 50.4883V50.1127H50.0229C49.8616 50.438 49.5382 50.6009 49.0535 50.6009ZM50.0601 49.2582V46.3192C50.0601 46.2629 50.0293 46.2347 49.9669 46.2347H48.4943C48.2086 46.2347 47.991 46.316 47.8419 46.4789C47.6927 46.6418 47.6182 46.87 47.6182 47.1643V49.2488C47.6182 49.5432 47.6927 49.7714 47.8419 49.9343C47.991 50.0972 48.2086 50.1784 48.4943 50.1784H49.1001C49.3984 50.1784 49.6314 50.1 49.7992 49.9437C49.9734 49.7808 50.0601 49.5526 50.0601 49.2582ZM52.2873 52H52.0171C51.955 52 51.9238 51.9657 51.9238 51.8967V45.9249C51.9238 45.8498 51.955 45.8122 52.0171 45.8122H52.2873C52.3558 45.8122 52.3899 45.8498 52.3899 45.9249V46.3005H52.4271C52.6014 45.9751 52.9244 45.8122 53.3965 45.8122H54.0303C54.4282 45.8122 54.7419 45.931 54.9717 46.169C55.2018 46.407 55.3165 46.7324 55.3165 47.1455V49.2676C55.3165 49.6807 55.2018 50.0061 54.9717 50.2441C54.7419 50.4821 54.4282 50.6009 54.0303 50.6009H53.3965C52.9244 50.6009 52.6014 50.438 52.4271 50.1127H52.3899V51.8967C52.3899 51.9657 52.3558 52 52.2873 52ZM53.3499 50.1784H53.965C54.2511 50.1784 54.4683 50.1 54.6175 49.9437C54.7731 49.7808 54.8505 49.5493 54.8505 49.2488V47.1643C54.8505 46.8638 54.7731 46.6352 54.6175 46.4789C54.4683 46.316 54.2511 46.2347 53.965 46.2347H53.3499C53.0516 46.2347 52.8158 46.316 52.6415 46.4789C52.4738 46.6352 52.3899 46.8606 52.3899 47.1549V49.2582C52.3899 49.5526 52.4738 49.7808 52.6415 49.9437C52.8158 50.1 53.0516 50.1784 53.3499 50.1784ZM56.6672 45.0235V44.1221C56.6672 44.0531 56.6984 44.0188 56.7604 44.0188H57.04C57.102 44.0188 57.1332 44.0531 57.1332 44.1221V45.0235C57.1332 45.0986 57.102 45.1361 57.04 45.1361H56.7604C56.6984 45.1361 56.6672 45.0986 56.6672 45.0235ZM56.6672 50.4883V45.9249C56.6672 45.8498 56.6984 45.8122 56.7604 45.8122H57.0307C57.0992 45.8122 57.1332 45.8498 57.1332 45.9249V50.4883C57.1332 50.5634 57.102 50.6009 57.04 50.6009H56.7604C56.6984 50.6009 56.6672 50.5634 56.6672 50.4883ZM58.7825 46.2347H58.214C58.1459 46.2347 58.1115 46.2033 58.1115 46.1408V45.9155C58.1115 45.8465 58.1459 45.8122 58.214 45.8122H58.7825C58.8385 45.8122 58.8664 45.784 58.8664 45.7277V44.9671C58.8664 44.892 58.9009 44.8545 58.9689 44.8545H59.2392C59.3077 44.8545 59.3418 44.892 59.3418 44.9671V45.7277C59.3418 45.784 59.3697 45.8122 59.4256 45.8122H60.5348C60.6033 45.8122 60.6373 45.8465 60.6373 45.9155V46.1408C60.6373 46.2033 60.6033 46.2347 60.5348 46.2347H59.4256C59.3697 46.2347 59.3418 46.2629 59.3418 46.3192V49.277C59.3418 49.5648 59.4228 49.7873 59.5841 49.9437C59.7458 50.1 59.9727 50.1784 60.2645 50.1784H60.628C60.6965 50.1784 60.7305 50.2127 60.7305 50.2817V50.4977C60.7305 50.5666 60.6965 50.6009 60.628 50.6009H60.2272C59.8171 50.6009 59.4881 50.485 59.2392 50.2535C58.9908 50.022 58.8664 49.7028 58.8664 49.2958V46.3192C58.8664 46.2629 58.8385 46.2347 58.7825 46.2347ZM63.6171 50.6009H63.0205C62.6165 50.6009 62.2968 50.4821 62.0605 50.2441C61.8307 50.0061 61.7157 49.6807 61.7157 49.2676V47.1455C61.7157 46.7324 61.8307 46.407 62.0605 46.169C62.2968 45.931 62.6165 45.8122 63.0205 45.8122H64.9965C65.0585 45.8122 65.0897 45.8498 65.0897 45.9249V50.4883C65.0897 50.5634 65.0585 50.6009 64.9965 50.6009H64.7262C64.6577 50.6009 64.6237 50.5634 64.6237 50.4883V50.1127H64.5864C64.4247 50.438 64.1017 50.6009 63.6171 50.6009ZM64.6237 49.2582V46.3192C64.6237 46.2629 64.5925 46.2347 64.5305 46.2347H63.0578C62.7721 46.2347 62.5545 46.316 62.4054 46.4789C62.2563 46.6418 62.1817 46.87 62.1817 47.1643V49.2488C62.1817 49.5432 62.2563 49.7714 62.4054 49.9343C62.5545 50.0972 62.7721 50.1784 63.0578 50.1784H63.6637C63.9619 50.1784 64.1949 50.1 64.3627 49.9437C64.5365 49.7808 64.6237 49.5526 64.6237 49.2582ZM66.8975 50.6009H66.6272C66.5648 50.6009 66.534 50.5634 66.534 50.4883V44.1127C66.534 44.0376 66.5648 44 66.6272 44H66.8975C66.9656 44 67 44.0376 67 44.1127V50.4883C67 50.5634 66.9656 50.6009 66.8975 50.6009Z"
  />
</svg>
