<svg viewBox="0 0 102 60" xmlns="http://www.w3.org/2000/svg">
  <path d="M40.197 10V15.7077H5.71429V50H0V10H40.197Z" />
  <path
    d="M12.2168 50V21.4483H40.184V27.1297H17.9574V44.2792H40.2037V50H12.2168ZM63.9212 43.2808C63.2644 43.3465 63.2644 43.3465 63.0083 42.775C62.7587 42.2168 62.4959 41.665 62.2595 41.1002C62.1807 40.9163 62.0756 40.8637 61.8851 40.8703C60.3416 40.8769 58.7981 40.8769 57.2546 40.8703C57.0707 40.8703 56.9853 40.9294 56.913 41.0936C56.6634 41.665 56.4007 42.2299 56.1445 42.7948C55.9015 43.3333 55.9015 43.3333 55.271 43.2808C55.3038 43.1888 55.3301 43.0969 55.3695 43.0115C56.6372 40.2726 57.9048 37.5402 59.1659 34.7948C59.2513 34.6043 59.3564 34.5255 59.56 34.5517C59.7373 34.5714 59.9081 34.5255 60.0132 34.7619C61.294 37.5665 62.5945 40.358 63.8884 43.156C63.9015 43.1823 63.9081 43.2151 63.9212 43.2808ZM59.5863 35.2545C58.8112 36.9557 58.0624 38.5977 57.3005 40.2529H61.8523C61.1035 38.5911 60.3613 36.9557 59.5863 35.2545ZM82.2135 43.2808C82.2661 43.156 82.3055 43.0575 82.3514 42.959C83.5994 40.2529 84.8539 37.5468 86.1019 34.8407C86.1938 34.6371 86.2989 34.5452 86.5353 34.5452C86.7718 34.5452 86.8966 34.6109 87.0017 34.8407C88.2496 37.5599 89.5107 40.2726 90.7652 42.9918C90.8046 43.0772 90.8375 43.1691 90.8769 43.2545C90.8506 43.2742 90.8309 43.3005 90.8178 43.3005C90.2201 43.3333 90.2201 43.3333 89.9639 42.775C89.7143 42.2299 89.4582 41.6847 89.2217 41.133C89.1429 40.9491 89.0509 40.8703 88.8408 40.8703C87.2972 40.8769 85.7537 40.8769 84.2168 40.8703C84.0395 40.8703 83.9475 40.9163 83.8753 41.087C83.6257 41.6716 83.3564 42.243 83.0936 42.821C82.8506 43.3268 82.8506 43.3268 82.2135 43.2808ZM86.5353 35.2545C85.7603 36.9557 85.005 38.5977 84.2496 40.2595H88.8079C88.0526 38.5977 87.3038 36.9557 86.5353 35.2545ZM61.9376 29.7044C61.7603 29.7044 61.6027 29.7307 61.4647 29.6979C61.3531 29.6716 61.2086 29.5862 61.1626 29.4943C60.8473 28.8375 60.5452 28.1675 60.2496 27.4976C60.1774 27.3333 60.0986 27.2742 59.9147 27.2742C58.358 27.2808 56.8079 27.2808 55.2513 27.2742C55.0674 27.2742 54.982 27.3399 54.9163 27.5041C54.6667 28.0755 54.404 28.6404 54.1478 29.2053C53.9048 29.7373 53.9048 29.7373 53.2808 29.6913C53.3071 29.6059 53.3268 29.5271 53.3662 29.4549C54.6339 26.7094 55.9081 23.9639 57.1692 21.2118C57.2677 21.0017 57.3859 20.9491 57.5961 20.9623C57.7866 20.9688 57.9311 20.9754 58.0296 21.1987C59.2973 23.9705 60.5846 26.7356 61.8654 29.5008C61.8851 29.5468 61.9048 29.6125 61.9376 29.7044ZM55.2973 26.6634H59.8555C59.0936 24.9885 58.3514 23.3465 57.583 21.6585C56.8079 23.3596 56.0592 24.9951 55.2973 26.6634ZM65.4516 34.5517C66.8966 34.624 68.3416 34.5714 69.7472 34.7948C71.6519 35.0969 72.4664 37.3957 71.2841 38.8801C70.6996 39.6158 69.8785 39.9507 68.9656 40.0164C68.1511 40.0755 67.3235 40.0558 66.5025 40.069H66.0821V43.2808H65.4516V34.5517ZM66.0887 39.4713C66.5419 39.4713 66.9557 39.4844 67.3695 39.4713C68.046 39.445 68.7357 39.4713 69.3925 39.3399C70.9557 39.0378 71.6651 37.3892 70.8046 36.1478C70.3449 35.491 69.6421 35.2677 68.8933 35.2348C68.0066 35.1954 67.1199 35.2151 66.2332 35.2151C66.1807 35.2151 66.1347 35.2348 66.0887 35.248V39.4713ZM71.5928 21.0411H72.2102V21.422C72.2102 22.8867 72.184 24.358 72.2234 25.8227C72.2365 26.4007 72.3219 27.0049 72.4992 27.5567C72.8211 28.5353 73.583 29.0739 74.5879 29.2184C75.4943 29.3432 76.3613 29.2381 77.0904 28.6076C77.7669 28.023 78.0099 27.2283 78.023 26.3744C78.0493 24.7192 78.0362 23.0706 78.0362 21.4155V21.0411H78.6667C78.6733 21.1265 78.6864 21.2118 78.6864 21.2972V26.0263C78.6864 26.9787 78.5091 27.8851 77.8917 28.6404C77.0378 29.6847 75.8753 29.9606 74.6142 29.803C72.7685 29.5731 71.6454 28.3317 71.5994 26.4664C71.5534 24.7192 71.5797 22.9655 71.5797 21.2118C71.5731 21.1593 71.5797 21.1068 71.5928 21.0411ZM70.2332 22.2759C70.0887 22.4204 69.9442 22.5583 69.8326 22.67C69.3596 22.3613 68.9327 22 68.4401 21.7833C65.8457 20.6207 63.0871 22.578 63.2053 25.4746C63.2907 27.4187 64.4861 28.9031 66.2726 29.2118C67.5403 29.4286 68.6503 29.0476 69.5961 28.1806C69.6815 28.1018 69.7734 28.023 69.872 27.931C69.9311 27.977 69.9771 28.023 70.0296 28.0624C70.1216 28.1412 70.2135 28.2135 70.3055 28.2857C68.7817 30.1182 65.8851 30.381 64.092 28.8506C62.1478 27.1954 62.0296 23.9902 63.8161 22.1511C65.5304 20.3646 68.5912 20.4893 70.2332 22.2759ZM54.5354 35.8916C54.3777 36.0099 54.2266 36.1281 54.0296 36.2726C53.9311 36.1938 53.7866 36.069 53.6355 35.9442C52.4927 35.0246 51.2184 34.7816 49.8523 35.3005C48.5058 35.8063 47.7767 36.8572 47.5534 38.2562C47.3432 39.5829 47.6519 40.7849 48.5912 41.7701C49.8982 43.1429 52.0329 43.2414 53.5698 42.0263C53.7669 41.8686 53.9508 41.7044 54.1741 41.514C54.2923 41.6585 54.404 41.803 54.5222 41.954C53.0181 43.7471 50.1281 43.9639 48.3613 42.4466C46.4171 40.7783 46.2923 37.5796 48.092 35.7471C49.8194 34 52.8867 34.0526 54.5354 35.8916ZM52.7422 25.1724V25.7636H47.8555V29.6847H47.2316V21.0476H53.3071V21.6059H47.8687V25.1724H52.7422ZM93.6552 21.0542C94.1281 20.9688 94.4565 21.0148 94.7521 21.4614C95.6191 22.7882 96.5518 24.069 97.4582 25.3695C97.5173 25.4549 97.583 25.5402 97.6749 25.6585C97.7603 25.5468 97.8326 25.4614 97.8982 25.3695C98.8112 24.0624 99.7505 22.7685 100.631 21.4352C100.906 21.0214 101.215 20.9557 101.668 21.0542C101.596 21.1659 101.537 21.2644 101.471 21.3563C100.374 22.8999 99.2775 24.4368 98.1938 25.9869C98.0821 26.1511 98.0099 26.381 98.0099 26.5846C97.9902 27.6092 98.0033 28.6338 98.0033 29.6847H97.3531V29.3432C97.3531 28.4368 97.3662 27.5304 97.3465 26.6174C97.3399 26.4072 97.2677 26.1642 97.1495 25.9934C96.0657 24.4434 94.9688 22.8999 93.8785 21.3563C93.7932 21.2644 93.734 21.1659 93.6552 21.0542ZM92.913 21.0411V21.6059H89.8982V29.6847H89.2546V21.6191H86.2529V21.0345C88.4664 21.0411 90.6798 21.0411 92.913 21.0411ZM82.4434 34.6437V35.202H79.4286V43.2808H78.8046V35.2151H75.7767V34.6371C77.9968 34.6437 80.2102 34.6437 82.4434 34.6437ZM98.0953 42.6897V43.2742H92.3744V34.6306H92.9918V42.6831C94.6996 42.6897 96.381 42.6897 98.0953 42.6897ZM86.4959 29.1067V29.6847H80.7948V21.0476H81.3991V29.1067H86.4959ZM73.4516 34.6306H74.0624V43.2808H73.4516V34.6306Z"
  />
</svg>
