<svg viewBox="0 0 146 60" xmlns="http://www.w3.org/2000/svg">
  <path
    d="M141.537 31.4486C141.046 31.4486 140.883 31.1682 140.883 30.7009C140.883 30.3271 140.836 29.9299 140.812 29.5561C141.771 29.5327 143.102 28.5981 143.289 27.5701C142.355 28.3411 141.607 28.972 140.836 29.5794C140.649 29.4392 140.462 29.2991 140.228 29.1121C141.093 28.2009 142.472 28.0374 142.612 26.8692C143.78 27.0327 144.738 27.1729 145.86 27.3598C145.673 27.757 145.533 28.0841 145.322 28.528C144.972 28.1776 144.738 27.9673 144.528 27.757C144.458 27.8271 144.364 27.8738 144.294 27.9439C144.481 28.1542 144.621 28.4346 144.855 28.5748C145.206 28.8084 145.626 28.9252 146 29.1121V29.3458C145.509 29.486 145.182 29.6963 145.252 30.3037C145.299 30.6776 145.182 31.0514 145.135 31.5187C145.299 31.6589 145.509 31.8224 145.813 32.0561C145.626 32.1963 145.463 32.3832 145.416 32.3364C143.92 31.5888 142.472 31.8692 140.999 32.4065C140.859 32.4533 140.649 32.3364 140.345 32.0794C140.742 31.8458 141.14 31.6121 141.514 31.3785C142.378 31.6355 142.565 31.0514 142.752 30.4206C142.775 30.3738 142.705 30.3037 142.659 30.1635C142.401 30.1869 142.098 30.1869 141.794 30.2103C141.7 30.7009 141.63 31.0748 141.537 31.4486ZM143.43 30.2336C143.336 30.8411 143.5 31.2383 144.131 31.3084C144.224 31.3084 144.341 31.285 144.505 31.285C144.481 30.9112 144.458 30.5841 144.411 30.2336H143.43ZM143.874 28.7617C143.523 29.0187 143.243 29.2056 142.799 29.5093H144.832C144.434 29.1822 144.201 29.0187 143.874 28.7617ZM143.617 15.1402C143.219 15.2336 142.822 15.3505 142.355 15.4673C142.752 15.5607 143.056 15.6308 143.406 15.7243C143.36 16.8224 142.425 17.0561 141.864 17.7336C142.238 17.5934 142.612 17.4533 142.845 17.3598C143.523 17.4766 144.131 17.5701 144.738 17.6635C145.159 17.7336 145.556 17.8271 145.977 17.8972V18.1308C145.626 18.4579 145.276 18.7617 144.902 19.1121C145.252 19.2991 145.509 19.4392 145.86 19.6262C145.72 19.7897 145.603 20 145.533 19.9766C144.925 19.8598 144.341 19.6963 143.874 19.5794C143.149 19.8131 142.472 20.0234 141.724 20.2804C141.56 20 141.443 19.7897 141.303 19.5561C140.976 19.5327 140.602 19.5093 140.228 19.486C140.205 19.3925 140.205 19.2757 140.182 19.1822C140.626 18.9486 141.093 18.7383 141.747 18.4112C141.14 18.3177 140.766 18.2477 140.135 18.1308C140.602 17.5467 140.953 17.1028 141.327 16.6355C141.07 16.542 140.742 16.4486 140.415 16.3318C140.368 16.2617 140.322 16.1682 140.275 16.0981C140.602 15.9579 140.906 15.8177 141.256 15.6542C140.859 15.3271 140.696 15.1635 140.322 14.8364C141.537 14.8364 142.495 14.8364 143.476 14.8598C143.523 14.8598 143.57 15.0467 143.617 15.1402C143.617 15.1402 143.593 15.1635 143.617 15.1402ZM142.261 19.1355C142.308 19.2523 142.331 19.3691 142.378 19.486C142.682 19.3925 142.986 19.3224 143.36 19.2056C142.822 18.3878 142.542 18.7617 142.261 19.1355ZM143.85 18.3878C143.85 18.4579 143.827 18.528 143.827 18.5981C143.99 18.6215 144.131 18.6448 144.294 18.6448C144.318 18.6448 144.318 18.4813 144.341 18.3878H143.85ZM141.817 16.1215C141.981 16.2617 142.051 16.4019 142.121 16.4019C142.215 16.4019 142.331 16.3084 142.448 16.2617C142.425 16.2149 142.425 16.1682 142.401 16.1215H141.817ZM144.598 37.1028C144.575 37.243 144.551 37.5234 144.528 37.5234C143.757 37.5234 143.5 38.2009 143.009 38.8084C142.822 38.3878 142.682 38.1075 142.542 37.7804C142.215 37.5467 141.42 37.9206 141.537 37.0561C141.911 37.0093 142.285 36.9392 142.635 36.8925V35.8411C142.565 35.8177 142.518 35.7944 142.448 35.771C142.144 36.2149 141.864 36.6355 141.56 37.0794C141.256 37.2196 140.953 37.3832 140.602 37.5467C140.158 37.1963 140.252 36.9159 140.649 36.542C141.233 36.0047 141.771 35.3972 142.495 34.6262C141.63 34.5327 141.046 34.486 140.275 34.4159C140.883 33.3645 141.817 34.0654 142.518 33.6916C142.659 33.4579 142.822 33.1542 143.103 32.6402C143.336 33.1075 143.476 33.3878 143.64 33.6916C144.271 34.0888 145.229 33.3878 145.977 34.3925C145.206 34.4626 144.621 34.5093 143.92 34.5794C144.364 35.6075 145.135 36.2617 146.023 36.8224V37.0561C145.766 37.3364 145.533 37.6635 145.112 37.2663C144.995 37.1495 144.762 37.1729 144.598 37.1262L143.757 35.7243C143.687 35.7477 143.64 35.7944 143.57 35.8177V36.8925C143.944 36.986 144.271 37.0561 144.598 37.1028ZM117.118 13.9252C118.193 13.9252 119.198 13.8551 120.202 13.9486C120.576 13.9953 121.02 14.3224 121.277 14.6495C124.759 19.042 128.217 23.4346 131.676 27.8271C131.839 28.0374 132.026 28.2243 132.424 28.6682V13.972H137.027V38.2009C136.139 38.2009 135.344 38.2477 134.55 38.1776C134.27 38.1542 133.919 37.8738 133.732 37.6168C131.606 34.8832 129.503 32.1495 127.376 29.4159C125.694 27.243 123.988 25.0701 122.305 22.8972C122.165 22.7103 122.025 22.5467 121.861 22.3832C121.768 22.4065 121.675 22.4533 121.581 22.4766V38.1776H117.211C116.908 37.4299 116.814 15.8411 117.118 13.9252ZM48.8147 18.0374C47.623 18.6448 46.5013 19.2056 45.3096 19.8131C43.3935 17.6168 40.9866 16.9159 38.2292 17.243C37.1076 17.3832 36.0327 17.6869 35.2382 18.6215C34.1399 19.9065 34.4203 21.6589 35.9392 22.3131C37.0609 22.7804 38.2993 23.0607 39.5145 23.271C41.5474 23.5981 43.6038 23.8551 45.5199 24.6729C47.9969 25.7243 49.4223 27.5701 49.6092 30.2804C49.8195 33.0374 49.0484 35.4206 46.6182 36.9392C45.5199 37.6168 44.2581 38.2009 42.9962 38.4346C39.1873 39.1121 35.3784 39.1589 31.9668 36.8692C30.4245 35.8411 29.3029 34.2056 29.0926 32.757C30.2609 32.1495 31.4527 31.5187 32.5509 30.9346C33.2753 31.729 33.7894 32.5467 34.5138 33.0841C37.2478 35.0935 40.2388 35.0935 43.2533 33.8551C44.445 33.3645 45.0759 32.3364 45.0058 30.9579C44.9357 29.6963 44.2347 28.9019 43.1598 28.528C41.9213 28.0841 40.6127 27.8738 39.3275 27.5701C37.7385 27.2196 36.1028 27.0327 34.5606 26.5187C30.3778 25.1635 28.6486 20.5607 30.9152 16.8691C31.92 15.2336 33.4856 14.2991 35.2849 13.7617C38.7667 12.7103 42.2017 12.8505 45.4965 14.4392C47.1089 15.1869 48.324 16.5888 48.8147 18.0374ZM51.759 32.8037C53.0209 32.1495 54.2126 31.5187 55.381 30.9112C56.0353 31.6589 56.526 32.4533 57.2036 32.9673C59.8909 35 62.8819 35.0701 65.9431 33.9252C67.2283 33.4579 67.8826 32.3832 67.8592 30.9813C67.8358 29.6495 67.0413 28.785 65.8496 28.4112C64.6812 28.0374 63.4661 27.7336 62.2276 27.5467C60.3115 27.2663 58.3954 26.9392 56.5961 26.1448C54.2827 25.1168 53.0209 23.3645 52.8339 20.8411C52.647 18.2477 53.5583 16.1916 55.8016 14.7897C58.2552 13.2477 60.9658 12.8972 63.7699 13.1542C65.5926 13.3177 67.3685 13.7149 68.9341 14.7663C70.0791 15.5374 71.0605 16.4486 71.6214 17.9673C70.453 18.5748 69.2846 19.1822 68.0929 19.8131C66.1066 17.4766 63.6063 16.8691 60.849 17.2663C60.0077 17.3832 59.1198 17.757 58.4187 18.2477C56.8999 19.3458 57.0401 21.4486 58.7225 22.243C59.7974 22.757 61.0125 22.9439 62.1809 23.2009C64.097 23.6448 66.1066 23.8551 67.976 24.486C70.71 25.4206 72.299 27.4065 72.4626 30.3972C72.6262 33.6449 71.4111 36.1916 68.3967 37.5C64.097 39.3458 59.6806 39.3458 55.4511 37.1963C53.6284 36.3551 52.46 34.7897 51.759 32.8037ZM4.69691 18.4346V24.9766H16.6611V29.2757H4.65018V38.1308H0.093517V14.0187H17.3387V18.4346H4.69691ZM75.9677 38.1542V14.0187C76.2715 13.9953 76.4818 13.9486 76.7155 13.9486H80.4309V38.1776C78.9354 38.1542 77.5333 38.1542 75.9677 38.1542ZM20.8438 13.972H25.3538V38.1542H20.8906C20.7971 30.1168 20.8672 22.1028 20.8438 13.972ZM55.8951 49.743H54.2593C54.0257 49.3224 53.792 48.8785 53.5349 48.4112H49.5625C49.1419 49.3458 48.6979 50.2336 47.2491 49.6729C48.3941 47.1028 49.5391 44.5561 50.6841 41.986H52.4367C53.5583 44.5327 54.7033 47.0561 55.8951 49.743ZM52.9274 46.8458C52.4367 45.7477 52.0161 44.8364 51.5253 43.6916C51.0113 44.8598 50.614 45.7944 50.1467 46.8458H52.9274ZM11.3099 49.743H9.69755C10.8893 47.0794 12.0109 44.5327 13.1559 41.986H14.9085C16.0535 44.5093 17.1751 47.0561 18.3903 49.7196H16.7545C16.5442 49.3224 16.2872 48.8785 16.0068 48.3411C14.8851 48.3411 13.7168 48.3177 12.5718 48.3645C12.2913 48.3878 12.0109 48.6682 11.7773 48.9019C11.5903 49.1355 11.4735 49.4392 11.3099 49.743ZM14.0439 43.6682C13.5298 44.8364 13.1326 45.771 12.6886 46.8458H15.4459C14.9786 45.7944 14.558 44.8598 14.0439 43.6682ZM21.7785 41.9392C23.2273 41.9392 24.5826 41.8925 25.9379 41.9626C27.3166 42.0327 28.2981 43.0841 28.3915 44.4626C28.5084 45.8878 27.6671 47.1028 26.2885 47.4065C25.7977 47.5234 25.2837 47.5234 24.7929 47.5234C24.3256 47.5467 23.8816 47.5234 23.3442 47.5234C23.2974 48.3178 23.2741 48.9953 23.2273 49.7196H21.7785V41.9392ZM23.3675 46.028C24.2555 46.028 25.05 46.0981 25.8445 46.0047C26.5221 45.9346 26.896 45.3271 26.8493 44.6495C26.8025 44.0187 26.4988 43.4813 25.8211 43.4346C25.0266 43.3645 24.2321 43.4112 23.3675 43.4112V46.028ZM6.30927 47.8505C6.61304 48.1776 6.89345 48.4813 7.1505 48.785C5.56151 50.3972 2.5471 50.3972 1.07495 48.8551C-0.49067 47.2196 -0.373833 44.229 1.30863 42.7336C2.92098 41.3084 5.63161 41.4252 7.01029 43.0374C6.75325 43.2944 6.49621 43.5748 6.19243 43.9019C5.2811 43.3878 4.32303 42.9673 3.31823 43.3878C2.85088 43.5748 2.36016 43.9252 2.03302 44.3224C1.28526 45.257 1.37873 46.8458 2.10312 47.6869C2.99108 48.7149 4.3464 48.785 6.30927 47.8505ZM41.8278 49.743H40.3089V43.3645C39.421 43.3177 38.6966 43.2944 37.8787 43.2477C37.832 42.8505 37.8086 42.4766 37.7619 42.0093H44.2581V43.2477C43.4869 43.2944 42.7392 43.3177 41.8512 43.3645C41.8278 45.514 41.8278 47.5935 41.8278 49.743ZM65.0084 48.3411V49.7196H59.5871V42.0093H60.9892V48.3411H65.0084ZM142.121 23.6682C142.051 23.1776 142.004 22.6635 141.934 22.1028C141.42 22.0561 140.883 21.986 140.135 21.9159C140.976 20.8411 142.448 22.0327 142.869 20.7009C143.406 20.9346 143.85 21.2149 144.318 21.3318C144.785 21.4486 145.322 21.4252 145.813 21.4486C145.813 21.5888 145.813 21.7056 145.836 21.8458C145.322 21.9159 144.785 22.0093 144.131 22.1028V23.5514L144.084 23.5981C144.084 23.5748 144.107 23.5514 144.107 23.528C144.388 23.6215 144.668 23.7383 145.112 23.9019C144.785 24.4159 144.528 24.8598 144.177 25.4206C144.691 25.5607 145.206 25.6776 145.977 25.8645C145.626 26.1215 145.463 26.3084 145.252 26.3551C144.995 26.4019 144.715 26.3318 144.458 26.2617C143.523 25.9346 142.588 25.8878 141.63 26.285C141.233 26.4486 140.672 26.7056 140.205 25.9346L142.168 25.4439C141.677 24.9065 141.303 24.486 140.742 23.8551C141.303 23.7383 141.724 23.6916 142.121 23.6682H143.476C143.406 23.0374 143.36 22.5467 143.289 22.0561C143.173 22.0561 143.079 22.0327 142.962 22.0327C142.892 22.243 142.729 22.4766 142.729 22.6869C142.775 23.1776 142.565 23.4813 142.121 23.6682ZM142.331 24.2991C143.126 25.1168 143.126 25.1168 143.733 24.2991H142.331ZM32.2238 41.986H33.6259V49.7196H32.2238V41.986ZM114.174 21.6121C114.127 22.5701 113.309 23.3177 112.304 23.2944C111.323 23.271 110.645 22.4766 110.645 21.4252C110.645 20.4673 111.393 19.743 112.351 19.743C113.379 19.7663 114.197 20.6075 114.174 21.6121ZM83.8192 30.4906C82.8144 30.4906 82.1134 29.7196 82.1134 28.6682C82.1134 27.6869 82.8378 26.986 83.8192 26.986C84.8474 26.986 85.5718 27.7103 85.5951 28.7383C85.6185 29.743 84.8474 30.4906 83.8192 30.4906ZM88.4226 35.3972C89.4274 35.4206 90.1985 36.2149 90.1518 37.1963C90.105 38.1308 89.3339 38.8785 88.3992 38.8785C87.371 38.8785 86.6233 38.1075 86.6233 37.1262C86.6467 36.0748 87.3944 35.3738 88.4226 35.3972ZM102.069 13.8551C101.064 13.8785 100.317 13.1075 100.317 12.0794C100.317 11.0748 101.088 10.2804 102.069 10.2804C103.004 10.2804 103.728 11.028 103.775 12.0093C103.798 13.0374 103.074 13.8551 102.069 13.8551ZM94.3112 12.8972C94.3112 13.8551 93.4933 14.6495 92.5119 14.6495C91.5538 14.6495 90.8294 13.9252 90.8061 12.9673C90.7827 11.9392 91.5071 11.1682 92.5119 11.1448C93.47 11.1215 94.3112 11.9392 94.3112 12.8972ZM114.033 31.0981C114.057 32.1028 113.332 32.8037 112.257 32.8271C111.323 32.8505 110.575 32.1262 110.552 31.1449C110.528 30.1168 111.276 29.3458 112.257 29.3458C113.309 29.3224 114.033 30.0467 114.033 31.0981ZM97.162 13.4579C96.1806 13.4346 95.4562 12.6402 95.4796 11.6121C95.5029 10.6776 96.2741 9.95326 97.2321 9.97662C98.2369 9.99999 98.9847 10.7477 98.9847 11.729C98.9847 12.6869 98.1435 13.5047 97.162 13.4579ZM103.705 40.4673C103.728 41.472 102.957 42.2663 101.952 42.2663C100.971 42.2663 100.176 41.472 100.176 40.4673C100.176 39.5561 100.971 38.7617 101.882 38.7383C102.91 38.7149 103.682 39.4392 103.705 40.4673ZM85.6185 23.9252C85.6185 24.8598 84.8707 25.6308 83.936 25.6542C82.9312 25.6776 82.1601 24.9065 82.1367 23.9252C82.1134 22.9206 82.8845 22.1262 83.8659 22.1495C84.9175 22.1495 85.6185 22.8972 85.6185 23.9252ZM106.345 36.8224C107.42 36.8458 108.168 37.6168 108.121 38.6916C108.075 39.6262 107.327 40.3037 106.345 40.2804C105.294 40.257 104.593 39.5093 104.64 38.4813C104.663 37.5234 105.411 36.7991 106.345 36.8224ZM111.813 17.2897C111.813 18.2009 111.042 18.972 110.108 18.9953C109.103 19.0187 108.378 18.2944 108.332 17.243C108.308 16.2383 109.079 15.4439 110.084 15.4673C111.066 15.514 111.813 16.285 111.813 17.2897ZM109.897 37.0794C108.916 37.0327 108.168 36.2383 108.215 35.2336C108.238 34.2523 109.079 33.528 110.084 33.5748C111.042 33.6215 111.767 34.4626 111.697 35.4906C111.65 36.3785 110.832 37.1028 109.897 37.0794ZM85.4082 31.5654C86.3429 31.542 87.1374 32.2897 87.1607 33.2243C87.2075 34.2523 86.4831 35.0234 85.4783 35.0467C84.4501 35.0701 83.679 34.3692 83.679 33.3411C83.6556 32.3364 84.38 31.5888 85.4082 31.5654ZM114.898 26.285C114.921 27.2897 114.15 28.0607 113.169 28.0841C112.211 28.0841 111.463 27.3832 111.416 26.4486C111.369 25.4673 112.117 24.6495 113.099 24.6262C114.103 24.5561 114.875 25.257 114.898 26.285ZM87.2308 19.1822C87.2542 20.3037 86.5532 21.0748 85.4783 21.0748C84.4968 21.0748 83.7958 20.3972 83.7491 19.4159C83.7024 18.3878 84.4034 17.6635 85.4549 17.6402C86.5065 17.6168 87.2075 18.2243 87.2308 19.1822ZM88.446 13.8084C89.5209 13.785 90.2219 14.486 90.2219 15.514C90.1985 16.4953 89.5209 17.2196 88.5628 17.243C87.5346 17.2663 86.7635 16.5654 86.7168 15.5607C86.7168 14.5561 87.4178 13.8318 88.446 13.8084ZM104.78 13.9486C104.78 12.9439 105.434 12.243 106.416 12.2196C107.467 12.1963 108.168 12.8738 108.191 13.9486C108.215 14.9766 107.49 15.7243 106.462 15.7243C105.457 15.7477 104.78 15.0234 104.78 13.9486ZM92.839 17.6168C92.8157 18.3411 92.2315 18.8551 91.5305 18.8084C90.8762 18.7617 90.3855 18.2243 90.3855 17.5701C90.3855 16.8691 90.9463 16.3084 91.6473 16.3084C92.325 16.3318 92.8624 16.8925 92.839 17.6168ZM90.736 33.1542C90.7593 33.8084 90.1518 34.4392 89.5209 34.4392C88.8432 34.4392 88.2824 33.8785 88.2824 33.1776C88.2824 32.5234 88.7731 32.0093 89.4508 31.9626C90.1284 31.9159 90.736 32.4533 90.736 33.1542ZM87.2075 25.4906C87.8618 25.4906 88.3992 25.9813 88.4226 26.6355C88.446 27.3598 87.9552 27.9439 87.2542 27.9673C86.5532 27.9906 86.0157 27.4766 85.969 26.7523C85.9456 26.028 86.4831 25.4906 87.2075 25.4906ZM94.7084 14.6963C95.4328 14.7196 95.9235 15.257 95.8768 15.9813C95.8534 16.6589 95.2693 17.1729 94.5682 17.1495C93.8906 17.1028 93.3999 16.5187 93.47 15.7944C93.5167 15.1168 94.0074 14.6729 94.7084 14.6963ZM87.6748 22.0093C88.3759 22.0093 88.9367 22.5701 88.9133 23.271C88.8899 23.9486 88.3291 24.486 87.6281 24.486C86.9271 24.486 86.4363 23.9252 86.4597 23.1542C86.4831 22.5 86.9972 22.0093 87.6748 22.0093ZM108.916 23.8084C108.191 23.785 107.677 23.2477 107.701 22.5467C107.724 21.8224 108.238 21.3785 109.033 21.4252C109.757 21.4486 110.201 21.986 110.178 22.7336C110.108 23.4346 109.664 23.8318 108.916 23.8084ZM88.002 20.0934C88.002 19.3224 88.4927 18.8318 89.2404 18.8551C89.8947 18.8785 90.4088 19.3925 90.4322 20.0467C90.4556 20.7243 89.8947 21.3551 89.2404 21.3785C88.5394 21.4019 88.002 20.8177 88.002 20.0934ZM95.1758 38.2477C94.428 38.2477 94.0074 37.7804 94.0308 36.9626C94.0541 36.2149 94.4514 35.8411 95.1992 35.8411C95.9235 35.8411 96.4376 36.3318 96.4376 37.0561C96.461 37.7804 95.9469 38.271 95.1758 38.2477ZM106.369 35.1635C106.369 35.8878 105.878 36.4019 105.154 36.4019C104.453 36.4019 103.939 35.8645 103.939 35.1402C103.939 34.4626 104.523 33.9252 105.224 33.9486C105.878 33.9486 106.369 34.4626 106.369 35.1635ZM110.295 29.4626C110.295 30.1635 109.78 30.7243 109.079 30.7477C108.425 30.771 107.841 30.1635 107.841 29.486C107.841 28.8551 108.355 28.3177 109.009 28.2944C109.757 28.271 110.295 28.7617 110.295 29.4626ZM86.6233 30.1869C86.5999 29.4392 87.0906 28.9252 87.815 28.9019C88.5161 28.8785 89.0535 29.3925 89.0535 30.1168C89.0535 30.7477 88.5394 31.3318 87.9085 31.3551C87.2309 31.4252 86.6467 30.8645 86.6233 30.1869ZM98.7043 38.6916C98.0033 38.7149 97.4424 38.1776 97.4191 37.5C97.3957 36.7991 97.9332 36.285 98.6575 36.285C99.3586 36.285 99.8259 36.729 99.8493 37.4065C99.9194 38.1308 99.4287 38.6916 98.7043 38.6916ZM107.35 18.3177C108.051 18.3645 108.589 18.972 108.519 19.6495C108.449 20.3037 107.888 20.7944 107.257 20.771C106.579 20.7477 105.995 20.1402 106.042 19.486C106.042 18.7617 106.649 18.2477 107.35 18.3177ZM108.799 32.6869C108.799 33.3878 108.238 33.9019 107.514 33.8551C106.883 33.8318 106.369 33.2944 106.345 32.6402C106.322 31.9159 106.86 31.3785 107.561 31.4019C108.285 31.4486 108.799 31.986 108.799 32.6869ZM92.0913 34.3458C92.7923 34.3692 93.283 34.9065 93.283 35.6308C93.2597 36.2617 92.6287 36.8458 91.9744 36.8224C91.3669 36.7757 90.8528 36.2149 90.8528 35.5841C90.8528 34.8598 91.3669 34.3458 92.0913 34.3458ZM110.762 26.1215C110.739 26.8692 110.201 27.3598 109.5 27.2897C108.869 27.243 108.355 26.6822 108.355 26.0748C108.355 25.3738 108.916 24.8364 109.594 24.8364C110.318 24.8364 110.785 25.3505 110.762 26.1215ZM102.139 38.014C101.438 38.0374 100.924 37.5935 100.877 36.9159C100.831 36.2149 101.368 35.6075 102.046 35.5841C102.747 35.5607 103.284 36.0981 103.284 36.8224C103.308 37.5234 102.864 37.9906 102.139 38.014ZM99.0314 18.2009C99.0548 18.785 98.6575 19.2523 98.0734 19.2991C97.5125 19.3458 97.0452 18.9486 96.9985 18.3411C96.9517 17.7804 97.3723 17.2897 97.9332 17.243C98.5173 17.2196 98.9847 17.6168 99.0314 18.2009ZM101.251 34.1121C101.275 34.7196 100.877 35.1635 100.27 35.1635C99.6623 35.1635 99.3352 34.8364 99.2651 34.2523C99.195 33.6682 99.6156 33.1776 100.2 33.1308C100.807 33.1075 101.228 33.4813 101.251 34.1121ZM105.13 20.7009C105.13 21.2617 104.663 21.7056 104.079 21.6822C103.495 21.6589 103.051 21.1682 103.074 20.6308C103.097 20.0934 103.611 19.6028 104.149 19.6262C104.686 19.6262 105.13 20.1168 105.13 20.7009ZM96.9517 33.3177C97.5125 33.3177 97.9799 33.8084 97.9799 34.3692C97.9799 34.9065 97.4658 35.3972 96.9517 35.3972C96.3909 35.3972 95.9469 34.9299 95.9469 34.3458C95.9235 33.7383 96.3675 33.2944 96.9517 33.3177ZM101.298 17.757C101.812 17.7336 102.326 18.2243 102.326 18.785C102.35 19.3458 101.906 19.8131 101.345 19.8364C100.761 19.8598 100.317 19.4159 100.293 18.8551C100.293 18.2944 100.761 17.7804 101.298 17.757ZM95.7833 19.229C95.7132 19.7663 95.4328 20.1168 94.8253 20.1168C94.2177 20.1402 93.7737 19.6963 93.7737 19.1121C93.7737 18.5047 94.1944 18.0841 94.8019 18.1075C95.3394 18.1308 95.7833 18.5981 95.7833 19.229ZM92.4885 30.7243C92.4885 31.285 91.9978 31.7523 91.437 31.729C90.8762 31.7056 90.4088 31.2149 90.4556 30.6542C90.5023 30.0701 90.8528 29.743 91.4604 29.7196C92.0445 29.6963 92.4885 30.1402 92.4885 30.7243ZM92.2081 20.2103C92.8157 20.2336 93.1896 20.6776 93.1428 21.285C93.0961 21.8458 92.6054 22.3131 92.0679 22.2663C91.5305 22.2196 91.0631 21.7056 91.1098 21.1682C91.1566 20.6075 91.6473 20.1869 92.2081 20.2103ZM90.3154 26.5187C90.9229 26.5187 91.3669 26.9626 91.3435 27.5467C91.3202 28.1308 90.8528 28.5748 90.2686 28.528C89.6844 28.4813 89.3339 28.1542 89.3106 27.5701C89.2872 27.0093 89.7545 26.5187 90.3154 26.5187ZM94.8486 33.014C94.872 33.6215 94.4748 34.0654 93.8906 34.0888C93.283 34.1121 92.7923 33.7149 92.8157 33.1308C92.839 32.5701 93.0727 32.1495 93.7036 32.1028C94.2878 32.0561 94.8019 32.4533 94.8486 33.014ZM105.855 22.5234C106.416 22.5 106.93 22.9673 106.906 23.528C106.883 24.1121 106.579 24.4626 105.972 24.5327C105.364 24.6028 104.873 24.1822 104.85 23.6215C104.85 23.0374 105.294 22.5467 105.855 22.5234ZM90.5257 23.2243C91.1799 23.2009 91.5538 23.5748 91.5538 24.1822C91.5538 24.8131 91.1566 25.1869 90.549 25.1635C89.9882 25.1635 89.5442 24.7196 89.5676 24.1355C89.6143 23.5748 89.9181 23.2243 90.5257 23.2243ZM103.238 31.6589C103.868 31.6355 104.266 32.0093 104.266 32.6402C104.266 33.2243 104.009 33.5981 103.378 33.6449C102.77 33.6916 102.303 33.3177 102.28 32.7336C102.233 32.1495 102.653 31.6822 103.238 31.6589Z"
  />
  <path
    d="M143.803 17.1495C144.223 16.9392 144.504 16.799 144.807 16.6588C144.878 15.9813 144.948 15.2803 145.041 14.4392C145.602 15.0701 145.812 16.7757 145.438 17.1495C145.018 17.5934 144.48 17.5934 143.803 17.1495ZM140.532 23.5981C140.345 22.8037 140.836 22.5233 141.466 22.313C141.723 23.2243 140.952 23.271 140.532 23.5981ZM144.504 22.4532C145.368 22.2663 145.532 22.8738 145.999 23.4112C144.994 23.4345 144.994 23.4345 144.504 22.4532ZM141.396 28.1542C140.976 27.8037 140.719 27.57 140.392 27.313C141.303 26.9158 141.49 27.0794 141.396 28.1542Z"
  />
  <path
    d="M143.593 15.1636C143.804 15.0935 144.014 15.0234 144.294 14.9066V16.4486C144.201 16.472 144.107 16.4953 144.014 16.4953C143.874 16.0281 143.733 15.5841 143.617 15.1168C143.617 15.1402 143.593 15.1636 143.593 15.1636Z"
  />
</svg>
