<svg viewBox="0 0 82 60" xmlns="http://www.w3.org/2000/svg">
  <path
    d="M19.956 10C20.9231 10.5802 21.8901 11.178 22.8659 11.7494C25.0198 13.0066 27.1648 14.2637 29.3275 15.5121C29.6703 15.7143 29.811 15.9429 29.811 16.3472C29.7934 19.7319 29.811 23.1165 29.7934 26.5011C29.7934 26.8088 29.8901 26.967 30.1538 27.1165C33.0901 28.8132 36.0176 30.5362 38.9626 32.233C39.2879 32.4176 39.3934 32.6373 39.3934 33.0066C39.3846 36.567 39.3758 40.1275 39.3934 43.6879C39.3934 44.1362 39.2176 44.3648 38.8571 44.5758C35.7451 46.3516 32.6418 48.145 29.5385 49.9296C29.5033 49.9472 29.4769 49.9824 29.4506 50.0176H29.0989C29.0901 49.9912 29.0813 49.956 29.0637 49.9472C26.0044 48.1626 22.9538 46.378 19.8857 44.611C19.7714 44.5494 19.5516 44.5758 19.4286 44.6461C16.4484 46.3516 13.4681 48.0659 10.4879 49.7802C10.2066 49.9472 9.97802 49.956 9.68791 49.789C8.56264 49.1208 7.41978 48.4703 6.29451 47.811C4.19341 46.5626 2.1011 45.3406 0 44.1099V32.4176C0.167033 32.2945 0.316484 32.1626 0.492308 32.0571C3.41099 30.3692 6.32088 28.6901 9.24835 27.0198C9.51209 26.8703 9.6 26.7033 9.6 26.4132C9.59121 23.0286 9.6 19.6439 9.58242 16.2593C9.58242 15.8549 9.72308 15.6264 10.0659 15.433C12.3077 14.1582 14.5407 12.8747 16.7736 11.5824C17.6615 11.0549 18.5407 10.5275 19.4286 10H19.956ZM28.2637 16.1275C25.4154 14.4747 22.6462 12.8571 19.8769 11.2571C19.7714 11.1956 19.5429 11.2308 19.4198 11.2923C16.7473 12.8132 14.0835 14.3516 11.4198 15.8813C11.3319 15.9341 11.2527 16.0044 11.1385 16.0835C13.9516 17.7187 16.7121 19.3187 19.4813 20.9099C19.6044 20.9802 19.8418 20.9538 19.9736 20.8835C21.8637 19.811 23.7538 18.7121 25.644 17.6308C26.4967 17.1472 27.3495 16.6549 28.2637 16.1275ZM1.5033 32.6989C4.34286 34.3604 7.12088 35.978 9.8989 37.5868C10.0044 37.6483 10.233 37.6132 10.356 37.534C12.2725 36.4439 14.189 35.345 16.1055 34.2461C16.9319 33.7714 17.7582 33.2879 18.6286 32.7868C18.5055 32.6989 18.444 32.6461 18.3736 32.611C15.7011 31.0549 13.0198 29.4989 10.356 27.9341C10.1363 27.8022 9.98681 27.8286 9.77582 27.9428C8.31648 28.7956 6.84835 29.6395 5.38901 30.4747L1.5033 32.6989ZM37.8637 32.8308C35.033 31.178 32.2725 29.5692 29.5121 27.978C29.3978 27.9165 29.178 27.9253 29.0549 27.9956C26.7604 29.2967 24.4659 30.6154 22.1714 31.934C21.6967 32.2066 21.2396 32.4879 20.7297 32.7868C23.5341 34.422 26.2681 36.0044 29.0022 37.6044C29.2132 37.7275 29.3714 37.7187 29.5824 37.6044C31.4901 36.4967 33.4066 35.3978 35.3231 34.2989C36.1582 33.8154 36.9846 33.3406 37.8637 32.8308ZM0.993407 33.6044V43.4593C3.84176 45.1121 6.69011 46.7648 9.58242 48.4527C9.58242 45.1736 9.58242 42 9.57363 38.8176C9.57363 38.6857 9.43297 38.5099 9.30989 38.4395C7.41099 37.3143 5.49451 36.2066 3.58681 35.0989C2.73407 34.6154 1.88132 34.1231 0.993407 33.6044ZM20.2198 31.811C20.3077 31.8022 20.3429 31.8022 20.3604 31.7934C23.0681 30.2373 25.7758 28.6725 28.4923 27.1253C28.7297 26.9934 28.756 26.8176 28.7473 26.589V17.4461C28.7473 17.3407 28.7297 17.2264 28.7209 17.0857C28.6242 17.1297 28.5714 17.156 28.5275 17.1824C25.8462 18.7209 23.156 20.2593 20.4747 21.8154C20.3429 21.8945 20.2286 22.1319 20.2286 22.2989C20.211 23.8198 20.2198 25.3494 20.2198 26.8703V31.811ZM10.6549 17.0066C10.6374 17.1209 10.6198 17.1736 10.6198 17.2264C10.6198 20.3648 10.611 23.4945 10.6286 26.633C10.6286 26.7736 10.7692 26.9758 10.9011 27.0549C12.589 28.0571 14.2857 29.0417 15.9824 30.0264C17.0198 30.633 18.0571 31.2308 19.1648 31.8637V31.3275C19.1648 28.3648 19.156 25.411 19.1736 22.4483C19.1736 22.0791 19.0593 21.8681 18.7429 21.6923C16.7033 20.5231 14.6637 19.3363 12.633 18.1494C11.9824 17.7802 11.3407 17.4022 10.6549 17.0066ZM28.7473 48.4967C28.7473 45.2263 28.7473 42.0527 28.7385 38.8791C28.7385 38.7384 28.5714 38.5538 28.4396 38.4747C26.4791 37.3143 24.5011 36.1714 22.5319 35.0286C21.7846 34.5978 21.0374 34.1582 20.2549 33.7011C20.2374 33.8154 20.2286 33.8681 20.2286 33.9209C20.2286 37.0417 20.2286 40.1538 20.2198 43.2747C20.2198 43.5472 20.3692 43.6264 20.5451 43.7231C22.2945 44.7428 24.044 45.7538 25.7934 46.7736C26.7516 47.3362 27.7187 47.8989 28.7473 48.4967ZM19.1648 33.7011C19.0593 33.7538 19.0066 33.7714 18.9626 33.7978C16.2549 35.3538 13.5473 36.9011 10.8484 38.4747C10.7253 38.545 10.6286 38.7736 10.6286 38.9318C10.6198 41.9912 10.6198 45.0505 10.6198 48.1099C10.6198 48.1978 10.6286 48.2769 10.6374 48.4088C10.8308 48.3033 10.9978 48.2241 11.156 48.1362C13.7055 46.6681 16.2549 45.2 18.8132 43.7406C19.0945 43.5824 19.1736 43.4066 19.1736 43.0901C19.1648 40.1187 19.1648 37.1472 19.1648 34.1758V33.7011ZM29.8022 48.5055C30.022 48.3824 30.1802 48.3033 30.3297 48.2241C32.8791 46.756 35.4286 45.2879 37.978 43.8285C38.2593 43.6703 38.356 43.5033 38.356 43.1868C38.3473 40.2154 38.3473 37.2439 38.3473 34.2725V33.789C38.2242 33.8417 38.1626 33.8681 38.1011 33.9033C35.4022 35.4505 32.7121 36.9978 30.022 38.5538C29.8989 38.6242 29.811 38.8527 29.811 39.0022C29.7934 40.6813 29.8022 42.3692 29.8022 44.0483V48.5055ZM82.1099 24.3297C81.6088 25.578 81.1077 26.8264 80.6242 28.0835C79.6835 30.5187 78.7429 32.9626 77.811 35.4066C77.7143 35.6615 77.6088 35.7846 77.3099 35.767C76.8703 35.7406 76.4308 35.7758 75.9912 35.7494C75.8681 35.7406 75.6659 35.6439 75.6308 35.5472C74.1802 31.811 72.7473 28.0659 71.3143 24.3297C71.3143 24.3209 71.3231 24.3033 71.3407 24.2242C71.9297 24.2242 72.5363 24.2154 73.1429 24.2417C73.2308 24.2417 73.3451 24.4264 73.389 24.5406C74.4088 27.2308 75.4198 29.9209 76.4396 32.611C76.5099 32.7956 76.589 32.9802 76.6945 33.2439C77.222 31.8549 77.7319 30.5362 78.233 29.2176C78.822 27.6703 79.411 26.1231 79.9824 24.567C80.0791 24.2945 80.211 24.2066 80.4923 24.2242C81.0286 24.2505 81.5736 24.2505 82.1187 24.2593C82.1099 24.2681 82.1099 24.3033 82.1099 24.3297ZM68.9055 29.789C69.7934 30.2286 70.0659 31.1077 70.1275 32.0659C70.189 32.9802 70.189 33.9121 69.644 34.7297C69.1516 35.4681 68.378 35.7318 67.5604 35.7406C65.4066 35.7758 63.2527 35.7494 61.1077 35.7494C61.0637 35.7494 61.0286 35.7231 60.9582 35.7055V24.2505C61.0549 24.233 61.1341 24.2154 61.222 24.2154C63.2528 24.2242 65.2923 24.2066 67.3231 24.2505C68.9143 24.2857 69.6967 25.2879 69.7846 26.7121C69.8198 27.2571 69.811 27.8373 69.6615 28.3648C69.5297 28.8483 69.1868 29.2791 68.9055 29.789ZM62.7868 33.9121C64.3604 33.9121 65.8989 33.9297 67.4286 33.9033C67.8505 33.8945 68.1934 33.6659 68.2374 33.1912C68.2813 32.6813 68.3253 32.1714 68.2725 31.6703C68.2022 31.0373 67.9121 30.8351 67.2703 30.8351H62.7956C62.7868 31.8725 62.7868 32.8659 62.7868 33.9121ZM62.7868 28.9802C64.2813 28.9802 65.7582 28.9978 67.2264 28.9714C67.6659 28.9626 67.9297 28.6022 67.9473 28.1187C67.9648 27.7231 67.9648 27.3275 67.9473 26.9319C67.9297 26.4308 67.6747 26.1055 67.1912 26.0879C65.7495 26.0527 64.2989 26.0527 62.8484 26.0439C62.8308 26.0439 62.8044 26.0791 62.7868 26.0967V28.9802ZM58.2857 27.4945H56.4484V26.1055H50.5846V33.8417H56.4132V31.3978H53.4066V29.5428H58.2681C58.2769 29.6659 58.2857 29.8066 58.2857 29.9472V34.0351C58.2857 34.9582 57.5736 35.7318 56.6506 35.7406C54.5582 35.7582 52.4571 35.7582 50.3648 35.7406C49.4593 35.7318 48.7121 34.9406 48.7033 34.0351C48.6945 31.3275 48.6945 28.611 48.7033 25.9033C48.7033 25.0154 49.389 24.2417 50.2769 24.233C52.4396 24.1978 54.611 24.2066 56.7736 24.2417C57.6176 24.2505 58.2769 25.0242 58.2769 25.8769C58.2857 26.4044 58.2857 26.9319 58.2857 27.4945Z"
  />
</svg>
