<svg viewBox="0 0 76 60" xmlns="http://www.w3.org/2000/svg">
  <path
    d="M26.478 10.0107C29.0563 10.0107 31.5811 9.99998 34.1165 10.0107C36.7376 10.0321 39.3587 10.0107 41.969 10.1498C44.7933 10.2996 47.5642 10.7811 49.9499 12.4612C51.4476 13.5099 52.6565 14.8154 53.0845 16.6773C53.951 20.3906 52.4426 23.4296 49.3936 25.2488C47.8209 26.1904 46.0771 26.6399 44.2905 26.9288C44.2263 26.9395 44.1622 26.9502 44.0124 26.9823C44.4403 27.3247 44.8147 27.5816 45.1464 27.8919C47.2111 29.7217 48.848 31.9261 50.5169 34.0984C52.3356 36.4633 54.2612 38.7212 56.5186 40.6795C57.9093 41.8887 59.4927 42.6056 61.3863 42.52C61.5039 42.5093 61.6216 42.5414 61.75 42.5521C61.7607 42.6056 61.7821 42.6591 61.7928 42.7126C60.8406 43.0444 59.9099 43.4617 58.9364 43.7078C54.9031 44.7137 51.5439 43.6757 48.9015 40.0695C47.0614 37.5548 45.339 34.9652 43.4882 32.4612C42.4611 31.0808 41.295 29.7967 40.1182 28.5339C39.7545 28.1487 39.1768 27.8812 38.6526 27.7635C37.9358 27.6137 37.1762 27.6672 36.4167 27.6244C36.3953 27.7742 36.3632 27.8491 36.3632 27.9347C36.3846 31.2734 36.3953 34.6014 36.4274 37.94C36.438 38.6356 36.4915 39.3312 36.5985 40.016C36.8125 41.5034 37.5079 42.1776 39.0056 42.3167C39.8722 42.4023 40.7494 42.4023 41.616 42.4451C41.7872 42.4558 41.969 42.4451 42.1295 42.4451C42.3114 43.6222 42.3114 43.6222 41.1667 43.6222H26.2106V42.4879C27.0985 42.4344 27.9544 42.413 28.7888 42.3274C30.4899 42.1348 31.3136 41.2787 31.335 39.5559C31.3992 34.687 31.4313 29.8288 31.4634 24.9598C31.4741 21.8566 31.4634 18.7533 31.4313 15.6501C31.4206 14.9438 31.3243 14.2268 31.2173 13.5313C31.0569 12.4826 30.4898 11.7549 29.4093 11.5409C28.6605 11.3911 27.9009 11.2734 27.152 11.2199C26.371 11.1664 26.3603 11.1985 26.4031 10.4066C26.4352 10.2889 26.4566 10.1819 26.478 10.0107ZM36.4274 26.4045C37.1013 26.4045 37.7646 26.4152 38.4065 26.4045C40.1182 26.3617 41.8192 26.3082 43.4882 25.848C45.339 25.3344 46.6762 24.2429 47.3502 22.413C48.1098 20.3263 48.0884 18.1969 47.5214 16.0781C46.9651 14.0342 45.8097 12.4933 43.67 11.9903C42.3435 11.68 40.9848 11.5088 39.6261 11.3911C38.5777 11.2948 37.5079 11.3697 36.438 11.3697C36.4274 16.4633 36.4274 21.4392 36.4274 26.4045ZM10.0242 10.0214H25.4403V11.1022C25.1407 11.1343 24.8091 11.1664 24.4882 11.1985C23.8142 11.2413 23.1402 11.252 22.4662 11.3269C21.1182 11.4767 20.4549 12.1616 20.3694 13.5099C20.2838 14.7726 20.2089 16.0353 20.1982 17.298C20.1661 23.8362 20.1768 30.3852 20.1233 36.9235C20.1126 38.7105 20.1447 40.5297 19.6419 42.2739C18.7539 45.3558 16.7962 47.5709 13.8755 48.855C10.2596 50.4387 6.63286 50.4066 3.08106 48.6516C1.48703 47.8598 0.417207 46.6185 0.0641661 44.8207C-0.331667 42.734 1.40144 41.0326 3.34851 41.6105C4.85696 42.0599 5.47746 43.6008 4.82487 45.2488C4.41833 46.2867 4.57881 47.0358 5.42396 47.7635C5.63793 47.9454 5.89469 48.0845 6.16214 48.1808C10.5484 49.7859 13.5653 46.9395 14.5281 43.9539C14.9026 42.809 15.0309 41.5462 15.063 40.3263C15.1593 36.5275 15.1807 32.7394 15.2021 28.9406C15.2235 24.4997 15.2021 20.0588 15.1914 15.618C15.1914 14.8689 15.1165 14.1198 15.0096 13.3815C14.817 12.0653 14.1751 11.466 12.8699 11.3269C12.1745 11.2627 11.4898 11.2306 10.7945 11.2092C9.79953 11.1878 9.69255 11.0273 10.0242 10.0214Z"
  />
  <path
    d="M58.2304 26.993C61.1296 29.1332 63.0874 31.9904 65.2163 34.687C66.8424 36.7416 68.5648 38.7105 70.5119 40.4655C71.999 41.8031 73.6893 42.595 75.7219 42.5415C75.7968 42.5415 75.861 42.5522 75.9359 42.5629C75.9466 42.5629 75.9573 42.5843 75.9894 42.6271C74.8554 43.2584 73.6465 43.7079 72.3734 43.9112C70.544 44.2001 68.7467 44.1787 67.0136 43.3547C65.1949 42.488 63.8148 41.1717 62.6701 39.5345C60.7979 36.8379 58.9044 34.1519 56.9573 31.5088C56.187 30.4708 55.2563 29.5506 54.4111 28.5661C53.8548 27.924 53.138 27.6886 52.3143 27.6886C51.1803 27.6779 50.057 27.6886 48.9229 27.603C50.3137 26.9395 51.6189 26.244 53.245 26.351C54.8177 26.458 56.401 26.2547 57.9308 25.7731C60.5198 24.9599 61.7287 22.9695 62.0282 20.519C62.2208 18.9353 62.1245 17.3622 61.6538 15.8213C60.9477 13.5206 59.4179 12.1081 57.0536 11.7656C55.2991 11.5088 53.5125 11.466 51.7473 11.3055C51.4584 11.2841 51.1696 11.1771 50.9021 11.0701C50.2816 10.8133 49.6825 10.5243 49.0727 10.2461C48.9871 10.2033 48.9015 10.1712 48.8267 10.0535C48.9978 10.0428 49.1583 10.0214 49.3295 10.0321C51.6296 10.0642 53.9297 10.0321 56.2191 10.1712C58.7653 10.321 61.2901 10.7169 63.526 12.0867C65.2805 13.1568 66.7461 14.5372 67.2704 16.5918C68.0513 19.6415 67.2062 22.4987 64.6279 24.5853C63.0339 25.8801 61.1296 26.4687 59.1504 26.8432C58.9044 26.8753 58.6262 26.9181 58.2304 26.993Z"
  />
</svg>
