<svg viewBox="0 0 113 60" xmlns="http://www.w3.org/2000/svg">
  <path
    d="M40.0001 10V50H0V10H40.0001ZM35.9568 45.9904V14.0096H4.00482V45.9904H35.9568ZM113.029 26.4904C112.899 26.9471 112.832 27.4375 112.625 27.8606C112.063 29.0144 111.053 29.6394 109.856 29.9375C107.423 30.5481 105.077 30.25 102.846 29.1154C102.654 29.0192 102.486 28.8846 102.289 28.7596C102.63 28 102.962 27.2596 103.284 26.5433C103.803 26.8029 104.284 27.0865 104.798 27.2933C106.048 27.7933 107.342 28 108.678 27.7308C109.019 27.6635 109.37 27.5048 109.649 27.2981C110.197 26.8942 110.188 26.1154 109.669 25.6731C109.298 25.3558 108.846 25.2163 108.39 25.0913C107.37 24.8125 106.346 24.5721 105.337 24.274C104.548 24.0385 103.822 23.6587 103.274 23.0192C102.635 22.274 102.467 21.3942 102.582 20.4567C102.803 18.6971 103.923 17.6875 105.529 17.226C107.798 16.5721 110.024 16.7837 112.154 17.8317C112.197 17.851 112.241 17.875 112.279 17.899C112.332 17.9327 112.385 17.9663 112.467 18.0144C112.164 18.7596 111.866 19.5048 111.553 20.274C111.471 20.2356 111.404 20.2067 111.337 20.1683C110.169 19.5481 108.938 19.2019 107.606 19.274C107.101 19.3029 106.606 19.3942 106.159 19.649C105.443 20.0577 105.168 21.2163 106.178 21.6875C106.76 21.9567 107.394 22.1154 108.015 22.2933C108.87 22.5433 109.745 22.75 110.596 23.0192C111.188 23.2067 111.712 23.5288 112.159 23.976C112.635 24.4519 112.899 25.0288 112.991 25.6923C113 25.7788 113.019 25.8654 113.039 25.9471C113.029 26.1394 113.029 26.3125 113.029 26.4904ZM69.1828 29.9904H66.2021V29.726C66.2021 28.3462 66.2021 26.9712 66.1973 25.5913C66.1973 25.4856 66.1732 25.3654 66.1203 25.274C64.7021 22.9087 63.2742 20.5433 61.8511 18.1779C61.8367 18.149 61.8126 18.1298 61.7694 18.0769C60.2886 19.6683 58.8126 21.25 57.327 22.851C59.2069 25.2212 61.0771 27.5865 62.9713 29.976C62.8751 29.9808 62.8174 29.9904 62.7598 29.9904C61.7357 29.9904 60.7069 29.9904 59.6828 29.9952C59.5386 29.9952 59.452 29.9471 59.3655 29.8365C58.0867 28.2644 56.8078 26.6971 55.5242 25.125C55.4761 25.0625 55.4232 25.0048 55.3607 24.9375C54.8078 25.5144 54.2597 26.0769 53.7261 26.649C53.6684 26.7067 53.6443 26.8221 53.6443 26.9087C53.6395 27.8462 53.6395 28.7837 53.6395 29.7163V29.9712H50.6876V17.1202H53.6299V23.0385C53.904 22.7788 54.1828 22.5433 54.428 22.2837C56.0338 20.5962 57.6347 18.9038 59.2405 17.2163C59.2982 17.1538 59.404 17.1106 59.4857 17.1106C61.0626 17.1058 62.6444 17.1058 64.2213 17.1154C64.3078 17.1154 64.4232 17.2019 64.4713 17.2788C65.5482 19.0577 66.6203 20.8413 67.6876 22.625C67.7213 22.6779 67.7598 22.7308 67.8126 22.8125C67.8992 22.6731 67.9761 22.5481 68.053 22.4231C69.0867 20.7115 70.1155 18.9952 71.1492 17.2837C71.1973 17.2067 71.3078 17.1154 71.3944 17.1154C72.2838 17.101 73.1732 17.1058 74.0627 17.1106C74.0915 17.1106 74.1203 17.1154 74.1828 17.1202C73.8607 17.6538 73.553 18.1635 73.2453 18.6779C71.9184 20.875 70.5915 23.0769 69.2694 25.2788C69.2069 25.3798 69.178 25.5192 69.178 25.6394C69.1732 26.9952 69.1732 28.3462 69.1732 29.7019C69.1828 29.7885 69.1828 29.875 69.1828 29.9904ZM94.6204 30.25C92.5146 30.2212 90.8175 29.7163 89.4185 28.4423C87.8271 26.9904 87.1781 25.1442 87.3271 23.0192C87.4617 21.125 88.2646 19.5577 89.7598 18.3798C91.2887 17.1827 93.0579 16.7692 94.9665 16.8942C96.3271 16.9856 97.5867 17.3846 98.7021 18.1827C100.164 19.226 101.048 20.6394 101.322 22.4038C101.64 24.4183 101.217 26.2596 99.8848 27.8365C98.8368 29.0817 97.4762 29.7933 95.8896 30.0865C95.404 30.1875 94.8896 30.2163 94.6204 30.25ZM94.0723 19.4231C93.0002 19.4519 91.856 19.9375 91.0579 21.0913C90.3992 22.0433 90.2213 23.1202 90.38 24.25C90.8415 27.4808 94.1973 28.399 96.3944 27.1875C97.6541 26.4952 98.2742 25.3702 98.3944 23.9663C98.6108 21.3894 96.88 19.4231 94.0723 19.4231ZM83.505 25.875C84.4617 27.25 85.4088 28.601 86.3704 29.9808C86.2886 29.9904 86.2309 30.0048 86.1733 30.0048C85.2358 30.0048 84.2983 30.0048 83.3608 30.0096C83.2213 30.0096 83.1444 29.9615 83.0723 29.851C82.3175 28.7596 81.5579 27.6683 80.7934 26.5865C80.7406 26.5096 80.6204 26.4327 80.5338 26.4279C79.7069 26.4183 78.8848 26.4231 78.0579 26.4231C78.029 26.4231 77.9954 26.4327 77.9473 26.4375V29.9856H74.9713V17.1346C75.0146 17.1298 75.0627 17.1202 75.1059 17.1202C77.0194 17.1202 78.9329 17.101 80.8511 17.1298C82.1588 17.149 83.4088 17.4423 84.4809 18.25C85.4617 18.9904 85.9858 19.9904 86.1108 21.2067C86.2309 22.351 86.0434 23.4231 85.38 24.3846C84.9617 24.9904 84.3944 25.4279 83.7406 25.7548C83.6684 25.7885 83.5963 25.8269 83.505 25.875ZM77.9521 19.5433V23.9904C79.0002 23.9904 80.0386 24.0385 81.0627 23.976C82.2069 23.9087 82.9521 23.2163 83.0963 22.1538C83.255 21 82.7838 19.9904 81.5242 19.6971C81.0098 19.5769 80.4665 19.5625 79.9377 19.5433C79.2742 19.524 78.6107 19.5433 77.9521 19.5433ZM72.4617 43.2212V36.0192H73.0627V44.399C72.7982 44.4423 72.5771 44.4519 72.3655 44.1827C70.5867 41.8942 68.7934 39.6202 67.0001 37.3413C66.9569 37.2885 66.9088 37.2356 66.8367 37.149V44.4038H66.2213V36.024C66.505 35.9952 66.7213 35.9808 66.9376 36.2596C68.7309 38.5769 70.5482 40.875 72.3559 43.1779L72.3992 43.2356C72.4232 43.2308 72.4425 43.226 72.4617 43.2212ZM92.029 44.4135H91.4185V36.024C91.481 36.0192 91.5435 36.0096 91.606 36.0096C92.5915 36.0096 93.5771 36.0048 94.5627 36.0096C95.2262 36.0144 95.8704 36.125 96.4617 36.4471C97.5531 37.0385 98.0579 38.2308 97.7694 39.524C97.5675 40.4423 97.0098 41.0529 96.1444 41.3942C96.0627 41.4279 95.981 41.4567 95.8704 41.5C96.5675 42.4712 97.2502 43.4231 97.9714 44.4231C97.731 44.4231 97.5339 44.4327 97.3416 44.4183C97.2791 44.4135 97.2117 44.3365 97.1685 44.2788C96.5723 43.4567 95.981 42.6298 95.3848 41.8077C95.3271 41.7308 95.2165 41.649 95.13 41.649C94.1781 41.6538 93.2262 41.6731 92.2742 41.6875H92.0339C92.029 42.5962 92.029 43.4952 92.029 44.4135ZM92.0339 41.1875C93.1637 41.1394 94.2839 41.1346 95.3944 41.0337C96.0002 40.976 96.5291 40.6538 96.8752 40.1106C97.7791 38.7067 96.9714 36.851 95.3127 36.6538C94.2454 36.5288 93.1589 36.5865 92.0771 36.5673C92.0627 36.5673 92.0483 36.5817 92.0339 36.5913V41.1875ZM59.0482 39.8894H63.5001V40.4231H59.053V43.8654H64.2117V44.4087H58.4328V36.0192H64.029V36.5577H59.0482V39.8894ZM99.8319 36.0144H105.423V36.5577H100.447V39.8942H104.904V40.4183H100.457V43.8702H105.62V44.4087H99.8416C99.8319 41.6202 99.8319 38.8317 99.8319 36.0144ZM82.0771 36.0192H82.6877V36.2837C82.6877 37.8606 82.6781 39.4375 82.7021 41.0144C82.7069 41.4038 82.7694 41.7981 82.8752 42.1731C83.154 43.1442 83.8175 43.7019 84.8175 43.8606C85.4136 43.9519 86.005 43.9375 86.5723 43.7356C87.5627 43.3798 88.0338 42.5962 88.1204 41.6106C88.2021 40.6587 88.1733 39.6923 88.1829 38.7308C88.1925 37.9135 88.1829 37.0962 88.1829 36.2837V36.0337H88.7887C88.7935 36.1058 88.7983 36.1827 88.7983 36.2596C88.7983 37.8125 88.8223 39.3702 88.7838 40.9231C88.7694 41.4663 88.6733 42.024 88.5098 42.5433C88.2406 43.4038 87.6252 43.9808 86.7694 44.2692C85.9665 44.5385 85.1492 44.5577 84.3319 44.3462C83.0963 44.0288 82.4232 43.1779 82.1684 41.9663C82.1011 41.6538 82.0675 41.3317 82.0675 41.0144C82.0579 39.4038 82.0627 37.7933 82.0627 36.1827C82.0675 36.1298 82.0723 36.0865 82.0771 36.0192ZM112.298 37.2067C111.409 36.649 110.467 36.4135 109.443 36.5385C108.779 36.6202 108.168 36.8125 107.798 37.4279C107.39 38.1058 107.577 38.9712 108.269 39.3413C108.741 39.5913 109.274 39.7356 109.789 39.9038C110.38 40.0962 110.995 40.226 111.577 40.4471C112.366 40.7452 112.861 41.3125 112.87 42.1971C112.88 43.0817 112.457 43.7019 111.683 44.0962C111.029 44.4279 110.322 44.5 109.606 44.4663C108.789 44.4279 108.01 44.226 107.308 43.7885C107.241 43.7452 107.173 43.7019 107.111 43.6538C106.707 43.351 106.702 43.2933 107.034 42.9087C108.236 43.8846 109.582 44.1587 111.063 43.75C111.952 43.5048 112.399 42.7692 112.212 41.9279C112.111 41.4712 111.803 41.1731 111.394 41.0144C110.846 40.8029 110.269 40.6587 109.712 40.476C109.159 40.2981 108.592 40.149 108.063 39.9183C107.39 39.6202 107.015 39.0673 106.986 38.3173C106.952 37.5288 107.255 36.8942 107.928 36.4663C108.702 35.976 109.568 35.9038 110.447 35.9856C111.106 36.0433 111.736 36.226 112.308 36.5769L112.452 36.6635C112.471 36.6779 112.491 36.6923 112.524 36.7163C112.447 36.8846 112.375 37.0433 112.298 37.2067ZM49.2164 36.0096C49.4088 36.0096 49.5866 35.9952 49.7549 36.0144C49.8222 36.024 49.9039 36.0962 49.9328 36.1635C50.7453 37.9712 51.5482 39.7837 52.3559 41.5913C52.6492 42.2452 52.9424 42.899 53.2597 43.6106C53.3895 43.3269 53.4953 43.0913 53.6011 42.8558C54.5867 40.6442 55.577 38.4327 56.5578 36.2212C56.6299 36.0529 56.7165 35.9808 56.8944 36.0048C57.0145 36.0192 57.1347 36.0096 57.2934 36.0096C57.1684 36.2981 57.053 36.5673 56.9376 36.8317C55.8415 39.2981 54.7405 41.7692 53.6443 44.2356C53.577 44.3846 53.4953 44.4567 53.3367 44.4231C53.1684 44.3894 52.9713 44.5192 52.8559 44.2548C51.6636 41.5577 50.4568 38.8654 49.2597 36.1731C49.2453 36.125 49.2405 36.0817 49.2164 36.0096ZM78.029 44.4135H77.4136V36.5625H74.3896V36.024H81.029V36.5529H78.029V44.4135Z"
  />
  <path
    d="M28.5097 18.6971L31.3222 21.5096C28.5049 24.3318 25.6732 27.1587 22.8318 30C25.6828 32.851 28.5097 35.6731 31.3174 38.476L28.4857 41.3077L17.2261 30.0481C20.9761 26.2741 24.7453 22.4856 28.5097 18.6971Z"
  />
</svg>
