<svg viewBox="0 0 109 60" xmlns="http://www.w3.org/2000/svg">
  <path
    d="M0.0328591 43.1461V42.6504H4.1505V17.3232C4.04475 17.3166 3.92579 17.31 3.81343 17.31H0.442641C-0.0332348 17.31 -0.0398441 17.3034 0.0394685 16.768C0.184875 16.7614 0.336891 16.7416 0.488907 16.7416H11.791C11.8438 16.7416 11.9165 16.7217 11.9562 16.7482C12.0619 16.8275 12.2206 16.9134 12.247 17.0258C12.2933 17.2241 12.128 17.2769 11.9562 17.2769H8.48626C8.0236 17.2769 8.01699 17.2769 8.01699 17.733V25.3668C8.01699 30.9848 8.0236 36.6028 8.01038 42.2208C8.01038 42.5644 8.10953 42.6504 8.43338 42.6438C10.7599 42.6305 13.0798 42.6702 15.4063 42.6239C18.0236 42.5711 19.9734 41.3285 21.282 39.0813C21.9099 38.0106 22.3924 36.8804 22.6898 35.6775C22.7295 35.5122 22.8022 35.3404 22.8815 35.1884C22.9145 35.1223 23.0269 35.0562 23.0864 35.0694C23.1525 35.0826 23.2186 35.1751 23.2516 35.2479C23.2847 35.3139 23.2715 35.3999 23.2715 35.4726V42.7098C23.2715 43.1593 23.2648 43.1659 22.8022 43.1659H0.330281C0.244359 43.1593 0.151828 43.1527 0.0328591 43.1461ZM34.9304 43.2386H32.3858C32.3065 43.2386 32.2206 43.2518 32.1611 43.2122C32.0619 43.1527 31.9231 43.0734 31.9099 42.9874C31.8901 42.8222 32.0157 42.7627 32.1941 42.7627C33.2186 42.7693 34.243 42.7826 35.2675 42.7627C36.7348 42.7297 38.1954 42.6305 39.5834 42.1018C41.401 41.4144 42.789 40.2379 43.7143 38.4997C44.5206 36.9993 45.1683 35.466 45.3798 33.7674C45.4261 33.384 45.4922 33.0073 45.5385 32.6239C45.5715 32.3794 45.6971 32.2802 45.935 32.2802H49.5371C49.7751 32.2802 49.9469 32.3397 49.8874 32.6504C49.3455 35.5519 48.0632 38.0568 45.783 39.9603C43.4499 41.9101 40.7665 43.08 37.6931 43.232C36.7678 43.2783 35.8425 43.3047 34.9238 43.3377C34.9304 43.2981 34.9304 43.2716 34.9304 43.2386ZM31.7843 16.7151C32.6436 16.6821 33.4896 16.6094 34.3356 16.6226C35.9615 16.6424 37.6006 16.6623 39.2001 16.9993C42.5841 17.7264 45.5781 19.1474 47.6931 22.0225C48.7506 23.4633 49.438 25.0694 49.7949 26.8209C49.8412 27.0654 49.7685 27.158 49.5437 27.158H45.8425C45.5583 27.158 45.5186 26.9663 45.4724 26.7482C45.2807 25.7898 45.1485 24.8116 44.8709 23.8797C43.7738 20.2445 41.2952 18.1428 37.5742 17.4488C35.8822 17.1315 34.1835 17.1447 32.4717 17.2373C32.3924 17.2439 32.3197 17.2439 32.2404 17.2439C31.8504 17.2505 31.8042 17.2042 31.7843 16.7151ZM28.8564 50H27.9906V10H28.8564V50ZM105.955 33.0535V33.7607H103.199V36.1335H102.478V33.7806H99.6297V33.0734H102.445V27.4488C101.738 29.3126 100.766 31.0046 99.3587 32.419C98.777 33.0007 98.1425 33.5228 97.5147 34.0912C97.3032 33.8467 97.1379 33.655 96.9529 33.4369C99.2 31.8705 100.813 29.8083 101.877 27.2505H97.3957V26.649H102.465V24.4349H103.192V26.6358H108.268V27.2439H103.8C104.844 29.7753 106.49 31.7383 108.757 33.1791C108.724 33.2386 108.711 33.2849 108.685 33.3113C108.532 33.4898 108.38 33.6616 108.215 33.8533C105.889 32.2141 104.256 30.0595 103.225 27.4157V33.0535H105.955ZM65.9482 25.3933C65.9482 25.6709 65.9681 25.9088 65.9416 26.1335C65.9284 26.2327 65.8293 26.3384 65.7367 26.3979C64.4082 27.3034 63.0798 28.2022 61.7381 29.0879C61.5266 29.2267 61.4472 29.3655 61.4472 29.6233C61.4605 30.9914 61.4539 32.3529 61.4539 33.7211V33.9524C61.434 35.2214 60.9119 35.7898 59.6429 35.8625C59.015 35.9022 58.3871 35.8757 57.7592 35.8625C57.6733 35.8625 57.5411 35.7634 57.5147 35.6841C57.4486 35.4792 57.4287 35.2545 57.3891 35.0297H58.7044C59.0216 35.0297 59.3455 35.043 59.6627 35.0297C60.3765 34.9835 60.674 34.6266 60.6673 33.9194C60.6541 32.3133 60.6541 30.7006 60.6673 29.0945C60.6673 28.9623 60.8194 28.7905 60.9449 28.7046C62.1544 27.9048 63.3772 27.1183 64.5999 26.3318C64.6594 26.2921 64.7255 26.2459 64.7718 26.1401H55.3071C55.1815 25.3999 55.1816 25.3999 55.8491 25.3999H65.4988C65.6376 25.3933 65.7698 25.3933 65.9482 25.3933ZM79.6958 29.2796H73.5887V25.0033H79.6958V29.2796ZM74.2827 26.8077H79.0282V25.6048H74.2827V26.8077ZM74.2893 27.462V28.6583H79.0282V27.462H74.2893ZM94.1703 25.4924C94.2562 26.0939 94.0381 26.7019 93.4433 27.614C93.245 27.5413 93.0401 27.4686 92.7956 27.3827C93.0137 26.9663 93.2252 26.5697 93.4499 26.1335H90.8524C90.8854 26.3318 90.8722 26.5235 90.9449 26.6821C91.5993 28.1163 92.7757 28.883 94.2562 29.2664C94.3752 29.2994 94.4876 29.3258 94.6396 29.3655C94.5735 29.4845 94.514 29.5902 94.4545 29.6894C94.4016 29.7885 94.3554 29.881 94.2827 30.0198C93.5292 29.8149 92.822 29.5109 92.1677 29.0879C91.5067 28.6583 90.9714 28.1031 90.6277 27.3232C89.8345 28.8896 88.3805 29.4118 86.9198 29.9207C86.7678 29.9736 86.6422 29.9603 86.5761 29.7819C86.5497 29.7092 86.4902 29.6563 86.4505 29.5902C86.4109 29.5241 86.3646 29.4646 86.2985 29.3655C86.6488 29.2597 86.9793 29.1738 87.3098 29.0681C88.1492 28.7839 88.9423 28.4071 89.5437 27.7264C89.9337 27.2769 90.1716 26.7548 90.2377 26.1137C89.623 26.1137 89.0282 26.1071 88.44 26.1203C88.3474 26.1203 88.2483 26.2393 88.1756 26.3318C87.8055 26.8077 87.442 27.2902 87.0652 27.7792C86.8537 27.5876 86.6819 27.4289 86.4836 27.2505C87.3428 26.4111 88.0037 25.4527 88.44 24.3093C88.6647 24.3754 88.8696 24.4415 89.1273 24.5142C88.9753 24.8447 88.8431 25.1487 88.6845 25.4792C90.5285 25.4924 92.3395 25.4924 94.1703 25.4924ZM75.7169 35.3206C76.2192 35.3206 76.7017 35.3139 77.1842 35.3206C78.3673 35.347 78.2813 35.0231 78.2615 34.2631C78.2549 33.8136 78.2615 33.3642 78.2615 32.8751H72.4122V32.2604H78.2351V31.0773H72.9277V30.4693H80.4558V31.0509H78.9885V32.2274H80.6872V32.842H78.9687C78.9687 33.1593 78.9753 33.4435 78.9687 33.7211C78.9621 34.1375 78.9753 34.5605 78.9357 34.9769C78.8828 35.5056 78.592 35.8295 78.0632 35.8956C77.594 35.9551 77.1181 35.9418 76.6488 35.9551H76.5827C75.8887 35.9947 75.8887 35.9947 75.7169 35.3206ZM88.5655 31.7317H89.2529C89.1934 32.3067 89.1406 32.8619 89.0811 33.4765C90.7797 34.111 92.5114 34.7654 94.2761 35.4263C94.1174 35.6775 93.9919 35.8757 93.8531 36.1005C93.3177 35.8757 92.8022 35.6378 92.2734 35.4329C91.1829 34.9967 90.0857 34.5803 88.9952 34.1507C88.8035 34.078 88.6977 34.0978 88.5457 34.2564C87.9377 34.9042 87.1313 35.2214 86.3184 35.4858C85.5451 35.7303 84.7453 35.8956 83.9654 36.1005C83.7076 36.1666 83.549 36.1269 83.4763 35.8493C83.4367 35.7171 83.3573 35.5981 83.2913 35.466C84.0183 35.3206 84.7321 35.195 85.4393 35.0364C86.1928 34.8645 86.9132 34.6134 87.5741 34.1904C88.169 33.807 88.4664 33.2716 88.5127 32.5777C88.5193 32.3001 88.5391 32.0291 88.5655 31.7317Z"
  />
  <path
    d="M84.7522 30.4098H92.9147V33.9392H92.267V31.0377H85.4726V33.9392H84.7522V30.4098ZM70.6015 36.1071V30.5948C70.0991 31.1434 69.6497 31.6325 69.1606 32.1546C69.0549 31.9299 68.9557 31.7581 68.8896 31.5664C68.8698 31.5069 68.9161 31.3946 68.9689 31.3417C70.0727 30.2181 71.0046 28.9755 71.7713 27.6008C71.7845 27.5743 71.811 27.5545 71.8506 27.5148C71.9432 27.5545 72.0489 27.5942 72.1415 27.647C72.2406 27.6933 72.3331 27.7528 72.4587 27.8255C72.1216 28.3609 71.7845 28.8698 71.4739 29.3985C71.3682 29.577 71.2954 29.8017 71.2954 30.0066C71.2822 31.8704 71.2888 33.7277 71.2888 35.5915C71.2822 36.2326 71.2822 36.2326 70.6015 36.1071ZM71.9696 24.4349C72.1547 24.5406 72.3397 24.653 72.5446 24.7786C71.6524 26.0872 70.6081 27.2042 69.3986 28.2287C69.273 28.037 69.154 27.8585 69.0483 27.6933C69.577 27.1712 70.119 26.6887 70.6015 26.1533C71.0839 25.6246 71.4937 25.0363 71.9696 24.4349ZM82.928 29.4514C83.9326 28.6979 84.8976 27.9709 85.9088 27.2174C86.0146 27.4157 86.1137 27.6074 86.2393 27.8387C85.3074 28.5856 84.3754 29.3324 83.4237 30.0925C83.2452 29.8678 83.0866 29.6629 82.928 29.4514ZM85.9088 26.0476C85.7171 26.2525 85.5585 26.4309 85.3999 26.6028C84.7522 26.1071 84.1243 25.6246 83.4633 25.1156C83.5955 24.9636 83.7343 24.805 83.9128 24.6001C84.5803 25.0826 85.228 25.5519 85.9088 26.0476ZM74.9174 34.9174C74.4085 34.4745 73.9392 34.0647 73.4369 33.6219C73.655 33.4435 73.807 33.3113 73.9855 33.1593C74.4481 33.6285 74.9042 34.078 75.3867 34.5671C75.195 34.7059 75.0231 34.838 74.9174 34.9174ZM42.1415 29.5704C41.9894 29.4646 41.8903 29.425 41.8308 29.3523C41.4805 28.9094 40.8526 28.9557 40.6808 29.4844C40.5883 29.7686 40.6279 30.1256 40.694 30.4362C40.7469 30.6807 40.9782 30.8129 41.2492 30.8262C41.5268 30.8328 41.6986 30.694 41.8308 30.4692C41.8837 30.3767 41.963 30.304 42.0621 30.2511C42.082 30.6477 41.8705 30.9253 41.5268 31.0244C41.15 31.1368 40.7403 31.0046 40.5288 30.7072C40.2578 30.3172 40.238 29.6695 40.4891 29.2663C40.7138 28.9094 41.0509 28.7905 41.4541 28.8499C41.811 28.883 42.0357 29.1011 42.1415 29.5704ZM44.501 30.9649C44.1904 31.0509 44.2036 30.8262 44.1309 30.6807C44.078 30.5684 44.0119 30.3833 43.9392 30.3701C43.6814 30.3371 43.4105 30.3371 43.1593 30.3965C43.0668 30.4164 43.0469 30.6609 42.9676 30.7931C42.9148 30.879 42.8288 30.9451 42.7495 31.0244C42.7165 30.998 42.6834 30.9782 42.6504 30.9517C42.7826 30.5948 42.9081 30.2445 43.0403 29.8876C43.1395 29.6166 43.2254 29.3456 43.3444 29.0879C43.384 29.002 43.4964 28.9094 43.5889 28.8962C43.655 28.8896 43.774 28.9954 43.807 29.0747C44.045 29.6893 44.2631 30.3106 44.501 30.9649ZM43.5757 29.1408C43.4435 29.5175 43.3378 29.8149 43.232 30.1189H43.9128C43.807 29.8017 43.7079 29.5175 43.5757 29.1408ZM52.0423 31.031C51.9696 30.9187 51.8639 30.8195 51.8242 30.694C51.7515 30.4891 51.692 30.2974 51.4078 30.3503C51.1368 30.3965 50.7733 30.2181 50.6874 30.694C50.6676 30.8129 50.542 30.9187 50.4693 31.0244C50.4296 30.998 50.3834 30.9782 50.3437 30.9517C50.4957 30.5221 50.6477 30.0991 50.7997 29.6695C50.8791 29.4514 50.9518 29.2333 51.0509 29.0284C51.084 28.9623 51.1897 28.8962 51.269 28.8896C51.3285 28.883 51.4409 28.9491 51.4673 29.002C51.7118 29.6431 51.9432 30.2908 52.1811 30.9385C52.1282 30.9716 52.082 31.0046 52.0423 31.031ZM51.5995 30.1189C51.4805 29.7885 51.3814 29.5043 51.2492 29.1408C51.117 29.5175 51.0179 29.8083 50.9121 30.1189H51.5995ZM45.2677 30.0793C45.2677 30.3569 45.2743 30.5816 45.2611 30.8063C45.2545 30.8724 45.1752 30.9253 45.1355 30.9914C45.0959 30.9319 45.0165 30.8658 45.0165 30.8063C45.0099 30.1784 45.0099 29.5571 45.0099 28.8962C45.347 28.8962 45.6643 28.8698 45.9749 28.9028C46.2459 28.9293 46.4574 29.2333 46.4508 29.4977C46.4442 29.7885 46.2261 30.0462 45.922 30.0793C45.7237 30.0991 45.5122 30.0793 45.2677 30.0793ZM45.2875 29.881C45.6048 29.8149 45.9551 30 46.1401 29.6431C46.1864 29.5505 46.1798 29.3655 46.1203 29.2796C45.9022 28.9887 45.5916 29.1209 45.2875 29.1209V29.881ZM48.9161 29.1011C48.7112 29.1011 48.5459 29.1143 48.3807 29.0945C48.3278 29.0879 48.2816 29.0152 48.2287 28.9755C48.275 28.9425 48.3212 28.883 48.3741 28.883C48.8235 28.8764 49.2796 28.8764 49.729 28.883C49.7753 28.883 49.8216 28.9491 49.8678 28.9887C49.8216 29.0284 49.7819 29.0879 49.7356 29.0945C49.5638 29.1077 49.3853 29.1011 49.1738 29.1011C49.1738 29.6629 49.1805 30.1917 49.1672 30.7138C49.1672 30.8063 49.0879 30.8989 49.0417 30.9914C49.002 30.8989 48.9227 30.7997 48.9227 30.7072C48.9095 30.1916 48.9161 29.6761 48.9161 29.1011ZM52.7165 30.998C52.7165 30.3238 52.7099 29.7026 52.7231 29.0747C52.7231 29.0086 52.8024 28.9491 52.8421 28.8896C52.8817 28.9557 52.9544 29.0152 52.961 29.0813C52.9742 29.5109 52.9676 29.9339 52.9676 30.3635V30.7601C53.2717 30.7601 53.5426 30.7534 53.8136 30.7667C53.8797 30.7667 53.9458 30.8394 54.0053 30.879C53.9458 30.9187 53.8797 30.9914 53.8202 30.9914C53.4699 31.0046 53.1263 30.998 52.7165 30.998ZM47.4818 29.9141C47.4818 30.2115 47.4884 30.5089 47.4752 30.7997C47.4752 30.8658 47.3959 30.9253 47.3563 30.9914C47.3166 30.9253 47.2373 30.8658 47.2373 30.7997C47.2307 30.2181 47.2307 29.6365 47.2373 29.0548C47.2373 28.9954 47.3232 28.9425 47.3761 28.883C47.4091 28.9425 47.4752 28.9954 47.4752 29.0548C47.4884 29.3456 47.4818 29.6299 47.4818 29.9141Z"
  />
</svg>
