<svg viewBox="0 0 80 60" xmlns="http://www.w3.org/2000/svg">
  <path
    d="M10.1694 5C10.6157 5.84665 11.0779 6.67732 11.4764 7.53994C11.6198 7.84345 11.6677 8.19489 11.6677 8.53035C11.6836 10.6869 11.6517 12.8435 11.6995 15C11.7155 15.3834 11.9227 15.8786 12.2096 16.1342C13.7079 17.476 15.2222 18.754 16.7683 20.016C17.2305 20.3994 17.7725 20.7189 18.3144 20.9425C20.004 21.6294 21.7414 22.2364 23.4469 22.9073C23.9251 23.099 24.3236 23.099 24.7858 22.8435C26.2044 22.0767 27.6549 21.3419 29.1054 20.639C29.472 20.4633 29.9183 20.3355 30.3009 20.3674C32.5802 20.5112 34.8436 20.7189 37.1229 20.8786C37.6968 20.9105 38.2865 20.8786 38.8444 20.7348C45.8418 18.8658 52.8233 16.9649 59.8047 15.0479C60.2989 14.9042 60.793 14.6805 61.2393 14.393C62.8014 13.3866 64.3315 12.3163 65.8936 11.3259C66.2124 11.1182 66.6746 11.0224 67.0572 11.0383C71.0261 11.3578 74.995 11.6933 78.948 12.0447C79.2668 12.0767 79.5696 12.1246 79.9203 12.1565C80.0638 13.147 80.0478 14.0096 79.3943 14.8722C78.3742 16.2141 77.37 17.524 76.0789 18.6102C75.5051 19.1054 75.011 19.7284 74.5965 20.3674C72.1419 24.2173 68.8424 27.2045 65.3038 30C64.0765 30.9585 62.7695 31.4696 61.319 31.8211C59.3425 32.3163 57.366 32.8435 55.4055 33.3866C55.1664 33.4505 54.8316 33.77 54.8316 33.9457C54.9273 36.4696 53.955 38.722 53.2218 41.0543C52.9348 41.9489 52.8552 42.9233 52.7117 43.8658C52.632 44.361 52.5842 44.8562 52.5204 45.4313C49.3644 42.8435 48.6153 39.5048 49.2369 35.7029C47.8502 35.4952 46.6547 35.3035 45.4593 35.1597C45.2361 35.1278 44.9492 35.2556 44.742 35.3994C41.7294 37.5719 38.6053 39.6326 35.7362 41.9808C33.8394 43.5304 32.2933 45.5112 30.5878 47.3003C30.269 47.6358 29.9661 47.9872 29.5198 48.4665C29.2967 47.3163 29.0895 46.3898 29.3764 45.4153C30.2212 42.5719 31.5601 39.9361 33.0743 37.4121C33.7438 36.3099 34.732 35.4153 35.5609 34.4089C35.7203 34.2173 35.8956 34.0096 36.1506 33.7061C34.461 33.4984 32.883 33.2907 31.321 33.099C30.3009 32.9712 29.2648 32.8754 28.2447 32.7157C27.8781 32.6677 27.5115 32.5399 27.1927 32.3642C23.3513 30.3195 19.5099 28.2748 15.7003 26.1821C15.3497 25.9904 15.0468 25.639 14.8396 25.2875C13.3891 22.9073 11.9546 20.4473 10.5838 18.115H5.81789C5.77007 18.115 5.70632 18.115 5.6585 18.0831C3.45886 16.4696 0.685396 15.4153 0 12.2045C0.239091 12.1885 0.510062 12.1565 0.781032 12.1565C2.64595 12.1406 4.49492 12.1086 6.35983 12.1086C6.98147 12.1086 7.3959 11.9489 7.61905 11.3099C8.40008 9.20128 9.21299 7.10863 10.01 5H10.1694V5ZM37.9199 21.5655C36.3419 23.3067 34.8914 24.8882 33.4728 26.4856C33.3612 26.6134 33.3134 26.9329 33.3931 27.0927C34.4292 29.1534 35.4812 31.1981 36.5651 33.3067C37.3461 32.8594 38.0952 32.4601 38.7966 31.9968C38.9719 31.885 39.0994 31.5335 39.0835 31.2939C38.9241 29.6326 38.7169 27.9712 38.5097 26.3099C38.3184 24.8083 38.1271 23.2907 37.9199 21.5655ZM38.2546 21.278C38.6531 24.6166 39.0357 27.8435 39.4342 31.0543H39.6254C41.4106 27.8115 43.1799 24.5687 44.997 21.262C42.6699 21.278 40.5021 21.278 38.2546 21.278ZM39.8964 31.3099C42.3989 30.0639 44.7101 28.8978 47.0532 27.7636C47.4676 27.5559 47.5473 27.3163 47.4836 26.901C47.2445 25.2396 47.0532 23.5783 46.7982 21.9329C46.7663 21.6613 46.5113 21.2141 46.4156 21.2141C46.0171 21.262 45.4274 21.3419 45.268 21.6134C43.4668 24.7604 41.7454 27.9553 39.8964 31.3099ZM63.0723 24.0575C63.1201 24.0895 63.168 24.1374 63.2158 24.1693C68.6671 20.655 74.1343 17.1406 79.5856 13.6262C75.6964 14.984 71.8868 16.5016 68.0933 18.0511C67.5354 18.2748 66.85 18.4824 66.5152 18.9297C65.3038 20.5911 64.22 22.3482 63.0723 24.0575ZM56.2024 30.4153C57.7804 29.5527 59.3584 28.7061 60.9046 27.8115C63.3911 26.3578 66.0849 25.2236 68.2526 23.2428C69.751 21.869 71.3768 20.5911 72.9388 19.2812L74.7081 17.7955C75.2979 17.3003 75.8717 16.8051 76.4614 16.2939C76.4136 16.246 76.3818 16.1981 76.3339 16.1342C69.5278 20.7827 62.1638 24.5847 56.2024 30.4153ZM53.5724 31.8211C56.059 28.4824 58.4658 25.2556 60.8727 22.0288L60.7292 21.885C57.4298 24.1214 54.1462 26.3738 50.799 28.6422C51.7394 29.7284 52.632 30.7348 53.5724 31.8211ZM73.959 20.655L73.8155 20.5112C71.0899 22.8754 68.3642 25.2396 65.6226 27.6038C65.3038 27.8754 64.9532 28.131 64.5706 28.3067C61.9884 29.6006 59.3903 30.8946 56.8081 32.1725C56.5212 32.3163 56.2662 32.492 55.9952 32.6677C58.0355 32.3003 59.996 31.7572 61.9884 31.2939C63.1361 31.0383 64.0925 30.5431 64.9691 29.7604C66.2443 28.6262 67.5513 27.5399 68.9221 26.5335C71.0739 24.9521 72.3013 22.6358 73.959 20.655ZM28.1331 32.3802C30.8906 32.7157 33.425 33.0351 36.1506 33.3546C35.0189 31.1661 33.9988 29.1693 32.9149 27.0767C31.321 28.8498 29.8067 30.5272 28.1331 32.3802ZM78.6451 13.4185C78.6292 13.3866 78.6292 13.3546 78.6133 13.3227C74.6284 13.7859 70.6436 14.2492 66.6746 14.7125V18.2109C70.6914 16.5974 74.6762 15.016 78.6451 13.4185ZM24.2917 23.7061C25.4234 26.4856 26.5073 29.1693 27.6709 32.0447C28.1969 28.8658 28.691 25.9265 29.1851 22.8594C27.5115 23.147 25.9494 23.4185 24.2917 23.7061ZM60.1873 15.5112C60.1554 15.4473 60.1235 15.3994 60.1076 15.3355C57.9398 15.9265 55.7721 16.5176 53.6043 17.1246C53.4608 17.1725 53.2696 17.3163 53.2218 17.4601C52.8233 18.5144 52.4567 19.5847 52.0741 20.6869C53.1739 20.6869 54.21 20.7029 55.2301 20.6709C55.4214 20.6709 55.6446 20.5591 55.7721 20.4153C57.2544 18.7859 58.7209 17.1566 60.1873 15.5112ZM28.1172 31.5655C28.1809 31.5974 28.2447 31.6134 28.2925 31.6454C29.6952 30.0958 31.0978 28.5463 32.4846 26.9808C32.6121 26.8371 32.5961 26.4856 32.5164 26.2939C32.0064 25.2236 31.4326 24.1693 30.9066 23.099C30.7312 22.7316 30.5081 22.508 30.1255 22.7157C29.8705 22.8594 29.5517 23.0831 29.4879 23.3227C29.2807 24.1693 29.1851 25.0479 29.0416 25.9105C28.7229 27.8115 28.42 29.6965 28.1172 31.5655ZM47.0851 21.1821C47.356 23.1949 47.6111 25.1118 47.898 27.0288C47.9139 27.1885 48.2008 27.4281 48.3443 27.4121C48.695 27.3962 49.3007 27.3482 49.3644 27.1406C50.1295 25.1917 50.799 23.2109 51.5162 21.1821H47.0851ZM66.6587 14.345C70.3567 13.9137 73.9908 13.4984 77.625 13.0831C77.625 13.0192 77.6091 12.9553 77.6091 12.8754C73.9749 12.3642 70.3407 11.853 66.6587 11.3419V14.345ZM20.4981 24.5687C22.5384 26.7412 24.6742 29.0256 26.8101 31.3099C25.9653 28.8818 25.0249 26.5176 24.0367 24.1693C23.9729 24.0256 23.6701 23.8498 23.5107 23.8818C22.3949 24.1054 21.2632 24.393 20.4981 24.5687ZM25.8856 31.23C25.9175 31.1981 25.9335 31.1661 25.9653 31.1182C25.79 30.9265 25.6306 30.7348 25.4393 30.5591C24.0685 29.2013 22.5702 27.9393 21.327 26.4537C20.1474 25.0479 18.9201 24.5367 17.2465 25.3035C16.9755 25.4313 16.6726 25.655 16.5929 25.9105C16.5451 26.0543 16.8639 26.4217 17.0871 26.5495C19.8287 28.0511 22.5862 29.5208 25.3437 30.9904C25.519 31.0863 25.7103 31.1502 25.8856 31.23ZM11.1098 18.2748C12.4646 20.5591 13.7557 22.7796 15.0946 24.984C15.2062 25.1597 15.5728 25.3035 15.78 25.2556C16.0191 25.1917 16.322 24.9521 16.3857 24.7125C16.5929 24.0256 16.7205 23.3227 16.8161 22.6198C16.848 22.4121 16.8002 22.1246 16.6726 21.9649C15.2062 20.2396 13.5007 18.8658 11.1098 18.2748ZM50.8308 26.5495L50.9265 26.6933C54.2897 24.8403 57.6689 22.9872 61.1596 21.0703C59.3425 21.0703 57.7326 21.0543 56.1227 21.0863C55.9155 21.0863 55.6446 21.1981 55.5011 21.3578C53.9231 23.0671 52.377 24.8083 50.8308 26.5495ZM61.8131 20.639C61.4306 18.9137 61.064 17.3003 60.6655 15.5431C59.1194 17.2684 57.6529 18.8978 56.1068 20.639H61.8131ZM47.0213 20.7827C48.4877 20.7827 49.8745 20.7987 51.2453 20.7668C51.4047 20.7668 51.6756 20.623 51.7235 20.4792C52.106 19.4728 52.4567 18.4505 52.8552 17.3003C50.7511 17.8754 48.7906 18.4026 46.7822 18.9457C46.8779 19.5847 46.9416 20.1438 47.0213 20.7827ZM37.3939 21.5815L37.2983 21.4377C35.2261 21.8051 33.154 22.1725 31.0181 22.5399C31.7195 23.8818 32.357 25.1118 33.0265 26.4217C34.5248 24.7604 35.9594 23.1629 37.3939 21.5815ZM55.0389 30.4633C55.0707 30.4952 55.1186 30.5272 55.1504 30.5751C57.3501 28.77 59.5497 26.9489 61.7494 25.1278C61.8609 25.0319 61.9725 24.8722 61.9884 24.7444C62.0044 23.6901 62.0044 22.6358 62.0044 21.5815C61.9087 21.5655 61.8131 21.5495 61.7334 21.5335C59.486 24.5048 57.2704 27.492 55.0389 30.4633ZM73.0982 20.639C73.0664 20.5911 73.0345 20.5272 72.9867 20.4792C68.3642 23.8019 63.7258 27.1086 59.1034 30.4313C59.1353 30.4952 59.1672 30.5431 59.199 30.607C61.1437 29.6166 63.2795 28.8658 65.001 27.5719C67.8382 25.4473 70.4204 22.9712 73.0982 20.639ZM44.8217 34.9042C43.5784 33.754 42.3989 32.6677 41.1397 31.5176V37.5719C42.3989 36.6454 43.5784 35.7987 44.8217 34.9042ZM6.00917 17.6677H10.3128C9.30863 15.9585 8.40008 14.4249 7.41184 12.7316C6.90177 14.5367 6.45547 16.1182 6.00917 17.6677ZM52.7117 32.1885V32.0447C51.2293 31.6773 49.731 31.2939 48.2487 30.9425C48.0893 30.9105 47.7864 30.9585 47.7067 31.0863C47.0373 32.1885 46.3837 33.3227 45.6505 34.6166C48.1211 33.754 50.4164 32.9712 52.7117 32.1885ZM62.4188 20.3994C63.7577 19.7444 64.9213 19.1853 66.0689 18.6102C66.1646 18.5623 66.2762 18.4185 66.2762 18.3227C66.2921 17.1406 66.2921 15.9585 66.2921 14.6006C65.7023 14.8403 65.0329 14.8882 64.8575 15.2077C63.9968 16.8371 63.2795 18.5304 62.4188 20.3994ZM36.2463 37.1725C37.1548 37.492 37.6649 37.2843 37.9996 36.4377C38.3503 35.5591 38.8444 34.7284 39.2748 33.8818C39.6254 33.1949 39.9761 32.492 40.3268 31.8051C39.1313 32.3163 38.0634 32.9233 37.0114 33.5623C36.8838 33.6422 36.7882 33.8498 36.7563 34.0096C36.5651 35.0479 36.4216 36.1022 36.2463 37.1725ZM49.9701 26.6613C50.0179 26.6933 50.0817 26.7252 50.1295 26.7572C51.7713 24.9201 53.429 23.0671 55.1823 21.1022H53.5405C51.9147 21.1022 51.9147 21.1022 51.3728 22.6358C50.9105 23.9776 50.4324 25.3195 49.9701 26.6613ZM41.2991 31.1502C42.5105 32.2684 43.6581 33.3067 44.8854 34.4409V29.2971C43.674 29.9201 42.5264 30.5112 41.2991 31.1502ZM23.5585 23.4824C23.5585 23.4345 23.5744 23.3866 23.5744 23.3387C21.566 22.5879 19.5736 21.8211 17.5812 21.0703C17.1986 21.7093 17.3262 22.1406 17.8043 22.5399C18.3463 23.0032 18.8245 23.5463 19.3505 24.0256C19.5258 24.1853 19.8287 24.3131 20.0199 24.2812C21.2154 24.0575 22.379 23.754 23.5585 23.4824ZM7.58717 12.2204C8.83044 13.2748 10.01 14.2652 11.3648 15.4153C11.3011 14.361 11.4923 13.4505 11.1576 12.8275C10.5678 11.7732 9.62742 10.9105 8.75075 9.8722C8.33632 10.7189 7.96972 11.4377 7.58717 12.2204ZM64.5069 14.9681C63.2317 15.1118 62.1478 15.2236 61.0002 15.3674C61.3668 16.9649 61.7015 18.4665 62.0522 19.9681H62.2275C62.9448 18.3546 63.694 16.7572 64.5069 14.9681ZM54.2419 36.3898C54.0347 35.3195 53.8753 34.4249 53.6999 33.5783C52.0263 33.5144 50.8787 34.2971 49.8267 35.4633C51.2931 35.7827 52.6798 36.0703 54.2419 36.3898ZM37.888 37.4281H40.5977V32.3323C40.5658 32.3323 40.518 32.3323 40.4862 32.3163C39.6414 33.9617 38.8125 35.607 37.888 37.4281ZM62.2435 24.1374C62.3551 24.1534 62.4507 24.1534 62.5623 24.1693C63.6302 22.5559 64.6982 20.9425 65.782 19.3291C64.6503 19.7284 63.5983 20.2236 62.5782 20.7508C62.4348 20.8147 62.2754 21.0064 62.2754 21.1502C62.2275 22.1565 62.2435 23.147 62.2435 24.1374ZM54.6722 33.0831C57.2226 31.2939 59.6932 29.5687 62.1638 27.8275C62.116 27.7636 62.0841 27.6837 62.0363 27.6198C59.3425 29.1214 56.6328 30.607 53.8753 32.1406C54.1303 32.4601 54.3216 32.6677 54.6722 33.0831ZM51.054 38.9776C52.0422 38.2428 52.9827 37.5399 54.0506 36.7252C52.4885 36.3898 51.1018 36.1022 49.6194 35.7987C50.1295 36.9169 50.5599 37.9073 51.054 38.9776ZM2.53437 15.4792C3.4748 16.1342 4.38334 16.7732 5.48316 17.5399C5.21219 15.8466 4.9731 14.393 4.70213 12.7796C3.9211 13.77 3.25164 14.6166 2.53437 15.4792ZM45.2999 34.1054C45.3477 34.1374 45.3796 34.1534 45.4274 34.1853C46.1128 33.0192 46.7822 31.8371 47.4836 30.639C46.7344 30.2077 46.065 29.8243 45.2999 29.393V34.1054ZM31.321 45.623C31.4007 45.655 31.4644 45.6869 31.5441 45.7348C32.6758 44.5527 33.7916 43.3706 35.0349 42.0607C34.1263 42.0607 33.425 42.0447 32.7077 42.0767C32.5483 42.0767 32.2773 42.1566 32.2455 42.2524C31.9107 43.3706 31.6079 44.5048 31.321 45.623ZM52.9986 31.7412C52.0582 30.6709 51.2772 29.7764 50.4802 28.8658C49.6673 29.4249 48.9341 29.9361 48.0893 30.5272C49.7629 30.9425 51.2771 31.3099 52.9986 31.7412ZM36.0231 41.0863C36.055 41.1182 36.0869 41.1661 36.1188 41.1981C37.5852 40.1438 39.0357 39.0895 40.5021 38.0351C39.7051 37.8275 38.9719 37.7476 38.2387 37.7796C37.9837 37.7796 37.633 37.9712 37.5214 38.1949C36.9795 39.1214 36.5172 40.1118 36.0231 41.0863ZM34.9392 41.6773C34.4132 40.4153 33.935 39.2332 33.3612 37.8594C32.9946 39.2652 32.6918 40.4473 32.373 41.6773H34.9392ZM61.3987 14.7444L61.4465 14.9361C62.4507 14.8243 63.4708 14.7125 64.475 14.5687C64.6025 14.5527 64.7619 14.4249 64.8097 14.2971C65.1923 13.4984 65.5429 12.6997 65.9095 11.901C65.8617 11.869 65.8298 11.8371 65.782 11.8051C64.3315 12.7955 62.8651 13.77 61.3987 14.7444ZM39.8486 20.8466C41.6657 20.8466 43.2277 20.8626 44.7898 20.8307C44.9811 20.8307 45.252 20.7029 45.3636 20.5431C45.6346 20.1597 45.8259 19.7284 46.1287 19.1374C43.9928 19.7125 42.0323 20.2556 39.8486 20.8466ZM5.03686 12.492C5.27595 13.9936 5.51504 15.3994 5.73819 16.7891C5.78601 16.7891 5.83383 16.8051 5.88165 16.8051C6.28014 15.3834 6.67862 13.9617 7.09305 12.492H5.03686ZM30.1733 20.7029C30.6675 22.2364 30.6675 22.2364 32.0861 21.9808C32.5483 21.901 33.0265 21.8371 33.4887 21.7412C34.3335 21.5815 35.1943 21.4377 36.0391 21.278C36.0391 21.23 36.0231 21.1981 36.0231 21.1502C34.0785 21.0064 32.1339 20.8626 30.1733 20.7029ZM11.2692 8.46645C10.4722 8.86581 9.75493 9.21725 8.98984 9.60064C9.77087 10.5272 10.4563 11.3259 11.2692 12.2843V8.46645ZM45.3477 28.9936C46.2243 29.4888 46.9097 29.9042 47.6748 30.3355C48.169 29.4888 48.6153 28.6901 49.1094 27.8594C47.6111 27.476 46.7025 28.5144 45.3477 28.9936ZM57.0153 23.9617C56.9835 23.9137 56.9516 23.8498 56.9197 23.8019C54.6085 25.0799 52.2973 26.3419 49.9223 27.6518C50.1933 27.9393 50.3686 28.131 50.5599 28.3546C52.7436 26.885 54.8795 25.4313 57.0153 23.9617ZM33.6481 37.5879C34.1741 38.8339 34.6523 39.984 35.1305 41.1342C35.1783 41.1182 35.2421 41.1182 35.2899 41.1022C35.4652 39.9521 35.6406 38.8019 35.8159 37.5879H33.6481ZM53.8912 37.5719L53.7637 37.4441C53.0145 37.9872 52.2654 38.5304 51.5481 39.1054C51.4206 39.2013 51.309 39.4888 51.3568 39.6166C51.5641 40.1438 51.8191 40.655 52.1219 41.2939C52.7595 39.9361 53.3174 38.754 53.8912 37.5719ZM72.1897 20.3834C72.2375 20.4473 72.2853 20.4952 72.3331 20.5591C74.4371 18.6741 77.3062 17.6837 78.677 14.9201C76.5093 16.7412 74.3574 18.5623 72.1897 20.3834ZM25.1365 23.0671C25.1524 23.099 25.1684 23.147 25.1843 23.1789C26.1885 23.0032 27.2086 22.8435 28.2128 22.6677C29.3923 22.4441 29.5198 22.2684 29.3764 20.8946C27.9418 21.6294 26.5392 22.3482 25.1365 23.0671ZM17.2305 22.3642C17.0393 23.3866 16.8958 24.1534 16.7205 25.0479C17.5971 24.8403 18.3622 24.6645 19.0317 24.5048C18.4738 23.8179 17.9319 23.1789 17.2305 22.3642ZM9.06954 9.15335L11.3329 8.01917C10.9344 7.2524 10.5838 6.5655 10.1375 5.70288C9.75493 6.93291 9.45208 7.9393 9.06954 9.15335ZM33.7438 37.1086C34.5567 37.1725 35.1783 37.2045 35.8637 37.2524C36.0072 36.3099 36.1506 35.4153 36.31 34.3131C35.4015 35.3195 34.6364 36.1502 33.7438 37.1086ZM2.40685 12.524V15.0639C3.14007 14.1534 3.74577 13.3866 4.4471 12.524H2.40685ZM31.066 46.1342C30.9863 44.9361 30.9225 43.8818 30.8587 42.8275C30.8109 42.8275 30.7631 42.8115 30.7153 42.8115C30.3327 43.8658 29.9502 44.9042 29.5358 46.0703C30.0777 46.0863 30.5081 46.1182 31.066 46.1342ZM0.366607 12.524C0.940426 13.4185 1.19546 14.3291 1.97649 14.9042V12.524H0.366607ZM46.8141 34.8243C48.2008 35.2236 49.6354 35.7668 50.6077 34.0895C49.3325 34.3291 48.0733 34.5687 46.8141 34.8243ZM49.5079 39.9521C49.5876 39.984 49.6673 40.0319 49.731 40.0639C50.0339 39.7125 50.6555 39.2971 50.5918 39.0256C50.4164 38.2428 49.9701 37.524 49.6354 36.7732C49.5876 36.7891 49.5398 36.8051 49.5079 36.8211V39.9521ZM11.1895 16.6613C10.3606 15.7827 9.64336 15.0319 8.91014 14.2652C8.87826 14.2971 8.83045 14.3291 8.79857 14.345C9.35645 15.3035 9.91433 16.246 10.5041 17.2364C10.8069 16.9808 11.0141 16.8211 11.1895 16.6613ZM11.8589 16.3419C11.8111 16.4058 11.7633 16.4696 11.7155 16.5176C13.0863 17.6038 13.9629 19.2652 15.8438 19.7284C14.5049 18.6102 13.1819 17.476 11.8589 16.3419ZM35.784 40.3355C35.8478 40.3514 35.9115 40.3674 35.9753 40.3674C36.4057 39.5048 36.836 38.6581 37.3301 37.6997C36.8998 37.6677 36.581 37.6358 36.1984 37.6038C36.0391 38.5783 35.9115 39.4569 35.784 40.3355ZM49.7151 40.9265C50.1454 41.7412 50.4642 42.3642 50.8308 43.0831C51.1975 42.6038 51.4684 42.2364 51.7713 41.8211C51.1018 41.5176 50.5121 41.262 49.7151 40.9265ZM10.7591 17.5719C11.572 17.9393 12.3371 18.2748 13.2775 18.7061C12.5922 17.9553 12.0821 17.3962 11.5083 16.7732C11.2373 17.0607 11.0301 17.2843 10.7591 17.5719ZM50.9105 39.5527C50.4961 39.8882 50.1454 40.1597 49.6991 40.5112C50.3845 40.8147 50.9584 41.0543 51.7235 41.3898C51.4047 40.6709 51.1656 40.1597 50.9105 39.5527ZM66.2283 14.4089V12.3642H66.1168C65.8139 13.0351 65.5111 13.7061 65.1604 14.4888C65.5748 14.4569 65.8777 14.4249 66.2283 14.4089ZM49.1413 33.8019C49.1572 33.8658 49.1891 33.9297 49.205 33.9936C50.2251 33.6741 51.4365 33.9297 52.361 32.6997C51.1656 33.099 50.1454 33.4505 49.1413 33.8019ZM31.2253 41.6294C32.0542 41.7252 32.3889 41.1022 32.5164 39.2013C32.0542 40.0799 31.6398 40.8307 31.2253 41.6294ZM49.5557 27.8115C49.205 28.4185 48.8862 28.9776 48.5834 29.5208C48.6312 29.5527 48.679 29.6006 48.7109 29.6326C49.205 29.2812 49.6991 28.9457 50.2411 28.5783C49.9861 28.3067 49.8107 28.099 49.5557 27.8115ZM52.0901 44.5687C52.0263 43.722 51.9944 43.115 51.9307 42.3003C51.5481 42.7796 51.325 43.0671 51.0859 43.3866C51.3728 43.722 51.6438 44.0415 52.0901 44.5687ZM79.6015 12.7796C79.6015 12.6837 79.6175 12.5719 79.6175 12.476C78.4858 12.3802 77.3541 12.2843 76.2224 12.1725C76.2224 12.2204 76.2064 12.2684 76.2064 12.3163C77.3381 12.476 78.4698 12.6198 79.6015 12.7796ZM31.1616 42.0927C31.2094 42.6358 31.2572 43.099 31.305 43.5463H31.4804C31.6079 43.0831 31.7354 42.6038 31.8629 42.0927H31.1616ZM29.5836 46.4537C29.6314 46.901 29.6792 47.2204 29.743 47.6997C30.1415 47.2524 30.4284 46.9489 30.795 46.5335C30.3168 46.5016 30.0139 46.4856 29.5836 46.4537ZM46.4475 19.4249C46.1447 19.9681 45.9215 20.3674 45.6824 20.7987H46.6707C46.6069 20.3514 46.5431 19.984 46.4475 19.4249ZM15.5888 20.3035C16.1307 20.8466 16.5292 21.2141 16.9277 21.6134C17.1986 20.8147 17.1668 20.7668 15.5888 20.3035ZM37.5852 55C37.4258 53.9297 37.9199 53.147 38.6691 52.4441C39.211 51.9489 39.6732 51.3578 40.1833 50.7827C40.7093 51.3578 41.1875 51.885 41.8091 52.5559V49.1534C42.1598 49.1374 42.3989 49.1214 42.7017 49.1054V54.984C41.7932 53.9936 41.0281 53.147 40.1514 52.1885C39.3226 53.147 38.5256 54.0895 37.7286 55.016C37.6808 55 37.633 55 37.5852 55ZM16.5292 49.0895C18.1391 49.0895 19.4142 50.3674 19.4142 51.9489C19.4142 53.5303 18.0913 54.8243 16.5133 54.8083C14.9512 54.7923 13.692 53.5463 13.692 51.9649C13.6601 50.3514 14.9034 49.0895 16.5292 49.0895ZM18.4579 51.9329C18.4579 50.8626 17.5812 50.016 16.5292 50.0319C15.4612 50.0479 14.6165 50.9105 14.6165 51.9649C14.6165 53.0032 15.525 53.8978 16.5611 53.8818C17.5971 53.8658 18.4579 52.9872 18.4579 51.9329ZM27.2883 51.9169C27.3042 53.4984 26.0132 54.8083 24.4192 54.8083C22.8571 54.8083 21.5979 53.5783 21.566 51.9968C21.5342 50.3674 22.7615 49.1054 24.3873 49.0895C25.9972 49.0735 27.2724 50.3195 27.2883 51.9169ZM26.3479 51.901C26.3319 50.8307 25.4553 50 24.3873 50.016C23.3353 50.0319 22.4587 50.9425 22.4905 51.9808C22.5224 53.0192 23.4469 53.8978 24.483 53.8818C25.519 53.8498 26.3638 52.9553 26.3479 51.901ZM49.0616 49.1214C49.4122 49.1054 49.6673 49.0895 49.9701 49.0735V54.7604H49.0934V52.476H47.0691V54.7444H46.1606V51.4697H49.0616V49.1214ZM6.32795 48.8818C7.10899 49.7764 7.79438 50.5431 8.5276 51.3898C9.37239 50.4633 10.0737 49.6965 10.791 48.9297C10.8707 48.9936 10.9344 49.0575 11.0141 49.1374C11.3011 50.9744 9.38832 51.3578 8.62323 52.8594C8.12911 52.2204 7.74656 51.7252 7.36402 51.246C7.30026 51.278 7.2365 51.3259 7.17274 51.3578V54.7764H6.32795V48.8818ZM33.4887 49.1054H34.3654V54.9042C34.0147 54.5367 33.7597 54.2652 33.5047 53.9936C32.5961 52.9872 31.7035 51.9808 30.795 50.9744C30.1255 50.2236 30.1096 50.2236 30.2371 48.9617C31.321 50.1597 32.3411 51.262 33.4887 52.5399V49.1054ZM68.9859 54.7604V50.4473H69.7988C69.8306 50.7987 69.8785 51.1022 69.9103 51.4697H71.313V52.3802C70.8667 52.3962 70.4204 52.4281 69.9263 52.4441V53.8658H72.7954V54.7604H68.9859ZM53.2536 54.7125C54.1462 52.7796 55.0229 50.8946 55.9155 48.9617C56.4256 49.5847 56.4734 50.1278 56.1227 50.7827C55.5489 51.853 55.0389 52.9712 54.5766 54.1054C54.3375 54.6965 54.0187 54.9681 53.2536 54.7125ZM61.9566 49.1214H62.7535V53.4345C62.5145 53.4505 62.2754 53.4665 61.9566 53.4824V49.1214ZM56.7444 50.5911C57.3979 52.0128 58.0195 53.3546 58.6571 54.7125C57.9398 54.984 57.5732 54.7764 57.3341 54.1214C57.111 53.5304 56.856 52.9393 56.5372 52.3802C56.1865 51.7732 56.2024 51.23 56.7444 50.5911ZM65.7661 53.9297V54.7604H61.9247C61.9087 54.4888 61.8928 54.2332 61.8928 53.9297H65.7661ZM69.0018 49.9521V49.1214H72.7954C72.8113 49.377 72.8273 49.6326 72.8432 49.9521H69.0018ZM11.0141 50.8786V54.7604C10.7432 54.7764 10.5041 54.8083 10.0897 54.8403C10.4244 53.4984 9.4999 52.0447 11.0141 50.8786ZM31.1297 54.8083H30.4762C30.3965 54.8083 30.3327 54.7604 30.2371 54.7284V51.0224C31.6557 52.1086 30.8269 53.5144 31.1297 54.8083ZM37.6489 52.8754V49.1214H38.5734C38.2865 50.3674 39.1632 51.8211 37.6489 52.8754Z"
  />
  <path d="M46.1606 51.0224V49.1534H47.0373V51.0224H46.1606Z" />
</svg>
