<svg viewBox="0 0 98 60" xmlns="http://www.w3.org/2000/svg">
  <path
    d="M53.3124 5C53.9431 5.55854 54.5684 6.11708 55.2045 6.67025C57.3607 8.54995 59.5277 10.4243 61.6839 12.2986C61.7648 12.3684 61.8457 12.4436 61.9912 12.5725C61.9211 12.6047 61.8564 12.6208 61.8133 12.6584C57.7003 16.2245 53.5873 19.7959 49.4798 23.362C49.0431 23.7433 48.9623 23.7379 48.5256 23.362C44.4234 19.8013 40.3158 16.2352 36.2136 12.6745C36.1651 12.6316 36.122 12.5886 36.0573 12.5295C36.6233 12.0354 37.1839 11.5521 37.7446 11.0634C40.014 9.09237 42.2834 7.12675 44.5528 5.15575C44.6067 5.10741 44.6498 5.05371 44.6983 5H53.3124V5ZM47.1672 13.942C45.8627 14.5972 44.5528 15.2524 43.2375 15.913C43.7927 16.8743 44.3318 17.8034 44.8816 18.754C44.9463 18.652 45.0002 18.5714 45.0487 18.4909C45.7818 17.2288 46.5096 15.9667 47.2427 14.7046C47.4583 14.3233 47.4583 14.3233 47.1672 13.942ZM50.8382 11.1224C52.1319 10.4726 53.4418 9.8174 54.7625 9.15145C54.2073 8.19012 53.6682 7.26638 53.113 6.30505C53.0429 6.4232 52.9836 6.50913 52.9351 6.60043C52.2128 7.8464 51.5066 9.09774 50.7627 10.333C50.5794 10.6445 50.5686 10.87 50.8382 11.1224ZM47.205 11.0526C47.4206 10.8324 47.426 10.6606 47.2804 10.4189C46.5257 9.15145 45.7926 7.86788 45.0541 6.58969C45.0056 6.50376 44.9517 6.4232 44.8816 6.31579C44.3641 7.2073 43.8682 8.0666 43.3615 8.94737C44.6606 9.65628 45.9328 10.3545 47.205 11.0526ZM50.795 14.0172C50.5848 14.2159 50.5633 14.3878 50.7088 14.6348C51.4689 15.9184 52.2128 17.2127 52.9567 18.507C52.9998 18.5875 53.0537 18.6574 53.113 18.754C53.6305 17.8625 54.1264 17.0032 54.6331 16.1278C53.3448 15.4135 52.078 14.7207 50.795 14.0172ZM48.5418 10.247V5.88077H45.6579C45.7118 5.98281 45.7549 6.06337 45.798 6.13856C46.5473 7.42213 47.2966 8.70569 48.0297 10C48.1537 10.2202 48.2831 10.3222 48.5418 10.247ZM52.3421 5.88614H49.442V10.3276C49.6145 10.2524 49.8086 10.2363 49.8679 10.1396C50.698 8.73792 51.512 7.32546 52.3421 5.88614ZM49.4474 14.8174V19.1783H52.3314C52.2774 19.0763 52.2397 19.0011 52.1966 18.9259C51.4419 17.6262 50.6872 16.3265 49.9433 15.0215C49.8248 14.812 49.69 14.7422 49.4474 14.8174ZM48.558 14.812C48.3316 14.7583 48.186 14.7905 48.062 15.0107C47.3181 16.3265 46.5527 17.6316 45.798 18.9366C45.7549 19.0064 45.7172 19.0816 45.6686 19.1729H48.558V14.812ZM55.0751 15.3706C55.5387 14.5704 55.9915 13.7863 56.4659 12.9646H56.164C54.6547 12.9646 53.1453 12.9699 51.636 12.9592C51.4096 12.9592 51.2802 13.0236 51.2317 13.2599C52.4985 13.9527 53.7706 14.6563 55.0751 15.3706ZM41.5341 12.0945C43.2213 12.0945 44.8547 12.0999 46.488 12.0838C46.5904 12.0838 46.6928 11.9495 46.8492 11.8475C45.5015 11.1063 44.224 10.4082 42.9249 9.69388C42.4613 10.4941 42.0139 11.2728 41.5341 12.0945ZM42.8009 15.1557C44.1323 14.4898 45.4369 13.8346 46.7306 13.1847C46.6929 12.9646 46.5527 12.9646 46.4018 12.9646H41.8252C41.7497 12.9646 41.6689 12.9699 41.5449 12.9807C41.9653 13.7164 42.375 14.4253 42.8009 15.1557ZM60.0614 13.0236C60.0506 13.0021 60.0398 12.986 60.029 12.9646C59.2582 12.9646 58.4873 12.9699 57.7165 12.9592C57.5278 12.9538 57.4308 13.029 57.3392 13.1847C56.5575 14.5489 55.7651 15.9076 54.9781 17.2718C54.9404 17.3362 54.9134 17.406 54.8811 17.4705C54.8919 17.4758 54.9026 17.4812 54.9134 17.4919C56.633 15.9989 58.3472 14.5113 60.0614 13.0236ZM37.9602 12.9646C37.9494 12.986 37.944 13.0021 37.9332 13.0236C39.6474 14.5113 41.3616 16.0043 43.0812 17.4919C43.0758 17.3899 43.0381 17.3093 42.9949 17.2342C42.278 15.9989 41.5395 14.7691 40.8549 13.5177C40.6231 13.0934 40.3751 12.9162 39.8846 12.9538C39.2485 13.0021 38.6017 12.9646 37.9602 12.9646ZM60.1207 12.0945C58.3634 10.5693 56.6653 9.09237 54.9619 7.62084C54.9565 7.73899 54.9943 7.82492 55.0428 7.90548C55.6627 8.97422 56.2772 10.043 56.8971 11.1063C57.0858 11.4286 57.2098 11.8797 57.4901 12.0408C57.7866 12.2073 58.2394 12.0945 58.6221 12.0945C59.1019 12.0999 59.5709 12.0945 60.1207 12.0945ZM37.9009 12.073C37.9871 12.0838 38.0141 12.0945 38.0464 12.0945C38.8173 12.0945 39.5935 12.0999 40.3644 12.0892C40.456 12.0892 40.5854 11.9871 40.6339 11.8958C41.4209 10.5532 42.1971 9.20516 42.9788 7.85714C43.0165 7.7927 43.0435 7.72288 43.0758 7.65306C43.0596 7.64232 43.0488 7.63158 43.0327 7.61547C41.3347 9.09237 39.6366 10.5693 37.9009 12.073ZM56.4551 12.0838C56.0293 11.348 55.6196 10.6391 55.1991 9.91407C53.873 10.58 52.5631 11.2352 51.2586 11.8904C51.2586 11.928 51.2532 11.9603 51.2532 11.9979C51.3664 12.0301 51.4743 12.0945 51.5875 12.0945C53.1292 12.0999 54.6708 12.0999 56.2179 12.0999C56.2826 12.0945 56.3527 12.0892 56.4551 12.0838ZM49.4474 20.0859V22.2342C50.2776 21.5091 51.0807 20.8163 51.9217 20.0859H49.4474ZM48.5526 22.2395V20.0967H46.0837C46.9246 20.8217 47.7171 21.5145 48.5526 22.2395ZM98 38.6735C97.9838 38.7164 97.9623 38.754 97.9569 38.797C97.8868 39.2803 97.8868 39.2803 97.3801 39.2803H87.6663C87.7095 39.4522 87.7418 39.5865 87.7849 39.7207C88.3617 41.4608 89.898 42.406 91.7739 42.1912C92.6903 42.0891 93.5043 41.7991 94.0811 41.0312C94.1188 40.9828 94.1997 40.9452 94.259 40.9452C95.2993 40.9398 96.3397 40.9398 97.4232 40.9398C97.3855 41.0634 97.3693 41.1547 97.337 41.2406C97.0081 42.1375 96.4529 42.8733 95.6875 43.4479C93.4719 45.1235 89.9196 45.3008 87.5801 43.8131C85.8605 42.7229 84.9064 41.1332 84.68 39.1139C84.5183 37.7121 84.6368 36.3319 85.2891 35.0591C86.3834 32.9055 88.173 31.7401 90.5772 31.5199C92.0381 31.3856 93.4504 31.5789 94.7387 32.3201C96.6308 33.4103 97.6927 35.0591 97.9461 37.2234C97.9569 37.2932 97.9784 37.3577 97.9946 37.4275C98 37.8518 98 38.2599 98 38.6735ZM94.8034 36.7508C94.5662 35.1719 93.0138 34.0655 91.1163 34.1085C89.4829 34.1407 87.9359 35.3652 87.7849 36.7508H94.8034ZM0 31.7454H2.95941V33.4372C4.28548 32.8625 5.56843 32.3093 6.88911 31.7401V34.0333C6.88911 34.2857 6.96997 34.5918 6.85138 34.7691C6.73278 34.9463 6.42013 34.9893 6.18834 35.0859C5.19648 35.4941 4.19923 35.9023 3.20198 36.2997C3.0187 36.3749 2.97019 36.4662 2.97019 36.6541C2.97558 39.1783 2.97558 41.6971 2.97558 44.2213V44.5811H0V31.7454ZM29.4323 55C29.2545 54.957 29.0712 54.9141 28.8933 54.8657C27.4217 54.4629 26.3975 53.2277 26.2034 51.6488C26.0848 50.6928 26.1387 49.753 26.5268 48.8614C27.5295 46.5414 30.1169 46.2836 31.6209 47.0301C32.4241 47.4329 33.0925 48.3136 33.2165 49.1353C32.8338 49.232 32.4457 49.3287 32.036 49.4307C31.9821 49.3179 31.9282 49.2159 31.8796 49.1139C31.1358 47.3577 28.834 47.6692 28.0631 48.7379C27.6049 49.3716 27.4594 50.0859 27.454 50.8378C27.454 51.4232 27.5457 51.9979 27.8152 52.5242C28.3704 53.6144 29.7288 54.0977 30.8608 53.6144C31.3729 53.3942 31.6694 52.9807 31.9012 52.5027C31.9389 52.4221 31.9767 52.3416 32.0252 52.2288C32.4187 52.3255 32.8122 52.4221 33.2381 52.5295C32.9092 53.6788 32.2462 54.4791 31.1034 54.8389C30.8932 54.9033 30.6722 54.9463 30.4565 55H29.4323ZM20.0205 44.5596H17.0503V43.5124C16.9425 43.5983 16.8778 43.6412 16.8185 43.6896C15.8374 44.4683 14.7054 44.8013 13.4656 44.8174C11.4657 44.8443 9.71914 44.2481 8.33916 42.7605C7.15864 41.4876 6.67349 39.9463 6.65732 38.2438C6.64114 36.4178 7.15325 34.7852 8.45236 33.4479C9.88625 31.9764 11.6651 31.4071 13.6812 31.5091C15.0612 31.5789 15.5787 31.8099 17.0233 32.7712V31.7615H20.0205V44.5596ZM17.0341 38.1794C17.0341 38.0559 17.0395 37.927 17.0341 37.8034C16.9263 35.7948 15.638 34.4146 13.8213 34.2374C11.7568 34.0333 10.3013 35.0859 9.78383 36.7508C9.55743 37.4812 9.53047 38.2331 9.65446 38.9796C9.87008 40.3222 10.5493 41.3534 11.8538 41.8314C13.2122 42.3308 14.5491 42.2395 15.7188 41.305C16.7053 40.5102 17.0287 39.4039 17.0341 38.1794ZM41.0274 39.2857H30.7369C30.8015 39.5005 30.8447 39.6885 30.9094 39.8657C31.5077 41.5038 33.0278 42.3953 34.8444 42.1966C35.7608 42.0945 36.5748 41.8099 37.1516 41.0419C37.1893 40.9936 37.2702 40.9506 37.3295 40.9506C38.3699 40.9506 39.4102 40.956 40.456 40.9613C40.4614 40.9613 40.4668 40.9721 40.4937 40.9989C40.332 41.5789 40.0571 42.1106 39.669 42.5832C38.7256 43.7272 37.4858 44.3716 36.0519 44.6509C34.2838 44.9946 32.5535 44.8926 30.9525 43.9903C29.082 42.9377 28.0308 41.3104 27.7667 39.189C27.578 37.6369 27.7343 36.1224 28.5321 34.7476C29.6695 32.782 31.4053 31.724 33.6639 31.5252C35.1248 31.3963 36.5425 31.5897 37.8254 32.3362C39.7444 33.4479 40.8172 35.1235 41.022 37.3255C41.0759 37.9646 41.0274 38.609 41.0274 39.2857ZM37.8793 36.7454C37.5882 35.4189 36.3915 34.0118 34.1437 34.1031C32.5427 34.1676 31.0657 35.3276 30.8447 36.7454H37.8793ZM65.3549 31.4876C67.9963 31.5306 70.0393 32.5618 71.3222 34.8872C72.0607 36.2191 72.1955 37.6692 72.023 39.1568C71.7966 41.0956 70.8748 42.6316 69.2576 43.7379C68.1256 44.5113 66.8481 44.812 65.4897 44.8228C63.4359 44.8443 61.6624 44.2052 60.2824 42.6423C59.2744 41.4984 58.8 40.145 58.7245 38.6466C58.6329 36.8851 59.0048 35.247 60.153 33.8561C61.3282 32.4329 62.8537 31.681 64.6865 31.536C64.9183 31.5091 65.1501 31.4984 65.3549 31.4876ZM61.6354 38.4157C61.63 40.5048 63.1017 41.9227 64.9991 42.0945C66.8589 42.2664 68.4383 41.2567 68.9234 39.5005C69.1013 38.8561 69.1391 38.1955 69.0582 37.5349C68.8911 36.16 68.2766 35.0591 66.9559 34.5274C65.5921 33.9742 64.2337 34.0655 63.0316 34.9839C61.9912 35.768 61.6462 36.8958 61.6354 38.4157ZM83.963 44.5596H80.9929V44.2052V37.0086C80.9929 36.3373 80.8743 35.7089 80.4484 35.1665C79.7584 34.2965 78.5186 33.9742 77.3435 34.3609C76.3354 34.6939 75.6886 35.58 75.6832 36.7186C75.667 39.2159 75.6778 41.7132 75.6778 44.2105V44.5489H72.713V31.7562H75.6724V32.6799C75.764 32.6155 75.8125 32.5832 75.8557 32.5457C76.7882 31.7186 77.8987 31.4447 79.1223 31.4984C81.92 31.6165 83.8498 33.8131 83.9415 36.4286C83.9792 37.4543 83.963 38.4855 83.9684 39.5166C83.9738 41.0849 83.9684 42.6477 83.9684 44.2159C83.963 44.3233 83.963 44.4253 83.963 44.5596ZM50.0134 35.5532H47.0378C47.0109 35.3813 46.9947 35.2148 46.957 35.0537C46.8168 34.4683 46.4018 34.1031 45.8088 34.0494C45.6417 34.0333 45.4692 34.0333 45.2967 34.0494C44.8062 34.1031 44.4127 34.3072 44.2509 34.8013C44.0838 35.3169 44.1431 35.811 44.569 36.1762C44.8169 36.3856 45.1134 36.5628 45.4153 36.681C46.1646 36.9764 46.9408 37.2019 47.6901 37.5027C48.6766 37.8947 49.4851 38.4962 49.814 39.5596C50.6387 42.2342 49.1509 44.3179 46.6551 44.7368C45.6471 44.9033 44.6498 44.855 43.6903 44.4683C42.1217 43.84 41.1082 42.3093 41.2215 40.7411H44.1485C44.1862 40.9506 44.2078 41.1654 44.2725 41.3641C44.5097 42.1214 45.356 42.4812 46.2239 42.2019C46.8923 41.9871 47.2319 41.2889 47.0163 40.5747C46.8977 40.1933 46.6389 39.9141 46.2832 39.7583C45.7225 39.5166 45.1458 39.3233 44.5798 39.0977C44.1054 38.9098 43.6149 38.7433 43.1728 38.4962C42.0624 37.8786 41.5503 36.8851 41.4532 35.6391C41.2484 32.9484 43.3831 31.3588 45.8573 31.493C47.0756 31.5575 48.1591 31.9388 49.0108 32.8518C49.7116 33.6037 49.9972 34.5113 50.0134 35.5532ZM51.609 31.7562V28.8668H54.5415V31.7401H58.4981V34.4629H54.5469V39.9785C54.5469 40.1289 54.5469 40.2846 54.5684 40.435C54.6978 41.3319 55.2476 41.8153 56.1802 41.8475C56.5683 41.8636 56.951 41.8528 57.3392 41.8528H58.4927V44.5865C57.226 44.5328 55.97 44.6939 54.7248 44.4307C52.989 44.0655 51.9271 42.9323 51.7007 41.1708C51.6468 40.7465 51.6198 40.3169 51.6198 39.8872C51.609 38.1955 51.6144 36.5038 51.6144 34.812V34.4683H50.2075V31.7562H51.609ZM24.0149 44.5596H21.0447V31.7615H24.0095V33.4318C25.3355 32.8625 26.6131 32.3093 27.923 31.7401V33.5983C27.923 33.9205 27.9122 34.2428 27.9284 34.565C27.9392 34.753 27.8691 34.8281 27.702 34.898C26.5538 35.3598 25.411 35.8324 24.2628 36.2889C24.0688 36.3641 24.0095 36.4608 24.0149 36.6595C24.0202 39.1729 24.0202 41.6917 24.0202 44.2052C24.0149 44.3179 24.0149 44.4307 24.0149 44.5596ZM58.5305 54.9033C58.7946 54.1461 59.0426 53.4211 59.2959 52.696C59.959 50.7948 60.622 48.899 61.2743 46.9979C61.3389 46.8045 61.4252 46.724 61.63 46.7401C61.851 46.7562 62.0828 46.7615 62.3039 46.7401C62.5249 46.7186 62.6111 46.8099 62.6812 47.0086C63.4359 49.1944 64.1959 51.3802 64.956 53.5661C65.1069 53.9957 65.2525 54.4253 65.4196 54.898C64.9829 54.898 64.584 54.9033 64.1851 54.8872C64.1366 54.8872 64.0719 54.7691 64.045 54.6939C63.8617 54.1622 63.6784 53.6305 63.5113 53.0934C63.4628 52.9431 63.4035 52.8733 63.2364 52.8786C62.4009 52.8894 61.5653 52.8894 60.7298 52.8786C60.5627 52.8786 60.4926 52.9377 60.4441 53.0881C60.277 53.6144 60.0883 54.1353 59.9266 54.667C59.8673 54.8604 59.7703 54.9141 59.5816 54.9033C59.242 54.8926 58.9024 54.9033 58.5305 54.9033ZM63.0477 51.6595C62.692 50.5693 62.347 49.5113 61.975 48.3781C61.6031 49.522 61.2581 50.58 60.9077 51.6595H63.0477ZM41.0112 54.9033C40.6177 54.9033 40.235 54.9141 39.8469 54.8926C39.7822 54.8872 39.7013 54.7798 39.6744 54.7046C39.4857 54.1729 39.3024 53.6412 39.1407 53.1042C39.0868 52.927 39.0005 52.8733 38.8173 52.8733C37.9979 52.884 37.1839 52.884 36.3646 52.8733C36.1921 52.8733 36.1112 52.927 36.0627 53.0881C35.8956 53.6251 35.7015 54.1568 35.5344 54.6885C35.4859 54.8443 35.4158 54.9033 35.2541 54.898C34.9037 54.8872 34.5534 54.8926 34.1652 54.8926C34.1976 54.7852 34.2138 54.7046 34.2407 54.6241C35.1301 52.0784 36.0196 49.5328 36.8982 46.9817C36.9629 46.7884 37.0492 46.7078 37.254 46.724C37.502 46.7401 37.7553 46.7347 38.0087 46.724C38.1435 46.7186 38.2189 46.7562 38.2674 46.8904C39.1784 49.522 40.0948 52.1536 41.0112 54.7852C41.0166 54.8228 41.0112 54.8389 41.0112 54.9033ZM38.6663 51.6595C38.3106 50.5746 37.9656 49.5059 37.599 48.3835C37.2325 49.5113 36.8821 50.58 36.5317 51.6595H38.6663ZM43.9437 51.5628V54.8872H42.6769V46.7938C42.7038 46.7777 42.7146 46.7562 42.7308 46.7562C43.8143 46.7615 44.9032 46.7186 45.9867 46.7884C47.3289 46.869 48.1699 47.884 48.1321 49.2642C48.0998 50.5639 47.178 51.5091 45.8681 51.5628C45.2482 51.5843 44.6175 51.5628 43.9437 51.5628ZM43.9598 50.3491C44.5905 50.3491 45.2104 50.3813 45.825 50.3383C46.488 50.29 46.8492 49.812 46.8168 49.1085C46.7899 48.4049 46.391 47.9807 45.7226 47.9646C45.1727 47.9484 44.6283 47.9592 44.0784 47.9646C44.0353 47.9646 43.9976 47.9807 43.9598 47.9914V50.3491ZM55.032 47.9592H52.741V46.7723H58.579V47.9646H56.315V54.8872H55.032V47.9592ZM68.3197 53.6896H71.8343V54.8872H67.0583V46.7669H68.3197V53.6896ZM49.8571 46.7615H51.1023V54.8926H49.8571V46.7615Z"
  />
</svg>
