<svg viewBox="0 0 132 60" xmlns="http://www.w3.org/2000/svg">
  <path
    d="M38.9274 18.4482C38.8361 19.1143 38.7143 19.6594 38.7143 20.1741V31.9834C38.7143 33.7396 38.8361 33.8607 40.6318 33.8607C42.5492 33.8607 44.4667 33.7699 46.3841 33.7699C46.7189 33.7699 47.0537 33.9516 47.7537 34.1938C46.6885 34.9205 45.9885 35.4958 45.1971 35.8895C44.5884 36.1923 44.1623 36.5254 44.071 37.1613C43.9493 37.9485 43.4927 38.4936 42.9145 39.0386C42.4884 39.4323 41.9709 39.8562 42.3362 40.5829C43.5536 41.1582 44.5275 40.3104 45.6232 40.0379C45.8059 39.5231 45.958 39.0689 46.1102 38.6147H46.3233C46.3841 39.0992 46.4754 39.6139 46.5363 40.0984C47.9668 40.1287 48.1494 39.8865 48.5755 37.5852C49.0625 37.4338 49.5799 37.2824 50.0669 37.131C50.8886 38.4027 50.9191 38.7964 49.8842 39.5837C49.0625 40.2195 48.0277 40.5829 47.2668 41.2793C46.2015 42.218 44.9841 42.0666 43.7362 42.0666H29.0053C28.9444 41.3096 28.8836 40.6737 28.8836 40.0379C28.8836 30.4391 28.914 20.8706 28.914 11.2718C28.914 10.2423 29.0966 10.0303 30.1314 10C31.0445 9.96973 31.9576 9.96973 32.8706 9.96973C38.7143 9.96973 44.5275 9.87889 50.3712 10.0606C52.5322 10.1211 54.8148 10.1514 56.7323 11.5746C57.6149 12.2105 58.315 12.9372 58.4976 14.0575C58.6802 15.2385 58.9541 16.4497 58.9845 17.6306C59.0454 21.6276 59.015 25.5943 59.015 29.5912C59.015 30.9538 58.8324 31.1052 57.4323 31.1961C56.9149 31.2264 56.3975 31.2869 55.9105 31.1658C53.9626 30.7722 52.2887 31.3778 50.6756 32.3467C50.3103 32.5587 49.9147 32.7404 49.3668 33.0432V27.2899C49.3668 25.3217 49.3668 23.3535 49.3973 21.3853C49.4277 19.084 48.7886 18.4179 46.5059 18.3876C44.0101 18.4482 41.6057 18.4482 38.9274 18.4482ZM102.295 21.9606C105.582 22.2332 108.838 21.8395 112.217 22.2332V29.1673C112.217 29.894 111.821 30.2877 111.091 30.2877C109.782 30.2877 108.443 30.2877 107.134 30.318C105.582 30.3482 103.999 30.3785 102.325 30.4088C101.96 34.3149 102.295 38.0999 102.082 42.0364C98.8859 42.1878 95.7205 42.0969 92.3726 42.0666C92.3422 40.4921 92.3117 39.0689 92.3117 37.6155V12.0288V11.1204C92.3117 10.3634 92.7378 10 93.4379 10C94.4422 10 95.4771 10.0303 96.4814 10.0303H120.069C120.678 10.0303 121.074 10.3331 121.074 10.9387C121.104 13.3611 121.074 15.7532 121.074 18.3876C114.773 18.5087 108.595 18.3573 102.264 18.4482C102.295 19.6594 102.295 20.7797 102.295 21.9606ZM89.4203 34.6783V42.1272H78.0678C77.3982 42.1272 76.6982 42.2483 76.0895 41.673C75.8155 41.4307 75.2068 41.5216 74.7503 41.5216H69.6371C69.6371 41.0674 69.5762 40.704 69.6371 40.4012C70.0023 38.7661 69.5762 37.5246 68.0848 36.5557C66.9587 35.8289 65.9848 34.8297 65.5891 33.4671C65.4978 33.1946 65.5282 32.8918 65.4978 32.589C66.7152 31.6806 68.6327 31.5292 68.7849 29.2582C68.3588 29.561 68.0544 29.7124 67.8414 29.9243C66.837 31.0447 65.5587 31.3172 64.1586 31.0447C63.1847 30.863 62.2107 30.5905 61.0542 30.3482C60.9933 29.7729 60.902 29.1067 60.902 28.4103C60.902 26.9569 60.8716 25.4731 61.0237 24.0197C61.1455 22.9902 61.4498 21.9606 61.8151 20.9917C62.4847 19.296 63.9456 18.3573 65.65 17.9334C67.1109 17.57 68.6327 17.3581 70.124 17.3278C74.7503 17.2672 79.3461 17.2672 83.9723 17.3581C85.2202 17.3884 86.4985 17.6306 87.6551 18.0848C89.1768 18.6904 90.0595 19.9622 90.3638 21.6276C90.8204 24.1408 90.7595 26.6541 90.3334 29.137C90.1203 30.4391 89.2986 31.3172 88.0203 31.8622C86.8637 32.3467 85.6767 32.4073 84.4897 32.4073H70.7936C70.8545 33.0734 70.8849 33.5882 70.9458 34.1938C71.9198 34.3149 72.772 34.4663 73.5937 34.4663C77.033 34.4966 80.5026 34.4966 83.9419 34.4966C85.2506 34.4966 86.5594 34.4663 87.8681 34.4663C88.3246 34.436 88.8116 34.5874 89.4203 34.6783ZM75.6329 25.1098C74.172 25.1098 72.6806 25.1401 71.2197 25.1098C70.6414 25.1098 70.3371 25.4429 70.2458 25.8971C70.1545 26.4118 70.3675 26.8963 70.9458 27.078C71.1284 27.1385 71.3415 27.1991 71.5241 27.1991C74.2937 27.1991 77.0938 27.2294 79.8635 27.2294C80.5635 27.2294 81.0505 26.9266 81.0505 26.1696C81.0505 25.4731 80.6853 25.1401 79.7113 25.1401C78.3721 25.1098 77.0025 25.1098 75.6329 25.1098ZM8.85681 18.4179H0.121743C0.0608716 17.9031 0 17.5095 0 17.1158V11.6654C0 10.1514 0.0913074 10.0303 1.6131 10.0303C5.53931 10 9.43509 10.0303 13.3309 10.0303C17.5919 10.0303 21.8529 10 26.1139 10C27.6661 10 27.7574 10.1211 27.7574 11.6049C27.7574 13.3308 27.7879 15.0265 27.7574 16.7525C27.7574 17.237 27.6966 17.7517 27.6357 18.3876H18.8398C18.718 22.4451 18.8093 26.3815 18.7789 30.2877V42.0061H9.1003C9.03943 41.3096 8.94812 40.6737 8.94812 40.0379C8.94812 33.2248 8.97856 26.4118 8.97856 19.5988C9.06986 19.296 8.94812 18.9629 8.85681 18.4179ZM131.97 42.0364H122.23C122.2 41.4913 122.108 41.0068 122.108 40.5223C122.108 34.1635 122.108 27.8047 122.078 21.4762C122.078 21.1734 122.078 20.8706 122.108 20.5678C122.139 19.9319 122.504 19.6594 123.082 19.6594H130.996C131.696 19.6594 131.97 20.0833 131.97 20.7192V42.0364ZM122.139 17.6609C122.139 15.2687 122.108 13.0583 122.139 10.8479C122.139 10.212 122.626 10 123.174 10H130.904C131.483 10 131.909 10.3028 131.909 10.8781C131.909 12.9977 131.848 15.0871 131.817 17.2067C131.817 17.3278 131.665 17.4489 131.574 17.6306C128.561 17.6609 125.487 17.6609 122.139 17.6609ZM117.939 44.0651C119.795 43.5504 121.134 44.0046 121.926 45.6397C123.448 44.6707 124.269 44.6707 125.639 45.67C126.217 45.4277 126.765 45.0644 127.343 44.9735C127.952 44.8827 128.622 45.0038 129.413 45.0644C129.596 46.3664 129.687 47.6684 129.322 48.9402C129.017 49.9092 127.282 50.3634 126.582 49.6367C126.369 49.4247 126.339 48.9402 126.278 48.5769C126.217 48.2135 126.187 47.8501 126.126 47.2445C125.639 47.517 125.365 47.6382 125.122 47.8198C123.965 48.6374 123.661 48.6677 122.595 47.8198C122.017 47.3354 121.621 47.1234 121.134 47.8501C121.104 47.8804 121.074 47.941 121.043 47.941C120.13 48.1227 119.308 48.9402 118.304 48.3346C117.36 47.7593 117.695 46.8206 117.695 46.003C117.665 45.3974 117.847 44.701 117.939 44.0651ZM119.704 47.184C120.252 46.972 120.769 46.6692 120.465 45.8819C120.252 45.3369 119.947 44.8524 119.217 45.2763C119.034 45.9728 118.608 46.7298 119.704 47.184ZM128.409 46.3664H127.1C127.374 46.8206 127.556 47.0931 127.8 47.4868C128.013 47.0628 128.165 46.7903 128.409 46.3664ZM124.148 47.3959C124.239 46.9114 124.269 46.6389 124.33 46.2453C123.874 46.3058 123.569 46.3361 123.082 46.427C123.478 46.7903 123.721 47.0023 124.148 47.3959ZM51.0408 45.67C51.3147 47.184 51.2843 47.3051 50.0669 47.2748C45.3493 47.2142 40.6622 47.1234 35.9447 47.0326L27.6053 46.8509C26.8748 46.8206 26.1139 46.8509 25.3834 46.8509C25.3834 46.6995 25.353 46.5481 25.353 46.3967C26.3574 46.2756 27.3618 46.0333 28.3661 46.003C33.0837 45.8819 37.7708 45.7911 42.4884 45.7305C44.6797 45.7002 46.8407 45.7002 49.032 45.67H51.0408Z"
  />
  <path
    d="M61.2977 35.1022C61.9368 35.3141 62.576 35.4655 63.1847 35.7683C64.5239 36.4345 65.8326 37.1309 67.1109 37.8577C67.4762 38.0696 67.8414 38.4027 68.0849 38.7358C68.5414 39.3414 68.511 40.1287 67.9631 40.5223C67.2631 41.0068 66.35 41.3702 65.5283 41.4004C64.8587 41.4307 64.1282 40.9462 63.5195 40.5223C63.2456 40.3103 63.0325 39.735 63.0934 39.3414C63.276 38.3421 62.9717 37.6154 62.1803 36.9795C61.6934 36.5859 61.389 36.0106 61.0238 35.5261C61.1151 35.3747 61.2064 35.2536 61.2977 35.1022ZM53.3844 37.7668C54.1148 38.221 54.7236 38.6147 55.3627 39.0083C55.941 39.3717 56.0019 39.7956 55.6671 40.4012C55.1801 41.249 54.3888 41.8244 53.567 41.9455C52.1365 42.1574 50.6756 42.006 49.1538 42.006C49.3669 41.0068 50.0364 40.5829 50.8278 40.2195C52.3191 39.5533 52.7452 39.1597 53.3844 37.7668ZM91.977 44.0348C93.1031 43.944 93.9248 43.7623 94.6249 44.3982C94.8379 44.5798 95.1118 44.9735 95.051 45.0643C94.5944 45.7608 94.9292 46.3664 95.051 47.0628C95.2031 47.8804 94.3509 48.4557 93.1031 48.486C92.2204 48.5163 91.977 48.274 91.977 47.305C91.9465 46.2452 91.977 45.2157 91.977 44.0348ZM94.2292 47.517C94.0162 46.8508 94.0466 46.1847 93.2248 46.3966C93.0422 46.4269 92.7683 46.8508 92.7987 47.0325C92.9205 47.7895 93.4683 47.6684 94.2292 47.517ZM93.9857 45.6396C94.0466 44.9735 94.0162 44.4587 93.2857 44.5798C93.1031 44.6101 92.8292 44.9432 92.8292 45.1552C92.8596 45.9122 93.4074 45.7608 93.9857 45.6396ZM55.1192 43.732C56.154 45.3368 56.6106 46.7297 56.9454 48.3346C56.2149 47.9712 55.7279 47.5473 55.1801 47.517C54.6627 47.4867 54.1148 47.8804 53.5061 48.1529C53.2018 47.3959 53.6583 46.76 53.9931 46.0938C54.3279 45.3671 54.6627 44.701 55.1192 43.732ZM113.282 44.0954V48.1226C112.734 48.2437 112.217 48.3649 111.699 48.4254C110.908 48.5163 109.843 47.6078 109.782 46.8206C109.721 46.003 110.421 45.034 111.243 45.0643C112.125 45.0946 112.643 44.7312 112.978 43.944C113.069 43.9742 113.191 44.0348 113.282 44.0954ZM111.152 47.6381C112.278 47.4867 112.734 47.0931 112.643 46.4875C112.552 45.9122 111.943 45.4882 111.425 45.6396C110.786 45.791 110.725 46.2452 111.152 47.6381ZM79.7113 45.1249V48.1529C79.0722 48.2437 78.5243 48.3043 78.0069 48.3649C76.9721 48.486 76.3025 47.9106 76.2112 46.8206C76.1199 45.6699 76.6069 45.034 77.6721 45.034C78.2809 45.0038 78.8896 45.0643 79.7113 45.1249ZM78.707 47.3959C78.7374 45.8819 78.5852 45.4882 77.9156 45.5185C77.3069 45.5488 77.0026 45.9122 77.0026 46.4875C77.033 47.2142 77.6417 47.5473 78.707 47.3959ZM88.7812 45.0038C88.9638 44.6101 89.1464 44.277 89.4508 43.6109C89.9073 45.3671 89.7247 46.76 89.6334 48.1226C88.9029 48.2437 88.2638 48.3649 87.5638 48.486C86.4681 47.8198 86.0115 47.0931 86.255 46.215C86.5594 45.1552 86.8029 45.0038 88.7812 45.0038ZM87.0768 47.305C88.416 47.6987 88.7508 47.6078 88.9029 46.7903C89.0247 46.1241 88.7203 45.6699 88.0812 45.6094C87.3507 45.5488 87.1681 45.8213 87.0768 47.305ZM109.173 48.1832C108.686 48.2437 108.26 48.2437 107.864 48.3346C106.647 48.6374 106.069 48.3043 105.947 47.0325C105.886 46.4572 106.069 45.8819 106.16 45.1552H109.204C109.173 46.1847 109.173 47.1839 109.173 48.1832ZM106.647 46.6086C106.586 47.2142 106.89 47.6381 107.56 47.6684C108.291 47.6987 108.412 47.0628 108.443 46.5178C108.473 45.9122 108.108 45.6094 107.499 45.6094C106.86 45.6094 106.647 45.9727 106.647 46.6086ZM82.5723 46.6086C82.5419 45.5791 83.0897 45.0643 84.155 45.034C85.068 45.0038 85.8898 45.6699 85.9202 46.4875C85.9507 47.4262 85.0985 48.3649 84.2158 48.4254C83.3332 48.4557 82.6027 47.6381 82.5723 46.6086ZM84.8854 46.7903C84.5202 45.3974 84.4898 45.3974 83.4549 46.1544C83.9115 46.3361 84.2767 46.5178 84.8854 46.7903ZM83.668 47.0628V47.4867C84.0028 47.4867 84.368 47.4867 84.7028 47.4564C84.7332 47.4564 84.8245 47.1234 84.7637 47.0628C84.3984 46.6389 84.0332 46.7903 83.668 47.0628ZM117.056 47.9409C116.63 48.0923 116.326 48.3043 115.991 48.3346C115.26 48.3951 114.591 48.2437 114.226 47.4867C113.86 46.7297 113.982 45.9727 114.56 45.3974C114.986 45.0038 116.234 44.8221 116.691 45.2157C116.995 45.4882 117.239 45.9424 117.269 46.3664C117.3 46.8508 117.147 47.3353 117.056 47.9409ZM114.895 45.8516V46.3058C115.23 46.3664 115.595 46.3966 115.93 46.4572C115.899 46.1847 115.869 45.9424 115.839 45.6699C115.504 45.7305 115.199 45.791 114.895 45.8516ZM114.865 46.9114C115.747 47.8198 115.747 47.8198 116.447 46.9114H114.865ZM67.2327 46.8811C67.1718 46.3966 67.1109 46.003 67.05 45.5185C66.7153 45.5488 66.3805 45.5185 66.1674 45.6396C65.3761 46.0636 66.3805 46.76 65.9544 47.2748C66.3196 47.3959 66.6544 47.6078 66.9892 47.6078C67.2631 47.6078 67.5066 47.305 67.9631 47.0325C67.4762 48.1832 66.8674 48.6071 66.137 48.4254C65.4065 48.2437 64.6456 47.2445 64.7065 46.4875C64.7674 45.791 65.5891 45.0038 66.35 45.034C67.0805 45.0643 67.7805 45.1249 68.024 46.003C68.2066 46.5178 67.9631 46.8206 67.2327 46.8811ZM97.0293 46.972C97.425 46.215 97.7293 45.6094 98.0641 45.034C98.2163 45.0946 98.338 45.1854 98.4902 45.246C98.0337 46.8508 97.425 48.3951 96.2684 49.788C96.2684 48.9705 96.3901 48.1529 96.238 47.3656C96.0858 46.6389 95.4466 46.0333 95.7206 44.8524C96.2075 45.6396 96.5728 46.2452 97.0293 46.972ZM72.1024 47.0022C72.285 46.4572 72.3763 46.1847 72.5894 45.6094C71.9198 45.6699 71.4328 45.7002 70.7328 45.7608C70.9763 46.1847 71.1284 46.4269 71.2806 46.6994C71.1589 46.8508 71.0067 47.0325 70.8241 47.2748C71.6459 48.062 72.3154 47.7895 72.985 46.9417C72.9546 47.9107 72.2546 48.5163 71.4937 48.3951C70.7936 48.274 70.3067 47.8804 70.0936 47.1839C69.8806 46.4269 70.1849 45.3974 70.8241 45.246C71.4632 45.0946 72.2241 45.1552 72.8328 45.3671C73.0763 45.458 73.0763 46.2452 73.1068 46.6994C73.1372 46.76 72.5894 46.8508 72.1024 47.0022ZM64.2195 46.0636C62.576 45.3974 62.576 45.3974 61.7847 46.6086C62.4542 47.729 62.6064 47.7592 64.0369 47.2445C63.7325 48.0923 63.1847 48.5163 62.5151 48.4254C61.7847 48.3043 61.1151 47.4867 61.0542 46.6692C60.9933 45.9122 61.4194 45.2763 62.1499 45.034C62.9717 44.7918 63.5499 45.034 64.2195 46.0636ZM60.3542 46.1847C59.7759 45.8819 59.3498 45.6699 58.8324 45.4277C58.5889 46.1544 57.6454 46.548 58.315 47.3353C58.9237 48.0318 59.5933 47.4564 60.2324 47.1839C60.202 47.9107 59.715 48.4254 59.0454 48.4254C58.2237 48.4254 57.4323 47.6684 57.3715 46.7903C57.3106 45.8516 57.828 45.1249 58.6193 45.034C59.7455 44.8826 60.1107 45.1249 60.3542 46.1847ZM101.747 48.3951C100.59 47.1839 102.112 45.246 100.377 44.277C101.229 43.8531 102.051 43.9137 103.116 44.2165C101.351 45.246 102.477 47.0325 101.747 48.3951ZM81.994 48.1529C81.4462 48.486 80.8375 48.2437 80.7766 47.8198C80.6244 46.6389 80.0157 45.4277 80.8375 44.1256C81.2027 44.5193 81.5375 44.9129 81.8723 45.2763C80.9592 46.0333 80.807 46.548 81.994 48.1529ZM74.0503 48.1832V45.1552C74.5373 45.1249 74.9938 45.0946 75.3895 45.0643C75.0547 46.1544 74.7199 47.1536 74.4155 48.1832H74.0503ZM58.4976 38.3119C57.5236 38.2513 57.5237 38.2513 56.7019 37.1612C57.1584 36.8281 57.615 36.4951 58.0106 36.1923C59.1063 36.7979 58.7715 37.5549 58.4976 38.3119ZM103.877 45.1552H105.369C104.151 45.8819 104.425 47.1536 104.212 48.2437C103.543 47.4867 103.482 46.972 103.877 45.1552ZM69.2719 44.0045C69.6371 45.3974 69.7284 46.76 69.3936 48.3043C68.7849 47.4564 68.6936 45.4882 69.2719 44.0045Z"
  />
</svg>
