<svg viewBox="0 0 96 60" xmlns="http://www.w3.org/2000/svg">
  <path
    d="M0 11.8433C1.04016 11.2245 2.08032 10.6188 3.13364 10C9.54575 21.4812 15.9447 32.9625 22.37 44.47C27.8736 35.9513 33.3641 27.4589 38.8545 18.9533C38.8677 18.9533 38.8677 18.9664 38.8808 18.9664C33.3772 28.6438 27.8604 38.3344 22.3436 48.0382C22.3041 47.9855 22.2778 47.946 22.2515 47.8933C18.0513 41.0862 13.8512 34.2923 9.65109 27.4852C6.46478 22.3239 3.27847 17.1758 0.0921659 12.0145C0.0658328 11.975 0.0263331 11.9355 0 11.896V11.8433ZM50.4279 36.3199C50.4147 34.977 50.3884 33.6471 50.3884 32.3173C50.3752 30.9875 50.3884 29.6445 50.3884 28.3015H51.5602V38.0053H50.4411C50.4016 38.0053 50.3489 37.9526 50.3226 37.9131C48.5056 35.293 46.5964 32.7255 44.8716 30.0395C44.8585 30.0132 44.8321 29.9868 44.7795 29.921C44.9375 32.6333 44.8321 35.3193 44.8716 37.9921H43.6866V28.2752H44.8058C44.8453 28.2752 44.898 28.341 44.9243 28.3805C45.925 29.7893 46.9256 31.1982 47.9131 32.6201C48.7426 33.8183 49.5458 35.0296 50.3752 36.2278C50.3884 36.2804 50.4147 36.3068 50.4279 36.3199ZM54.0355 38.0053V28.3015C54.0751 28.3015 54.1145 28.2883 54.154 28.2883C55.1547 28.3015 56.1422 28.2883 57.1429 28.3147C58.2094 28.3542 59.2232 28.6307 60.1053 29.2495C60.948 29.842 61.4878 30.6452 61.738 31.6458C61.9882 32.6333 61.9882 33.634 61.7117 34.6215C61.2903 36.1751 60.2633 37.1626 58.7492 37.6761C57.9855 37.9394 57.1824 37.9789 56.3792 37.9921C55.6287 38.0053 54.8782 37.9921 54.1277 37.9921C54.1014 38.0184 54.0751 38.0053 54.0355 38.0053ZM55.2337 29.368V36.9388H56.1159C56.7479 36.9256 57.393 36.9256 58.0119 36.7808C59.289 36.4779 60.1712 35.7406 60.553 34.4635C60.7373 33.8446 60.7505 33.1995 60.6978 32.5543C60.553 31.0007 59.6313 29.9342 58.1172 29.5523C57.551 29.4075 56.9585 29.3943 56.3792 29.368C55.9842 29.3548 55.6155 29.368 55.2337 29.368ZM95.8657 38.0184H94.6412C94.6017 38.0184 94.549 37.9394 94.5359 37.8999C94.1804 37.0178 93.8249 36.1356 93.4826 35.2535C93.4431 35.135 93.3772 35.0955 93.2587 35.0955H89.5326C89.4141 35.0955 89.3614 35.135 89.3088 35.2403C88.9664 36.1224 88.6109 37.0046 88.2686 37.8999C88.2291 38.0053 88.1764 38.0448 88.0579 38.0316C87.6893 38.0184 87.3206 38.0316 86.9388 38.0316C86.9519 37.9789 86.9651 37.9263 86.9914 37.8868C88.2686 34.74 89.5589 31.6063 90.8361 28.4595C90.8887 28.341 90.9414 28.3015 91.0599 28.3015C91.2969 28.3147 91.5339 28.3147 91.7709 28.3015C91.8894 28.3015 91.9421 28.341 91.9947 28.4463C92.5741 29.8815 93.1534 31.3035 93.7459 32.7386C94.4437 34.4503 95.1415 36.1488 95.8394 37.8604C95.8262 37.8999 95.8394 37.9394 95.8657 38.0184ZM92.9691 34.0026C92.4424 32.607 91.9157 31.2245 91.4022 29.842C90.8756 31.2245 90.3489 32.607 89.8091 34.0026H92.9691ZM35.4839 28.3015H41.3693V29.3548H36.682V32.4885H40.8427V33.5681H36.682V36.9388H41.6327V38.0053H35.4839V28.3015ZM65.2008 33.5681V36.9388H70.1514V38.0053H64.0026V28.3015H69.8749V29.3548H65.1876V32.4753H69.3483V33.555C67.9789 33.5681 66.5965 33.5681 65.2008 33.5681ZM78.9335 28.3015V29.368H75.6945V38.0053H74.4964V29.368H71.2574V28.3015H78.9335ZM79.5128 28.3015H87.1758V29.3548H83.9368V38.0053H82.7386V29.368H79.5128V28.3015ZM46.5043 47.7749C46.3726 47.7749 46.2409 47.788 46.1356 47.7749C46.0961 47.7749 46.0435 47.6959 46.0303 47.6564L45.2798 45.7999C45.2403 45.6945 45.1876 45.655 45.0691 45.655H42.6596C42.5543 45.655 42.5016 45.6814 42.4621 45.7867C42.2251 46.3924 41.975 46.998 41.738 47.6169C41.6853 47.7485 41.6195 47.8144 41.4747 47.788C41.3957 47.7749 41.3167 47.788 41.2245 47.788C41.3693 47.4194 41.5142 47.0639 41.659 46.7215C42.3173 45.1284 42.9625 43.5352 43.6076 41.9421C43.6603 41.8236 43.6998 41.7709 43.8315 41.7841C43.9631 41.7972 44.0685 41.7709 44.1343 41.9421C44.9111 43.8512 45.688 45.7472 46.4648 47.6432C46.4779 47.6695 46.4911 47.709 46.5043 47.7749ZM43.871 42.2581C43.4628 43.2719 43.0546 44.2594 42.6465 45.2732H45.0691C44.661 44.2594 44.266 43.2587 43.871 42.2581ZM58.3015 47.7749C58.4332 47.4589 58.5517 47.156 58.6702 46.8532C59.3417 45.2074 60.0263 43.5616 60.6847 41.9157C60.7242 41.8104 60.79 41.7577 60.9085 41.7709C61.027 41.7841 61.1323 41.7446 61.2113 41.9157C61.9882 43.8249 62.7781 45.734 63.555 47.6432C63.5681 47.6827 63.5813 47.7222 63.5945 47.7749C63.476 47.7749 63.3838 47.7617 63.2916 47.7749C63.1863 47.788 63.1468 47.7354 63.1073 47.6432L62.3568 45.7867C62.3041 45.6682 62.2515 45.6287 62.1198 45.6287H59.7367C59.6182 45.6287 59.5655 45.655 59.5128 45.7735C59.2758 46.3924 59.0125 46.998 58.7755 47.6169C58.7228 47.7354 58.6702 47.7749 58.5517 47.7617C58.4858 47.7617 58.4068 47.7749 58.3015 47.7749ZM60.9612 42.2581C60.553 43.2719 60.1448 44.2594 59.7367 45.26H62.1461L60.9612 42.2581ZM47.8999 47.7617H47.5049V41.7841C47.5181 41.7709 47.5181 41.7709 47.5313 41.7709C48.2423 41.7841 48.9664 41.7709 49.6774 41.8104C50.0856 41.8367 50.4674 41.9816 50.7834 42.2581C51.1916 42.6136 51.2837 43.0876 51.2311 43.6011C51.1521 44.3779 50.6781 44.8255 49.9671 45.0362C49.3483 45.2205 48.7163 45.2469 48.0711 45.181C48.0184 45.181 47.9658 45.1679 47.8999 45.1547V47.7617ZM47.8999 42.1264V44.7992C47.9131 44.8124 47.9263 44.8124 47.9394 44.8255C48.5846 44.8914 49.2166 44.9045 49.8486 44.707C50.5727 44.4832 50.9282 43.8644 50.7966 43.1271C50.7044 42.6267 50.3489 42.3897 49.9013 42.2581C49.2429 42.0606 48.5714 42.1527 47.8999 42.1264ZM40.5398 47.314C40.553 47.7222 40.6188 47.6827 40.2238 47.7749C39.2363 48.0118 38.2752 47.9592 37.393 47.4194C36.7479 47.0244 36.4055 46.4319 36.2739 45.7077C36.1159 44.9177 36.1422 44.1409 36.4582 43.3904C36.9454 42.2712 37.8407 41.7051 39.0388 41.6524C39.4207 41.6392 39.8025 41.7051 40.1843 41.7709C40.5267 41.8367 40.5398 41.8762 40.474 42.2449C40.2502 42.1922 40.0263 42.1132 39.7893 42.0737C38.9335 41.9289 38.1567 42.0737 37.4852 42.6531C37.1297 42.9559 36.8927 43.3641 36.761 43.8117C36.5767 44.4569 36.5635 45.1152 36.7347 45.7604C36.9849 46.7347 37.7354 47.3799 38.7755 47.4852C39.0783 47.5115 39.3812 47.5379 39.6708 47.5115C39.9473 47.472 40.237 47.3799 40.5398 47.314ZM56.3265 42.1396V47.7617H55.9315V42.1527H53.8776V41.7709H58.4068V42.1396H56.3265ZM64.582 41.7709H64.9638V47.393H67.9921V47.7617H64.5688C64.582 45.7735 64.582 43.7854 64.582 41.7709ZM52.8374 47.7617H52.4556V41.7709H52.8374V47.7617Z"
  />
</svg>
