<?xml version="1.0" encoding="UTF-8"?>
<svg viewBox="0 0 60 60" xmlns="http://www.w3.org/2000/svg">
  <circle cx="30" cy="30" r="30" fill="#FF0098" />
  <path
    d="M42.4667 17.5333H17.5333C15.0287 17.5333 13 19.562 13 22.0667V37.9333C13 40.438 15.0287 42.4667 17.5333 42.4667H42.4667C44.9713 42.4667 47 40.438 47 37.9333V22.0667C47 19.562 44.9713 17.5333 42.4667 17.5333ZM41.475 21.7833L29.9887 30.187L18.525 21.7833H41.475ZM42.4667 38.2167H17.5333C17.3747 38.2167 17.25 38.092 17.25 37.9333V26.1183L27.4727 33.6153C28.2263 34.1707 29.1103 34.4483 30 34.4483C30.8897 34.4483 31.768 34.1707 32.5273 33.6153L42.75 26.1183V37.9333C42.75 38.092 42.6253 38.2167 42.4667 38.2167Z"
    fill="white"
  />
</svg>
