<?xml version="1.0" encoding="UTF-8"?>
<svg viewBox="0 0 60 60" xmlns="http://www.w3.org/2000/svg">
  <circle cx="30" cy="30" r="30" fill="#FF0098" />
  <path
    d="M28.7987 27.8014C29.7054 27.8014 30.561 28.1527 31.2014 28.7987L31.343 28.9404C32.1194 29.7167 33.3717 29.7167 34.1481 28.9404C34.9244 28.164 34.9244 26.9117 34.1481 26.1354L34.0064 25.9937C32.5671 24.5544 30.68 23.8347 28.7987 23.8347C26.9117 23.8347 25.0304 24.5544 23.591 25.9937L15.159 34.4257C12.2803 37.3044 12.2803 41.968 15.159 44.841C16.5983 46.2803 18.4853 47 20.3667 47C22.248 47 24.135 46.2803 25.5744 44.841L29.9887 40.421C30.765 39.6447 30.765 38.3924 29.9887 37.616C29.2124 36.8397 27.96 36.8397 27.1837 37.616L22.8657 41.9397C22.2707 42.5347 21.4944 42.9483 20.6557 43.022C19.613 43.107 18.6157 42.7273 17.9017 41.9737C16.6153 40.6194 16.7457 38.4434 18.066 37.123L26.3904 28.7987C27.0307 28.1584 27.8864 27.8014 28.793 27.8014"
    fill="white"
  />
  <path
    d="M31.2011 32.1986C30.2945 32.1986 29.4388 31.8473 28.7985 31.2013L28.6568 31.0596C27.8805 30.2833 26.6281 30.2833 25.8518 31.0596C25.0754 31.836 25.0754 33.0883 25.8518 33.8646L25.9934 34.0063C27.4328 35.4456 29.3198 36.1653 31.2011 36.1653C33.0881 36.1653 34.9695 35.4456 36.4088 34.0063L44.8408 25.5743C47.7195 22.6956 47.7195 18.032 44.8408 15.159C43.4015 13.7197 41.5145 13 39.6332 13C37.7518 13 35.8648 13.7197 34.4255 15.159L30.0111 19.579C29.2348 20.3553 29.2348 21.6077 30.0111 22.384C30.7875 23.1603 32.0398 23.1603 32.8161 22.384L37.1341 18.0603C37.7291 17.4653 38.5055 17.0517 39.3442 16.978C40.3868 16.893 41.3842 17.2727 42.0982 18.0263C43.3845 19.3807 43.2542 21.5567 41.9338 22.877L33.6095 31.2013C32.9691 31.8416 32.1135 32.1986 31.2068 32.1986"
    fill="white"
  />
</svg>
