<?xml version="1.0" encoding="UTF-8"?>
<svg viewBox="0 0 60 60" xmlns="http://www.w3.org/2000/svg">
  <circle cx="30" cy="30" r="30" fill="url(#295270e518bb468d9cf37233dae04b83)" />
  <path
    d="M13.5795 29.6832C22.3252 25.8729 28.1569 23.3609 31.0749 22.1472C39.4062 18.6819 41.1374 18.08 42.2657 18.0599C42.5139 18.0557 43.0688 18.1172 43.4282 18.4089C43.7317 18.6552 43.8152 18.9878 43.8552 19.2213C43.8952 19.4548 43.9449 19.9867 43.9054 20.4023C43.4539 25.146 41.5004 36.6578 40.5065 41.9708C40.086 44.2189 39.2579 44.9727 38.4563 45.0465C36.7141 45.2068 35.3912 43.8952 33.7038 42.7891C31.0635 41.0583 29.5718 39.9808 27.0088 38.2919C24.0469 36.34 25.967 35.2672 27.655 33.514C28.0968 33.0552 35.7727 26.0733 35.9213 25.4399C35.9399 25.3607 35.9571 25.0654 35.7817 24.9095C35.6063 24.7536 35.3474 24.8069 35.1606 24.8493C34.8958 24.9094 30.6777 27.6974 22.5064 33.2133C21.3091 34.0354 20.2247 34.436 19.253 34.415C18.1819 34.3918 16.1214 33.8093 14.5897 33.3114C12.7109 32.7007 11.2177 32.3778 11.3477 31.3407C11.4155 30.8004 12.1594 30.248 13.5795 29.6832Z"
    fill="white"
  />
  <defs>
    <linearGradient
      id="295270e518bb468d9cf37233dae04b83"
      x1="30"
      y1="0"
      x2="30"
      y2="59.5548"
      gradientUnits="userSpaceOnUse"
    >
      <stop stop-color="#2AABEE"></stop>
      <stop offset="1" stop-color="#229ED9"></stop>
    </linearGradient>
  </defs>
</svg>
