<?xml version="1.0" encoding="UTF-8"?>
<svg width="60" height="60" viewBox="0 0 60 60" fill="none" xmlns="http://www.w3.org/2000/svg">
  <circle cx="30" cy="30" r="30" fill="#1D9BF0" />
  <path
    d="M50 21.4337C48.6761 22.0151 47.2539 22.408 45.7588 22.5856C47.2841 21.6804 48.4542 20.2441 49.0059 18.5343C47.579 19.3735 45.9982 19.9832 44.316 20.3101C42.9684 18.8895 41.0499 18 38.9254 18C34.8475 18 31.5402 21.2781 31.5402 25.3231C31.5402 25.8951 31.6068 26.4514 31.7305 26.9888C25.5899 26.6824 20.1501 23.7673 16.5066 19.3389C15.8725 20.4232 15.5078 21.6804 15.5078 23.0193C15.5078 25.5588 16.8126 27.8013 18.7929 29.1135C17.5816 29.0742 16.4432 28.7457 15.4475 28.1973V28.2916C15.4475 31.8384 17.9922 34.7975 21.3725 35.4701C20.751 35.6367 20.0994 35.7247 19.4271 35.7247C18.9515 35.7247 18.4869 35.6807 18.0366 35.5958C18.9768 38.503 21.7039 40.6214 24.9367 40.678C22.4078 42.6423 19.2226 43.813 15.7631 43.813C15.1669 43.813 14.5787 43.7785 14 43.7109C17.2693 45.79 21.1505 47 25.3204 47C38.908 47 46.3359 35.8457 46.3359 26.1717C46.3359 25.8574 46.328 25.5399 46.3138 25.2256C47.7565 24.1916 49.0091 22.9046 49.9968 21.4384L50 21.4337Z"
    fill="white"
  />
</svg>
