<?xml version="1.0" encoding="UTF-8"?>
<svg viewBox="0 0 60 60" xmlns="http://www.w3.org/2000/svg">
  <path
    d="m13,38.75v17.5c0,2.07-1.68,3.75-3.75,3.75H3.75c-2.07,0-3.75-1.68-3.75-3.75v-17.5c0-2.07,1.68-3.75,3.75-3.75h5.5c2.07,0,3.75,1.68,3.75,3.75Zm11.92-18.75h-5.5c-2.07,0-3.75,1.68-3.75,3.75v32.5c0,2.07,1.68,3.75,3.75,3.75h5.5c2.07,0,3.75-1.68,3.75-3.75V23.75c0-2.07-1.68-3.75-3.75-3.75ZM40.58,0h-5.5c-2.07,0-3.75,1.68-3.75,3.75v52.5c0,2.07,1.68,3.75,3.75,3.75h5.5c2.07,0,3.75-1.68,3.75-3.75V3.75c0-2.07-1.68-3.75-3.75-3.75Zm15.67,9.56h-5.5c-2.07,0-3.75,1.68-3.75,3.75v42.94c0,2.07,1.68,3.75,3.75,3.75h5.5c2.07,0,3.75-1.68,3.75-3.75V13.31c0-2.07-1.68-3.75-3.75-3.75Z"
  />
</svg>
