<?xml version="1.0" encoding="UTF-8"?>
<svg viewBox="0 0 60 60" xmlns="http://www.w3.org/2000/svg">
  <path
    d="M27.8905 58.3816L3.77016 34.2613C3.20909 33.7025 2.76388 33.0385 2.46011 32.3072C2.15633 31.576 2 30.7918 2 30C2 29.2082 2.15633 28.424 2.46011 27.6928C2.76388 26.9615 3.20909 26.2975 3.77016 25.7387L27.8905 1.61838C29.0336 0.553231 30.5455 -0.0266225 32.1077 0.000940816C33.6699 0.0285041 35.1605 0.661377 36.2653 1.76619C37.3701 2.87101 38.003 4.36145 38.0305 5.92365C38.0581 7.48585 37.4782 8.99787 36.4131 10.141L22.584 23.9699L51.046 23.9699C52.6453 23.9699 54.1791 24.6053 55.31 25.7362C56.4408 26.867 57.0761 28.4007 57.0761 30C57.0761 31.5993 56.4408 33.133 55.31 34.2638C54.1791 35.3947 52.6453 36.0301 51.046 36.0301L22.584 36.0301L36.4131 49.859C37.4782 51.0021 38.0581 52.5141 38.0305 54.0764C38.003 55.6386 37.3701 57.129 36.2653 58.2338C35.1604 59.3386 33.6699 59.9715 32.1077 59.9991C30.5455 60.0266 29.0336 59.4468 27.8905 58.3816Z"
  />
</svg>
