<?xml version="1.0" encoding="UTF-8"?>
<svg viewBox="0 0 60 60" xmlns="http://www.w3.org/2000/svg">
  <path
    d="M16.7716 59.9999C16.0268 60.0043 15.2975 59.7867 14.6769 59.375C14.0562 58.9633 13.5722 58.376 13.2866 57.6881C13.001 57.0002 12.9268 56.2429 13.0733 55.5126C13.2198 54.7823 13.5804 54.1123 14.1093 53.5878L37.6956 30.0015L14.1093 6.41512C13.7578 6.06652 13.4788 5.65185 13.2884 5.1949C13.098 4.73795 13 4.2478 13 3.75279C13 3.25777 13.098 2.76762 13.2884 2.31067C13.4788 1.85372 13.7578 1.43905 14.1093 1.09045C14.8118 0.392047 15.7622 0 16.7528 0C17.7435 0 18.6939 0.392047 19.3965 1.09045L45.6452 27.3391C45.9966 27.6877 46.2755 28.1024 46.4659 28.5593C46.6563 29.0163 46.7543 29.5064 46.7543 30.0015C46.7543 30.4965 46.6563 30.9866 46.4659 31.4436C46.2755 31.9005 45.9966 32.3152 45.6452 32.6638L19.3965 58.9125C18.6981 59.6052 17.7553 59.9958 16.7716 59.9999Z"
  />
</svg>
