<?xml version="1.0" encoding="UTF-8"?>
<svg viewBox="0 0 60 60" xmlns="http://www.w3.org/2000/svg">
  <path
    d="M6.50006e-05 16.7716C-0.00426639 16.0268 0.213262 15.2975 0.624995 14.6769C1.03673 14.0562 1.624 13.5722 2.31188 13.2866C2.99976 13.001 3.75714 12.9268 4.48741 13.0733C5.21768 13.2198 5.88772 13.5804 6.41221 14.1093L29.9985 37.6956L53.5849 14.1093C53.9335 13.7578 54.3482 13.4788 54.8051 13.2884C55.2621 13.098 55.7522 13 56.2472 13C56.7422 13 57.2324 13.098 57.6893 13.2884C58.1463 13.4788 58.561 13.7578 58.9095 14.1093C59.608 14.8118 60 15.7622 60 16.7528C60 17.7435 59.608 18.6939 58.9095 19.3965L32.6609 45.6452C32.3123 45.9966 31.8976 46.2755 31.4407 46.4659C30.9837 46.6563 30.4936 46.7543 29.9985 46.7543C29.5035 46.7543 29.0134 46.6563 28.5564 46.4659C28.0995 46.2755 27.6848 45.9966 27.3362 45.6452L1.08754 19.3965C0.394786 18.6981 0.00420712 17.7553 6.50006e-05 16.7716Z"
  />
</svg>
