<?xml version="1.0" encoding="UTF-8"?>
<svg viewBox="0 0 60 60" xmlns="http://www.w3.org/2000/svg">
  <path
    d="M58.3816 27.8905L34.2613 3.77016C33.7025 3.20909 33.0385 2.76388 32.3072 2.46011C31.576 2.15633 30.7918 2 30 2C29.2082 2 28.424 2.15633 27.6928 2.46011C26.9615 2.76388 26.2975 3.20909 25.7387 3.77016L1.61838 27.8905C0.553229 29.0336 -0.0266237 30.5455 0.0009395 32.1077C0.0285027 33.6699 0.661375 35.1605 1.76619 36.2653C2.87101 37.3701 4.36145 38.003 5.92365 38.0305C7.48585 38.0581 8.99787 37.4782 10.141 36.4131L23.9699 22.584L23.9699 51.046C23.9699 52.6453 24.6053 54.1791 25.7361 55.31C26.867 56.4408 28.4007 57.0761 30 57.0761C31.5993 57.0761 33.133 56.4408 34.2638 55.31C35.3947 54.1791 36.0301 52.6453 36.0301 51.046L36.0301 22.584L49.859 36.4131C51.0021 37.4782 52.5141 38.0581 54.0763 38.0305C55.6386 38.003 57.129 37.3701 58.2338 36.2653C59.3386 35.1605 59.9715 33.6699 59.9991 32.1077C60.0266 30.5455 59.4468 29.0336 58.3816 27.8905Z"
  />
</svg>
