<?xml version="1.0" encoding="UTF-8"?>
<svg viewBox="0 0 60 60" xmlns="http://www.w3.org/2000/svg">
  <path
    d="M59.9999 43.2284C60.0043 43.9732 59.7867 44.7025 59.375 45.3231C58.9633 45.9438 58.376 46.4278 57.6881 46.7134C57.0002 46.999 56.2429 47.0732 55.5126 46.9267C54.7823 46.7802 54.1123 46.4196 53.5878 45.8907L30.0015 22.3044L6.41512 45.8907C6.06652 46.2422 5.65185 46.5212 5.1949 46.7116C4.73795 46.902 4.2478 47 3.75279 47C3.25777 47 2.76762 46.902 2.31067 46.7116C1.85372 46.5212 1.43905 46.2422 1.09045 45.8907C0.392047 45.1882 3.29387e-08 44.2378 4.4752e-08 43.2472C5.65654e-08 42.2565 0.392047 41.3061 1.09045 40.6035L27.3391 14.3548C27.6877 14.0034 28.1024 13.7245 28.5593 13.5341C29.0163 13.3437 29.5064 13.2457 30.0015 13.2457C30.4965 13.2457 30.9866 13.3437 31.4436 13.5341C31.9005 13.7245 32.3152 14.0034 32.6638 14.3548L58.9125 40.6035C59.6052 41.3019 59.9958 42.2447 59.9999 43.2284Z"
  />
</svg>
