<?xml version="1.0" encoding="UTF-8"?>
<svg viewBox="0 0 60 60" xmlns="http://www.w3.org/2000/svg">
  <path
    d="M58.3816 31.1856L34.2613 55.306C33.7025 55.867 33.0385 56.3122 32.3072 56.616C31.576 56.9198 30.7918 57.0761 30 57.0761C29.2082 57.0761 28.424 56.9198 27.6928 56.616C26.9615 56.3122 26.2975 55.867 25.7387 55.306L1.61838 31.1856C0.553229 30.0425 -0.0266237 28.5306 0.0009395 26.9684C0.0285027 25.4062 0.661375 23.9157 1.76619 22.8108C2.87101 21.706 4.36145 21.0732 5.92365 21.0456C7.48585 21.018 8.99787 21.5979 10.141 22.663L23.9699 36.4921L23.9699 8.03008C23.9699 6.4308 24.6053 4.89699 25.7361 3.76613C26.867 2.63527 28.4007 2 30 2C31.5993 2 33.133 2.63527 34.2638 3.76613C35.3947 4.89699 36.0301 6.4308 36.0301 8.03008L36.0301 36.4921L49.859 22.663C51.0021 21.5979 52.5141 21.018 54.0763 21.0456C55.6386 21.0732 57.129 21.706 58.2338 22.8108C59.3386 23.9157 59.9715 25.4062 59.9991 26.9684C60.0266 28.5306 59.4468 30.0425 58.3816 31.1856Z"
  />
</svg>
