<?xml version="1.0" encoding="UTF-8"?>
<svg viewBox="0 0 60 60" xmlns="http://www.w3.org/2000/svg">
  <path
    d="M43.2284 6.46709e-05C43.9732 -0.00426665 44.7025 0.213262 45.3231 0.624995C45.9438 1.03673 46.4278 1.624 46.7134 2.31188C46.999 2.99976 47.0732 3.75714 46.9267 4.48741C46.7802 5.21768 46.4196 5.88772 45.8907 6.41221L22.3044 29.9985L45.8907 53.5849C46.2422 53.9335 46.5212 54.3482 46.7116 54.8051C46.902 55.2621 47 55.7522 47 56.2472C47 56.7422 46.902 57.2324 46.7116 57.6893C46.5212 58.1463 46.2422 58.561 45.8907 58.9095C45.1882 59.608 44.2378 60 43.2472 60C42.2565 60 41.3061 59.608 40.6035 58.9095L14.3548 32.6609C14.0034 32.3123 13.7245 31.8976 13.5341 31.4407C13.3437 30.9837 13.2457 30.4936 13.2457 29.9985C13.2457 29.5035 13.3437 29.0134 13.5341 28.5564C13.7245 28.0995 14.0034 27.6848 14.3548 27.3362L40.6035 1.08754C41.3019 0.394786 42.2447 0.00420671 43.2284 6.46709e-05Z"
  />
</svg>
