<?xml version="1.0" encoding="UTF-8"?>
<svg viewBox="0 0 60 60" xmlns="http://www.w3.org/2000/svg">
  <path
    d="M37.8 0H13.37C9.3 0 6 3.3 6 7.37V52.63C6 56.7 9.3 60 13.37 60H46.4C50.47 60 53.77 56.7 53.77 52.63V15.96L37.8 0ZM37.83 10.64L43.13 15.94H38.02C37.92 15.94 37.83 15.86 37.83 15.75V10.64ZM46.26 52.5H13.5V7.5H30.31V15.96C30.31 20.1 33.67 23.46 37.81 23.46H46.27V52.5H46.26ZM20.84 28.42H38.93C41 28.42 42.68 30.1 42.68 32.17C42.68 34.24 41 35.92 38.93 35.92H20.84C18.77 35.92 17.09 34.24 17.09 32.17C17.09 30.1 18.77 28.42 20.84 28.42ZM42.68 43.29C42.68 45.36 41 47.04 38.93 47.04H20.84C18.77 47.04 17.09 45.36 17.09 43.29C17.09 41.22 18.77 39.54 20.84 39.54H38.93C41 39.54 42.68 41.22 42.68 43.29Z"
  />
</svg>
