<?xml version="1.0" encoding="UTF-8"?>
<svg viewBox="0 0 60 60" xmlns="http://www.w3.org/2000/svg">
  <path
    d="m52.5,27v19c0,3.59-2.91,6.5-6.5,6.5H14c-3.59,0-6.5-2.91-6.5-6.5V14c0-3.59,2.91-6.5,6.5-6.5h19c2.07,0,3.75-1.68,3.75-3.75h0c0-2.07-1.68-3.75-3.75-3.75H14C6.27,0,0,6.27,0,14v32c0,7.73,6.27,14,14,14h32c7.73,0,14-6.27,14-14v-19c0-2.07-1.68-3.75-3.75-3.75h0c-2.07,0-3.75,1.68-3.75,3.75Zm5.89-17.61l-30.97,30.97c-.5.5-1.14.84-1.84.97l-7.16,1.31c-.63.12-1.18-.43-1.06-1.06l1.31-7.16c.13-.7.46-1.34.97-1.84L50.61,1.61c2.15-2.15,5.63-2.15,7.78,0h0c2.15,2.15,2.15,5.63,0,7.78Z"
  />
</svg>
