<?xml version="1.0" encoding="UTF-8"?>
<svg viewBox="0 0 60 60" xmlns="http://www.w3.org/2000/svg">
  <path
    d="M30 55C25.0554 55 20.2219 53.5338 16.1107 50.7867C11.9995 48.0397 8.79518 44.1352 6.90299 39.5671C5.0108 34.9989 4.51569 29.9723 5.48032 25.1227C6.44495 20.2732 8.82599 15.8186 12.3223 12.3223C15.8186 8.82601 20.2732 6.445 25.1227 5.48037C29.9722 4.51574 34.9989 5.01082 39.5671 6.90301C44.1352 8.7952 48.0397 11.9995 50.7867 16.1107C53.5338 20.222 55 25.0555 55 30C55 36.6304 52.3661 42.9893 47.6776 47.6777C42.9892 52.3661 36.6304 55 30 55ZM30 60C35.9334 60 41.7336 58.2405 46.6671 54.9441C51.6006 51.6476 55.4457 46.9623 57.7163 41.4805C59.987 35.9987 60.5811 29.9667 59.4236 24.1473C58.266 18.3278 55.4087 12.9824 51.2132 8.7868C47.0176 4.59123 41.6721 1.734 35.8527 0.576444C30.0333 -0.581113 24.0012 0.0129678 18.5194 2.2836C13.0377 4.55422 8.35233 8.39941 5.05589 13.3329C1.75944 18.2664 -2.35615e-05 24.0666 -2.40802e-05 30C-2.47758e-05 37.9565 3.16069 45.5871 8.78678 51.2132C14.4129 56.8393 22.0435 60 30 60ZM30 46.65C30.7417 46.65 31.4667 46.4301 32.0833 46.018C32.7 45.6059 33.1807 45.0203 33.4645 44.3351C33.7483 43.6498 33.8226 42.8959 33.6779 42.1684C33.5332 41.441 33.1761 40.7728 32.6516 40.2483C32.1272 39.7239 31.459 39.3667 30.7315 39.222C30.0041 39.0773 29.2501 39.1516 28.5649 39.4355C27.8797 39.7193 27.294 40.1999 26.882 40.8166C26.4699 41.4333 26.25 42.1583 26.25 42.9C26.25 43.8946 26.645 44.8484 27.3483 45.5516C28.0516 46.2549 29.0054 46.65 30 46.65ZM26.25 17.1L26.25 31.1C26.25 32.0946 26.645 33.0484 27.3483 33.7516C28.0516 34.4549 29.0054 34.85 30 34.85C30.9945 34.85 31.9484 34.4549 32.6516 33.7516C33.3549 33.0484 33.75 32.0946 33.75 31.1L33.75 17.1C33.75 16.1054 33.3549 15.1516 32.6516 14.4484C31.9484 13.7451 30.9945 13.35 30 13.35C29.0054 13.35 28.0516 13.7451 27.3483 14.4484C26.645 15.1516 26.25 16.1054 26.25 17.1V17.1Z"
  />
</svg>
