<?xml version="1.0" encoding="UTF-8"?>
<svg viewBox="0 0 60 60" xmlns="http://www.w3.org/2000/svg">
  <path
    d="M35.3047 30.0002L58.9034 6.40096C59.5657 5.69011 59.9263 4.74994 59.9092 3.77847C59.892 2.80699 59.4985 1.88009 58.8115 1.19305C58.1244 0.506004 57.1976 0.112445 56.2262 0.0953048C55.2547 0.0781643 54.3145 0.438783 53.6037 1.10116L30.005 24.7003L6.40635 1.10116C5.70357 0.397035 4.74983 0.000939286 3.75501 1.66841e-06C2.76019 -0.00093595 1.80577 0.393356 1.10166 1.09616C0.397546 1.79895 0.00145997 2.75268 0.000522305 3.74752C-0.000415355 4.74237 0.393868 5.69684 1.09665 6.40096L24.6953 30.0002L1.09665 53.5993C0.572296 54.1244 0.215476 54.7931 0.0713801 55.521C-0.0727153 56.2489 0.00240759 57.0032 0.287188 57.6884C0.571969 58.3736 1.05363 58.9589 1.6712 59.3703C2.28878 59.7816 3.01446 60.0005 3.75647 59.9991C4.24899 60.0004 4.73688 59.9037 5.19176 59.7149C5.64664 59.5261 6.05947 59.2488 6.40635 58.8991L30.005 35.31L53.6037 58.8991C53.9512 59.2481 54.3641 59.5249 54.8188 59.7138C55.2736 59.9027 55.7611 60 56.2535 60C56.7459 60 57.2335 59.9027 57.6882 59.7138C58.143 59.5249 58.5559 59.2481 58.9034 58.8991C59.6056 58.196 60 57.243 60 56.2493C60 55.2556 59.6056 54.3024 58.9034 53.5993L35.3047 30.0002Z"
  />
</svg>
