<?xml version="1.0" encoding="UTF-8"?>
<svg viewBox="0 0 60 60" xmlns="http://www.w3.org/2000/svg">
  <path
    d="M60,3.75V20.72c0,2.07-1.68,3.75-3.75,3.75s-3.75-1.68-3.75-3.75v-7.92l-19.23,19.23c-.73,.73-1.69,1.1-2.65,1.1s-1.92-.37-2.65-1.1c-1.46-1.46-1.46-3.84,0-5.3L47.2,7.5h-7.92c-2.07,0-3.75-1.68-3.75-3.75s1.68-3.75,3.75-3.75h16.97c.25,0,.49,.03,.73,.07,.11,.02,.22,.06,.33,.1,.12,.04,.25,.07,.37,.11,.13,.05,.25,.13,.38,.2,.09,.05,.18,.09,.27,.14,.41,.28,.77,.63,1.04,1.04,.05,.08,.09,.17,.14,.25,.07,.13,.15,.26,.21,.4,.04,.11,.07,.22,.1,.33,.04,.12,.08,.24,.11,.37,.04,.19,.05,.39,.06,.58,0,.05,.01,.1,.01,.15Zm-3.75,29.33c-2.07,0-3.75,1.68-3.75,3.75v6.03c0,5.33-4.32,9.65-9.65,9.65H17.15c-5.33,0-9.65-4.32-9.65-9.65V17.15c0-5.33,4.32-9.65,9.65-9.65h6.44c2.07,0,3.75-1.68,3.75-3.75s-1.68-3.75-3.75-3.75h-6.44C7.68,0,0,7.68,0,17.15v25.71c0,9.47,7.68,17.15,17.15,17.15h25.71c9.47,0,17.15-7.68,17.15-17.15v-6.03c0-2.07-1.68-3.75-3.75-3.75Z"
  />
</svg>
