<?xml version="1.0" encoding="UTF-8"?>
<svg viewBox="0 0 60 60" xmlns="http://www.w3.org/2000/svg">
  <path
    d="M53.9,11.4L11.4,53.9c-.73,.73-1.69,1.1-2.65,1.1s-1.92-.37-2.65-1.1c-1.46-1.46-1.46-3.84,0-5.3l15.68-15.68c-.33-.91-.51-1.9-.51-2.92,0-4.82,3.91-8.74,8.74-8.74,1.03,0,2.01,.19,2.92,.51l15.68-15.68c1.46-1.46,3.84-1.46,5.3,0s1.46,3.84,0,5.3Zm5.35,16.22c-2.14-3.07-4.73-6.02-7.66-8.6l-5.3,5.3c1.85,1.57,3.67,3.45,5.41,5.68-7.14,9.17-15.75,12.5-21.66,12.5-.58,0-1.19-.04-1.82-.11l-6.34,6.34c2.62,.81,5.35,1.27,8.15,1.27,12.05,0,22.71-8.26,29.22-17.62,1-1.44,1-3.32,0-4.76ZM8.44,40.95l5.3-5.3c-1.84-1.57-3.65-3.44-5.37-5.65,7.13-9.17,15.74-12.5,21.66-12.5,.56,0,1.15,.04,1.76,.1l6.35-6.35c-2.61-.8-5.32-1.26-8.11-1.26C17.91,10,7.19,18.37,.69,27.8c-.92,1.33-.92,3.06,0,4.4,2.15,3.13,4.78,6.13,7.76,8.75Z"
  />
</svg>
