<?xml version="1.0" encoding="UTF-8"?>
<svg viewBox="0 0 60 60" xmlns="http://www.w3.org/2000/svg">
  <path
    d="M30.03 17.5C38.77 17.5 46.68 23.65 51.68 30C46.67 36.35 38.77 42.5 30.03 42.5C21.29 42.5 13.4 36.37 8.38 30C13.4 23.63 21.29 17.5 30.03 17.5ZM30.03 10C17.91 10 7.19 18.37 0.69 27.8C-0.23 29.13 -0.23 30.86 0.69 32.2C7.19 41.63 17.91 50 30.03 50C42.15 50 52.74 41.74 59.25 32.38C60.25 30.94 60.25 29.06 59.25 27.62C52.74 18.26 42.08 10 30.03 10ZM30 23C26.13 23 23 26.13 23 30C23 33.87 26.13 37 30 37C33.87 37 37 33.87 37 30C37 26.13 33.87 23 30 23Z"
  />
</svg>
