<?xml version="1.0" encoding="UTF-8"?>
<svg viewBox="0 0 60 60" xmlns="http://www.w3.org/2000/svg">
  <path
    d="M46 7.5C49.58 7.5 52.5 10.42 52.5 14V52.5H14C10.42 52.5 7.5 49.58 7.5 46V14C7.5 10.42 10.42 7.5 14 7.5H46ZM46 0H14C6.27 0 0 6.27 0 14V46C0 53.73 6.27 60 14 60H55.64C58.05 60 60 58.05 60 55.64V14C60 6.27 53.73 0 46 0ZM30.01 12C23.72 12 18.6 17.11 18.6 23.4C18.6 24.73 19.67 25.8 21 25.8H22.2C23.53 25.8 24.6 24.73 24.6 23.4C24.6 20.42 27.02 18 30 18C30.03 18 30.05 18 30.08 18C32.25 18.03 34.12 19.5 34.96 21.5C36.09 24.22 35.03 25.35 32.41 27.78C30.13 29.9 27 32.81 27 37.79C27 39.12 28.07 40.19 29.4 40.19H30.6C31.93 40.19 33 39.12 33 37.79C33 35.53 34.33 34.18 36.49 32.16C38.7 30.1 41.46 27.53 41.39 23.25C41.31 17.44 36.74 12.5 30.94 12.02C30.62 11.99 30.31 11.98 30 11.98L30.01 12ZM30.6 42H29.4C28.07 42 27 43.07 27 44.4V45.6C27 46.93 28.07 48 29.4 48H30.6C31.93 48 33 46.93 33 45.6V44.4C33 43.07 31.93 42 30.6 42Z"
  />
</svg>
