<?xml version="1.0" encoding="UTF-8"?>
<svg viewBox="0 0 60 60" xmlns="http://www.w3.org/2000/svg">
  <path
    d="m58.9,12.81L48,1.9c-1.46-1.46-3.84-1.46-5.3,0s-1.46,3.84,0,5.3l9.81,9.81v33.62c0,1.03-.84,1.87-1.87,1.87s-1.87-.84-1.87-1.87v-24.02c0-4.57-3.72-8.29-8.29-8.29h-3.05v-8.52c0-5.41-4.38-9.79-9.79-9.79H9.79C4.38,0,0,4.38,0,9.79v47.91c0,1.27,1.03,2.29,2.29,2.29h32.82c1.27,0,2.29-1.03,2.29-2.29v-31.89h3.05c.44,0,.79.35.79.79v24.02c0,5.17,4.2,9.37,9.37,9.37s9.37-4.2,9.37-9.37V15.46c0-.99-.4-1.95-1.1-2.65Zm-28.99,12.4c0,1.27-1.03,2.29-2.29,2.29H9.79c-1.27,0-2.29-1.03-2.29-2.29v-15.41c0-1.27,1.03-2.29,2.29-2.29h17.83c1.27,0,2.29,1.03,2.29,2.29v15.41Z"
  />
</svg>
