<?xml version="1.0" encoding="UTF-8"?>
<svg viewBox="0 0 60 60" xmlns="http://www.w3.org/2000/svg">
  <path
    d="M11.25 15H3.75C1.68 15 0 13.32 0 11.25V3.75C0 1.68 1.68 0 3.75 0H11.25C13.32 0 15 1.68 15 3.75V11.25C15 13.32 13.32 15 11.25 15ZM15 33.75V26.25C15 24.18 13.32 22.5 11.25 22.5H3.75C1.68 22.5 0 24.18 0 26.25V33.75C0 35.82 1.68 37.5 3.75 37.5H11.25C13.32 37.5 15 35.82 15 33.75ZM15 56.25V48.75C15 46.68 13.32 45 11.25 45H3.75C1.68 45 0 46.68 0 48.75V56.25C0 58.32 1.68 60 3.75 60H11.25C13.32 60 15 58.32 15 56.25ZM37.5 11.25V3.75C37.5 1.68 35.82 0 33.75 0H26.25C24.18 0 22.5 1.68 22.5 3.75V11.25C22.5 13.32 24.18 15 26.25 15H33.75C35.82 15 37.5 13.32 37.5 11.25ZM37.5 33.75V26.25C37.5 24.18 35.82 22.5 33.75 22.5H26.25C24.18 22.5 22.5 24.18 22.5 26.25V33.75C22.5 35.82 24.18 37.5 26.25 37.5H33.75C35.82 37.5 37.5 35.82 37.5 33.75ZM37.5 56.25V48.75C37.5 46.68 35.82 45 33.75 45H26.25C24.18 45 22.5 46.68 22.5 48.75V56.25C22.5 58.32 24.18 60 26.25 60H33.75C35.82 60 37.5 58.32 37.5 56.25ZM60 11.25V3.75C60 1.68 58.32 0 56.25 0H48.75C46.68 0 45 1.68 45 3.75V11.25C45 13.32 46.68 15 48.75 15H56.25C58.32 15 60 13.32 60 11.25ZM60 33.75V26.25C60 24.18 58.32 22.5 56.25 22.5H48.75C46.68 22.5 45 24.18 45 26.25V33.75C45 35.82 46.68 37.5 48.75 37.5H56.25C58.32 37.5 60 35.82 60 33.75ZM60 56.25V48.75C60 46.68 58.32 45 56.25 45H48.75C46.68 45 45 46.68 45 48.75V56.25C45 58.32 46.68 60 48.75 60H56.25C58.32 60 60 58.32 60 56.25Z"
  />
</svg>
