<?xml version="1.0" encoding="UTF-8"?>
<svg viewBox="0 0 60 60" xmlns="http://www.w3.org/2000/svg">
  <path
    d="m49.35,32.12c-1.46-1.46-3.84-1.46-5.3,0l-15.07,15.07V3.75c0-2.07-1.68-3.75-3.75-3.75s-3.75,1.68-3.75,3.75v43.45l-15.07-15.07c-1.46-1.46-3.84-1.46-5.3,0-1.46,1.46-1.46,3.84,0,5.3l21.47,21.47c.17.17.36.33.57.47.05.04.12.06.17.09.15.09.31.18.47.25.08.03.16.05.24.07.15.05.3.11.46.14.24.05.49.07.74.07s.5-.03.74-.07c.16-.03.31-.09.46-.14.08-.03.16-.04.24-.07.17-.07.32-.16.47-.25.06-.03.12-.06.17-.09.2-.14.39-.29.57-.47l21.47-21.47c1.46-1.46,1.46-3.84,0-5.3Z"
  />
</svg>
