<?xml version="1.0" encoding="UTF-8"?>
<svg viewBox="0 0 60 60" xmlns="http://www.w3.org/2000/svg">
  <path
    d="M30 5C34.9446 5 39.7781 6.46622 43.8893 9.21326C48.0005 11.9603 51.2048 15.8648 53.097 20.4329C54.9892 25.0011 55.4843 30.0277 54.5197 34.8773C53.555 39.7268 51.174 44.1814 47.6777 47.6777C44.1814 51.174 39.7268 53.555 34.8773 54.5196C30.0278 55.4843 25.0011 54.9892 20.433 53.097C15.8648 51.2048 11.9603 48.0005 9.21329 43.8893C6.46625 39.778 5.00003 34.9445 5.00003 30C5.00003 23.3696 7.63395 17.0107 12.3224 12.3223C17.0108 7.63392 23.3696 5 30 5ZM30 0C24.0666 0 18.2664 1.75947 13.3329 5.05591C8.39944 8.35235 4.55429 13.0377 2.28366 18.5195C0.0130296 24.0013 -0.581112 30.0333 0.576444 35.8527C1.734 41.6722 4.59126 47.0176 8.78683 51.2132C12.9824 55.4088 18.3279 58.266 24.1473 59.4236C29.9667 60.5811 35.9988 59.987 41.4806 57.7164C46.9623 55.4458 51.6477 51.6006 54.9441 46.6671C58.2406 41.7336 60 35.9334 60 30C60 22.0435 56.8393 14.4129 51.2132 8.7868C45.5871 3.16071 37.9565 0 30 0ZM30 13.35C29.2583 13.35 28.5333 13.5699 27.9167 13.982C27.3 14.394 26.8193 14.9797 26.5355 15.6649C26.2517 16.3502 26.1774 17.1041 26.3221 17.8316C26.4668 18.559 26.8239 19.2272 27.3484 19.7516C27.8728 20.2761 28.541 20.6333 29.2685 20.778C29.9959 20.9226 30.7499 20.8484 31.4351 20.5645C32.1203 20.2807 32.706 19.8001 33.118 19.1834C33.5301 18.5667 33.75 17.8417 33.75 17.1C33.75 16.1054 33.355 15.1516 32.6517 14.4484C31.9484 13.7451 30.9946 13.35 30 13.35ZM33.75 42.9V28.9C33.75 27.9054 33.355 26.9516 32.6517 26.2484C31.9484 25.5451 30.9946 25.15 30 25.15C29.0055 25.15 28.0516 25.5451 27.3484 26.2484C26.6451 26.9516 26.25 27.9054 26.25 28.9V42.9C26.25 43.8946 26.6451 44.8484 27.3484 45.5516C28.0516 46.2549 29.0055 46.65 30 46.65C30.9946 46.65 31.9484 46.2549 32.6517 45.5516C33.355 44.8484 33.75 43.8946 33.75 42.9V42.9Z"
  />
</svg>
