<?xml version="1.0" encoding="UTF-8"?>
<svg viewBox="0 0 60 60" xmlns="http://www.w3.org/2000/svg">
  <path
    d="M27.88 26.1201C29.48 26.1201 30.99 26.7401 32.12 27.8801L32.37 28.1301C33.74 29.5001 35.95 29.5001 37.32 28.1301C38.69 26.7601 38.69 24.5501 37.32 23.1801L37.07 22.9301C34.53 20.3901 31.2 19.1201 27.88 19.1201C24.55 19.1201 21.23 20.3901 18.69 22.9301L3.81 37.8101C-1.27 42.8901 -1.27 51.1201 3.81 56.1901C6.35 58.7301 9.68 60.0001 13 60.0001C16.32 60.0001 19.65 58.7301 22.19 56.1901L29.98 48.3901C31.35 47.0201 31.35 44.8101 29.98 43.4401C28.61 42.0701 26.4 42.0701 25.03 43.4401L17.41 51.0701C16.36 52.1201 14.99 52.8501 13.51 52.9801C11.67 53.1301 9.91 52.4601 8.65 51.1301C6.38 48.7401 6.61 44.9001 8.94 42.5701L23.63 27.8801C24.76 26.7501 26.27 26.1201 27.87 26.1201"
  />
  <path
    d="M32.1198 33.88C30.5198 33.88 29.0098 33.26 27.8798 32.12L27.6298 31.87C26.2598 30.5 24.0498 30.5 22.6798 31.87C21.3098 33.24 21.3098 35.45 22.6798 36.82L22.9298 37.07C25.4698 39.61 28.7998 40.88 32.1198 40.88C35.4498 40.88 38.7698 39.61 41.3098 37.07L56.1898 22.19C61.2698 17.11 61.2698 8.88 56.1898 3.81C53.6498 1.27 50.3198 0 46.9998 0C43.6798 0 40.3498 1.27 37.8098 3.81L30.0198 11.61C28.6498 12.98 28.6498 15.19 30.0198 16.56C31.3898 17.93 33.5998 17.93 34.9698 16.56L42.5898 8.93C43.6398 7.88 45.0098 7.15 46.4898 7.02C48.3298 6.87 50.0898 7.54 51.3498 8.87C53.6198 11.26 53.3898 15.1 51.0598 17.43L36.3698 32.12C35.2398 33.25 33.7298 33.88 32.1298 33.88"
  />
</svg>
