<?xml version="1.0" encoding="UTF-8"?>
<svg viewBox="0 0 60 60" xmlns="http://www.w3.org/2000/svg">
  <path
    d="M56.25 22H3.75C1.68 22 0 20.32 0 18.25V3.75C0 1.68 1.68 0 3.75 0H56.25C58.32 0 60 1.68 60 3.75V18.25C60 20.32 58.32 22 56.25 22ZM60 37.25V33.25C60 31.18 58.32 29.5 56.25 29.5H3.75C1.68 29.5 0 31.18 0 33.25V37.25C0 39.32 1.68 41 3.75 41H56.25C58.32 41 60 39.32 60 37.25ZM60 56.25V52.25C60 50.18 58.32 48.5 56.25 48.5H3.75C1.68 48.5 0 50.18 0 52.25V56.25C0 58.32 1.68 60 3.75 60H56.25C58.32 60 60 58.32 60 56.25Z"
  />
</svg>
