<?xml version="1.0" encoding="UTF-8"?>
<svg viewBox="0 0 60 60" xmlns="http://www.w3.org/2000/svg">
  <path
    d="M30 37C33.866 37 37 33.866 37 30C37 26.134 33.866 23 30 23C26.134 23 23 26.134 23 30C23 33.866 26.134 37 30 37Z"
  />
  <path
    d="M30 14C33.866 14 37 10.866 37 7C37 3.13401 33.866 0 30 0C26.134 0 23 3.13401 23 7C23 10.866 26.134 14 30 14Z"
  />
  <path
    d="M30 60C33.866 60 37 56.866 37 53C37 49.134 33.866 46 30 46C26.134 46 23 49.134 23 53C23 56.866 26.134 60 30 60Z"
  />
</svg>
