<?xml version="1.0" encoding="UTF-8"?>
<svg viewBox="0 0 60 60" xmlns="http://www.w3.org/2000/svg">
  <path
    d="M30 0C24.0666 0 18.2664 1.75947 13.3329 5.05591C8.39944 8.35235 4.55429 13.0377 2.28366 18.5195C0.0130296 24.0013 -0.581112 30.0333 0.576444 35.8527C1.734 41.6721 4.59126 47.0176 8.78683 51.2132C12.9824 55.4088 18.3279 58.266 24.1473 59.4236C29.9667 60.5811 35.9988 59.987 41.4806 57.7164C46.9623 55.4458 51.6477 51.6006 54.9441 46.6671C58.2406 41.7336 60 35.9334 60 30C60 22.0435 56.8393 14.4129 51.2132 8.78679C45.5871 3.1607 37.9565 0 30 0ZM30 5C34.9446 5 39.7781 6.46622 43.8893 9.21326C48.0005 11.9603 51.2048 15.8648 53.097 20.4329C54.9892 25.0011 55.4843 30.0277 54.5197 34.8773C53.555 39.7268 51.174 44.1814 47.6777 47.6777C44.1814 51.174 39.7268 53.555 34.8773 54.5196C30.0278 55.4843 25.0011 54.9892 20.433 53.097C15.8648 51.2048 11.9603 48.0005 9.21329 43.8893C6.46625 39.778 5.00003 34.9445 5.00003 30C5.00003 23.3696 7.63395 17.0107 12.3224 12.3223C17.0108 7.63392 23.3696 5 30 5ZM47 30C47 30.9946 46.605 31.9484 45.9017 32.6517C45.1984 33.3549 44.2446 33.75 43.25 33.75H33.75V43.25C33.75 44.2446 33.355 45.1984 32.6517 45.9017C31.9484 46.6049 30.9946 47 30 47C29.0055 47 28.0516 46.6049 27.3484 45.9017C26.6451 45.1984 26.25 44.2446 26.25 43.25V33.75H16.75C15.7555 33.75 14.8016 33.3549 14.0984 32.6517C13.3951 31.9484 13 30.9946 13 30C13 29.0054 13.3951 28.0516 14.0984 27.3483C14.8016 26.6451 15.7555 26.25 16.75 26.25H26.25V16.75C26.25 15.7554 26.6451 14.8016 27.3484 14.0983C28.0516 13.3951 29.0055 13 30 13C30.9946 13 31.9484 13.3951 32.6517 14.0983C33.355 14.8016 33.75 15.7554 33.75 16.75V26.25H43.25C44.2446 26.25 45.1984 26.6451 45.9017 27.3483C46.605 28.0516 47 29.0054 47 30Z"
  />
</svg>
