<?xml version="1.0" encoding="UTF-8"?>
<svg viewBox="0 0 70 70" xmlns="http://www.w3.org/2000/svg">
  <path
    d="M31.79,9.99h0m-1.68,.28V31.41c0,4.67,3.8,8.47,8.47,8.47h21.14c-2.34,11.58-12.63,20.11-24.62,20.11-.45,0-.91-.01-1.36-.04-12.64-.66-23.06-11.08-23.72-23.72-.65-12.45,8.05-23.54,20.08-25.98m1.5-5.27c-.16,0-.31,.01-.47,.03C15.87,7.05,4.2,20.5,5.04,36.51c.8,15.2,13.25,27.65,28.45,28.45,.54,.03,1.08,.04,1.62,.04,15.28,0,27.91-11.39,29.85-26.14,.28-2.1-1.33-3.98-3.45-3.98h-22.93c-1.92,0-3.47-1.56-3.47-3.47V8.48c0-1.96-1.6-3.48-3.5-3.48h0Zm9.37,25.4h19.52c2.32,0,4.03-2.24,3.34-4.45-2.93-9.43-10.36-16.85-19.78-19.78-2.21-.69-4.45,1.02-4.45,3.34V29.02c0,.76,.62,1.37,1.37,1.37Z"
  />
</svg>
