<?xml version="1.0" encoding="UTF-8"?>
<svg viewBox="0 0 60 60" xmlns="http://www.w3.org/2000/svg">
  <path
    d="M58.992 53.687L45.401 40.0727C45.3309 40.0027 45.2508 39.9526 45.1806 39.8926C48.9334 34.8132 50.6264 28.5037 49.9204 22.2291C49.2143 15.9545 46.1614 10.1785 41.3736 6.05925C36.5858 1.93994 30.4171 -0.218216 24.1041 0.0174529C17.7912 0.253121 11.8007 2.86518 7.33368 7.32998C2.86665 11.7948 0.253248 17.7823 0.0174614 24.0921C-0.218325 30.4018 1.94094 36.5675 6.06231 41.3529C10.1837 46.1383 15.9625 49.1897 22.2402 49.8954C28.518 50.6011 34.8306 48.9089 39.9125 45.158C39.9726 45.2281 40.0227 45.3082 40.0928 45.3783L53.6838 58.9925C54.3957 59.6556 55.3374 60.0166 56.3104 59.9994C57.2834 59.9823 58.2118 59.5883 58.8999 58.9005C59.5881 58.2127 59.9822 57.2848 59.9994 56.3123C60.0166 55.3398 59.6554 54.3986 58.992 53.687V53.687ZM25.0396 42.5754C21.5731 42.5754 18.1844 41.5479 15.3021 39.623C12.4198 37.6981 10.1733 34.9621 8.8467 31.761C7.52012 28.56 7.17302 25.0376 7.84931 21.6394C8.52559 18.2412 10.1949 15.1198 12.6461 12.6698C15.0973 10.2198 18.2203 8.55136 21.6203 7.87541C25.0202 7.19946 28.5443 7.54641 31.7469 8.87233C34.9495 10.1982 37.6869 12.4436 39.6128 15.3245C41.5387 18.2053 42.5666 21.5923 42.5666 25.0571C42.5613 29.7016 40.713 34.1544 37.4272 37.4385C34.1414 40.7227 29.6864 42.5701 25.0396 42.5754Z"
  />
</svg>
