<?xml version="1.0" encoding="UTF-8"?>
<svg viewBox="0 0 60 60" xmlns="http://www.w3.org/2000/svg">
  <path
    class="arrow-top"
    d="M45.1052 22.5004C44.6063 22.5005 44.1122 22.4034 43.6514 22.2147C43.1906 22.0259 42.7721 21.7492 42.4199 21.4005L29.9052 9.05066L17.3906 21.4005C16.6702 22.0628 15.7175 22.4234 14.733 22.4063C13.7485 22.3892 12.8092 21.9956 12.113 21.3085C11.4168 20.6215 11.018 19.6946 11.0006 18.7231C10.9832 17.7516 11.3486 16.8114 12.0199 16.1005L27.2199 1.10081C27.572 0.751897 27.9905 0.475037 28.4513 0.286127C28.9122 0.0972175 29.4062 0 29.9052 0C30.4042 0 30.8983 0.0972175 31.3591 0.286127C31.8199 0.475037 32.2385 0.751897 32.5906 1.10081L47.7906 16.1005C48.3213 16.6249 48.6827 17.2929 48.829 18.0198C48.9754 18.7468 48.9001 19.5003 48.6128 20.1851C48.3255 20.8699 47.8389 21.4553 47.2146 21.8674C46.5903 22.2795 45.8563 22.4998 45.1052 22.5004Z"
  />
  <path
    class="arrow-bottom"
    d="M29.9052 59.8153C29.4063 59.8154 28.9122 59.7183 28.4514 59.5295C27.9906 59.3407 27.5721 59.0641 27.2199 58.7153L12.0199 43.7156C11.3486 43.0047 10.9832 42.0645 11.0006 41.093C11.018 40.1216 11.4168 39.1946 12.113 38.5076C12.8092 37.8205 13.7485 37.427 14.733 37.4098C15.7175 37.3927 16.6702 37.7533 17.3906 38.4157L29.9052 50.8154L42.4199 38.4657C43.1402 37.8033 44.093 37.4427 45.0774 37.4598C46.0619 37.477 47.0012 37.8705 47.6974 38.5576C48.3937 39.2446 48.7925 40.1715 48.8098 41.143C48.8272 42.1145 48.4618 43.0547 47.7906 43.7656L32.5906 58.7653C31.871 59.4514 30.9057 59.8288 29.9052 59.8153V59.8153Z"
  />
</svg>
