<?xml version="1.0" encoding="UTF-8"?>
<svg viewBox="0 0 60 60" xmlns="http://www.w3.org/2000/svg">
  <path
    d="M56.8057 37.3838L54.3161 35.944C52.2065 34.7242 50.9967 32.4646 50.9967 30.025V29.945C50.9967 27.5154 52.2065 25.2458 54.3161 24.026L56.8057 22.5862C57.9655 21.9163 58.4954 20.4866 58.0055 19.2368C56.8657 16.2673 55.2659 13.5277 53.2963 11.0982C52.4464 10.0583 50.9567 9.79837 49.7969 10.4683L47.2973 11.918C45.2476 13.1078 42.708 13.1178 40.6684 11.918C40.5584 11.848 40.4384 11.788 40.3284 11.718C38.2588 10.5582 37.009 8.34861 37.009 5.979V3.08949C37.009 1.74971 36.0392 0.579903 34.7194 0.369938C33.1896 0.129978 31.6099 0 30.0102 0C28.4104 0 26.8307 0.129978 25.3009 0.369938C23.9712 0.579903 23.0113 1.73971 23.0113 3.08949V5.989C23.0113 8.35861 21.7515 10.5682 19.6919 11.728C19.5819 11.788 19.4619 11.858 19.3519 11.928C17.3123 13.1278 14.7727 13.1178 12.723 11.928L10.2235 10.4783C9.06365 9.80836 7.5739 10.0583 6.72404 11.1081C4.73437 13.5377 3.13464 16.2773 1.99483 19.2568C1.51491 20.5166 2.03482 21.9363 3.19463 22.6062L5.68421 24.046C7.79386 25.2658 9.00366 27.5254 9.00366 29.965V30.045C9.00366 32.4746 7.79386 34.7442 5.68421 35.964L3.19463 37.4038C2.03482 38.0737 1.50491 39.5034 1.99483 40.7532C3.13464 43.7227 4.73437 46.4623 6.70404 48.8919C7.5539 49.9317 9.04365 50.1916 10.2035 49.5217L12.703 48.072C14.7527 46.8822 17.2923 46.8722 19.3319 48.072C19.4419 48.142 19.5619 48.202 19.6719 48.272C21.7415 49.4318 22.9913 51.6414 22.9913 54.011V56.9105C22.9913 58.2503 23.9612 59.4201 25.2809 59.6301C26.8107 59.87 28.3904 60 29.9902 60C31.5899 60 33.1696 59.87 34.6994 59.6301C36.0292 59.4201 36.989 58.2603 36.989 56.9105V54.011C36.989 51.6414 38.2488 49.4318 40.3084 48.272C40.4184 48.212 40.5384 48.142 40.6484 48.072C42.688 46.8722 45.2276 46.8822 47.2773 48.072L49.7769 49.5217C50.9367 50.1916 52.4264 49.9417 53.2763 48.8919C55.246 46.4623 56.8457 43.7227 57.9855 40.7532C58.4654 39.4934 57.9455 38.0737 56.7857 37.4038L56.8057 37.3838ZM30.0002 40.9932C23.9212 40.9932 19.002 36.074 19.002 29.995C19.002 23.916 23.9212 18.9968 30.0002 18.9968C36.0791 18.9968 40.9983 23.916 40.9983 29.995C40.9983 36.074 36.0791 40.9932 30.0002 40.9932Z"
  />
</svg>
