<?xml version="1.0" encoding="UTF-8"?>
<svg viewBox="0 0 60 60" xmlns="http://www.w3.org/2000/svg">
  <path
    d="M56.25 23.251C55.2554 23.251 54.3016 23.6461 53.5984 24.3493C52.8951 25.0526 52.5 26.0064 52.5 27.001V46.001C52.5 47.7249 51.8152 49.3782 50.5962 50.5972C49.3772 51.8162 47.7239 52.501 46 52.501H14C12.2761 52.501 10.6228 51.8162 9.40381 50.5972C8.18482 49.3782 7.5 47.7249 7.5 46.001V27.001C7.5 26.0064 7.10491 25.0526 6.40165 24.3493C5.69839 23.6461 4.74456 23.251 3.75 23.251C2.75544 23.251 1.80161 23.6461 1.09835 24.3493C0.395088 25.0526 0 26.0064 0 27.001L0 46.001C0 49.714 1.475 53.275 4.1005 55.9005C6.72601 58.526 10.287 60.001 14 60.001H46C49.713 60.001 53.274 58.526 55.8995 55.9005C58.525 53.275 60 49.714 60 46.001V27.001C60 26.0064 59.6049 25.0526 58.9016 24.3493C58.1984 23.6461 57.2446 23.251 56.25 23.251Z"
  />
  <path
    d="M20.6502 18.4009L26.2502 12.8009V36.2509C26.2502 37.2454 26.6453 38.1992 27.3486 38.9025C28.0518 39.6058 29.0056 40.0009 30.0002 40.0009C30.9948 40.0009 31.9486 39.6058 32.6519 38.9025C33.3551 38.1992 33.7502 37.2454 33.7502 36.2509V12.8009L39.3502 18.4009C40.0611 19.0633 41.0013 19.4239 41.9728 19.4067C42.9443 19.3896 43.8713 18.996 44.5583 18.309C45.2454 17.6219 45.6389 16.695 45.6561 15.7235C45.6732 14.752 45.3126 13.8117 44.6502 13.1009L32.6502 1.10085C32.3027 0.751934 31.8897 0.475074 31.435 0.286161C30.9802 0.0972472 30.4926 0 30.0002 0C29.5078 0 29.0202 0.0972472 28.5654 0.286161C28.1107 0.475074 27.6977 0.751934 27.3502 1.10085L15.3502 13.1009C14.6878 13.8117 14.3272 14.752 14.3443 15.7235C14.3615 16.695 14.755 17.6219 15.4421 18.309C16.1292 18.996 17.0561 19.3896 18.0276 19.4067C18.9991 19.4239 19.9393 19.0633 20.6502 18.4009V18.4009Z"
  />
</svg>
