<?xml version="1.0" encoding="UTF-8"?>
<svg viewBox="0 0 60 60" xmlns="http://www.w3.org/2000/svg">
  <path
    d="M56.25 13.5H30V11.25C30 8.35 27.65 6 24.75 6H12.75C9.85 6 7.5 8.35 7.5 11.25V13.5H3.75C1.68 13.5 0 15.18 0 17.25C0 19.32 1.68 21 3.75 21H7.5V23.25C7.5 26.15 9.85 28.5 12.75 28.5H24.75C27.65 28.5 30 26.15 30 23.25V21H56.25C58.32 21 60 19.32 60 17.25C60 15.18 58.32 13.5 56.25 13.5ZM22.5 21H15V13.5H22.5V21Z"
  />
  <path
    d="M56.25 40H52.5V37.75C52.5 34.85 50.15 32.5 47.25 32.5H35.25C32.35 32.5 30 34.85 30 37.75V40H3.75C1.68 40 0 41.68 0 43.75C0 45.82 1.68 47.5 3.75 47.5H30V49.75C30 52.65 32.35 55 35.25 55H47.25C50.15 55 52.5 52.65 52.5 49.75V47.5H56.25C58.32 47.5 60 45.82 60 43.75C60 41.68 58.32 40 56.25 40ZM45 47.5H37.5V40H45V47.5Z"
  />
</svg>
