<?xml version="1.0" encoding="UTF-8"?>
<svg viewBox="0 0 60 60" xmlns="http://www.w3.org/2000/svg">
  <path
    d="M27.3872 4.63033C28.5351 2.59605 31.4649 2.59605 32.6127 4.63033L39.3376 16.5482C39.766 17.3073 40.5032 17.8426 41.3577 18.0148L54.7777 20.7195C57.0697 21.1815 57.9757 23.9716 56.3924 25.692L47.1306 35.7555C46.5397 36.3975 46.2577 37.265 46.3579 38.1318L47.9295 51.7146C48.1981 54.0357 45.8271 55.7593 43.702 54.7878L31.2473 49.0938C30.4552 48.7317 29.5448 48.7317 28.7527 49.0938L16.298 54.7878C14.1729 55.7593 11.8019 54.0357 12.0705 51.7146L13.642 38.1318C13.7423 37.265 13.4603 36.3975 12.8694 35.7555L3.6076 25.692C2.02427 23.9716 2.9303 21.1815 5.22231 20.7195L18.6423 18.0148C19.4968 17.8426 20.234 17.3073 20.6624 16.5482L27.3872 4.63033Z"
  />
</svg>
