<?xml version="1.0" encoding="UTF-8"?>
<svg viewBox="0 0 60 60" xmlns="http://www.w3.org/2000/svg">
  <path
    d="M58.9002 41.8499L43.9002 26.8499C43.5528 26.5009 43.1398 26.2241 42.685 26.0352C42.2303 25.8462 41.7427 25.749 41.2502 25.749C40.7578 25.749 40.2702 25.8462 39.8154 26.0352C39.3606 26.2241 38.9477 26.5009 38.6002 26.8499L23.6002 41.8499C22.9378 42.5607 22.5772 43.501 22.5943 44.4725C22.6115 45.444 23.005 46.3709 23.6921 47.058C24.3792 47.745 25.3061 48.1386 26.2776 48.1558C27.2491 48.1729 28.1894 47.8123 28.9002 47.1499L37.5002 38.5499V56.2499C37.5002 57.2444 37.8953 58.1983 38.5986 58.9016C39.3019 59.6048 40.2557 59.9999 41.2502 59.9999C42.2448 59.9999 43.1986 59.6048 43.9018 58.9016C44.6051 58.1983 45.0002 57.2444 45.0002 56.2499V38.5499L53.6002 47.1499C54.3111 47.8123 55.2514 48.1729 56.2229 48.1558C57.1944 48.1386 58.1213 47.745 58.8083 47.058C59.4954 46.3709 59.889 45.444 59.9061 44.4725C59.9232 43.501 59.5626 42.5607 58.9002 41.8499V41.8499Z"
  />
  <path
    d="M36.4936 12.85C36.1461 12.5011 35.7332 12.2242 35.2784 12.0353C34.8237 11.8464 34.336 11.7491 33.8436 11.7491C33.3512 11.7491 32.8635 11.8464 32.4088 12.0353C31.954 12.2242 31.5411 12.5011 31.1936 12.85L22.5936 21.45V3.75C22.5936 2.75544 22.1985 1.80159 21.4952 1.09833C20.792 0.395066 19.8382 0 18.8436 0C17.849 0 16.8953 0.395066 16.192 1.09833C15.4887 1.80159 15.0936 2.75544 15.0936 3.75V21.45L6.49363 12.85C6.15031 12.4815 5.73634 12.186 5.27634 11.9811C4.81634 11.7761 4.31977 11.6659 3.81626 11.657C3.31274 11.6482 2.81249 11.7408 2.34555 11.9294C1.87861 12.118 1.45446 12.3987 1.09836 12.7548C0.742267 13.1109 0.461649 13.5351 0.273044 14.002C0.0844388 14.469 -0.00830097 14.9691 0.000582955 15.4726C0.00946688 15.9761 0.11972 16.4727 0.32468 16.9327C0.529639 17.3927 0.825142 17.8067 1.19358 18.15L16.1936 33.15C16.5411 33.4989 16.954 33.7758 17.4088 33.9647C17.8635 34.1536 18.3512 34.2509 18.8436 34.2509C19.336 34.2509 19.8237 34.1536 20.2784 33.9647C20.7332 33.7758 21.1461 33.4989 21.4936 33.15L36.4936 18.15C37.1959 17.4469 37.5903 16.4938 37.5903 15.5C37.5903 14.5062 37.1959 13.5531 36.4936 12.85V12.85Z"
  />
</svg>
