<?xml version="1.0" encoding="UTF-8"?>
<svg viewBox="0 0 60 60" xmlns="http://www.w3.org/2000/svg">
  <path
    d="M53.5 12H42V6C42 2.69 39.31 0 36 0H24C20.69 0 18 2.69 18 6V12H6.5C5.12 12 4 13.12 4 14.5C4 15.88 5.12 17 6.5 17H11V54C11 57.31 13.69 60 17 60H43C46.31 60 49 57.31 49 54V17H53.5C54.88 17 56 15.88 56 14.5C56 13.12 54.88 12 53.5 12ZM23 6C23 5.45 23.45 5 24 5H36C36.55 5 37 5.45 37 6V12H23V6ZM44 54C44 54.55 43.55 55 43 55H17C16.45 55 16 54.55 16 54V19H44V54ZM27 28.5V45.5C27 46.88 25.88 48 24.5 48C23.12 48 22 46.88 22 45.5V28.5C22 27.12 23.12 26 24.5 26C25.88 26 27 27.12 27 28.5ZM38 28.5V45.5C38 46.88 36.88 48 35.5 48C34.12 48 33 46.88 33 45.5V28.5C33 27.12 34.12 26 35.5 26C36.88 26 38 27.12 38 28.5Z"
  />
</svg>
