<?xml version="1.0" encoding="UTF-8"?>
<svg viewBox="0 0 60 60" xmlns="http://www.w3.org/2000/svg">
  <path
    d="M9 15H51C53.3869 15 55.6761 15.9482 57.364 17.6361C59.0518 19.3239 60 21.6131 60 24V48C60 50.3869 59.0518 52.6761 57.364 54.3639C55.6761 56.0517 53.3869 57 51 57H9C6.61305 57 4.32386 56.0517 2.63603 54.3639C0.948205 52.6761 0 50.3869 0 48V12C0 9.61305 0.948205 7.3239 2.63603 5.63608C4.32386 3.94825 6.61305 3 9 3H48C48.7956 3 49.5587 3.31611 50.1213 3.87872C50.6839 4.44133 51 5.20435 51 6C51 6.79565 50.6839 7.55867 50.1213 8.12128C49.5587 8.68389 48.7956 9 48 9H9C8.20435 9 7.44129 9.31611 6.87868 9.87872C6.31607 10.4413 6 11.2043 6 12C6 12.7956 6.31607 13.5587 6.87868 14.1213C7.44129 14.6839 8.20435 15 9 15ZM48 31.5C47.11 31.5 46.2399 31.764 45.4999 32.2584C44.7599 32.7529 44.1831 33.4556 43.8425 34.2779C43.502 35.1002 43.4128 36.005 43.5865 36.8779C43.7601 37.7508 44.1887 38.5527 44.818 39.182C45.4474 39.8113 46.2492 40.2399 47.1221 40.4136C47.995 40.5872 48.8998 40.4981 49.7221 40.1575C50.5443 39.8169 51.2472 39.24 51.7416 38.5C52.2361 37.76 52.5 36.89 52.5 36C52.5 34.8065 52.0259 33.6619 51.182 32.818C50.338 31.9741 49.1935 31.5 48 31.5Z"
  />
</svg>
