<?xml version="1.0" encoding="UTF-8"?>
<svg viewBox="0 0 60 60" xmlns="http://www.w3.org/2000/svg">
  <path
    d="m59.49,46.86L33.24,1.86c-.67-1.15-1.91-1.86-3.24-1.86s-2.57.71-3.24,1.86L.51,46.86c-.68,1.16-.68,2.59-.01,3.76.67,1.16,1.91,1.88,3.25,1.88h52.5c1.34,0,2.58-.72,3.25-1.88.67-1.16.66-2.6-.01-3.76Zm-49.21-1.86l15.97-27.38v8.41c0,2.07,1.68,3.75,3.75,3.75s3.75-1.68,3.75-3.75v-8.41l15.97,27.38H10.28Zm23.4-7.9c.05.24.07.48.07.73,0,.98-.4,1.95-1.09,2.65-.7.7-1.67,1.1-2.66,1.1-.24,0-.49-.03-.73-.08-.24-.04-.48-.12-.7-.21-.23-.09-.45-.21-.65-.34-.2-.14-.4-.3-.57-.47-.7-.7-1.1-1.67-1.1-2.65,0-.25.03-.49.08-.73.04-.24.12-.48.21-.71.09-.22.21-.44.34-.64.14-.21.3-.4.47-.57.7-.7,1.67-1.1,2.65-1.1s1.96.4,2.66,1.1c.17.17.32.36.46.57.14.2.25.42.35.64.09.23.16.47.21.71Z"
  />
</svg>
