<?xml version="1.0" encoding="UTF-8"?>
<svg width="40" height="40" viewBox="0 0 40 40" fill="none" xmlns="http://www.w3.org/2000/svg">
  <path
    d="M39.9998 19.9116C40.0491 30.9564 31.1332 39.9505 20.0884 39.9998C9.04213 40.0476 0.0494664 31.1332 0.000191541 20.0884C-0.0476341 9.04359 8.86677 0.0494782 19.9116 0.000203296C30.9564 -0.0490716 39.9505 8.86533 39.9998 19.9116Z"
    fill="#8DC63F"
  ></path>
  <path
    d="M38.4999 19.9191C38.5507 30.1349 30.3102 38.4566 20.0943 38.5073C9.87847 38.5581 1.55682 30.3176 1.50609 20.1017C1.45537 9.88587 9.69587 1.56421 19.9117 1.51349H19.919C30.1304 1.46856 38.4478 9.70761 38.4999 19.9191Z"
    fill="#F9E988"
  ></path>
  <path
    d="M20.3393 2.70474C21.5147 2.49604 22.719 2.49604 23.8944 2.70474C25.0813 2.89314 26.2291 3.2772 27.29 3.84241C28.3451 4.42211 29.2566 5.20906 30.1639 5.94674C31.0711 6.68441 31.974 7.43947 32.8334 8.26555C33.7102 9.07859 34.4769 10.0047 35.1102 11.0191C35.7624 12.0264 36.2972 13.1032 36.7044 14.2322C37.4769 16.5017 37.745 18.9466 37.3595 21.2785H37.245C36.858 18.9669 36.3334 16.764 35.5059 14.6684C35.1175 13.6148 34.6609 12.5887 34.1378 11.5945C33.5928 10.596 32.9914 9.62786 32.3378 8.69598C31.6726 7.75686 30.8581 6.93513 29.9262 6.26122C28.9871 5.59167 27.9074 5.15834 26.8625 4.74675C25.8175 4.33516 24.7813 3.91342 23.6915 3.60038C22.6016 3.28734 21.4944 3.05256 20.3379 2.82503V2.70474H20.3393Z"
    fill="white"
  ></path>
  <path
    d="M29.3823 13.3901C28.0403 13.0017 26.649 12.4509 25.2403 11.8944C25.1592 11.5408 24.8461 11.1002 24.2128 10.5625C23.2925 9.764 21.5635 9.78429 20.0694 10.1379C18.4201 9.74951 16.7911 9.61183 15.2274 9.99299C2.43764 13.5161 9.68975 22.1117 4.99414 30.7522C5.66225 32.1696 12.8636 40.4391 23.2838 38.2202C23.2838 38.2202 19.7201 29.6566 27.762 25.5465C34.2852 22.2001 38.9982 16.0089 29.3823 13.3901V13.3901Z"
    fill="#8BC53F"
  ></path>
  <path
    d="M30.9609 19.0148C30.9638 19.4423 30.6174 19.7916 30.1899 19.7945C29.7623 19.7974 29.4131 19.451 29.4102 19.0235C29.4073 18.5959 29.7536 18.2467 30.1812 18.2438C30.6087 18.2423 30.958 18.5873 30.9609 19.0148Z"
    fill="white"
  ></path>
  <path
    d="M20.0703 10.1322C21.0022 10.1989 24.3717 11.2916 25.2413 11.8887C24.5166 9.78729 22.0775 9.50759 20.0703 10.1322Z"
    fill="#009345"
  ></path>
  <path
    d="M20.9563 15.4467C20.9563 17.422 19.3563 19.0234 17.381 19.0249C15.4056 19.0263 13.8042 17.4249 13.8027 15.4496C13.8027 13.4742 15.4027 11.8728 17.3781 11.8713C19.352 11.8713 20.9534 13.4713 20.9548 15.4452H20.9563V15.4467Z"
    fill="white"
  ></path>
  <path
    d="M19.8951 15.4786C19.8951 16.8684 18.769 17.9945 17.3792 17.9945C15.9894 17.9945 14.8633 16.8684 14.8633 15.4786C14.8633 14.0887 15.9894 12.9626 17.3792 12.9626C18.769 12.9626 19.8951 14.0887 19.8951 15.4786Z"
    fill="#58595B"
  ></path>
  <path
    d="M33.8578 20.5915C30.9593 22.6335 27.6636 24.1828 22.9883 24.1828C20.7999 24.1828 20.3565 21.8639 18.9101 22.9973C18.1637 23.5857 15.5319 24.9016 13.4435 24.8016C11.3551 24.7016 7.96962 23.4784 7.02616 19.019C6.65225 23.4784 6.46094 26.761 4.78125 30.5247C8.11455 35.8624 16.0623 39.9797 23.2767 38.2058C22.5072 32.7928 27.2448 27.4914 29.9027 24.7828C30.9172 23.7552 32.8447 22.0784 33.8578 20.5929V20.5915Z"
    fill="#8BC53F"
  ></path>
  <path
    d="M33.7448 20.7249C32.8448 21.5451 31.7738 22.1524 30.684 22.6886C29.5811 23.2118 28.4304 23.6306 27.2492 23.9393C26.0666 24.2451 24.8333 24.4755 23.5841 24.3625C22.3348 24.2495 21.058 23.8248 20.2305 22.8886L20.2696 22.8437C21.2841 23.5016 22.4551 23.7335 23.6203 23.7669C24.8014 23.8031 25.9826 23.706 27.142 23.477C28.313 23.2321 29.4579 22.877 30.5637 22.419C31.6695 21.9625 32.7637 21.4335 33.7057 20.6799L33.7448 20.7249V20.7249Z"
    fill="#58595B"
  ></path>
</svg>
