<?xml version="1.0" encoding="UTF-8"?>
<svg viewBox="0 0 60 60" xmlns="http://www.w3.org/2000/svg">
  <rect width="60" height="59.9999" fill="white" />
  <path
    d="M35.3966 32.7002L38.0973 30.0002H29.9954V38.1001L32.696 35.4002L41.077 43.7791C41.1117 43.8155 41.1352 43.8612 41.1446 43.9107C41.1539 43.9601 41.1488 44.0112 41.1298 44.0579C41.1107 44.1045 41.0786 44.1446 41.0373 44.1734C40.996 44.2021 40.9472 44.2184 40.8969 44.2201H36.5399C36.2464 44.2192 35.965 44.1028 35.7567 43.8961L29.9954 38.1001L24.216 43.8781C24.008 44.0786 23.7308 44.1913 23.4418 44.1931H19.0668C18.9976 44.1931 18.9312 44.1656 18.8822 44.1166C18.8333 44.0677 18.8058 44.0013 18.8058 43.9321C18.8059 43.8981 18.8132 43.8645 18.8272 43.8335C18.8411 43.8025 18.8614 43.7747 18.8868 43.7521L27.2947 35.4002L24.5941 32.7002L12.5493 44.7781C12.2867 45.0423 12.1081 45.3783 12.0358 45.7438C11.9636 46.1092 12.001 46.4879 12.1434 46.8321C12.2858 47.1764 12.5267 47.4709 12.836 47.6787C13.1452 47.8865 13.509 47.9983 13.8816 48H24.333C25.0587 47.9992 25.7546 47.7113 26.2685 47.199L29.7433 43.7161C29.776 43.6823 29.8152 43.6555 29.8585 43.6372C29.9018 43.6189 29.9484 43.6094 29.9954 43.6094C30.0424 43.6094 30.0889 43.6189 30.1322 43.6372C30.1755 43.6555 30.2147 43.6823 30.2474 43.7161L33.7222 47.199C33.9742 47.4536 34.2742 47.6555 34.605 47.793C34.9357 47.9305 35.2905 48.0009 35.6487 48H46.1181C46.6188 47.9953 47.0973 47.7931 47.4496 47.4375C47.8019 47.0819 47.9996 46.6016 47.9996 46.101C47.9992 45.6047 47.8017 45.1288 47.4504 44.7781L35.3966 32.7002Z"
    fill="#33CBCB"
  />
  <path
    d="M27.2976 24.6003L18.884 16.2214C18.8372 16.1714 18.8112 16.1054 18.8112 16.0369C18.8112 15.9684 18.8372 15.9024 18.884 15.8524C18.9344 15.8078 18.9972 15.7796 19.064 15.7714H23.4822C23.6286 15.7704 23.7735 15.7995 23.9082 15.8568C24.0428 15.9141 24.1643 15.9983 24.2651 16.1044L29.9971 21.9003L35.7652 16.1224C35.868 16.0196 35.9901 15.9381 36.1244 15.8825C36.2587 15.8269 36.4027 15.7983 36.548 15.7984H40.9213C40.9897 15.803 41.0539 15.8334 41.1007 15.8836C41.1475 15.9337 41.1734 15.9998 41.1733 16.0684C41.1708 16.1349 41.1453 16.1985 41.1013 16.2484L32.6967 24.6003L35.3962 27.3002L47.4362 15.2224C47.6147 15.0458 47.7564 14.8356 47.8531 14.6038C47.9498 14.3721 47.9996 14.1235 47.9996 13.8724C47.9996 13.6213 47.9498 13.3727 47.8531 13.141C47.7564 12.9093 47.6147 12.699 47.4362 12.5224C47.0761 12.1776 46.5939 11.9898 46.0954 12.0004H35.6572C35.2991 11.9995 34.9445 12.0699 34.6139 12.2074C34.2833 12.3449 33.9833 12.5469 33.7315 12.8014L30.2581 16.2754C30.2246 16.3094 30.1847 16.3364 30.1407 16.3548C30.0966 16.3733 30.0494 16.3828 30.0016 16.3828C29.9539 16.3828 29.9067 16.3733 29.8626 16.3548C29.8186 16.3364 29.7787 16.3094 29.7452 16.2754L26.2718 12.8014C26.0189 12.5458 25.7175 12.3432 25.3852 12.2057C25.053 12.0681 24.6967 11.9983 24.3371 12.0004H13.8809C13.5084 12.0022 13.1448 12.114 12.8356 12.3217C12.5265 12.5295 12.2856 12.8241 12.1433 13.1683C12.001 13.5126 11.9636 13.8912 12.0358 14.2567C12.108 14.6221 12.2866 14.9581 12.5491 15.2224L24.5981 27.3002L21.8985 30.0002H29.9971V21.9003L27.2976 24.6003Z"
    fill="#FF0098"
  />
</svg>
