<svg
  width="1024"
  height="1024"
  viewBox="0 0 1024 1024"
  fill="none"
  xmlns="http://www.w3.org/2000/svg"
>
  <path
    d="M628.034 570.054L686.098 512.005H511.905V686.152L569.969 628.103L750.162 808.249C750.909 809.033 751.414 810.015 751.616 811.079C751.817 812.142 751.706 813.241 751.297 814.243C750.888 815.245 750.198 816.108 749.31 816.726C748.421 817.345 747.373 817.694 746.291 817.731H652.614C646.303 817.712 640.254 815.21 635.775 810.765L511.905 686.152L387.648 810.378C383.175 814.688 377.215 817.113 371.003 817.15H276.938C275.45 817.15 274.022 816.559 272.97 815.507C271.917 814.454 271.326 813.027 271.326 811.539C271.329 810.808 271.486 810.086 271.786 809.419C272.086 808.752 272.523 808.156 273.068 807.669L453.841 628.103L395.777 570.054L136.81 829.728C131.164 835.41 127.323 842.633 125.771 850.49C124.218 858.348 125.023 866.488 128.083 873.89C131.144 881.292 136.324 887.624 142.973 892.091C149.623 896.559 157.444 898.962 165.455 899H390.164C405.766 898.983 420.727 892.791 431.776 881.779L506.486 806.895C507.189 806.169 508.032 805.592 508.963 805.199C509.894 804.805 510.894 804.602 511.905 804.602C512.916 804.602 513.917 804.805 514.848 805.199C515.778 805.592 516.621 806.169 517.324 806.895L592.034 881.779C597.45 887.252 603.902 891.593 611.013 894.549C618.124 897.506 625.752 899.019 633.453 899H858.549C869.312 898.898 879.601 894.551 887.176 886.906C894.751 879.26 899 868.933 899 858.172C898.992 847.501 894.745 837.269 887.194 829.728L628.034 570.054Z"
    fill="#33CBCB"
  />
  <path
    d="M453.902 395.906L273.008 215.76C272.002 214.684 271.442 213.266 271.442 211.793C271.442 210.32 272.002 208.902 273.008 207.826C274.092 206.868 275.441 206.261 276.877 206.085H371.871C375.017 206.065 378.134 206.69 381.028 207.921C383.923 209.152 386.535 210.964 388.703 213.244L511.943 337.857L635.957 213.631C638.168 211.421 640.793 209.669 643.681 208.474C646.569 207.278 649.664 206.664 652.789 206.665H746.816C748.287 206.763 749.666 207.418 750.672 208.496C751.678 209.575 752.236 210.995 752.233 212.47C752.179 213.9 751.633 215.268 750.685 216.34L569.984 395.906L628.025 453.955L886.888 194.281C890.725 190.485 893.771 185.964 895.85 180.982C897.929 176 899 170.655 899 165.257C899 159.858 897.929 154.513 895.85 149.531C893.771 144.549 890.725 140.029 886.888 136.232C879.146 128.818 868.777 124.781 858.061 125.009H633.636C625.938 124.99 618.313 126.503 611.205 129.46C604.097 132.416 597.648 136.757 592.233 142.23L517.554 216.921C516.834 217.652 515.975 218.233 515.029 218.629C514.082 219.025 513.066 219.23 512.04 219.23C511.014 219.23 509.998 219.025 509.051 218.629C508.105 218.233 507.246 217.652 506.526 216.921L431.847 142.23C426.41 136.734 419.929 132.379 412.786 129.422C405.643 126.465 397.981 124.964 390.251 125.009H165.439C157.431 125.047 149.613 127.45 142.966 131.918C136.32 136.385 131.141 142.717 128.082 150.119C125.023 157.521 124.218 165.661 125.77 173.519C127.322 181.376 131.162 188.599 136.805 194.281L395.861 453.955L337.82 512.004H511.943V337.857L453.902 395.906Z"
    fill="#FF0098"
  />
</svg>
