<svg width="40" height="40" viewBox="0 0 40 40" fill="none" xmlns="http://www.w3.org/2000/svg">
  <path
    d="M24.7973 22.4L27.1978 20H19.9961V27.1999L22.3967 24.7999L29.8465 32.2479C29.8774 32.2802 29.8983 32.3209 29.9066 32.3648C29.9149 32.4088 29.9103 32.4542 29.8934 32.4957C29.8765 32.5371 29.848 32.5727 29.8113 32.5983C29.7745 32.6239 29.7312 32.6383 29.6865 32.6398H25.8135C25.5526 32.6391 25.3025 32.5356 25.1173 32.3518L19.9961 27.1999L14.8588 32.3358C14.6739 32.5141 14.4275 32.6143 14.1706 32.6158H10.2817C10.2201 32.6158 10.1611 32.5914 10.1176 32.5479C10.0741 32.5044 10.0496 32.4454 10.0496 32.3838C10.0498 32.3536 10.0563 32.3238 10.0687 32.2962C10.0811 32.2686 10.0991 32.244 10.1217 32.2239L17.5955 24.7999L15.1949 22.4L4.48827 33.1358C4.25484 33.3708 4.09606 33.6694 4.03186 33.9942C3.96767 34.3191 4.00093 34.6557 4.12747 34.9617C4.25401 35.2677 4.46818 35.5295 4.74309 35.7142C5.01799 35.8989 5.34135 35.9983 5.67256 35.9998H14.9628C15.6079 35.9991 16.2264 35.7431 16.6833 35.2878L19.772 32.1919C19.8011 32.1619 19.8359 32.138 19.8744 32.1217C19.9129 32.1054 19.9543 32.097 19.9961 32.097C20.0379 32.097 20.0792 32.1054 20.1177 32.1217C20.1562 32.138 20.191 32.1619 20.2201 32.1919L23.3089 35.2878C23.5328 35.5141 23.7996 35.6936 24.0935 35.8158C24.3875 35.938 24.7029 36.0006 25.0213 35.9998H34.3276C34.7726 35.9956 35.198 35.8159 35.5111 35.4998C35.8243 35.1837 36 34.7567 36 34.3118C35.9997 33.8706 35.8241 33.4476 35.5119 33.1358L24.7973 22.4Z"
    fill="#33CBCB"
  />
  <path
    d="M17.598 15.2002L10.1192 7.75233C10.0776 7.70787 10.0544 7.64924 10.0544 7.58834C10.0544 7.52743 10.0776 7.4688 10.1192 7.42434C10.164 7.38472 10.2198 7.35962 10.2792 7.35234H14.2066C14.3366 7.35151 14.4655 7.37734 14.5852 7.42825C14.7048 7.47916 14.8128 7.55406 14.9025 7.64833L19.9977 12.8003L25.1249 7.66433C25.2163 7.57297 25.3248 7.50052 25.4442 7.4511C25.5636 7.40169 25.6915 7.37628 25.8207 7.37634H29.7081C29.769 7.3804 29.826 7.40747 29.8676 7.45205C29.9092 7.49662 29.9322 7.55536 29.9321 7.61633C29.9299 7.67546 29.9073 7.732 29.8681 7.77633L22.3973 15.2002L24.7969 17.6002L35.4992 6.86434C35.6579 6.70737 35.7838 6.52049 35.8698 6.31451C35.9557 6.10854 36 5.88756 36 5.66436C36 5.44116 35.9557 5.22018 35.8698 5.01421C35.7838 4.80823 35.6579 4.62135 35.4992 4.46437C35.1792 4.15783 34.7505 3.99094 34.3074 4.00038H25.0289C24.7106 3.99959 24.3954 4.06214 24.1015 4.18437C23.8076 4.30661 23.541 4.48609 23.3171 4.71237L20.2296 7.80033C20.1998 7.83057 20.1644 7.85458 20.1252 7.87097C20.0861 7.88736 20.0441 7.8958 20.0017 7.8958C19.9592 7.8958 19.9172 7.88736 19.8781 7.87097C19.8389 7.85458 19.8035 7.83057 19.7737 7.80033L16.6862 4.71237C16.4614 4.48513 16.1935 4.30509 15.8981 4.18282C15.6028 4.06056 15.2861 3.99853 14.9664 4.00038H5.67189C5.34081 4.00193 5.01758 4.10129 4.74279 4.28599C4.468 4.4707 4.25391 4.7325 4.12742 5.03851C4.00093 5.34452 3.96768 5.68109 4.03185 6.00594C4.09602 6.33079 4.25474 6.62943 4.48808 6.86434L15.1984 17.6002L12.7988 20.0002H19.9977V12.8003L17.598 15.2002Z"
    fill="#FF0098"
  />
</svg>
