<svg width="512" height="512" viewBox="0 0 512 512" fill="none" xmlns="http://www.w3.org/2000/svg">
  <path
    d="M321.962 289.002L354.97 256.003H255.946V355.001L288.954 322.002L391.389 424.411C391.814 424.856 392.101 425.414 392.215 426.019C392.33 426.623 392.267 427.248 392.035 427.818C391.802 428.387 391.41 428.878 390.905 429.229C390.4 429.581 389.804 429.78 389.189 429.8H335.936C332.348 429.79 328.909 428.367 326.363 425.84L255.946 355.001L185.309 425.62C182.766 428.071 179.378 429.449 175.846 429.47H122.373C121.527 429.47 120.715 429.134 120.117 428.536C119.519 427.938 119.182 427.126 119.182 426.28C119.184 425.865 119.274 425.454 119.444 425.075C119.615 424.696 119.863 424.358 120.173 424.08L222.938 322.002L189.93 289.002L42.7138 436.62C39.5041 439.85 37.3208 443.957 36.4381 448.423C35.5555 452.89 36.0128 457.518 37.7527 461.726C39.4927 465.933 42.4375 469.533 46.2174 472.073C49.9973 474.612 54.4436 475.979 58.9977 476H186.739C195.609 475.99 204.113 472.47 210.395 466.21L252.865 423.641C253.265 423.228 253.744 422.9 254.273 422.676C254.802 422.452 255.371 422.337 255.946 422.337C256.521 422.337 257.089 422.452 257.619 422.676C258.148 422.9 258.627 423.228 259.027 423.641L301.497 466.21C304.576 469.321 308.244 471.789 312.286 473.47C316.329 475.151 320.665 476.011 325.043 476H453.004C459.123 475.942 464.972 473.471 469.278 469.125C473.584 464.778 476 458.908 476 452.79C475.995 446.724 473.581 440.908 469.288 436.62L321.962 289.002Z"
    fill="#33CBCB"
  />
  <path
    d="M222.973 190.003L120.139 87.5946C119.567 86.9832 119.248 86.1771 119.248 85.3396C119.248 84.5022 119.567 83.6961 120.139 83.0847C120.755 82.5399 121.522 82.1947 122.339 82.0947H176.34C178.128 82.0832 179.9 82.4385 181.546 83.1385C183.192 83.8385 184.676 84.8684 185.909 86.1646L255.968 157.004L326.467 86.3846C327.723 85.1284 329.215 84.1322 330.857 83.4527C332.499 82.7732 334.258 82.4239 336.035 82.4247H389.487C390.323 82.4805 391.107 82.8527 391.679 83.4657C392.251 84.0786 392.568 84.8862 392.566 85.7246C392.536 86.5376 392.225 87.315 391.686 87.9246L288.963 190.003L321.957 223.003L469.114 75.3847C471.296 73.2264 473.027 70.6567 474.209 67.8246C475.391 64.9924 476 61.9539 476 58.8849C476 55.816 475.391 52.7775 474.209 49.9453C473.027 47.1131 471.296 44.5435 469.114 42.3851C464.713 38.1702 458.819 35.8754 452.727 36.0052H325.147C320.771 35.9944 316.436 36.8544 312.395 38.5351C308.355 40.2159 304.688 42.6837 301.611 45.7951L259.157 88.2546C258.748 88.6703 258.26 89.0005 257.722 89.2258C257.184 89.4512 256.606 89.5672 256.023 89.5672C255.439 89.5672 254.862 89.4512 254.324 89.2258C253.785 89.0005 253.298 88.6703 252.888 88.2546L210.435 45.7951C207.344 42.6705 203.66 40.195 199.599 38.5138C195.539 36.8327 191.183 35.9798 186.789 36.0052H58.9885C54.4362 36.0265 49.9917 37.3928 46.2133 39.9324C42.435 42.4721 39.4913 46.0719 37.752 50.2795C36.0128 54.4871 35.5556 59.115 36.4379 63.5817C37.3202 68.0484 39.5027 72.1547 42.7111 75.3847L189.978 223.003L156.983 256.003H255.968V157.004L222.973 190.003Z"
    fill="#FF0098"
  />
</svg>
