<svg
  width="1080"
  height="270"
  viewBox="0 0 1080 270"
  fill="none"
  xmlns="http://www.w3.org/2000/svg"
>
  <path
    d="M31.6471 69.1025L81.9862 40L132.325 69.1025L113.818 79.8537L81.9862 61.5025L50.1542 79.8537L31.6471 69.1025ZM132.325 105.805L113.818 95.0537L81.9862 113.405L50.1542 95.0537L31.6471 105.805V127.307L63.4792 145.658V182.361L81.9862 193.112L100.494 182.361V145.658L132.325 127.307V105.805ZM132.325 164.01V142.507L113.818 153.258V174.761L132.325 164.01ZM145.465 171.61L113.633 189.961V211.463L163.972 182.361V124.156L145.465 134.907V171.61ZM126.959 87.4537L145.465 98.2048V119.707L163.972 108.956V87.4537L145.465 76.7025L126.959 87.4537ZM63.4792 197.747V219.249L81.9862 230L100.494 219.249V197.747L81.9862 208.498L63.4792 197.747ZM31.6471 164.01L50.1542 174.761V153.258L31.6471 142.507V164.01ZM63.4792 87.4537L81.9862 98.2048L100.494 87.4537L81.9862 76.7025L63.4792 87.4537ZM18.507 98.2048L37.0141 87.4537L18.507 76.7025L0 87.4537V108.956L18.507 119.707V98.2048ZM18.507 134.907L0 124.156V182.361L50.339 211.463V189.961L18.507 171.61V134.907Z"
    fill="inherit"
  />
  <path
    d="M309.878 159.238V158.935C309.878 144.736 302.336 137.636 290.121 132.954C297.661 128.724 303.996 122.078 303.996 110.144V109.842C303.996 93.2255 290.724 82.5004 269.157 82.5004H220.142V188.241H270.364C294.193 188.241 309.878 178.573 309.878 159.238ZM280.921 114.071C280.921 121.926 274.436 125.25 264.181 125.25H242.765V102.893H265.689C275.491 102.893 280.921 106.821 280.921 113.769V114.071ZM286.803 156.368C286.803 164.223 280.619 167.848 270.364 167.848H242.765V144.585H269.61C281.524 144.585 286.803 148.966 286.803 156.065V156.368Z"
    fill="inherit"
  />
  <path
    d="M424.3 188.241V82.5004H401.376V147.606L351.908 82.5004H330.492V188.241H353.416V121.02L404.543 188.241H424.3Z"
    fill="inherit"
  />
  <path
    d="M540.887 159.238V158.935C540.887 144.736 533.345 137.636 521.13 132.954C528.67 128.724 535.004 122.078 535.004 110.144V109.842C535.004 93.2255 521.733 82.5004 500.166 82.5004H451.15V188.241H501.373C525.202 188.241 540.887 178.573 540.887 159.238ZM511.93 114.071C511.93 121.926 505.445 125.25 495.189 125.25H473.773V102.893H496.697C506.5 102.893 511.93 106.821 511.93 113.769V114.071ZM517.811 156.368C517.811 164.223 511.628 167.848 501.373 167.848H473.773V144.585H500.619C512.533 144.585 517.811 148.966 517.811 156.065V156.368Z"
    fill="inherit"
  />
  <path
    d="M680.864 169.561L668.95 157.477C659.9 165.936 651.606 171.223 638.635 171.223C618.425 171.223 603.797 154.305 603.797 133.459C603.797 112.613 618.425 95.9963 638.635 95.9963C650.701 95.9963 659.749 101.283 668.196 109.138L680.11 95.3921C670.005 85.7244 658.241 78.9268 638.786 78.9268C606.813 78.9268 584.341 103.549 584.341 133.761C584.341 164.274 607.266 188.293 638.032 188.293C657.789 188.293 669.855 181.042 680.864 169.561Z"
    fill="inherit"
  />
  <path
    d="M770.793 141.918V186.48H789.344V80.7393H770.793V124.697H720.421V80.7393H701.87V186.48H720.421V141.918H770.793Z"
    fill="inherit"
  />
  <path
    d="M872.558 79.984H855.367L808.915 186.48H827.916L838.776 160.951H888.698L899.408 186.48H919.01L872.558 79.984ZM881.909 144.486H845.566L863.658 102.19L881.909 144.486Z"
    fill="inherit"
  />
  <path d="M939.68 80.7393V186.48H958.23V80.7393H939.68Z" fill="inherit" />
  <path
    d="M1061.75 153.851L1005.19 80.7393H987.997V186.48H1006.25V111.253L1064.46 186.48H1080V80.7393H1061.75V153.851Z"
    fill="inherit"
  />
</svg>
