<svg width="1080" height="270" viewBox="0 0 1080 270" xmlns="http://www.w3.org/2000/svg">
  <path
    d="M306.2 155.355C306.185 156.293 305.797 157.188 305.122 157.842C304.448 158.496 303.541 158.858 302.6 158.847H236.3C238 175.211 250.3 190.177 267.7 190.177C279.6 190.177 288.4 185.687 295 176.208C295.308 175.71 295.733 175.295 296.238 175C296.744 174.704 297.315 174.537 297.9 174.512C298.337 174.5 298.772 174.577 299.178 174.738C299.584 174.899 299.953 175.141 300.262 175.449C300.57 175.757 300.813 176.125 300.975 176.53C301.136 176.935 301.213 177.369 301.2 177.805C301.203 178.407 301.029 178.996 300.7 179.501C294 191.075 280.7 196.763 267.7 196.763C245.4 196.763 229.4 176.807 229.4 155.554C229.4 134.302 245.3 114.346 267.7 114.346C290.1 114.346 306.1 134.102 306.2 155.355ZM299.1 152.262C297.7 135.898 285.1 120.931 267.7 120.931C250.3 120.931 238 135.898 236.3 152.262H299.1Z"
    fill="currentcolor"
  />
  <path
    d="M386.8 115.942C387.668 115.967 388.492 116.322 389.106 116.935C389.719 117.547 390.075 118.37 390.1 119.235C390.113 119.671 390.036 120.105 389.874 120.51C389.713 120.915 389.47 121.283 389.161 121.591C388.852 121.899 388.484 122.141 388.078 122.302C387.672 122.463 387.237 122.54 386.8 122.528H369V192.273C368.992 193.144 368.642 193.977 368.025 194.592C367.408 195.208 366.573 195.558 365.7 195.565C364.833 195.54 364.008 195.185 363.395 194.573C362.781 193.961 362.425 193.138 362.4 192.273V122.528H345.3C344.864 122.54 344.429 122.463 344.023 122.302C343.617 122.141 343.248 121.899 342.939 121.591C342.63 121.283 342.388 120.915 342.226 120.51C342.065 120.105 341.988 119.671 342 119.235C342.008 118.364 342.358 117.531 342.976 116.915C343.593 116.3 344.428 115.95 345.3 115.942H362.4V90.4989C362.402 89.6558 362.705 88.841 363.255 88.2009C363.805 87.5607 364.566 87.1373 365.4 87.0067C365.867 86.9448 366.341 86.9842 366.791 87.1222C367.241 87.2602 367.656 87.4934 368.007 87.8061C368.359 88.1187 368.638 88.5033 368.827 88.9336C369.015 89.3639 369.109 89.8298 369.1 90.2994V115.942H386.8Z"
    fill="currentcolor"
  />
  <path
    d="M495.3 149.667V191.874C495.275 192.739 494.919 193.562 494.305 194.174C493.692 194.786 492.867 195.141 492 195.166C491.563 195.179 491.128 195.102 490.722 194.941C490.316 194.78 489.948 194.538 489.639 194.23C489.33 193.921 489.087 193.553 488.926 193.148C488.764 192.743 488.687 192.309 488.7 191.874V149.667C488.7 135.399 480.6 121.231 464.7 121.231C444.3 121.231 435.5 138.991 436.7 157.251C436.7 157.749 436.9 159.845 436.9 160.144V191.774C436.898 192.617 436.595 193.432 436.045 194.072C435.495 194.712 434.734 195.135 433.9 195.266C433.433 195.328 432.959 195.289 432.509 195.151C432.059 195.013 431.644 194.779 431.293 194.467C430.941 194.154 430.662 193.77 430.473 193.339C430.285 192.909 430.191 192.443 430.2 191.973V53.1818C430.208 52.311 430.558 51.478 431.175 50.8622C431.792 50.2464 432.627 49.897 433.5 49.8892C434.367 49.9143 435.192 50.2692 435.805 50.8814C436.419 51.4935 436.775 52.3165 436.8 53.1818V131.608C442.5 121.43 452.7 114.545 464.6 114.545C484.2 114.545 495.3 131.608 495.3 149.667Z"
    fill="currentcolor"
  />
  <path
    d="M614.4 155.355C614.384 156.293 613.996 157.188 613.322 157.842C612.647 158.496 611.74 158.858 610.8 158.847H544.5C546.2 175.211 558.5 190.177 575.9 190.177C587.8 190.177 596.6 185.687 603.2 176.208C603.507 175.71 603.932 175.295 604.438 175C604.943 174.704 605.514 174.537 606.1 174.512C606.536 174.5 606.971 174.577 607.377 174.738C607.783 174.899 608.152 175.141 608.461 175.449C608.77 175.757 609.012 176.125 609.174 176.53C609.335 176.935 609.412 177.369 609.4 177.805C609.402 178.407 609.228 178.996 608.9 179.501C602.2 191.075 588.9 196.763 575.9 196.763C553.6 196.763 537.6 176.807 537.6 155.554C537.6 134.302 553.5 114.346 575.9 114.346C598.1 114.346 614.3 134.102 614.4 155.355ZM607.2 152.262C605.8 135.898 593.2 120.931 575.8 120.931C558.4 120.931 546.1 135.898 544.4 152.262H607.2Z"
    fill="currentcolor"
  />
  <path
    d="M695.9 119.035C695.964 119.921 695.673 120.796 695.093 121.469C694.512 122.142 693.688 122.559 692.8 122.627C673.3 125.521 664.5 141.386 664.5 159.845V191.474C664.499 192.318 664.196 193.132 663.646 193.772C663.096 194.413 662.335 194.836 661.5 194.967C661.034 195.028 660.559 194.989 660.109 194.851C659.659 194.713 659.245 194.48 658.893 194.167C658.542 193.855 658.262 193.47 658.074 193.04C657.885 192.609 657.792 192.144 657.8 191.674V119.534C657.802 118.691 658.105 117.876 658.655 117.236C659.205 116.596 659.966 116.173 660.8 116.042C661.267 115.98 661.741 116.02 662.191 116.158C662.641 116.296 663.056 116.529 663.407 116.841C663.759 117.154 664.038 117.539 664.227 117.969C664.415 118.399 664.509 118.865 664.5 119.335V134.002C670 124.723 680.9 115.942 692.3 115.942C694 115.942 695.9 117.14 695.9 119.035Z"
    fill="currentcolor"
  />
  <path
    d="M804.9 155.355C804.884 156.293 804.496 157.188 803.822 157.842C803.147 158.496 802.24 158.858 801.3 158.847H735C736.7 175.211 749 190.177 766.4 190.177C778.3 190.177 787.1 185.687 793.7 176.208C794.007 175.71 794.432 175.295 794.938 175C795.443 174.704 796.014 174.537 796.6 174.512C797.036 174.5 797.471 174.577 797.877 174.738C798.283 174.899 798.652 175.141 798.961 175.449C799.27 175.757 799.512 176.125 799.674 176.53C799.835 176.935 799.912 177.369 799.9 177.805C799.902 178.407 799.728 178.996 799.4 179.501C792.7 191.075 779.4 196.763 766.4 196.763C744.1 196.763 728.1 176.807 728.1 155.554C728.1 134.302 744 114.346 766.4 114.346C788.8 114.346 804.8 134.102 804.9 155.355ZM797.8 152.262C796.4 135.898 783.8 120.931 766.4 120.931C749 120.931 736.7 135.898 735 152.262H797.8Z"
    fill="currentcolor"
  />
  <path
    d="M912.1 119.834V192.273C912.075 193.138 911.719 193.961 911.105 194.573C910.492 195.185 909.667 195.54 908.8 195.565C908.363 195.578 907.928 195.501 907.522 195.34C907.116 195.179 906.748 194.937 906.439 194.629C906.13 194.32 905.887 193.952 905.726 193.547C905.564 193.142 905.487 192.708 905.5 192.273V178.503C900 189.379 890.3 197.262 877.9 197.262C858.2 197.262 847.3 180.2 847.3 162.14V119.734C847.308 118.863 847.658 118.03 848.275 117.414C848.892 116.798 849.727 116.449 850.6 116.441C851.467 116.466 852.292 116.821 852.905 117.433C853.519 118.046 853.875 118.869 853.9 119.734V162.14C853.9 176.408 862 190.576 877.9 190.576C900.2 190.576 905.5 169.723 905.5 146.674V119.634C905.507 119.1 905.643 118.576 905.895 118.105C906.147 117.634 906.508 117.231 906.949 116.928C907.39 116.625 907.897 116.432 908.427 116.364C908.958 116.297 909.497 116.358 910 116.541C910.628 116.833 911.16 117.297 911.532 117.881C911.904 118.464 912.101 119.142 912.1 119.834Z"
    fill="currentcolor"
  />
  <path
    d="M1080 149.368V191.774C1079.97 192.639 1079.62 193.462 1079.01 194.074C1078.39 194.687 1077.57 195.042 1076.7 195.067C1076.26 195.079 1075.83 195.002 1075.42 194.841C1075.02 194.68 1074.65 194.438 1074.34 194.13C1074.03 193.822 1073.79 193.454 1073.63 193.048C1073.46 192.643 1073.39 192.21 1073.4 191.774V149.368C1073.4 135.1 1065.3 121.131 1049.4 121.131C1029.4 121.131 1021.8 142.483 1021.8 159.047V191.774C1021.77 192.639 1021.42 193.462 1020.81 194.074C1020.19 194.687 1019.37 195.042 1018.5 195.067C1018.06 195.079 1017.63 195.002 1017.22 194.841C1016.82 194.68 1016.45 194.438 1016.14 194.13C1015.83 193.822 1015.59 193.454 1015.43 193.048C1015.26 192.643 1015.19 192.21 1015.2 191.774V149.368C1015.2 135.1 1007.1 121.131 991.2 121.131C971 121.131 962.7 136.996 963.4 158.149C963.4 158.648 963.6 159.546 963.4 159.845V191.674C963.398 192.517 963.095 193.332 962.545 193.972C961.995 194.612 961.235 195.036 960.4 195.166C959.933 195.228 959.459 195.189 959.009 195.051C958.559 194.913 958.144 194.68 957.793 194.367C957.441 194.054 957.162 193.67 956.973 193.239C956.785 192.809 956.691 192.343 956.7 191.874V119.534C956.701 118.691 957.004 117.877 957.554 117.236C958.104 116.596 958.865 116.173 959.7 116.042C960.166 115.98 960.641 116.02 961.091 116.158C961.541 116.296 961.956 116.529 962.307 116.842C962.658 117.154 962.938 117.539 963.126 117.969C963.315 118.399 963.408 118.865 963.4 119.335V131.408C969.1 121.231 979.3 114.546 991.2 114.546C1004.7 114.546 1015.2 123.126 1019.5 135.599C1025 123.226 1035.7 114.546 1049.4 114.546C1068.9 114.546 1080 131.408 1080 149.368Z"
    fill="currentcolor"
  />
  <path
    opacity="0.2"
    d="M83 99.8781L0 137.494L83 186.486L166.1 137.494L83 99.8781Z"
    fill="inherit"
  />
  <path opacity="0.45" d="M0 137.494L83 186.486V0L0 137.494Z" fill="inherit" />
  <path opacity="0.8" d="M83 0V186.486L166.1 137.494L83 0Z" fill="inherit" />
  <path opacity="0.45" d="M0 153.259L83 270V202.151L0 153.259Z" fill="inherit" />
  <path opacity="0.8" d="M83 202.151V270L166.1 153.259L83 202.151Z" fill="inherit" />
</svg>
