<?xml version="1.0" encoding="utf-8"?>
<svg width="762" height="270" viewBox="0 0 762 270" xmlns="http://www.w3.org/2000/svg">
  <path d="M199.6,216.7H168v-154h31.6V216.7z" />
  <path
    d="M314,59.7c17.5,0,31.7,6.1,42.8,18.4c11,12.3,16.6,27.8,16.6,46.7v91.9h-31.6v-87.1c0-11.9-3.8-21.7-11.5-29.4 c-7.6-7.7-17.1-11.6-28.3-11.6c-12.7,0-23,3.9-31,11.6c-8,7.7-12.1,17.5-12.1,29.4v87.1h-31.6v-154h31.6v39.8 c4.2-13.3,11.2-23.7,21-31.3C289.5,63.5,300.9,59.7,314,59.7L314,59.7z"
  />
  <path
    d="M472,59.7c24.7,0,44.8,8.8,60.3,26.5c15.5,17.7,21.8,39.1,19,64.2H423.8c2.2,12.5,7.9,22.6,17.2,30.3 c9.2,7.7,20.4,11.6,33.4,11.6c10,0,19-2.5,27-7.4c7.9-4.9,14.1-11.6,18.5-20l26.5,11.8c-6.8,13.1-16.6,23.5-29.2,31.3 c-12.6,7.8-27.2,11.8-43.7,11.8c-23.1,0-42.5-7.6-58.2-22.9c-15.7-15.3-23.5-34.3-23.5-57c0-22.7,7.7-41.7,23.1-57.1 C430.3,67.4,449.3,59.7,472,59.7L472,59.7z M472,87.1c-11.7,0-21.8,3.6-30.3,10.7c-8.5,7.1-14.2,16.4-17,27.9h94.6 c-2.6-11.5-8.2-20.7-16.7-27.9C494.1,90.7,483.9,87.1,472,87.1z"
  />
  <path
    d="M638.8,59.7c18.5,0,33.6,4.8,45.2,14.5c11.6,9.6,17.5,23.5,17.5,41.6v101h-31.7v-41c-9.5,29.3-28.4,44-57,44 c-13.3,0-24.3-4-33.2-11.9c-8.8-7.9-13.3-18.3-13.3-31.2c0-15.1,5.3-26.4,16-33.9c10.6-7.5,24.2-12.2,40.7-14l29.8-3 c11.2-1,16.9-6,16.9-15.1c0-7.4-2.9-13.4-8.6-17.8c-5.7-4.4-13.2-6.6-22.5-6.6c-9.2,0-17.4,2.4-24,7.2 c-6.5,4.8-10.7,11.9-12.5,21.1L571,107c2.8-14.5,10.3-26,22.6-34.5C605.8,64,620.9,59.7,638.8,59.7L638.8,59.7z M623.1,194.1 c13.1,0,24.1-4.4,33.1-13.1c9-8.7,13.6-18.9,13.6-30.6V142c-2.4,4-8.2,6.5-17.5,7.5l-29.2,3.6c-7.6,1-13.7,3.3-18.2,6.8 c-4.5,3.5-6.8,8.3-6.8,14.3c0,6,2.3,10.9,6.8,14.5C609.4,192.3,615.5,194.1,623.1,194.1L623.1,194.1z"
  />
  <path d="M146.2,216.7H0v-154h33.4v124.2h112.7V216.7z" />
  <path
    d="M731.3,59.7c16.5,0,29.8-13.4,29.8-29.8c0-16.5-13.4-29.8-29.8-29.8c-16.5,0-29.8,13.4-29.8,29.8 C701.5,46.3,714.9,59.7,731.3,59.7z"
  />
</svg>
