<svg
  width="1080"
  height="270"
  viewBox="0 0 1080 270"
  fill="none"
  xmlns="http://www.w3.org/2000/svg"
>
  <path
    d="M336.09 237.783V89.0246H358.219L360.326 101.032H361.38C367.702 92.8075 378.447 86.9166 393.406 86.9166C420.785 86.9166 442.707 109.257 442.707 142.325C442.707 175.393 420.804 197.733 393.406 197.733C378.654 197.733 368.342 191.616 362.866 184.671H361.813V237.765H336.109L336.09 237.783ZM416.984 142.344C416.984 122.958 404.546 110.744 389.38 110.744C374.213 110.744 361.775 122.958 361.775 142.344C361.775 161.729 374.213 173.944 389.38 173.944C404.546 173.944 416.984 161.729 416.984 142.344Z"
    fill="currentcolor"
  />
  <path
    d="M455.747 142.344C455.747 110.104 478.911 86.9354 509.884 86.9354C540.856 86.9354 564.02 110.104 564.02 142.344C564.02 174.583 540.856 197.752 509.884 197.752C478.911 197.752 455.747 174.358 455.747 142.344ZM538.109 142.344C538.109 123.372 525.464 110.744 509.884 110.744C494.303 110.744 481.451 123.391 481.451 142.344C481.451 161.296 494.303 173.737 509.884 173.737C525.464 173.737 538.109 161.315 538.109 142.344Z"
    fill="currentcolor"
  />
  <path d="M582.649 195.644V48.1459H608.353V195.644H582.649Z" fill="currentcolor" />
  <path
    d="M703.775 89.0245H731.154L684.808 218.605C680.179 231.46 673.856 237.783 657.203 237.783H632.346V213.975H653.421C657.222 213.975 659.311 212.074 660.59 208.912L663.112 201.968L619.72 89.0245H647.098L674.703 162.99H678.918L703.775 89.0245Z"
    fill="currentcolor"
  />
  <path
    d="M736.064 200.914H762.182C763.235 207.859 770.179 217.344 786.625 217.344C801.998 217.344 812.122 207.652 812.122 192.896V177.934H811.068C805.385 184.05 794.848 189.527 781.356 189.527C753.977 189.527 732.902 168.448 732.902 138.109C732.902 107.77 753.977 86.9166 781.356 86.9166C795.469 86.9166 805.799 92.6005 812.329 100.618H813.383L815.49 89.0246H837.826V192.896C837.826 221.127 818.858 239.891 786.625 239.891C750.609 239.891 736.703 216.29 736.064 200.914ZM812.122 138.128C812.122 121.49 800.324 109.897 785.364 109.897C770.405 109.897 758.813 121.49 758.813 138.128C758.813 154.765 770.612 166.566 785.364 166.566C800.117 166.566 812.122 154.972 812.122 138.128Z"
    fill="currentcolor"
  />
  <path
    d="M855.684 142.344C855.684 110.104 878.847 86.9354 909.82 86.9354C940.793 86.9354 963.957 110.104 963.957 142.344C963.957 174.583 940.793 197.752 909.82 197.752C878.847 197.752 855.684 174.358 855.684 142.344ZM938.046 142.344C938.046 123.372 925.401 110.744 909.82 110.744C894.24 110.744 881.388 123.391 881.388 142.344C881.388 161.296 894.24 173.737 909.82 173.737C925.401 173.737 938.046 161.315 938.046 142.344Z"
    fill="currentcolor"
  />
  <path
    d="M981.851 195.644V89.0246H1003.96L1006.07 99.1313H1007.12C1011.34 94.2943 1021.87 86.9166 1037.87 86.9166C1062.31 86.9166 1080 104.608 1080 131.578V195.625H1054.3V134.947C1054.3 121.246 1044.61 111.346 1031.34 111.346C1018.07 111.346 1007.54 121.678 1007.54 134.947V195.625H981.832L981.851 195.644Z"
    fill="currentcolor"
  />
  <path
    d="M197.785 183.203L260.973 146.71C264.322 144.771 266.392 141.177 266.392 137.318V64.3317C266.392 60.4735 264.322 56.8787 260.973 54.9402L197.785 18.4469C194.436 16.5083 190.277 16.5271 186.947 18.4469L123.759 54.9402C120.41 56.8787 118.34 60.4735 118.34 64.3317V194.759L74.0261 220.337L29.712 194.759V143.586L74.0261 118.008L103.249 134.891V100.562L79.4453 86.8037C77.8083 85.8627 75.9266 85.3545 74.0261 85.3545C72.1255 85.3545 70.2438 85.8627 68.6068 86.8037L5.4193 123.297C2.06987 125.236 0 128.83 0 132.689V205.675C0 209.534 2.06987 213.128 5.4193 215.067L68.6068 251.56C71.9562 253.48 76.0959 253.48 79.4453 251.56L142.633 215.067C145.982 213.128 148.052 209.534 148.052 205.675V75.2289L148.842 74.7772L192.347 49.6516L236.661 75.2289V126.402L192.347 151.98L163.162 135.135V169.464L186.928 183.185C190.277 185.104 194.436 185.104 197.767 183.185L197.785 183.203Z"
    fill="url(#paint0_linear_5252_20167)"
  />
  <defs>
    <linearGradient
      id="paint0_linear_5252_20167"
      x1="-0.86558"
      y1="212.808"
      x2="254.977"
      y2="64.3569"
      gradientUnits="userSpaceOnUse"
    >
      <stop stop-color="#A726C1" />
      <stop offset="0.88" stop-color="#803BDF" />
      <stop offset="1" stop-color="#7B3FE4" />
    </linearGradient>
  </defs>
</svg>
