<svg width="600" height="300" viewBox="0 0 600 300" fill="none" xmlns="http://www.w3.org/2000/svg">
  <path
    opacity="0.03"
    d="M0 27.52V54.76H27.24V27.52H0ZM19.63 47.15H7.61V35.14H19.62V47.15H19.63Z"
    fill="#939598"
  />
  <path
    opacity="0.2"
    d="M95.4704 154.17C97.7182 154.17 99.5404 152.348 99.5404 150.1C99.5404 147.852 97.7182 146.03 95.4704 146.03C93.2226 146.03 91.4004 147.852 91.4004 150.1C91.4004 152.348 93.2226 154.17 95.4704 154.17Z"
    fill="#939598"
  />
  <path
    opacity="0.07"
    d="M68.2302 126.93C70.478 126.93 72.3002 125.108 72.3002 122.86C72.3002 120.612 70.478 118.79 68.2302 118.79C65.9824 118.79 64.1602 120.612 64.1602 122.86C64.1602 125.108 65.9824 126.93 68.2302 126.93Z"
    fill="#939598"
  />
  <path
    opacity="0.03"
    d="M95.4704 45.2098C97.7182 45.2098 99.5404 43.3876 99.5404 41.1398C99.5404 38.892 97.7182 37.0698 95.4704 37.0698C93.2226 37.0698 91.4004 38.892 91.4004 41.1398C91.4004 43.3876 93.2226 45.2098 95.4704 45.2098Z"
    fill="#939598"
  />
  <path
    opacity="0.2"
    d="M531.27 99.6898C533.518 99.6898 535.34 97.8676 535.34 95.6198C535.34 93.372 533.518 91.5498 531.27 91.5498C529.022 91.5498 527.2 93.372 527.2 95.6198C527.2 97.8676 529.022 99.6898 531.27 99.6898Z"
    fill="#939598"
  />
  <path
    opacity="0.03"
    d="M531.27 208.65C533.518 208.65 535.34 206.828 535.34 204.58C535.34 202.332 533.518 200.51 531.27 200.51C529.022 200.51 527.2 202.332 527.2 204.58C527.2 206.828 529.022 208.65 531.27 208.65Z"
    fill="#939598"
  />
  <path opacity="0.03" d="M54.6101 190.96H27.3701V218.2H54.6101V190.96Z" fill="#939598" />
  <path opacity="0.07" d="M136.33 163.72H163.57V136.48H136.33V163.72Z" fill="#939598" />
  <path opacity="0.02" d="M54.6096 163.72H81.8496V136.48H54.6096V163.72Z" fill="#939598" />
  <path opacity="0.1" d="M109.09 136.48H136.33V109.24H109.09V136.48Z" fill="#939598" />
  <path opacity="0.15" d="M136.33 82H163.57V54.76H136.33V82Z" fill="#939598" />
  <path opacity="0.05" d="M81.8503 27.52H54.6104V54.76H81.8503V27.52Z" fill="#939598" />
  <path opacity="0.07" d="M109.09 82H136.33V54.76H109.09V82Z" fill="#939598" />
  <path opacity="0.15" d="M81.8498 109.24H109.09V82.0002H81.8498V109.24Z" fill="#939598" />
  <path opacity="0.07" d="M435.97 136.27H463.22V109.02H435.97V136.27Z" fill="#939598" />
  <path opacity="0.15" d="M490.47 136.27H463.22V163.52H490.47V136.27Z" fill="#939598" />
  <path opacity="0.05" d="M517.72 109.02H490.47V136.27H517.72V109.02Z" fill="#939598" />
  <path opacity="0.03" d="M544.97 109.02H517.72V136.27H544.97V109.02Z" fill="#939598" />
  <path opacity="0.15" d="M572.23 136.27H544.98V163.52H572.23V136.27Z" fill="#939598" />
  <path opacity="0.05" d="M599.48 136.27H572.23V163.52H599.48V136.27Z" fill="#939598" />
  <path opacity="0.02" d="M544.98 81.7598H572.23V54.5098H544.98V81.7598Z" fill="#939598" />
  <path opacity="0.15" d="M572.24 27.25L599.49 27.25V0L572.24 0V27.25Z" fill="#939598" />
  <path
    opacity="0.1"
    d="M27.25 27.25V0H0V27.25H27.25ZM19.63 19.63H7.62V7.62H19.64V19.64L19.63 19.63Z"
    fill="#939598"
  />
  <path
    opacity="0.2"
    d="M95.6198 17.9598C97.8676 17.9598 99.6898 16.1376 99.6898 13.8898C99.6898 11.642 97.8676 9.81982 95.6198 9.81982C93.372 9.81982 91.5498 11.642 91.5498 13.8898C91.5498 16.1376 93.372 17.9598 95.6198 17.9598Z"
    fill="#939598"
  />
  <path opacity="0.1" d="M136.5 0H109.25V27.25H136.5V0Z" fill="#939598" />
  <path
    opacity="0.02"
    d="M299.84 272.71V245.46H272.59V272.71H299.84ZM280.2 253.07H292.22V265.09H280.2V253.07Z"
    fill="#939598"
  />
  <path
    opacity="0.03"
    d="M354.35 272.71V299.96H381.6V272.71H354.35ZM373.99 292.35H361.97V280.33H373.99V292.35Z"
    fill="#939598"
  />
  <path
    opacity="0.07"
    d="M204.45 263.15C206.698 263.15 208.52 261.328 208.52 259.08C208.52 256.832 206.698 255.01 204.45 255.01C202.202 255.01 200.38 256.832 200.38 259.08C200.38 261.328 202.202 263.15 204.45 263.15Z"
    fill="#939598"
  />
  <path opacity="0.05" d="M299.84 299.96H327.09V272.71H299.84V299.96Z" fill="#939598" />
  <path opacity="0.07" d="M272.59 299.96H299.84V272.71H272.59V299.96Z" fill="#939598" />
  <path opacity="0.1" d="M190.83 299.96H218.08V272.71H190.83V299.96Z" fill="#939598" />
  <path opacity="0.07" d="M218.08 272.71H245.33V245.46H218.08V272.71Z" fill="#939598" />
  <path opacity="0.15" d="M191.08 218.2H163.83V245.45H191.08V218.2Z" fill="#939598" />
  <path opacity="0.1" d="M272.58 218.2H245.33V245.45H272.58V218.2Z" fill="#939598" />
  <path opacity="0.05" d="M381.6 245.45H354.35V272.7H381.6V245.45Z" fill="#939598" />
  <path opacity="0.07" d="M408.85 218.2H381.6V245.45H408.85V218.2Z" fill="#939598" />
  <path
    opacity="0.4"
    d="M381.602 251.725L387.874 245.453L381.602 239.181L375.33 245.453L381.602 251.725Z"
    fill="#939598"
  />
  <path
    opacity="0.4"
    d="M385.025 245.451L381.603 242.029L378.18 245.451L381.603 248.874L385.025 245.451Z"
    fill="#939598"
  />
  <path opacity="0.05" d="M245.53 27.25L272.78 27.25V0L245.53 0V27.25Z" fill="#939598" />
  <path opacity="0.15" d="M163.77 27.25L191.02 27.25V0L163.77 0V27.25Z" fill="#939598" />
  <path
    opacity="0.4"
    d="M327.293 59.9368L332.469 54.7607L327.293 49.5847L322.117 54.7607L327.293 59.9368Z"
    fill="#939598"
  />
  <path
    opacity="0.4"
    d="M330.119 54.7674L327.291 51.939L324.463 54.7674L327.291 57.5958L330.119 54.7674Z"
    fill="#939598"
  />
  <path
    opacity="0.03"
    d="M572.23 272.75V245.5H544.98V272.75H572.23ZM552.591 253.11H564.61V265.13H552.591V253.11Z"
    fill="#939598"
  />
  <path
    opacity="0.03"
    d="M476.84 263.19C479.087 263.19 480.91 261.368 480.91 259.12C480.91 256.872 479.087 255.05 476.84 255.05C474.592 255.05 472.77 256.872 472.77 259.12C472.77 261.368 474.592 263.19 476.84 263.19Z"
    fill="#939598"
  />
  <path opacity="0.05" d="M544.98 300H572.23V272.75H544.98V300Z" fill="#939598" />
  <path opacity="0.1" d="M463.22 300H490.47V272.75H463.22V300Z" fill="#939598" />
  <path opacity="0.05" d="M490.48 272.75H517.73V245.5H490.48V272.75Z" fill="#939598" />
  <path opacity="0.07" d="M463.21 218.24H435.96V245.49H463.21V218.24Z" fill="#939598" />
  <path opacity="0.07" d="M27.2803 163.81H54.5303V136.56H27.2803L27.2803 163.81Z" fill="#939598" />
  <path opacity="0.03" d="M0 191.06H27.25L27.25 163.81H0L0 191.06Z" fill="#939598" />
  <path opacity="0.1" d="M27.25 82.0498H0V109.3H27.25V82.0498Z" fill="#939598" />
  <path opacity="0.15" d="M136.27 299.99H163.52V272.74H136.27V299.99Z" fill="#939598" />
  <path opacity="0.05" d="M27.25 218.24H0V245.49H27.25V218.24Z" fill="#939598" />
  <path opacity="0.1" d="M109.01 218.24H81.7598V245.49H109.01V218.24Z" fill="#939598" />
  <path opacity="0.05" d="M81.7598 245.49H54.5098V272.74H81.7598V245.49Z" fill="#939598" />
  <path opacity="0.07" d="M109.02 299.99H136.27V272.74H109.02V299.99Z" fill="#939598" />
  <path opacity="0.02" d="M54.8096 245.46H82.0596V218.21H54.8096V245.46Z" fill="#939598" />
  <path opacity="0.1" d="M109.32 218.21H136.57V190.96H109.32V218.21Z" fill="#939598" />
  <path opacity="0.15" d="M82.0596 190.95H109.31V163.7H82.0596V190.95Z" fill="#939598" />
  <path opacity="0.07" d="M436.11 27.25L463.36 27.25V0L436.11 0V27.25Z" fill="#939598" />
  <path opacity="0.1" d="M327.1 27.25L354.35 27.25V0L327.1 0V27.25Z" fill="#939598" />
  <path opacity="0.15" d="M381.6 27.25H354.35V54.5H381.6V27.25Z" fill="#939598" />
  <path opacity="0.15" d="M327.09 54.5098H299.84V81.7598H327.09V54.5098Z" fill="#939598" />
  <path opacity="0.15" d="M490.61 27.25H463.36V54.5H490.61V27.25Z" fill="#939598" />
  <path opacity="0.05" d="M517.87 0H490.62V27.25H517.87V0Z" fill="#939598" />
  <path opacity="0.03" d="M545.12 0H517.87V27.25H545.12V0Z" fill="#939598" />
  <path
    opacity="0.03"
    d="M490.62 54.5098V81.7598H517.87V54.5098H490.62ZM498.24 62.1298H510.26V74.1498H498.24V62.1298Z"
    fill="#939598"
  />
  <path
    opacity="0.1"
    d="M422.49 72.2001C424.738 72.2001 426.56 70.3779 426.56 68.1301C426.56 65.8823 424.738 64.0601 422.49 64.0601C420.242 64.0601 418.42 65.8823 418.42 68.1301C418.42 70.3779 420.242 72.2001 422.49 72.2001Z"
    fill="#939598"
  />
  <path
    opacity="0.07"
    d="M476.99 126.71C479.238 126.71 481.06 124.888 481.06 122.64C481.06 120.392 479.238 118.57 476.99 118.57C474.742 118.57 472.92 120.392 472.92 122.64C472.92 124.888 474.742 126.71 476.99 126.71Z"
    fill="#939598"
  />
  <path
    d="M600 232.2H414.14C396.65 232.2 380.16 225.43 367.71 213.14L304.3 150.56C303.81 150.08 303.81 149.28 304.3 148.8L367.71 86.2201C380.16 73.9301 396.65 67.1601 414.14 67.1601H600V64.0601H414.14C395.83 64.0601 378.57 71.1501 365.53 84.0101L302.07 146.64C301.59 147.12 300.81 147.12 300.33 146.64L236.87 84.0101C223.83 71.1401 206.57 64.0601 188.26 64.0601H58.6404C56.4604 64.0601 54.6903 65.8301 54.6903 68.0101L54.6104 230.85C54.6104 233.3 56.6004 235.29 59.0504 235.29H188.24C206.55 235.29 223.81 228.2 236.85 215.34L290.27 162.62C290.88 162.02 290.89 161.04 290.28 160.43C289.67 159.82 288.7 159.81 288.09 160.42L234.67 213.14C222.22 225.43 205.73 232.2 188.24 232.2H59.0504C58.3104 232.2 57.7104 231.6 57.7104 230.86L57.7904 68.0201C57.7904 67.5501 58.1704 67.1701 58.6404 67.1701H188.24C205.73 67.1701 222.22 73.9401 234.67 86.2301L365.52 215.35C378.56 228.22 395.82 235.3 414.13 235.3H599.99V232.2H600Z"
    fill="url(#paint0_linear_5296_20312)"
  />
  <defs>
    <linearGradient
      id="paint0_linear_5296_20312"
      x1="55.5704"
      y1="149.68"
      x2="1008.26"
      y2="149.68"
      gradientUnits="userSpaceOnUse"
    >
      <stop stop-color="#FF0098" />
      <stop offset="1" stop-color="#33CBCB" />
    </linearGradient>
  </defs>
</svg>
