<svg width="600" height="300" viewBox="0 0 600 300" fill="none" xmlns="http://www.w3.org/2000/svg">
  <path
    opacity="0.03"
    d="M0 27.52V54.76H27.2632V27.52H0ZM19.6467 47.15H7.61647V35.14H19.6367V47.15H19.6467Z"
    fill="#939598"
  />
  <path
    opacity="0.2"
    d="M95.552 154.17C97.8017 154.17 99.6254 152.348 99.6254 150.1C99.6254 147.852 97.8017 146.03 95.552 146.03C93.3023 146.03 91.4785 147.852 91.4785 150.1C91.4785 152.348 93.3023 154.17 95.552 154.17Z"
    fill="#939598"
  />
  <path
    opacity="0.07"
    d="M68.2883 126.93C70.538 126.93 72.3618 125.108 72.3618 122.86C72.3618 120.612 70.538 118.79 68.2883 118.79C66.0386 118.79 64.2148 120.612 64.2148 122.86C64.2148 125.108 66.0386 126.93 68.2883 126.93Z"
    fill="#939598"
  />
  <path
    opacity="0.03"
    d="M95.552 45.2098C97.8017 45.2098 99.6254 43.3876 99.6254 41.1398C99.6254 38.892 97.8017 37.0698 95.552 37.0698C93.3023 37.0698 91.4785 38.892 91.4785 41.1398C91.4785 43.3876 93.3023 45.2098 95.552 45.2098Z"
    fill="#939598"
  />
  <path
    opacity="0.2"
    d="M531.722 99.6898C533.972 99.6898 535.795 97.8676 535.795 95.6198C535.795 93.372 533.972 91.5498 531.722 91.5498C529.472 91.5498 527.648 93.372 527.648 95.6198C527.648 97.8676 529.472 99.6898 531.722 99.6898Z"
    fill="#939598"
  />
  <path
    opacity="0.03"
    d="M531.722 208.65C533.972 208.65 535.795 206.828 535.795 204.58C535.795 202.332 533.972 200.51 531.722 200.51C529.472 200.51 527.648 202.332 527.648 204.58C527.648 206.828 529.472 208.65 531.722 208.65Z"
    fill="#939598"
  />
  <path opacity="0.03" d="M54.6567 190.96H27.3936V218.2H54.6567V190.96Z" fill="#939598" />
  <path opacity="0.07" d="M136.446 163.72H163.709V136.48H136.446V163.72Z" fill="#939598" />
  <path opacity="0.02" d="M54.6558 163.72H81.9189V136.48H54.6558V163.72Z" fill="#939598" />
  <path opacity="0.1" d="M109.183 136.48H136.446V109.24H109.183V136.48Z" fill="#939598" />
  <path opacity="0.15" d="M136.446 82H163.709V54.76H136.446V82Z" fill="#939598" />
  <path opacity="0.05" d="M81.9204 27.52H54.6572V54.76H81.9204V27.52Z" fill="#939598" />
  <path opacity="0.07" d="M109.183 82H136.446V54.76H109.183V82Z" fill="#939598" />
  <path opacity="0.15" d="M81.9195 109.24H109.183V82.0002H81.9195V109.24Z" fill="#939598" />
  <path opacity="0.07" d="M436.34 136.27H463.613V109.02H436.34V136.27Z" fill="#939598" />
  <path opacity="0.15" d="M490.886 136.27H463.613V163.52H490.886V136.27Z" fill="#939598" />
  <path opacity="0.05" d="M518.16 109.02H490.887V136.27H518.16V109.02Z" fill="#939598" />
  <path opacity="0.03" d="M545.433 109.02H518.16V136.27H545.433V109.02Z" fill="#939598" />
  <path opacity="0.15" d="M572.718 136.27H545.444V163.52H572.718V136.27Z" fill="#939598" />
  <path opacity="0.05" d="M599.99 136.27H572.717V163.52H599.99V136.27Z" fill="#939598" />
  <path opacity="0.02" d="M545.444 81.7598H572.717V54.5098H545.444V81.7598Z" fill="#939598" />
  <path opacity="0.15" d="M572.727 27.25L600 27.25V0L572.727 0V27.25Z" fill="#939598" />
  <path
    opacity="0.1"
    d="M27.2732 27.25V0H0V27.25H27.2732ZM19.6467 19.63H7.62648V7.62H19.6567V19.64L19.6467 19.63Z"
    fill="#939598"
  />
  <path
    opacity="0.2"
    d="M95.7014 17.9598C97.9511 17.9598 99.7749 16.1376 99.7749 13.8898C99.7749 11.642 97.9511 9.81982 95.7014 9.81982C93.4517 9.81982 91.6279 11.642 91.6279 13.8898C91.6279 16.1376 93.4517 17.9598 95.7014 17.9598Z"
    fill="#939598"
  />
  <path opacity="0.1" d="M136.616 0H109.343V27.25H136.616V0Z" fill="#939598" />
  <path
    opacity="0.02"
    d="M300.094 272.71V245.46H272.821V272.71H300.094ZM280.438 253.07H292.468V265.09H280.438V253.07Z"
    fill="#939598"
  />
  <path
    opacity="0.03"
    d="M354.651 272.71V299.96H381.925V272.71H354.651ZM374.308 292.35H362.278V280.33H374.308V292.35Z"
    fill="#939598"
  />
  <path
    opacity="0.07"
    d="M204.623 263.15C206.873 263.15 208.697 261.328 208.697 259.08C208.697 256.832 206.873 255.01 204.623 255.01C202.374 255.01 200.55 256.832 200.55 259.08C200.55 261.328 202.374 263.15 204.623 263.15Z"
    fill="#939598"
  />
  <path opacity="0.05" d="M300.095 299.96H327.368V272.71H300.095V299.96Z" fill="#939598" />
  <path opacity="0.07" d="M272.822 299.96H300.095V272.71H272.822V299.96Z" fill="#939598" />
  <path opacity="0.1" d="M190.992 299.96H218.266V272.71H190.992V299.96Z" fill="#939598" />
  <path opacity="0.07" d="M218.266 272.71H245.539V245.46H218.266V272.71Z" fill="#939598" />
  <path opacity="0.15" d="M191.243 218.2H163.97V245.45H191.243V218.2Z" fill="#939598" />
  <path opacity="0.1" d="M272.812 218.2H245.539V245.45H272.812V218.2Z" fill="#939598" />
  <path opacity="0.05" d="M381.925 245.45H354.651V272.7H381.925V245.45Z" fill="#939598" />
  <path opacity="0.07" d="M409.197 218.2H381.924V245.45H409.197V218.2Z" fill="#939598" />
  <path
    opacity="0.4"
    d="M381.927 251.725L388.204 245.453L381.927 239.181L375.649 245.453L381.927 251.725Z"
    fill="#939598"
  />
  <path
    opacity="0.4"
    d="M385.352 245.451L381.927 242.029L378.501 245.451L381.927 248.874L385.352 245.451Z"
    fill="#939598"
  />
  <path opacity="0.05" d="M245.74 27.25L273.013 27.25V0L245.74 0V27.25Z" fill="#939598" />
  <path opacity="0.15" d="M163.908 27.25L191.182 27.25V0L163.908 0V27.25Z" fill="#939598" />
  <path
    opacity="0.4"
    d="M327.572 59.9368L332.752 54.7607L327.572 49.5847L322.391 54.7607L327.572 59.9368Z"
    fill="#939598"
  />
  <path
    opacity="0.4"
    d="M330.4 54.7674L327.569 51.939L324.739 54.7674L327.569 57.5958L330.4 54.7674Z"
    fill="#939598"
  />
  <path
    opacity="0.03"
    d="M572.718 272.75V245.5H545.444V272.75H572.718ZM553.061 253.11H565.091V265.13H553.061V253.11Z"
    fill="#939598"
  />
  <path
    opacity="0.03"
    d="M477.245 263.19C479.495 263.19 481.319 261.368 481.319 259.12C481.319 256.872 479.495 255.05 477.245 255.05C474.996 255.05 473.172 256.872 473.172 259.12C473.172 261.368 474.996 263.19 477.245 263.19Z"
    fill="#939598"
  />
  <path opacity="0.05" d="M545.444 300H572.717V272.75H545.444V300Z" fill="#939598" />
  <path opacity="0.1" d="M463.614 300H490.887V272.75H463.614V300Z" fill="#939598" />
  <path opacity="0.05" d="M490.898 272.75H518.171V245.5H490.898V272.75Z" fill="#939598" />
  <path opacity="0.07" d="M463.604 218.24H436.331V245.49H463.604V218.24Z" fill="#939598" />
  <path opacity="0.07" d="M27.303 163.81H54.5762V136.56H27.303L27.303 163.81Z" fill="#939598" />
  <path
    opacity="0.03"
    d="M0.000267029 191.06H27.2734L27.2734 163.81H0.000267029L0.000267029 191.06Z"
    fill="#939598"
  />
  <path opacity="0.1" d="M27.2732 82.0498H0V109.3H27.2732V82.0498Z" fill="#939598" />
  <path opacity="0.15" d="M136.385 299.99H163.658V272.74H136.385V299.99Z" fill="#939598" />
  <path opacity="0.05" d="M27.2732 218.24H0V245.49H27.2732V218.24Z" fill="#939598" />
  <path opacity="0.1" d="M109.102 218.24H81.8291V245.49H109.102V218.24Z" fill="#939598" />
  <path opacity="0.05" d="M81.8288 245.49H54.5557V272.74H81.8288V245.49Z" fill="#939598" />
  <path opacity="0.07" d="M109.113 299.99H136.386V272.74H109.113V299.99Z" fill="#939598" />
  <path opacity="0.02" d="M54.8557 245.46H82.1289V218.21H54.8557V245.46Z" fill="#939598" />
  <path opacity="0.1" d="M109.413 218.21H136.687V190.96H109.413V218.21Z" fill="#939598" />
  <path opacity="0.15" d="M82.1292 190.95H109.402V163.7H82.1292V190.95Z" fill="#939598" />
  <path opacity="0.07" d="M436.481 27.25L463.754 27.25V0L436.481 0V27.25Z" fill="#939598" />
  <path opacity="0.1" d="M327.378 27.25L354.651 27.25V0L327.378 0V27.25Z" fill="#939598" />
  <path opacity="0.15" d="M381.925 27.25H354.651V54.5H381.925V27.25Z" fill="#939598" />
  <path opacity="0.15" d="M327.368 54.5098H300.095V81.7598H327.368V54.5098Z" fill="#939598" />
  <path opacity="0.15" d="M491.027 27.25H463.754V54.5H491.027V27.25Z" fill="#939598" />
  <path opacity="0.05" d="M518.31 0H491.037V27.25H518.31V0Z" fill="#939598" />
  <path opacity="0.03" d="M545.584 0H518.311V27.25H545.584V0Z" fill="#939598" />
  <path
    opacity="0.03"
    d="M491.037 54.5098V81.7598H518.31V54.5098H491.037ZM498.664 62.1298H510.694V74.1498H498.664V62.1298Z"
    fill="#939598"
  />
  <path
    opacity="0.1"
    d="M422.849 72.2001C425.099 72.2001 426.922 70.3779 426.922 68.1301C426.922 65.8823 425.099 64.0601 422.849 64.0601C420.599 64.0601 418.775 65.8823 418.775 68.1301C418.775 70.3779 420.599 72.2001 422.849 72.2001Z"
    fill="#939598"
  />
  <path
    opacity="0.07"
    d="M477.396 126.71C479.645 126.71 481.469 124.888 481.469 122.64C481.469 120.392 479.645 118.57 477.396 118.57C475.146 118.57 473.322 120.392 473.322 122.64C473.322 124.888 475.146 126.71 477.396 126.71Z"
    fill="#939598"
  />
  <path
    d="M543.222 64.0601H414.493C396.167 64.0601 378.893 71.1501 365.842 84.0101L302.328 146.64C301.847 147.12 301.067 147.12 300.586 146.64L237.072 84.0101C224.021 71.1401 206.746 64.0601 188.421 64.0601H58.6907C56.5088 64.0601 54.7373 65.8301 54.7373 68.0101L54.6572 230.85C54.6572 233.3 56.6489 235.29 59.101 235.29H188.401C206.726 235.29 224.001 228.2 237.052 215.34L290.518 162.62C291.128 162.02 291.138 161.04 290.528 160.43C289.927 159.82 288.946 159.81 288.336 160.42L234.87 213.14C222.41 225.43 205.906 232.2 188.401 232.2H59.101C58.3604 232.2 57.7599 231.6 57.7599 230.86L57.8399 68.0201C57.8399 67.5501 58.2203 67.1701 58.6907 67.1701H188.401C205.906 67.1701 222.41 73.9401 234.87 86.2301L365.832 215.35C378.883 228.22 396.157 235.3 414.483 235.3H543.703C545.885 235.3 547.656 233.53 547.656 231.35V68.5101C547.656 66.0601 545.664 64.0701 543.212 64.0701L543.222 64.0601ZM544.563 231.35C544.563 231.82 544.183 232.2 543.713 232.2H414.493C396.988 232.2 380.484 225.43 368.023 213.14L304.56 150.56C304.069 150.08 304.069 149.28 304.56 148.8L368.023 86.2201C380.484 73.9301 396.988 67.1601 414.493 67.1601H543.222C543.963 67.1601 544.563 67.7601 544.563 68.5001V231.35Z"
    fill="url(#paint0_linear_5296_20813)"
  />
  <defs>
    <linearGradient
      id="paint0_linear_5296_20813"
      x1="55.518"
      y1="149.68"
      x2="916.72"
      y2="149.68"
      gradientUnits="userSpaceOnUse"
    >
      <stop stop-color="#FF0098" />
      <stop offset="1" stop-color="#33CBCB" />
    </linearGradient>
  </defs>
</svg>
