<svg width="600" height="300" viewBox="0 0 600 300" fill="none" xmlns="http://www.w3.org/2000/svg">
  <path
    opacity="0.03"
    d="M0 27.52V54.76H27.2632V27.52H0ZM19.6467 47.15H7.61647V35.14H19.6367V47.15H19.6467Z"
    fill="#939598"
  />
  <path
    opacity="0.2"
    d="M95.552 154.17C97.8017 154.17 99.6254 152.348 99.6254 150.1C99.6254 147.852 97.8017 146.03 95.552 146.03C93.3023 146.03 91.4785 147.852 91.4785 150.1C91.4785 152.348 93.3023 154.17 95.552 154.17Z"
    fill="#939598"
  />
  <path
    opacity="0.07"
    d="M68.2883 126.93C70.538 126.93 72.3618 125.108 72.3618 122.86C72.3618 120.612 70.538 118.79 68.2883 118.79C66.0386 118.79 64.2148 120.612 64.2148 122.86C64.2148 125.108 66.0386 126.93 68.2883 126.93Z"
    fill="#939598"
  />
  <path
    opacity="0.03"
    d="M95.552 45.2101C97.8017 45.2101 99.6254 43.3879 99.6254 41.1401C99.6254 38.8923 97.8017 37.0701 95.552 37.0701C93.3023 37.0701 91.4785 38.8923 91.4785 41.1401C91.4785 43.3879 93.3023 45.2101 95.552 45.2101Z"
    fill="#939598"
  />
  <path
    opacity="0.2"
    d="M531.722 99.6898C533.972 99.6898 535.795 97.8676 535.795 95.6198C535.795 93.372 533.972 91.5498 531.722 91.5498C529.472 91.5498 527.648 93.372 527.648 95.6198C527.648 97.8676 529.472 99.6898 531.722 99.6898Z"
    fill="#939598"
  />
  <path
    opacity="0.03"
    d="M531.722 208.65C533.972 208.65 535.795 206.828 535.795 204.58C535.795 202.332 533.972 200.51 531.722 200.51C529.472 200.51 527.648 202.332 527.648 204.58C527.648 206.828 529.472 208.65 531.722 208.65Z"
    fill="#939598"
  />
  <path opacity="0.03" d="M54.6567 190.96H27.3936V218.2H54.6567V190.96Z" fill="#939598" />
  <path opacity="0.07" d="M136.446 163.72H163.709V136.48H136.446V163.72Z" fill="#939598" />
  <path opacity="0.02" d="M54.6558 163.72H81.9189V136.48H54.6558V163.72Z" fill="#939598" />
  <path opacity="0.1" d="M109.183 136.48H136.446V109.24H109.183V136.48Z" fill="#939598" />
  <path opacity="0.15" d="M136.446 82H163.709V54.76H136.446V82Z" fill="#939598" />
  <path opacity="0.05" d="M81.9204 27.52H54.6572V54.76H81.9204V27.52Z" fill="#939598" />
  <path opacity="0.07" d="M109.183 82H136.446V54.76H109.183V82Z" fill="#939598" />
  <path opacity="0.15" d="M81.9195 109.24H109.183V82.0002H81.9195V109.24Z" fill="#939598" />
  <path opacity="0.07" d="M436.34 136.27H463.613V109.02H436.34V136.27Z" fill="#939598" />
  <path opacity="0.15" d="M490.886 136.27H463.613V163.52H490.886V136.27Z" fill="#939598" />
  <path opacity="0.05" d="M518.16 109.02H490.887V136.27H518.16V109.02Z" fill="#939598" />
  <path opacity="0.03" d="M545.433 109.02H518.16V136.27H545.433V109.02Z" fill="#939598" />
  <path opacity="0.15" d="M572.718 136.27H545.444V163.52H572.718V136.27Z" fill="#939598" />
  <path opacity="0.05" d="M599.99 136.27H572.717V163.52H599.99V136.27Z" fill="#939598" />
  <path opacity="0.02" d="M545.444 81.7598H572.717V54.5098H545.444V81.7598Z" fill="#939598" />
  <path opacity="0.15" d="M572.727 27.25L600 27.25V0L572.727 0V27.25Z" fill="#939598" />
  <path
    opacity="0.1"
    d="M27.2732 27.25V0H0V27.25H27.2732ZM19.6467 19.63H7.62648V7.62H19.6567V19.64L19.6467 19.63Z"
    fill="#939598"
  />
  <path
    opacity="0.2"
    d="M95.7014 17.9601C97.9511 17.9601 99.7749 16.1379 99.7749 13.8901C99.7749 11.6423 97.9511 9.82007 95.7014 9.82007C93.4517 9.82007 91.6279 11.6423 91.6279 13.8901C91.6279 16.1379 93.4517 17.9601 95.7014 17.9601Z"
    fill="#939598"
  />
  <path opacity="0.1" d="M136.616 0H109.343V27.25H136.616V0Z" fill="#939598" />
  <path
    opacity="0.02"
    d="M300.094 272.71V245.46H272.821V272.71H300.094ZM280.438 253.07H292.468V265.09H280.438V253.07Z"
    fill="#939598"
  />
  <path
    opacity="0.03"
    d="M354.651 272.71V299.96H381.925V272.71H354.651ZM374.308 292.35H362.278V280.33H374.308V292.35Z"
    fill="#939598"
  />
  <path
    opacity="0.07"
    d="M204.623 263.15C206.873 263.15 208.697 261.328 208.697 259.08C208.697 256.832 206.873 255.01 204.623 255.01C202.374 255.01 200.55 256.832 200.55 259.08C200.55 261.328 202.374 263.15 204.623 263.15Z"
    fill="#939598"
  />
  <path opacity="0.05" d="M300.095 299.96H327.368V272.71H300.095V299.96Z" fill="#939598" />
  <path opacity="0.07" d="M272.822 299.96H300.095V272.71H272.822V299.96Z" fill="#939598" />
  <path opacity="0.1" d="M190.992 299.96H218.266V272.71H190.992V299.96Z" fill="#939598" />
  <path opacity="0.07" d="M218.266 272.71H245.539V245.46H218.266V272.71Z" fill="#939598" />
  <path opacity="0.15" d="M191.243 218.2H163.97V245.45H191.243V218.2Z" fill="#939598" />
  <path opacity="0.1" d="M272.812 218.2H245.539V245.45H272.812V218.2Z" fill="#939598" />
  <path opacity="0.05" d="M381.925 245.45H354.651V272.7H381.925V245.45Z" fill="#939598" />
  <path opacity="0.07" d="M409.197 218.2H381.924V245.45H409.197V218.2Z" fill="#939598" />
  <path
    opacity="0.4"
    d="M381.927 251.725L388.204 245.453L381.927 239.181L375.649 245.453L381.927 251.725Z"
    fill="#939598"
  />
  <path
    opacity="0.4"
    d="M385.352 245.451L381.927 242.029L378.501 245.451L381.927 248.874L385.352 245.451Z"
    fill="#939598"
  />
  <path opacity="0.05" d="M245.74 27.25L273.013 27.25V0L245.74 0V27.25Z" fill="#939598" />
  <path opacity="0.15" d="M163.908 27.25L191.182 27.25V0L163.908 0V27.25Z" fill="#939598" />
  <path
    opacity="0.4"
    d="M327.572 59.9368L332.752 54.7607L327.572 49.5847L322.391 54.7607L327.572 59.9368Z"
    fill="#939598"
  />
  <path
    opacity="0.4"
    d="M330.4 54.7671L327.569 51.9387L324.739 54.7671L327.569 57.5956L330.4 54.7671Z"
    fill="#939598"
  />
  <path
    opacity="0.03"
    d="M572.718 272.75V245.5H545.444V272.75H572.718ZM553.061 253.11H565.091V265.13H553.061V253.11Z"
    fill="#939598"
  />
  <path
    opacity="0.03"
    d="M477.245 263.19C479.495 263.19 481.319 261.368 481.319 259.12C481.319 256.872 479.495 255.05 477.245 255.05C474.996 255.05 473.172 256.872 473.172 259.12C473.172 261.368 474.996 263.19 477.245 263.19Z"
    fill="#939598"
  />
  <path opacity="0.05" d="M545.444 300H572.717V272.75H545.444V300Z" fill="#939598" />
  <path opacity="0.1" d="M463.614 300H490.887V272.75H463.614V300Z" fill="#939598" />
  <path opacity="0.05" d="M490.898 272.75H518.171V245.5H490.898V272.75Z" fill="#939598" />
  <path opacity="0.07" d="M463.604 218.24H436.331V245.49H463.604V218.24Z" fill="#939598" />
  <path opacity="0.07" d="M27.303 163.81H54.5762V136.56H27.303L27.303 163.81Z" fill="#939598" />
  <path
    opacity="0.03"
    d="M0.000267029 191.06H27.2734L27.2734 163.81H0.000267029L0.000267029 191.06Z"
    fill="#939598"
  />
  <path opacity="0.1" d="M27.2732 82.0498H0V109.3H27.2732V82.0498Z" fill="#939598" />
  <path opacity="0.15" d="M136.385 299.99H163.658V272.74H136.385V299.99Z" fill="#939598" />
  <path opacity="0.05" d="M27.2732 218.24H0V245.49H27.2732V218.24Z" fill="#939598" />
  <path opacity="0.1" d="M109.102 218.24H81.8291V245.49H109.102V218.24Z" fill="#939598" />
  <path opacity="0.05" d="M81.8288 245.49H54.5557V272.74H81.8288V245.49Z" fill="#939598" />
  <path opacity="0.07" d="M109.113 299.99H136.386V272.74H109.113V299.99Z" fill="#939598" />
  <path opacity="0.02" d="M54.8557 245.46H82.1289V218.21H54.8557V245.46Z" fill="#939598" />
  <path opacity="0.1" d="M109.413 218.21H136.687V190.96H109.413V218.21Z" fill="#939598" />
  <path opacity="0.15" d="M82.1292 190.95H109.402V163.7H82.1292V190.95Z" fill="#939598" />
  <path opacity="0.07" d="M436.481 27.25L463.754 27.25V0L436.481 0V27.25Z" fill="#939598" />
  <path opacity="0.1" d="M327.378 27.25L354.651 27.25V0L327.378 0V27.25Z" fill="#939598" />
  <path opacity="0.15" d="M381.925 27.25H354.651V54.5H381.925V27.25Z" fill="#939598" />
  <path opacity="0.15" d="M327.368 54.5098H300.095V81.7598H327.368V54.5098Z" fill="#939598" />
  <path opacity="0.15" d="M491.027 27.25H463.754V54.5H491.027V27.25Z" fill="#939598" />
  <path opacity="0.05" d="M518.31 0H491.037V27.25H518.31V0Z" fill="#939598" />
  <path opacity="0.03" d="M545.584 0H518.311V27.25H545.584V0Z" fill="#939598" />
  <path
    opacity="0.03"
    d="M491.037 54.5098V81.7598H518.31V54.5098H491.037ZM498.664 62.1298H510.694V74.1498H498.664V62.1298Z"
    fill="#939598"
  />
  <path
    opacity="0.1"
    d="M422.849 72.2001C425.099 72.2001 426.922 70.3779 426.922 68.1301C426.922 65.8823 425.099 64.0601 422.849 64.0601C420.599 64.0601 418.775 65.8823 418.775 68.1301C418.775 70.3779 420.599 72.2001 422.849 72.2001Z"
    fill="#939598"
  />
  <path
    opacity="0.07"
    d="M477.396 126.71C479.645 126.71 481.469 124.888 481.469 122.64C481.469 120.392 479.645 118.57 477.396 118.57C475.146 118.57 473.322 120.392 473.322 122.64C473.322 124.888 475.146 126.71 477.396 126.71Z"
    fill="#939598"
  />
  <path
    d="M543.221 64.5H381.444C376.019 64.5 370.905 62.43 367.042 58.67C365.28 56.96 363.499 55.28 361.757 53.68C348.045 41.13 330.35 34.77 309.162 34.77C287.974 34.77 269.559 41.56 254.386 54.96C253.745 55.53 253.685 56.51 254.246 57.15C254.816 57.79 255.797 57.85 256.438 57.29C271.03 44.41 288.765 37.88 309.162 37.88C329.56 37.88 346.544 43.97 359.665 55.97C361.387 57.55 363.148 59.2 364.88 60.9C369.334 65.23 375.219 67.61 381.454 67.61H543.231C543.972 67.61 544.572 68.21 544.572 68.95V231.67C544.572 232.14 544.192 232.52 543.722 232.52H328.379C326.457 232.52 324.646 231.77 323.284 230.41C321.343 228.47 318.751 227.4 315.998 227.4H296.432C295.571 227.4 294.88 228.09 294.88 228.95C294.88 229.81 295.571 230.5 296.432 230.5H315.998C317.92 230.5 319.731 231.25 321.093 232.61C323.034 234.55 325.626 235.62 328.379 235.62H543.722C545.904 235.62 547.675 233.85 547.675 231.67V68.94C547.675 66.49 545.683 64.5 543.231 64.5H543.221Z"
    fill="url(#paint0_linear_5296_20740)"
  />
  <path
    d="M361.637 144.77C358.575 147.46 349.507 155.15 331.412 168.39C326.778 171.75 323.885 174.98 322.564 178.28C321.423 181.12 320.773 186.58 320.552 194.96C320.522 195.96 319.682 196.78 318.681 196.78H293.67C292.639 196.78 291.798 195.94 291.798 194.91V176.33C291.798 175.47 291.107 174.78 290.247 174.78C289.386 174.78 288.695 175.47 288.695 176.33V194.91C288.695 197.65 290.927 199.89 293.68 199.89H318.691C321.363 199.89 323.605 197.72 323.665 195.05C323.865 187.15 324.466 181.9 325.457 179.44C326.537 176.74 329.16 173.87 333.253 170.91C351.459 157.59 360.616 149.83 363.699 147.11C385.908 127.58 386.869 96.54 374.979 77.82C374.518 77.1 373.557 76.88 372.837 77.34C372.116 77.8 371.896 78.76 372.356 79.48C383.556 97.1 382.605 126.34 361.647 144.78L361.637 144.77Z"
    fill="url(#paint1_linear_5296_20740)"
  />
  <path
    d="M322.043 246.44C321.182 246.44 320.492 247.13 320.492 247.99V258.31C320.492 258.79 320.101 259.17 319.631 259.17H292.648C292.168 259.17 291.787 258.78 291.787 258.31V247.49C291.787 239.23 285.062 232.51 276.794 232.51H58.9994C58.2588 232.51 57.6583 231.91 57.6583 231.17L57.7384 68.4398C57.7384 67.9698 58.1187 67.5898 58.5891 67.5898H239.183C240.073 67.5898 240.854 68.0298 241.314 68.7898C241.775 69.5498 241.795 70.4398 241.374 71.2298C237.381 78.7598 230.395 93.4598 228.503 107.31C228.163 109.83 229.915 112.24 232.417 112.69L261.682 117.92C262.963 118.15 264.244 117.86 265.305 117.11C266.366 116.35 267.066 115.22 267.276 113.93C271.7 85.7798 284.011 72.0898 304.908 72.0898C314.126 72.0898 321.693 74.8998 327.397 80.4498C333.092 85.9898 335.985 93.6198 335.985 103.14C335.985 115.83 328.398 128.08 313.426 139.56C312.745 140.08 312.615 141.05 313.135 141.73C313.656 142.41 314.627 142.54 315.307 142.02C331.081 129.92 339.077 116.84 339.077 103.14C339.077 92.7598 335.875 84.3798 329.549 78.2298C323.244 72.0998 314.947 68.9898 304.898 68.9898C282.529 68.9898 268.828 83.9498 264.194 113.45C264.124 113.91 263.873 114.32 263.493 114.59C263.123 114.86 262.662 114.96 262.212 114.88L232.947 109.65C232.076 109.49 231.436 108.62 231.556 107.74C233.378 94.3698 240.193 80.0498 244.097 72.6998C245.027 70.9498 244.967 68.8998 243.947 67.2098C242.926 65.5198 241.134 64.5098 239.152 64.5098H58.5891C56.4072 64.5098 54.6357 66.2798 54.6357 68.4598L54.5557 231.19C54.5557 233.64 56.5474 235.63 58.9994 235.63H276.794C283.35 235.63 288.685 240.96 288.685 247.51V258.33C288.685 260.52 290.466 262.29 292.648 262.29H319.631C321.823 262.29 323.594 260.51 323.594 258.33V248.01C323.594 247.15 322.904 246.46 322.043 246.46V246.44Z"
    fill="url(#paint2_linear_5296_20740)"
  />
  <defs>
    <linearGradient
      id="paint0_linear_5296_20740"
      x1="-578.552"
      y1="135.19"
      x2="536.045"
      y2="135.19"
      gradientUnits="userSpaceOnUse"
    >
      <stop stop-color="#FF0098" />
      <stop offset="1" stop-color="#33CBCB" />
    </linearGradient>
    <linearGradient
      id="paint1_linear_5296_20740"
      x1="-578.551"
      y1="138.48"
      x2="536.045"
      y2="138.48"
      gradientUnits="userSpaceOnUse"
    >
      <stop stop-color="#FF0098" />
      <stop offset="1" stop-color="#33CBCB" />
    </linearGradient>
    <linearGradient
      id="paint2_linear_5296_20740"
      x1="-260.942"
      y1="163.39"
      x2="467.867"
      y2="163.39"
      gradientUnits="userSpaceOnUse"
    >
      <stop stop-color="#FF0098" />
      <stop offset="1" stop-color="#33CBCB" />
    </linearGradient>
  </defs>
</svg>
