<svg width="600" height="300" viewBox="0 0 600 300" fill="none" xmlns="http://www.w3.org/2000/svg">
  <path
    opacity="0.03"
    d="M0 27.52V54.76H27.2632V27.52H0ZM19.6467 47.15H7.61647V35.14H19.6367V47.15H19.6467Z"
    fill="#939598"
  />
  <path
    opacity="0.2"
    d="M95.551 154.17C97.8007 154.17 99.6245 152.348 99.6245 150.1C99.6245 147.852 97.8007 146.03 95.551 146.03C93.3013 146.03 91.4775 147.852 91.4775 150.1C91.4775 152.348 93.3013 154.17 95.551 154.17Z"
    fill="#939598"
  />
  <path
    opacity="0.07"
    d="M68.2883 126.93C70.538 126.93 72.3618 125.108 72.3618 122.86C72.3618 120.612 70.538 118.79 68.2883 118.79C66.0386 118.79 64.2148 120.612 64.2148 122.86C64.2148 125.108 66.0386 126.93 68.2883 126.93Z"
    fill="#939598"
  />
  <path
    opacity="0.03"
    d="M95.551 45.2098C97.8007 45.2098 99.6245 43.3876 99.6245 41.1398C99.6245 38.892 97.8007 37.0698 95.551 37.0698C93.3013 37.0698 91.4775 38.892 91.4775 41.1398C91.4775 43.3876 93.3013 45.2098 95.551 45.2098Z"
    fill="#939598"
  />
  <path
    opacity="0.2"
    d="M531.722 99.6898C533.972 99.6898 535.795 97.8676 535.795 95.6198C535.795 93.372 533.972 91.5498 531.722 91.5498C529.472 91.5498 527.648 93.372 527.648 95.6198C527.648 97.8676 529.472 99.6898 531.722 99.6898Z"
    fill="#939598"
  />
  <path
    opacity="0.03"
    d="M531.722 208.65C533.972 208.65 535.795 206.828 535.795 204.58C535.795 202.332 533.972 200.51 531.722 200.51C529.472 200.51 527.648 202.332 527.648 204.58C527.648 206.828 529.472 208.65 531.722 208.65Z"
    fill="#939598"
  />
  <path opacity="0.03" d="M54.6567 190.96H27.3936V218.2H54.6567V190.96Z" fill="#939598" />
  <path opacity="0.07" d="M136.446 163.72H163.709V136.48H136.446V163.72Z" fill="#939598" />
  <path opacity="0.02" d="M54.6558 163.72H81.9189V136.48H54.6558V163.72Z" fill="#939598" />
  <path opacity="0.1" d="M109.183 136.48H136.446V109.24H109.183V136.48Z" fill="#939598" />
  <path opacity="0.15" d="M136.446 82H163.709V54.76H136.446V82Z" fill="#939598" />
  <path opacity="0.05" d="M81.9194 27.52H54.6562V54.76H81.9194V27.52Z" fill="#939598" />
  <path opacity="0.07" d="M109.183 82H136.446V54.76H109.183V82Z" fill="#939598" />
  <path opacity="0.15" d="M81.9195 109.24H109.183V82.0002H81.9195V109.24Z" fill="#939598" />
  <path opacity="0.07" d="M436.34 136.27H463.613V109.02H436.34V136.27Z" fill="#939598" />
  <path opacity="0.15" d="M490.886 136.27H463.613V163.52H490.886V136.27Z" fill="#939598" />
  <path opacity="0.05" d="M518.16 109.02H490.887V136.27H518.16V109.02Z" fill="#939598" />
  <path opacity="0.03" d="M545.433 109.02H518.16V136.27H545.433V109.02Z" fill="#939598" />
  <path opacity="0.15" d="M572.718 136.27H545.444V163.52H572.718V136.27Z" fill="#939598" />
  <path opacity="0.05" d="M599.99 136.27H572.717V163.52H599.99V136.27Z" fill="#939598" />
  <path opacity="0.02" d="M545.444 81.7598H572.717V54.5098H545.444V81.7598Z" fill="#939598" />
  <path opacity="0.15" d="M572.727 27.25L600 27.25V0L572.727 0V27.25Z" fill="#939598" />
  <path
    opacity="0.1"
    d="M27.2732 27.25V0H0V27.25H27.2732ZM19.6467 19.63H7.62648V7.62H19.6567V19.64L19.6467 19.63Z"
    fill="#939598"
  />
  <path
    opacity="0.2"
    d="M95.7004 17.9598C97.9501 17.9598 99.7739 16.1376 99.7739 13.8898C99.7739 11.642 97.9501 9.81982 95.7004 9.81982C93.4507 9.81982 91.627 11.642 91.627 13.8898C91.627 16.1376 93.4507 17.9598 95.7004 17.9598Z"
    fill="#939598"
  />
  <path opacity="0.1" d="M136.617 0H109.344V27.25H136.617V0Z" fill="#939598" />
  <path
    opacity="0.02"
    d="M300.095 272.71V245.46H272.822V272.71H300.095ZM280.439 253.07H292.469V265.09H280.439V253.07Z"
    fill="#939598"
  />
  <path
    opacity="0.03"
    d="M354.65 272.71V299.96H381.924V272.71H354.65ZM374.307 292.35H362.277V280.33H374.307V292.35Z"
    fill="#939598"
  />
  <path
    opacity="0.07"
    d="M204.623 263.15C206.873 263.15 208.697 261.328 208.697 259.08C208.697 256.832 206.873 255.01 204.623 255.01C202.374 255.01 200.55 256.832 200.55 259.08C200.55 261.328 202.374 263.15 204.623 263.15Z"
    fill="#939598"
  />
  <path opacity="0.05" d="M300.095 299.96H327.368V272.71H300.095V299.96Z" fill="#939598" />
  <path opacity="0.07" d="M272.822 299.96H300.095V272.71H272.822V299.96Z" fill="#939598" />
  <path opacity="0.1" d="M190.992 299.96H218.266V272.71H190.992V299.96Z" fill="#939598" />
  <path opacity="0.07" d="M218.266 272.71H245.539V245.46H218.266V272.71Z" fill="#939598" />
  <path opacity="0.15" d="M191.243 218.2H163.97V245.45H191.243V218.2Z" fill="#939598" />
  <path opacity="0.1" d="M272.812 218.2H245.539V245.45H272.812V218.2Z" fill="#939598" />
  <path opacity="0.05" d="M381.924 245.45H354.65V272.7H381.924V245.45Z" fill="#939598" />
  <path opacity="0.07" d="M409.197 218.2H381.924V245.45H409.197V218.2Z" fill="#939598" />
  <path
    opacity="0.4"
    d="M381.927 251.725L388.204 245.453L381.927 239.181L375.649 245.453L381.927 251.725Z"
    fill="#939598"
  />
  <path
    opacity="0.4"
    d="M385.352 245.451L381.927 242.029L378.501 245.451L381.927 248.874L385.352 245.451Z"
    fill="#939598"
  />
  <path opacity="0.05" d="M245.74 27.25L273.013 27.25V0L245.74 0V27.25Z" fill="#939598" />
  <path opacity="0.15" d="M163.908 27.25L191.182 27.25V0L163.908 0V27.25Z" fill="#939598" />
  <path
    opacity="0.4"
    d="M327.572 59.9368L332.752 54.7607L327.572 49.5847L322.391 54.7607L327.572 59.9368Z"
    fill="#939598"
  />
  <path
    opacity="0.4"
    d="M330.4 54.7674L327.569 51.939L324.739 54.7674L327.569 57.5958L330.4 54.7674Z"
    fill="#939598"
  />
  <path
    opacity="0.03"
    d="M572.718 272.75V245.5H545.444V272.75H572.718ZM553.061 253.11H565.091V265.13H553.061V253.11Z"
    fill="#939598"
  />
  <path
    opacity="0.03"
    d="M477.245 263.19C479.495 263.19 481.319 261.368 481.319 259.12C481.319 256.872 479.495 255.05 477.245 255.05C474.996 255.05 473.172 256.872 473.172 259.12C473.172 261.368 474.996 263.19 477.245 263.19Z"
    fill="#939598"
  />
  <path opacity="0.05" d="M545.444 300H572.717V272.75H545.444V300Z" fill="#939598" />
  <path opacity="0.1" d="M463.614 300H490.887V272.75H463.614V300Z" fill="#939598" />
  <path opacity="0.05" d="M490.897 272.75H518.17V245.5H490.897V272.75Z" fill="#939598" />
  <path opacity="0.07" d="M463.604 218.24H436.331V245.49H463.604V218.24Z" fill="#939598" />
  <path opacity="0.07" d="M27.303 163.81H54.5762V136.56H27.303L27.303 163.81Z" fill="#939598" />
  <path
    opacity="0.03"
    d="M0.000267029 191.06H27.2734L27.2734 163.81H0.000267029L0.000267029 191.06Z"
    fill="#939598"
  />
  <path opacity="0.1" d="M27.2732 82.0498H0V109.3H27.2732V82.0498Z" fill="#939598" />
  <path opacity="0.15" d="M136.385 299.99H163.658V272.74H136.385V299.99Z" fill="#939598" />
  <path opacity="0.05" d="M27.2732 218.24H0V245.49H27.2732V218.24Z" fill="#939598" />
  <path opacity="0.1" d="M109.103 218.24H81.8301V245.49H109.103V218.24Z" fill="#939598" />
  <path opacity="0.05" d="M81.8288 245.49H54.5557V272.74H81.8288V245.49Z" fill="#939598" />
  <path opacity="0.07" d="M109.113 299.99H136.386V272.74H109.113V299.99Z" fill="#939598" />
  <path opacity="0.02" d="M54.8557 245.46H82.1289V218.21H54.8557V245.46Z" fill="#939598" />
  <path opacity="0.1" d="M109.413 218.21H136.687V190.96H109.413V218.21Z" fill="#939598" />
  <path opacity="0.15" d="M82.1292 190.95H109.402V163.7H82.1292V190.95Z" fill="#939598" />
  <path opacity="0.07" d="M436.481 27.25L463.754 27.25V0L436.481 0V27.25Z" fill="#939598" />
  <path opacity="0.1" d="M327.377 27.25L354.65 27.25V0L327.377 0V27.25Z" fill="#939598" />
  <path opacity="0.15" d="M381.924 27.25H354.65V54.5H381.924V27.25Z" fill="#939598" />
  <path opacity="0.15" d="M327.368 54.5098H300.095V81.7598H327.368V54.5098Z" fill="#939598" />
  <path opacity="0.15" d="M491.027 27.25H463.754V54.5H491.027V27.25Z" fill="#939598" />
  <path opacity="0.05" d="M518.31 0H491.037V27.25H518.31V0Z" fill="#939598" />
  <path opacity="0.03" d="M545.584 0H518.311V27.25H545.584V0Z" fill="#939598" />
  <path
    opacity="0.03"
    d="M491.037 54.5098V81.7598H518.31V54.5098H491.037ZM498.664 62.1298H510.694V74.1498H498.664V62.1298Z"
    fill="#939598"
  />
  <path
    opacity="0.1"
    d="M422.85 72.2001C425.1 72.2001 426.923 70.3779 426.923 68.1301C426.923 65.8823 425.1 64.0601 422.85 64.0601C420.6 64.0601 418.776 65.8823 418.776 68.1301C418.776 70.3779 420.6 72.2001 422.85 72.2001Z"
    fill="#939598"
  />
  <path
    opacity="0.07"
    d="M477.396 126.71C479.645 126.71 481.469 124.888 481.469 122.64C481.469 120.392 479.645 118.57 477.396 118.57C475.146 118.57 473.322 120.392 473.322 122.64C473.322 124.888 475.146 126.71 477.396 126.71Z"
    fill="#939598"
  />
  <path
    d="M543.221 64.5H381.444C376.019 64.5 370.905 62.43 367.042 58.67C365.28 56.96 363.499 55.28 361.757 53.68C348.045 41.13 330.35 34.77 309.162 34.77C287.974 34.77 269.559 41.56 254.386 54.96C253.745 55.53 253.685 56.51 254.246 57.15C254.816 57.79 255.797 57.85 256.438 57.29C271.03 44.41 288.765 37.88 309.162 37.88C329.56 37.88 346.544 43.97 359.665 55.97C361.387 57.55 363.148 59.2 364.88 60.9C369.334 65.23 375.219 67.61 381.454 67.61H543.231C543.972 67.61 544.572 68.21 544.572 68.95V231.67C544.572 232.14 544.192 232.52 543.722 232.52H328.379C326.457 232.52 324.646 231.77 323.284 230.41C321.343 228.47 318.751 227.4 315.998 227.4H296.432C295.571 227.4 294.88 228.09 294.88 228.95C294.88 229.81 295.571 230.5 296.432 230.5H315.998C317.92 230.5 319.731 231.25 321.093 232.61C323.034 234.55 325.626 235.62 328.379 235.62H543.722C545.904 235.62 547.675 233.85 547.675 231.67V68.94C547.675 66.49 545.683 64.5 543.231 64.5H543.221Z"
    fill="url(#paint0_linear_5296_20459)"
  />
  <path
    d="M361.637 144.77C358.575 147.46 349.507 155.15 331.412 168.39C326.778 171.75 323.885 174.98 322.564 178.28C321.423 181.12 320.773 186.58 320.552 194.96C320.522 195.96 319.682 196.78 318.681 196.78H293.67C292.639 196.78 291.798 195.94 291.798 194.91V176.33C291.798 175.47 291.107 174.78 290.247 174.78C289.386 174.78 288.695 175.47 288.695 176.33V194.91C288.695 197.65 290.927 199.89 293.68 199.89H318.691C321.363 199.89 323.605 197.72 323.665 195.05C323.865 187.15 324.466 181.9 325.457 179.44C326.537 176.74 329.16 173.87 333.253 170.91C351.459 157.59 360.616 149.83 363.699 147.11C385.908 127.58 386.869 96.54 374.979 77.82C374.518 77.1 373.557 76.88 372.837 77.34C372.116 77.8 371.896 78.76 372.356 79.48C383.556 97.1 382.605 126.34 361.647 144.78L361.637 144.77Z"
    fill="url(#paint1_linear_5296_20459)"
  />
  <path
    d="M288.675 247.49V258.31C288.675 260.5 290.457 262.27 292.639 262.27H319.622C321.813 262.27 323.585 260.49 323.585 258.31V247.99C323.585 247.13 322.894 246.44 322.034 246.44C321.173 246.44 320.482 247.13 320.482 247.99V258.31C320.482 258.79 320.092 259.17 319.622 259.17H292.639C292.158 259.17 291.778 258.78 291.778 258.31V247.49C291.778 239.23 285.052 232.51 276.785 232.51H0V235.61H276.785C283.341 235.61 288.675 240.94 288.675 247.49Z"
    fill="url(#paint2_linear_5296_20459)"
  />
  <path
    d="M304.909 69C282.54 69 268.838 83.96 264.204 113.46C264.134 113.92 263.884 114.33 263.504 114.6C263.134 114.87 262.673 114.97 262.223 114.89L232.958 109.66C232.087 109.5 231.447 108.63 231.567 107.75C233.388 94.38 240.204 80.06 244.107 72.71C245.038 70.96 244.978 68.91 243.957 67.22C242.936 65.53 241.145 64.52 239.163 64.52H0V67.62H239.183C240.074 67.62 240.855 68.06 241.315 68.82C241.775 69.58 241.795 70.47 241.375 71.26C237.382 78.79 230.396 93.49 228.504 107.34C228.164 109.86 229.915 112.27 232.417 112.72L261.682 117.95C262.963 118.18 264.244 117.89 265.305 117.14C266.366 116.38 267.067 115.25 267.277 113.96C271.701 85.81 284.011 72.12 304.909 72.12C314.127 72.12 321.693 74.93 327.398 80.48C333.093 86.02 335.985 93.65 335.985 103.17C335.985 115.86 328.399 128.11 313.426 139.59C312.746 140.11 312.616 141.08 313.136 141.76C313.656 142.44 314.627 142.57 315.308 142.05C331.081 129.95 339.078 116.87 339.078 103.17C339.078 92.79 335.875 84.41 329.55 78.26C323.245 72.13 314.948 69.02 304.899 69.02L304.909 69Z"
    fill="url(#paint3_linear_5296_20459)"
  />
  <defs>
    <linearGradient
      id="paint0_linear_5296_20459"
      x1="-578.552"
      y1="135.19"
      x2="536.045"
      y2="135.19"
      gradientUnits="userSpaceOnUse"
    >
      <stop stop-color="#FF0098" />
      <stop offset="1" stop-color="#33CBCB" />
    </linearGradient>
    <linearGradient
      id="paint1_linear_5296_20459"
      x1="-578.551"
      y1="138.48"
      x2="536.045"
      y2="138.48"
      gradientUnits="userSpaceOnUse"
    >
      <stop stop-color="#FF0098" />
      <stop offset="1" stop-color="#33CBCB" />
    </linearGradient>
    <linearGradient
      id="paint2_linear_5296_20459"
      x1="-358.805"
      y1="247.39"
      x2="470.049"
      y2="247.39"
      gradientUnits="userSpaceOnUse"
    >
      <stop stop-color="#FF0098" />
      <stop offset="1" stop-color="#33CBCB" />
    </linearGradient>
    <linearGradient
      id="paint3_linear_5296_20459"
      x1="-375.989"
      y1="103.42"
      x2="492.569"
      y2="103.42"
      gradientUnits="userSpaceOnUse"
    >
      <stop stop-color="#FF0098" />
      <stop offset="1" stop-color="#33CBCB" />
    </linearGradient>
  </defs>
</svg>
