<?xml version="1.0" encoding="UTF-8"?>
<svg viewBox="0 0 40 40" xmlns="http://www.w3.org/2000/svg">
  <path
    d="M33.879 7.51001C31.2489 6.32131 28.4762 5.47764 25.6298 5C25.2407 5.69161 24.887 6.40253 24.5699 7.13C21.5368 6.68005 18.4539 6.68005 15.4208 7.13C15.1078 6.40064 14.7539 5.68951 14.3609 5C11.5141 5.48106 8.74139 6.32809 6.1117 7.52002C1.44764 14.0335 -0.662378 22.0332 0.182289 30V30C3.24621 32.2304 6.66836 33.9214 10.3013 35C11.1153 33.9081 11.8377 32.7508 12.4611 31.54C11.2817 31.0993 10.1411 30.5608 9.05141 29.93L9.89136 29.31C13.0584 30.7812 16.5083 31.5433 20.0004 31.5433C23.4924 31.5433 26.9423 30.7812 30.1094 29.31C30.3893 29.53 30.6693 29.74 30.9493 29.93C29.8614 30.5707 28.7166 31.1097 27.5296 31.54C28.1505 32.7545 28.8765 33.9122 29.6994 35C33.3309 33.9177 36.7525 32.2271 39.8184 30V30C40.6618 22.0287 38.5481 14.0252 33.879 7.51001V7.51001ZM13.361 25.45C12.8618 25.4244 12.3725 25.3006 11.9213 25.0856C11.47 24.8706 11.0656 24.5686 10.7312 24.197C10.3968 23.8254 10.139 23.3916 9.97259 22.9202C9.80616 22.4488 9.7344 21.9492 9.76137 21.45C9.73304 20.9513 9.80356 20.452 9.96887 19.9807C10.1342 19.5093 10.391 19.0753 10.7246 18.7036C11.0582 18.3318 11.4619 18.0297 11.9126 17.8146C12.3634 17.5994 12.8522 17.4756 13.351 17.45C14.3493 17.4916 15.2902 17.9278 15.9671 18.6628C16.6439 19.3979 17.0013 20.3716 16.9607 21.37V21.37C16.9876 21.8692 16.9158 22.3688 16.7494 22.8401C16.583 23.3115 16.3252 23.7455 15.9908 24.1171C15.6564 24.4886 15.252 24.7905 14.8007 25.0056C14.3495 25.2206 13.8602 25.3444 13.361 25.37V25.45ZM26.6397 25.45C26.1405 25.4244 25.6512 25.3006 25.2 25.0856C24.7487 24.8706 24.3443 24.5686 24.0099 24.197C23.6755 23.8254 23.4177 23.3916 23.2513 22.9202C23.0849 22.4488 23.0131 21.9492 23.04 21.45C23.0117 20.9505 23.0826 20.4504 23.2485 19.9784C23.4144 19.5064 23.6722 19.072 24.0068 18.7001C24.3414 18.3283 24.7464 18.0264 25.1983 17.8118C25.6502 17.5973 26.1401 17.4743 26.6397 17.45C27.6353 17.4916 28.5738 17.9268 29.2487 18.6599C29.9237 19.3931 30.28 20.3642 30.2393 21.36V21.42C30.2663 21.9192 30.1945 22.4187 30.0281 22.8901C29.8617 23.3615 29.6039 23.7955 29.2695 24.1671C28.9351 24.5386 28.5307 24.8405 28.0795 25.0555C27.6282 25.2705 27.1389 25.3944 26.6397 25.42V25.45Z"
  />
</svg>
