<?xml version="1.0" encoding="UTF-8"?>
<svg viewBox="0 0 40 40" xmlns="http://www.w3.org/2000/svg">
  <path
    d="M19.9861 0C17.3488 0.0117239 14.7398 0.540434 12.3079 1.55586C9.87607 2.57128 7.66907 4.05353 5.81308 5.91796C3.95709 7.7824 2.48846 9.99244 1.49107 12.4219C0.493684 14.8513 -0.0129038 17.4524 0.000249725 20.0767C0.0205046 24.2437 1.34908 28.3003 3.80016 31.679C6.25125 35.0577 9.70226 37.5895 13.6705 38.9204C14.6698 39.0994 15.0396 38.4829 15.0396 37.926C15.0396 37.3692 15.0396 36.1958 15.0396 34.5352C9.47351 35.7483 8.30435 31.8503 8.30435 31.8503C7.9347 30.6485 7.14864 29.6161 6.08596 28.9368C4.26725 27.6938 6.22581 27.7236 6.22581 27.7236C6.85809 27.8124 7.46188 28.0429 7.99158 28.3978C8.52128 28.7526 8.96306 29.2225 9.28364 29.772C9.82058 30.7568 10.7285 31.4891 11.8078 31.808C12.8872 32.1268 14.0496 32.0061 15.0396 31.4724H15.0995C15.1899 30.462 15.64 29.5169 16.3686 28.8075C11.9318 28.3004 7.26511 26.59 7.26511 18.9432C7.23345 16.9597 7.97064 15.0403 9.32365 13.5834C8.71014 11.8633 8.77803 9.97525 9.51351 8.30319C9.51351 8.30319 11.1923 7.76621 15.0096 10.3516C18.279 9.45043 21.7331 9.45043 25.0025 10.3516C28.8098 7.76621 30.4886 8.30319 30.4886 8.30319C31.2274 9.97398 31.2988 11.862 30.6885 13.5834C32.0379 15.0424 32.7746 16.9604 32.747 18.9432C32.747 26.6099 28.0703 28.3003 23.6235 28.7975C24.0997 29.2833 24.4663 29.8645 24.6989 30.5023C24.9315 31.1402 25.0248 31.8201 24.9725 32.4967C24.9725 35.1617 24.9725 37.3194 24.9725 37.9757C24.9725 38.632 25.3322 39.1292 26.3415 38.9701C28.8406 38.1312 31.1491 36.8105 33.135 35.0834C35.121 33.3564 36.7455 31.2568 37.9157 28.9047C39.0859 26.5527 39.779 23.9942 39.9552 21.3755C40.1314 18.7569 39.7872 16.1293 38.9426 13.6431C37.6091 9.68547 35.0639 6.24262 31.6642 3.7976C28.2644 1.35259 24.1807 0.028081 19.9861 0.0099536"
  />
</svg>
