<?xml version="1.0" encoding="UTF-8"?>
<svg viewBox="0 0 40 40" xmlns="http://www.w3.org/2000/svg">
  <path d="M9.62679 12.3779H1.47266V36H9.62679V12.3779Z" />
  <path
    d="M36.3676 14.5328C35.5029 13.6359 34.4489 12.9306 33.2775 12.4649C32.1062 11.9992 30.8451 11.7842 29.5803 11.8345C28.6173 11.8164 27.6571 11.9406 26.7326 12.2028C25.9576 12.4145 25.2301 12.7643 24.5872 13.2343C24.0836 13.6096 23.6137 14.0255 23.1823 14.4776C22.8336 14.8744 22.5163 15.2961 22.2331 15.7393V12.3778H14.1074V13.5198C14.1074 14.2842 14.1074 16.6418 14.1074 20.5742C14.1074 24.5066 14.1074 29.6639 14.1074 36H22.2331V22.8213C22.2058 22.1659 22.299 21.5111 22.5083 20.8874C22.8397 20.0886 23.3795 19.3872 24.0746 18.8521C24.8167 18.2922 25.7359 17.9992 26.6756 18.0232C27.2792 17.9802 27.884 18.0879 28.4324 18.3362C28.9808 18.5845 29.4545 18.9651 29.8081 19.4415C30.5158 20.63 30.846 21.9948 30.7574 23.3647V36H38.9685V22.4621C39.1737 19.5942 38.2435 16.7583 36.3676 14.5328Z"
  />
  <path
    d="M5.59216 1.00429C4.3723 0.952831 3.18002 1.36594 2.26975 2.15547C1.85432 2.52511 1.52571 2.97711 1.30624 3.48083C1.08676 3.98455 0.981525 4.52818 0.997715 5.07483C0.985225 5.61627 1.08841 6.15437 1.30079 6.65522C1.51317 7.15607 1.83014 7.60886 2.23174 7.98503C2.66916 8.37939 3.18328 8.68514 3.74399 8.88439C4.30469 9.08363 4.90071 9.17239 5.49719 9.14542C6.72699 9.19479 7.92849 8.77872 8.84811 7.98503C9.25863 7.61504 9.58221 7.16358 9.79679 6.6614C10.0114 6.15923 10.1119 5.61809 10.0916 5.07483C10.0978 4.53037 9.98889 3.99045 9.77176 3.48837C9.55463 2.98628 9.23384 2.53268 8.8291 2.15547C8.39434 1.76614 7.88454 1.46401 7.32903 1.26645C6.77351 1.06889 6.18328 0.979799 5.59216 1.00429Z"
  />
</svg>
