<?xml version="1.0" encoding="UTF-8"?>
<svg viewBox="0 0 40 40" xmlns="http://www.w3.org/2000/svg">
  <path
    d="M15.2295 20.2235C14.0122 21.1644 12.8125 22.0299 11.5865 22.9143C11.1287 23.2035 10.6109 23.3652 10.0802 23.3847C9.16792 23.4596 8.25091 23.338 7.38292 23.0272C5.50302 22.4 3.62897 21.732 1.76074 21.0232C1.49248 20.9358 1.2665 20.7396 1.13078 20.4761C0.995057 20.2125 0.960279 19.9025 1.03387 19.6119C1.08603 19.4123 1.18564 19.2308 1.32288 19.0851C1.78697 18.5913 2.34587 18.2124 2.96049 17.9749L5.70153 16.7236L8.63521 15.4064L20.2299 10.1377L25.7295 7.61614L30.7737 5.31111C31.5706 4.94418 32.3588 4.55841 33.1645 4.22911C33.7225 3.99979 34.3288 3.94118 34.9159 4.05976C35.2363 4.13159 35.5218 4.32539 35.7198 4.60547C35.9177 4.88555 36.0148 5.23304 35.9931 5.58393C35.9949 6.39131 35.9304 7.19729 35.8004 7.9925C35.6691 9.20619 35.4939 10.4199 35.3188 11.6242C34.9422 14.2773 32.4026 31.8994 32.2362 33.1601C32.1808 33.8282 31.9798 34.4728 31.6495 35.0418C31.4623 35.3725 31.1895 35.6376 30.8645 35.8047C30.5396 35.9717 30.1763 36.0336 29.8192 35.9827C28.9921 35.86 28.1951 35.566 27.4722 35.1171C26.6801 34.6272 25.9141 34.0901 25.1778 33.5083C24.1707 32.7744 23.1374 32.0782 22.1478 31.3161C20.3963 29.9989 18.6448 28.7382 17.0773 27.2799C16.6693 26.9575 16.3858 26.4854 16.2804 25.9533C16.2423 25.7416 16.2452 25.5238 16.2889 25.3133C16.3326 25.1029 16.4162 24.9044 16.5343 24.7301C16.912 24.2147 17.3375 23.7419 17.8041 23.3189C19.1177 21.9735 25.6419 15.1429 26.649 13.9951C26.9979 13.6079 27.2561 13.137 27.4022 12.6214C27.5423 12.1228 27.3496 11.9064 26.8942 12.0005C26.4038 12.123 25.938 12.3397 25.5193 12.6403C24.0481 13.5999 16.3504 19.3862 15.2295 20.2235Z"
  />
</svg>
