<?xml version="1.0" encoding="UTF-8"?>
<svg viewBox="0 0 60 60" xmlns="http://www.w3.org/2000/svg">
  <rect width="60" height="60" fill="#E2E2E2"></rect>
  <path
    d="M31 48.0019H29.8C28.474 48.0019 27.4 46.9279 27.4 45.6019V44.4019C27.4 43.0759 28.474 42.0019 29.8 42.0019H31C32.326 42.0019 33.4 43.0759 33.4 44.4019V45.6019C33.4 46.9279 32.326 48.0019 31 48.0019ZM33.4 37.8019C33.4 35.5459 34.726 34.1959 36.892 32.1739C39.1 30.1159 41.86 27.5479 41.794 23.2639C41.716 17.4499 37.144 12.5119 31.348 12.0379C24.634 11.4979 19 16.8019 19 23.4019C19 24.7279 20.074 25.8019 21.4 25.8019H22.6C23.926 25.8019 25 24.7279 25 23.4019C25 20.3959 27.466 17.9599 30.478 18.0019C32.65 18.0319 34.522 19.5019 35.356 21.5059C36.484 24.2239 35.422 25.3519 32.806 27.7879C30.526 29.9119 27.4 32.8219 27.4 37.8019C27.4 39.1279 28.474 40.2019 29.8 40.2019H31C32.326 40.2019 33.4 39.1279 33.4 37.8019Z"
    fill="#AAAAAA"
  />
</svg>
