<?xml version="1.0" encoding="UTF-8"?>
<svg viewBox="0 0 60 60" xmlns="http://www.w3.org/2000/svg">
  <rect width="60" height="60" fill="white"></rect>
  <path
    d="M30.8044 22.7047L30.5155 23.6388C30.6274 24.17 31.071 24.1577 31.2318 24.345C31.3967 24.6441 31.124 24.8782 31.358 25.159C31.765 25.1448 32.2514 25.275 32.6829 25.0674C33.5295 23.9237 34.3354 22.8064 35.182 21.7176C35.4791 21.337 35.6216 20.8873 35.8658 20.4843C35.992 20.2808 35.8923 20.0977 35.6379 20.0407L35.6562 20.0569C36.3563 18.9641 37.091 17.8916 37.7483 16.7743C38.5318 15.4453 39.1892 14.0411 40.0032 12.7264C41.0452 11.0433 42.1666 9.4071 43.294 7.77899C43.9779 6.78992 44.3808 6.72683 45.5205 7.23968C45.7342 7.33533 45.9519 7.42488 46.186 7.5246C46.3406 7.82173 46.5014 8.11479 46.648 8.41802C46.7497 8.62154 46.8331 8.84947 46.9593 9.14864C46.2491 10.1255 45.6772 11.2245 45.0646 12.3133C44.8754 11.8411 45.5246 11.5684 45.1827 11.0026C44.5538 11.4198 44.5721 12.1098 44.3198 12.7142C43.9127 13.0174 43.3938 13.3247 43.4141 13.9475C42.7059 14.3952 42.1279 14.847 41.7433 15.5756C41.3258 16.3072 40.7734 16.9529 40.1152 17.4784C39.863 17.6775 39.6569 17.9288 39.5111 18.2152C39.3653 18.5015 39.2832 18.816 39.2706 19.1371C39.2319 21.0053 38.3019 22.2447 36.5863 22.8858C36.1345 23.0547 36.0795 23.6693 35.528 23.6286C35.5951 23.9074 35.9472 23.9542 35.8841 24.2799C35.7722 24.5587 35.3713 24.5485 35.2288 24.8314C35.1922 25.0227 35.473 25.1977 35.2492 25.3971C35.0782 25.5498 34.9581 25.2649 34.7872 25.3402C34.6875 25.564 35.0172 25.6658 34.948 25.8835C34.8503 26.2315 34.372 26.087 34.2275 26.545V27.2206C34.0138 27.7945 33.5559 27.8596 33.1652 27.9675C31.9787 30.3364 31.8566 30.2306 29.5834 29.9131C30.2448 27.6745 29.445 25.5294 29.1153 23.364C28.81 21.3655 28.3948 19.3894 28.3826 17.3563C28.3826 16.9167 28.3602 16.4934 28.0509 16.119C27.7049 15.6957 27.7843 15.1523 27.7762 14.6557C27.7558 13.2067 27.8677 11.7495 27.3691 10.4165C28.1832 9.37047 31.0446 9.44169 32.4895 10.4613C32.6666 11.603 32.6218 11.9123 32.2351 12.5412C32.5404 14.1693 32.7297 15.6957 32.2657 17.2383C31.7203 17.3421 31.4679 16.5952 30.894 16.9249C30.7922 17.2668 30.6701 17.6453 30.8207 18.0523C30.669 18.122 30.5311 18.2185 30.4137 18.3373C30.5352 18.2254 30.6659 18.124 30.8044 18.034L31.3234 19.0516L30.7373 20.9931C30.375 21.0236 30.5134 20.5861 30.1898 20.5332C30.3282 21.0786 30.1145 21.6647 30.5826 22.1063H30.5704C30.7006 22.2936 30.9957 22.4218 30.7882 22.7169L30.8044 22.7047Z"
    fill="#FF0098"
  />
  <path
    d="M20.4409 46.4323C20.4233 46.5841 20.3755 46.731 20.3004 46.8641C20.2252 46.9973 20.1242 47.1141 20.0034 47.2077C19.0692 48.0217 18.4648 49.0739 17.7464 50.0568C17.2295 50.759 16.4887 51.2555 15.7316 51.8172C15.4854 52.3789 15.3063 53.1197 14.1523 53.0749C16.8692 48.7381 19.6838 44.6332 21.9245 40.0827C23.0479 39.0651 23.9719 37.6954 25.2866 36.6229C25.7499 36.6555 26.2077 36.7436 26.6501 36.8855C26.706 37.1834 26.706 37.4891 26.6501 37.787C26.4466 38.2551 26.3041 37.9173 26.1678 37.9905L25.9154 38.54L25.8849 38.6438C25.8218 38.7741 25.7058 38.8799 25.7038 39.0366V39.1465C25.6203 39.293 25.5715 39.4965 25.4473 39.5739C24.1286 40.3879 23.5017 41.7433 22.704 42.9624C22.3461 43.4493 21.9367 43.8962 21.4829 44.2954C21.1064 44.7919 21.5236 45.3374 21.0413 45.6386L21.0026 45.5795C20.9924 45.5572 21.0026 45.5795 21.0596 45.6243C21.0556 45.7509 21.0151 45.8736 20.9428 45.9776C20.8706 46.0817 20.7698 46.1625 20.6526 46.2104H20.563C20.5353 46.2218 20.5103 46.2387 20.4893 46.26C20.4683 46.2814 20.4518 46.3067 20.4409 46.3346V46.4323Z"
    fill="#FF0098"
  />
  <path
    d="M31.25 38.0475C31.3735 37.9722 31.518 37.9387 31.662 37.9519C31.8061 37.9651 31.942 38.0243 32.0498 38.1208C32.3551 38.597 32.1332 39.0875 32.2716 39.5332C33.3116 41.8105 33.4296 44.2608 33.566 46.7111C32.9839 43.7866 31.4026 41.1226 31.25 38.0475Z"
    fill="#FF0098"
  />
  <path
    d="M31.9376 33.0004C31.9487 33.093 31.9487 33.1866 31.9376 33.2792C31.8928 33.4827 31.8277 33.6638 31.7503 33.9162C30.3172 33.8325 28.8902 33.6653 27.4766 33.4155C27.5152 32.9698 27.7696 32.7846 27.9446 32.4733C29.2838 32.6401 30.6229 32.6055 31.9376 33.0004Z"
    fill="#FF0098"
  />
  <path
    d="M29.2722 30.5196C29.9845 30.4036 30.5747 30.5603 31.1608 30.6071C31.5679 30.9978 31.6737 31.4008 31.3338 31.9726L28.6759 31.7305C28.6251 31.1342 29.0646 30.9042 29.2722 30.5196Z"
    fill="#FF0098"
  />
  <path
    d="M28.4523 34.7649L27.9965 35.6054C27.3147 35.809 26.6838 35.6543 26.0488 35.4345C26.0488 34.9644 26.4559 34.8382 26.5963 34.5329C27.2699 34.4536 27.8377 34.6286 28.4523 34.7649Z"
    fill="#FF0098"
  />
  <path
    d="M31.3916 36.3156C30.7302 36.1569 30.889 35.6277 30.7363 35.2085C31.178 35.005 31.5178 35.0559 31.8027 35.412C31.8862 35.8068 31.7498 36.0816 31.3916 36.3156Z"
    fill="#FF0098"
  />
  <path
    d="M34.2562 49.6498C33.8268 48.9721 33.8634 48.2069 33.8125 47.3297L34.4027 48.2211C34.244 48.6845 34.1884 49.1769 34.2399 49.664L34.2562 49.6498Z"
    fill="#FF0098"
  />
</svg>
